<svg width="1451" height="1012" viewBox="0 0 1451 1012" fill="none" xmlns="http://www.w3.org/2000/svg">
<rect width="1451" height="1012" fill="#2B2B2B"/>
<path d="M441 268.5C441 355.485 370.485 426 283.5 426C196.515 426 126 355.485 126 268.5C126 181.515 196.515 111 283.5 111C370.485 111 441 181.515 441 268.5Z" fill="#0A2A66"/>
<path fill-rule="evenodd" clip-rule="evenodd" d="M283.5 420C367.171 420 435 352.171 435 268.5C435 184.829 367.171 117 283.5 117C199.829 117 132 184.829 132 268.5C132 352.171 199.829 420 283.5 420ZM283.5 426C370.485 426 441 355.485 441 268.5C441 181.515 370.485 111 283.5 111C196.515 111 126 181.515 126 268.5C126 355.485 196.515 426 283.5 426Z" fill="#F7F8FA"/>
<path d="M226.378 335.913L208 229.458C208 229.458 212.084 149.617 273.345 143.476C334.605 137.334 361.936 191.956 359.894 232.9C357.852 273.843 332.563 288.826 318.269 331.818C318.269 356.384 324.395 387.003 277.429 393.731C230.462 400.458 226.378 335.913 226.378 335.913Z" fill="#F7F8FA"/>
<path fill-rule="evenodd" clip-rule="evenodd" d="M298.598 185.406C315.165 190.903 324.979 209.683 319.875 236.626C319.302 239.653 316.383 241.642 313.356 241.069C310.33 240.495 308.341 237.577 308.914 234.55C313.408 210.827 304.413 199.09 295.085 195.995C285.396 192.779 271.461 197.404 263.005 214.105C258.88 222.252 256.689 232.579 256.024 243.63C256.894 243.798 257.911 244.011 259.043 244.277C262.774 245.152 267.847 246.619 273.146 248.996C283.571 253.673 296.018 262.426 299.311 278.203C302.168 291.897 302.039 303.988 298.219 312.97C296.271 317.549 293.327 321.392 289.3 324.066C285.271 326.742 280.499 328.022 275.265 328.022C271.051 328.022 267.544 325.783 264.894 323.176C262.197 320.523 259.805 316.937 257.711 312.898C253.506 304.787 249.993 293.856 247.677 281.968C243.09 258.429 242.845 229.225 253.052 209.066C263.345 188.736 282.392 180.029 298.598 185.406ZM255.854 254.991C256.062 255.037 256.276 255.086 256.495 255.138C259.75 255.901 264.106 257.169 268.58 259.175C277.701 263.266 286.176 269.876 288.39 280.482C291.038 293.172 290.493 302.632 287.953 308.604C286.72 311.503 285.063 313.488 283.128 314.773C281.197 316.056 278.649 316.866 275.265 316.866C275.169 316.866 274.319 316.799 272.718 315.223C271.164 313.694 269.409 311.223 267.615 307.762C264.043 300.873 260.809 291.033 258.627 279.835C257.063 271.812 256.085 263.339 255.854 254.991Z" fill="#0A2A66"/>
<path d="M883 268.5C883 355.485 812.485 426 725.5 426C638.515 426 568 355.485 568 268.5C568 181.515 638.515 111 725.5 111C812.485 111 883 181.515 883 268.5Z" fill="#0A2A66"/>
<path fill-rule="evenodd" clip-rule="evenodd" d="M725.5 420C809.171 420 877 352.171 877 268.5C877 184.829 809.171 117 725.5 117C641.829 117 574 184.829 574 268.5C574 352.171 641.829 420 725.5 420ZM725.5 426C812.485 426 883 355.485 883 268.5C883 181.515 812.485 111 725.5 111C638.515 111 568 181.515 568 268.5C568 355.485 638.515 426 725.5 426Z" fill="#F7F8FA"/>
<path d="M698.211 211C676.644 211 592 255.184 592 255.184C592 255.184 655.727 322.343 730.074 325.878C804.422 329.412 859.297 255.184 859.297 255.184C859.297 255.184 788.49 211 765.478 211C742.465 211 736.04 224.359 730.074 232.208C723.843 226.101 719.778 211 698.211 211Z" fill="#F7F8FA"/>
<path d="M724.708 285.595C746.182 285.595 790.92 263.147 790.92 263.147C790.92 263.147 753.34 254.513 728.287 254.513C703.233 254.513 672.812 263.147 672.812 263.147C672.812 263.147 703.233 285.595 724.708 285.595Z" fill="#0A2A66"/>
<path d="M438 743.5C438 828.828 368.828 898 283.5 898C198.172 898 129 828.828 129 743.5C129 658.172 198.172 589 283.5 589C368.828 589 438 658.172 438 743.5Z" fill="#0A2A66" stroke="#F7F8FA" stroke-width="6"/>
<path d="M291.631 681.1C222.389 684.247 150 750.341 150 750.341C150 750.341 205.079 806.994 291.631 806.994C378.183 806.994 417.525 750.341 417.525 750.341C417.525 750.341 360.872 677.952 291.631 681.1Z" fill="#F7F8FA"/>
<ellipse cx="293.205" cy="747.194" rx="48.7839" ry="47.2102" fill="#0A2A66"/>
<circle cx="297.925" cy="747.194" r="22.0314" fill="black"/>
<path d="M883 743.5C883 830.485 812.485 901 725.5 901C638.515 901 568 830.485 568 743.5C568 656.515 638.515 586 725.5 586C812.485 586 883 656.515 883 743.5Z" fill="#0A2A66"/>
<path fill-rule="evenodd" clip-rule="evenodd" d="M725.5 895C809.171 895 877 827.171 877 743.5C877 659.829 809.171 592 725.5 592C641.829 592 574 659.829 574 743.5C574 827.171 641.829 895 725.5 895ZM725.5 901C812.485 901 883 830.485 883 743.5C883 656.515 812.485 586 725.5 586C638.515 586 568 656.515 568 743.5C568 830.485 638.515 901 725.5 901Z" fill="#F7F8FA"/>
<path d="M636.828 741.915C654.718 741.915 657.314 758.345 672.678 769.297C676.337 741.915 658.693 640.383 671.216 631.7C679.821 625.734 691.629 631.7 698.289 637.861C704.142 631.016 699.751 621.432 712.191 619.377C724.63 617.323 727.671 625.113 734.141 631.7C740.726 626.223 737.065 620.748 750.968 620.062C764.872 619.377 763.408 648.815 767.798 656.345C767.798 643.134 780.969 639.915 789.017 646.076C797.066 652.238 802.284 731.271 800.724 763.822C799.164 796.372 797.518 828.171 789.748 839.807C779.234 855.554 759.663 866.602 735.605 865.822C709.774 864.984 692.005 856.786 682.923 850.76C672.087 843.57 656.581 818.332 639.754 789.15C619.998 761.082 626.585 741.915 636.828 741.915Z" fill="#F7F8FA"/>
<path d="M696.702 607.713L701.164 724.847" stroke="#0A2A66" stroke-width="10" stroke-linecap="round" stroke-linejoin="round"/>
<path d="M733.265 607.713L733.967 723.238" stroke="#0A2A66" stroke-width="10" stroke-linecap="round" stroke-linejoin="round"/>
<path d="M765.344 614.844L768.196 731.795" stroke="#0A2A66" stroke-width="10" stroke-linecap="round" stroke-linejoin="round"/>
<path d="M1325 268.5C1325 355.485 1254.48 426 1167.5 426C1080.52 426 1010 355.485 1010 268.5C1010 181.515 1080.52 111 1167.5 111C1254.48 111 1325 181.515 1325 268.5Z" fill="#0A2A66"/>
<path fill-rule="evenodd" clip-rule="evenodd" d="M1167.5 420C1251.17 420 1319 352.171 1319 268.5C1319 184.829 1251.17 117 1167.5 117C1083.83 117 1016 184.829 1016 268.5C1016 352.171 1083.83 420 1167.5 420ZM1167.5 426C1254.48 426 1325 355.485 1325 268.5C1325 181.515 1254.48 111 1167.5 111C1080.52 111 1010 181.515 1010 268.5C1010 355.485 1080.52 426 1167.5 426Z" fill="#F7F8FA"/>
<ellipse cx="1168" cy="177.724" rx="25.3793" ry="23.7241" fill="#F7F8FA"/>
<path d="M1142.62 223.517H1192.28V285.31L1176.83 297.448C1176.83 297.448 1170.54 291.931 1167.45 291.931C1164.37 291.931 1158.07 297.448 1158.07 297.448L1142.62 285.31V223.517Z" fill="#F7F8FA"/>
<path fill-rule="evenodd" clip-rule="evenodd" d="M1117.76 367.319L1142.62 285.31L1168.04 292.13L1141 374.337C1139.06 380.754 1132.29 384.385 1125.87 382.447C1119.46 380.509 1115.82 373.736 1117.76 367.319Z" fill="#F7F8FA"/>
<path fill-rule="evenodd" clip-rule="evenodd" d="M1217.14 367.319L1192.28 285.31L1166.87 292.13L1193.9 374.337C1195.84 380.754 1202.61 384.385 1209.03 382.447C1215.45 380.509 1219.08 373.736 1217.14 367.319Z" fill="#F7F8FA"/>
<path fill-rule="evenodd" clip-rule="evenodd" d="M1072 222.414C1072 215.71 1077.43 210.276 1084.14 210.276H1251.86C1258.57 210.276 1264 215.71 1264 222.414C1264 229.117 1258.57 234.552 1251.86 234.552H1084.14C1077.43 234.552 1072 229.117 1072 222.414Z" fill="#F7F8FA"/>
</svg>
