<svg width="668" height="668" viewBox="0 0 668 668" fill="none" xmlns="http://www.w3.org/2000/svg">
<rect width="668" height="668" fill="#234B22"/>
<path d="M181 77.4998C181 77.4998 198.1 68.5005 209.5 73.0002C220.899 77.4999 219.5 89.4998 219.5 89.4998C219.5 89.4998 210.5 109 195 112C184 119 167.841 110.148 162 94.9999C158.373 85.5946 144 84.9995 146.5 77.4998C160.5 66.9995 181 77.4998 181 77.4998Z" fill="#00A60E"/>
<path d="M165.842 231.604C165.842 244.104 182.842 257.104 182.842 257.104L197.342 269.604C197.342 269.604 202.342 247.604 197.342 240.104C192.342 232.604 174.342 229.604 165.842 231.604Z" fill="#74C97B"/>
<path d="M267.639 572.847C269.381 558.477 287.842 541.642 287.842 541.642L261.021 540L256.842 547.801C256.842 547.801 265.898 587.218 267.639 572.847Z" fill="#A37500"/>
<path d="M259.218 510.482C247.898 505.535 210.842 497.547 210.842 517.605C210.842 529.561 217.565 541.365 217.565 541.365C217.565 541.365 228.206 529.436 239.512 531.096C250.818 532.757 257.447 546.005 257.447 546.005C257.447 546.005 281.412 552.231 287.772 542.685C294.131 533.139 270.539 515.43 259.218 510.482Z" fill="#F6B304"/>
<path d="M223.233 553C215.798 548.067 210.842 516 210.842 516C210.842 516 215.798 527.1 224.059 528.333C232.32 529.567 248.842 520.933 248.842 520.933C248.842 520.933 239.755 553 223.233 553Z" fill="#A37500"/>
<path d="M198.842 374.5C186.842 384 190.342 397.5 190.342 397.5L237.342 430V387C237.342 387 210.842 365 198.842 374.5Z" fill="#74C97B"/>
<path d="M170.842 255.5C170.842 255.5 167.842 243.5 157.842 250C162.342 254 163.464 256.104 159.464 260.604C155.464 265.104 154.711 271 156.842 277.5C158.973 284 162.342 288 162.342 288C162.342 288 148.964 292.104 154.964 302.104C160.964 295.104 175.464 307.604 191.464 309.104C207.464 310.604 236.842 293.5 236.842 293.5C236.842 293.5 222.342 295 216.342 292.5C210.342 290 205.464 286.208 205.464 279.604C205.464 273 210.342 269 220.342 271C210.842 252.5 198.464 264.604 198.464 264.604C198.464 264.604 193.842 242.5 182.342 242.5C170.842 242.5 170.842 255.5 170.842 255.5Z" fill="#00A60E"/>
<path d="M235 298.5C235 298.5 204.575 307.221 185 298.443C174.989 293.954 163.816 281.196 165 268M235 298.5C235 298.5 206.639 304.36 191 290.563C183.797 284.209 179.293 269.686 181.5 252.5M235 298.5C235 298.5 201.5 302.186 199 280.5" stroke="#F7B304" stroke-width="2" stroke-linecap="round" stroke-linejoin="round"/>
<path fill-rule="evenodd" clip-rule="evenodd" d="M291.342 207.5C267.342 204.5 264.842 223.5 264.842 223.5C264.842 223.5 238.342 215 238.342 231.5C244.526 227.862 245.862 230.166 247.925 233.723C248.698 235.055 249.572 236.563 250.842 238C255.5 243.274 260.342 241.5 260.342 241.5C260.342 241.5 250.842 245 242.842 256C250.842 263 271.5 263 271.5 263C271.5 263 261.5 274 248.5 279.5C237.807 284.024 214.829 285.165 207.01 285.428C208.913 288.639 212.383 290.85 216.342 292.5C222.342 295 236.842 293.5 236.842 293.5C236.842 293.5 230.383 297.26 221.872 301.1C213.976 305.482 184.676 321.431 177.342 321C168.842 320.5 167.342 318 165.342 311C154.842 316 162.342 327 162.342 327C162.342 327 157.842 326.5 154.342 328.5C150.842 330.5 140.342 339.5 140.342 339.5L152.342 344C152.342 344 145.842 348.5 148.842 355C149.302 354.951 149.819 354.902 150.376 354.848C155.036 354.401 162.555 353.68 164.342 351C166.342 348 170.159 342.771 172.342 345.5C173.792 347.313 170.909 350.535 166.332 355.652C163.588 358.719 160.235 362.467 156.842 367C150.281 375.763 156.842 394.5 156.842 394.5C156.842 394.5 162.342 377 172.342 371C182.342 365 195.342 348 195.342 348C195.342 348 193.342 363 199.842 367C199.842 367 210.342 350.5 210.342 336.5C234.842 331 324.842 311 324.842 311V250C324.842 250 316.842 238 298.342 238C279.842 238 284.842 218 291.342 207.5Z" fill="#74C97B"/>
<path d="M145.842 392C145.842 374 167.842 354 167.842 354C167.842 354 153.842 380 158.342 392C162.842 404 184.342 437 193.842 429C203.342 421 200.342 410.5 195.342 408C190.342 405.5 180.342 410 180.342 410C180.342 410 176.342 404 180.342 397.5C184.342 391 197.842 399.5 197.842 399.5C197.842 399.5 199.842 387.5 207.842 380.5C204.842 389 212.342 399.5 212.342 399.5C212.342 399.5 218.844 388.631 225.842 387C218.342 405.5 227.342 411 222.342 422C217.342 433 206.342 437 206.342 437C206.342 437 225.342 435 237.842 437C250.342 439 258.342 442.5 252.842 462C245.842 447.5 245.342 449.762 236.842 453C230.158 455.546 226.256 455.325 224.894 455.114C226.432 455.604 230.972 458.204 235.842 472C241.842 489 230.342 517 230.342 517C230.342 517 231.342 505.5 225.842 500.5C220.342 495.5 214.842 475 214.842 475C214.842 475 215.342 485.5 209.842 485.5C209.842 477 198.842 473.5 198.842 473.5C198.842 473.5 189.842 493.5 193.842 499C184.342 499 184.342 490.5 184.342 490.5C184.342 490.5 171.342 496 167.842 499C163.993 502.299 167.842 509.5 167.842 509.5C167.842 509.5 156.17 507.035 154.342 499C152.616 491.42 162.842 481 162.842 481C162.842 481 153.201 477.362 150.842 472C147.482 464.365 154.842 451 158.342 452C161.842 453 160.842 463 160.842 463C160.842 463 167.063 460.968 167.842 450.5C169.48 428.468 145.842 410 145.842 392Z" fill="#00A60E"/>
<path d="M177.5 106C187.5 113 197 102 198.5 106M172.5 94.4999C180.5 108 191 97.5 200 99.5M184 91C191.5 98 201 89.0001 204.5 95.5" stroke="#F7B304" stroke-width="2" stroke-linecap="round"/>
<path d="M487.621 77.4998C487.621 77.4998 470.521 68.5005 459.121 73.0002C447.722 77.4999 449.121 89.4998 449.121 89.4998C449.121 89.4998 458.121 109 473.621 112C484.621 119 500.78 110.148 506.621 94.9999C510.248 85.5946 524.621 84.9995 522.121 77.4998C508.121 66.9995 487.621 77.4998 487.621 77.4998Z" fill="#00A60E"/>
<path d="M491.122 106C481.122 113 471.622 102 470.122 106M496.122 94.4999C488.122 108 477.622 97.5 468.622 99.5M484.622 91C477.122 98 467.622 89.0001 464.122 95.5" stroke="#F7B304" stroke-width="2" stroke-linecap="round"/>
<path fill-rule="evenodd" clip-rule="evenodd" d="M213.085 123.373C207.557 124.13 202.73 121.525 198.42 116.855C192.42 110.355 195.994 98.855 201.92 93.855C207.846 88.855 222.624 85.855 228.42 94.355C232.434 100.243 230.887 108.289 226.733 114.34C228.586 121.331 230.841 131.226 230.841 138C230.841 149.5 220.841 168 220.841 168L208.341 157C208.341 157 217.841 144.5 212.841 123.5C212.923 123.458 213.004 123.415 213.085 123.373ZM193.341 175L205.841 185C205.841 185 194.341 197.5 194.341 207.5C194.341 217.5 205.341 226.862 217.341 219C229.342 211.138 213.341 186.5 205.341 180C197.341 173.5 178.341 159.5 160.841 165.5C143.341 171.5 139.341 186 143.341 193.5C145.341 188.5 150.341 184.5 155.841 186C161.545 187.556 166.341 180 166.341 180C166.341 180 168.341 191.5 164.341 199C160.341 206.5 153.341 207.5 153.341 207.5C153.341 207.5 171.341 207.5 168.341 221.5C165.637 221.5 164.456 220.89 163.425 220.358C162.17 219.71 161.137 219.176 157.841 220C156.894 220.237 156.008 220.399 155.187 220.549C150.81 221.351 148.262 221.817 147.841 231.5C147.341 243 158.5 250.5 158.5 250.5C158.5 250.5 167 256.5 162.841 264C158.683 271.5 160 283.5 170.5 293C163.555 293.992 160.915 296.516 158.188 299.124C156.792 300.458 155.373 301.815 153.341 303C147.341 306.5 143.341 303 143.341 303C143.341 303 143.341 293 149.841 291C148.073 288.726 146.56 289.389 144.528 290.278C142.539 291.149 140.052 292.237 136.341 291C128.841 288.5 122.341 271.5 122.341 271.5C122.341 271.5 130.841 274 136.341 270.5C141.841 267 151.841 274 151.841 274C151.841 274 125.341 242.5 121.341 223.5C117.341 204.5 121.341 164.5 146.341 153C171.341 141.5 185.841 149 198.841 156C211.841 163 228.664 178.5 232.841 197C237.019 215.5 234.841 226.5 220.841 234C206.841 241.5 181.341 232.5 177.341 211.5C173.341 190.5 193.341 175 193.341 175Z" fill="#74C97B"/>
<path d="M210 104L225 91M220 104L229 96" stroke="#FEE500" stroke-width="2" stroke-linecap="round"/>
<path d="M160.5 413C168.5 423 180 448.5 180 448.5C180 448.5 180 474 168 486.5" stroke="#F7B304" stroke-width="2" stroke-linecap="round"/>
<path d="M190.5 471.5C193 460.5 180 448 180 448" stroke="#F7B304" stroke-width="2" stroke-linecap="round"/>
<path d="M210.5 406C214 427.5 203.5 427.5 203.5 427.5" stroke="#F7B304" stroke-width="2" stroke-linecap="round"/>
<path d="M179 434.5C192 456.5 217.5 453.5 227 476" stroke="#F7B304" stroke-width="2" stroke-linecap="round"/>
<path d="M203 446C213.5 442.5 222 448.5 222 448.5" stroke="#F7B304" stroke-width="2" stroke-linecap="round"/>
<path d="M275 220C268.5 237 306 249.5 306 249.5M262 251.5C274 244.5 291.5 252.264 291.5 252.264M172.5 361C212 304.5 260 313 260 313M161.5 335.5C168.5 326.213 191 326.213 191 326.213M227.5 315.961L191 326.213M178 339L191 326.213" stroke="#FEE500" stroke-width="2" stroke-linecap="round"/>
<path d="M152.5 197.5C139 199.5 135 241.5 140.5 247" stroke="#FEE500" stroke-width="2" stroke-linecap="round"/>
<path d="M149 215.5L140 222.5" stroke="#FEE500" stroke-width="2" stroke-linecap="round"/>
<path d="M132.5 207.5C128 225.5 138 236 138 236" stroke="#FEE500" stroke-width="2" stroke-linecap="round"/>
<path d="M200 179.5C200 179.5 183 193.5 185.5 211M215 161.5C215 161.5 226 148.5 223.5 133" stroke="#FEE500" stroke-width="2" stroke-linecap="round"/>
<path d="M261 233C266.5 243.5 286 240 286 240" stroke="#FEE500" stroke-width="2" stroke-linecap="round"/>
<path d="M505.78 231.604C505.78 244.104 488.78 257.104 488.78 257.104L474.28 269.604C474.28 269.604 469.28 247.604 474.28 240.104C479.28 232.604 497.28 229.604 505.78 231.604Z" fill="#74C97B"/>
<path d="M399.982 572.847C398.24 558.477 379.78 541.642 379.78 541.642L406.6 540L410.78 547.801C410.78 547.801 401.724 587.218 399.982 572.847Z" fill="#A37500"/>
<path d="M409.403 510.482C420.724 505.535 457.78 497.547 457.78 517.605C457.78 529.561 451.056 541.365 451.056 541.365C451.056 541.365 440.415 529.436 429.109 531.096C417.803 532.757 411.175 546.005 411.175 546.005C411.175 546.005 387.209 552.231 380.85 542.685C374.49 533.139 398.082 515.43 409.403 510.482Z" fill="#F6B304"/>
<path d="M445.388 553C452.823 548.067 457.78 516 457.78 516C457.78 516 452.823 527.1 444.562 528.333C436.302 529.567 419.78 520.933 419.78 520.933C419.78 520.933 428.867 553 445.388 553Z" fill="#A37500"/>
<path d="M469.78 374.5C481.78 384 478.28 397.5 478.28 397.5L431.28 430V387C431.28 387 457.78 365 469.78 374.5Z" fill="#74C97B"/>
<path d="M497.78 255.5C497.78 255.5 500.78 243.5 510.78 250C506.28 254 505.157 256.104 509.157 260.604C513.157 265.104 513.911 271 511.78 277.5C509.649 284 506.28 288 506.28 288C506.28 288 519.657 292.104 513.657 302.104C507.657 295.104 493.157 307.604 477.157 309.104C461.157 310.604 431.78 293.5 431.78 293.5C431.78 293.5 446.28 295 452.28 292.5C458.28 290 463.157 286.208 463.157 279.604C463.157 273 458.28 269 448.28 271C457.78 252.5 470.157 264.604 470.157 264.604C470.157 264.604 474.78 242.5 486.28 242.5C497.78 242.5 497.78 255.5 497.78 255.5Z" fill="#00A60E"/>
<path d="M433.621 298.5C433.621 298.5 464.046 307.221 483.621 298.443C493.632 293.954 504.806 281.196 503.621 268M433.621 298.5C433.621 298.5 461.982 304.36 477.621 290.563C484.824 284.209 489.329 269.686 487.121 252.5M433.621 298.5C433.621 298.5 467.121 302.186 469.621 280.5" stroke="#F7B304" stroke-width="2" stroke-linecap="round" stroke-linejoin="round"/>
<path fill-rule="evenodd" clip-rule="evenodd" d="M377.28 207.5C401.28 204.5 403.78 223.5 403.78 223.5C403.78 223.5 430.28 215 430.28 231.5C424.096 227.862 422.759 230.166 420.696 233.723C419.924 235.055 419.049 236.563 417.78 238C413.121 243.274 408.28 241.5 408.28 241.5C408.28 241.5 417.78 245 425.78 256C417.78 263 397.121 263 397.121 263C397.121 263 407.121 274 420.121 279.5C430.814 284.024 453.792 285.165 461.611 285.428C459.709 288.639 456.239 290.85 452.28 292.5C446.28 295 431.78 293.5 431.78 293.5C431.78 293.5 438.239 297.26 446.749 301.1C454.645 305.482 483.945 321.431 491.28 321C499.78 320.5 501.28 318 503.28 311C513.78 316 506.28 327 506.28 327C506.28 327 510.78 326.5 514.28 328.5C517.78 330.5 528.28 339.5 528.28 339.5L516.28 344C516.28 344 522.78 348.5 519.78 355C519.319 354.951 518.803 354.902 518.246 354.848C513.585 354.401 506.066 353.68 504.28 351C502.28 348 498.463 342.771 496.28 345.5C494.83 347.313 497.712 350.535 502.29 355.652C505.034 358.719 508.386 362.467 511.78 367C518.341 375.763 511.78 394.5 511.78 394.5C511.78 394.5 506.28 377 496.28 371C486.28 365 473.28 348 473.28 348C473.28 348 475.28 363 468.78 367C468.78 367 458.28 350.5 458.28 336.5C433.78 331 343.78 311 343.78 311V250C343.78 250 351.78 238 370.28 238C388.78 238 383.78 218 377.28 207.5Z" fill="#74C97B"/>
<path d="M522.78 392C522.78 374 500.78 354 500.78 354C500.78 354 514.78 380 510.28 392C505.78 404 484.28 437 474.78 429C465.28 421 468.28 410.5 473.28 408C478.28 405.5 488.28 410 488.28 410C488.28 410 492.28 404 488.28 397.5C484.28 391 470.78 399.5 470.78 399.5C470.78 399.5 468.78 387.5 460.78 380.5C463.78 389 456.28 399.5 456.28 399.5C456.28 399.5 449.777 388.631 442.78 387C450.28 405.5 441.28 411 446.28 422C451.28 433 462.28 437 462.28 437C462.28 437 443.28 435 430.78 437C418.28 439 410.28 442.5 415.78 462C422.78 447.5 423.28 449.762 431.78 453C438.464 455.546 442.365 455.325 443.727 455.114C442.189 455.604 437.649 458.204 432.78 472C426.78 489 438.28 517 438.28 517C438.28 517 437.28 505.5 442.78 500.5C448.28 495.5 453.78 475 453.78 475C453.78 475 453.28 485.5 458.78 485.5C458.78 477 469.78 473.5 469.78 473.5C469.78 473.5 478.78 493.5 474.78 499C484.28 499 484.28 490.5 484.28 490.5C484.28 490.5 497.28 496 500.78 499C504.629 502.299 500.78 509.5 500.78 509.5C500.78 509.5 512.451 507.035 514.28 499C516.005 491.42 505.78 481 505.78 481C505.78 481 515.42 477.362 517.78 472C521.14 464.365 513.78 451 510.28 452C506.78 453 507.78 463 507.78 463C507.78 463 501.558 460.968 500.78 450.5C499.142 428.468 522.78 410 522.78 392Z" fill="#00A60E"/>
<path fill-rule="evenodd" clip-rule="evenodd" d="M455.537 123.373C461.065 124.13 465.891 121.525 470.202 116.855C476.202 110.355 472.628 98.855 466.702 93.855C460.776 88.855 445.997 85.855 440.202 94.355C436.188 100.243 437.734 108.289 441.889 114.34C440.035 121.331 437.78 131.226 437.78 138C437.78 149.5 447.78 168 447.78 168L460.28 157C460.28 157 450.78 144.5 455.78 123.5C455.698 123.458 455.617 123.415 455.537 123.373ZM475.28 175L462.78 185C462.78 185 474.28 197.5 474.28 207.5C474.28 217.5 463.28 226.862 451.28 219C439.28 211.138 455.28 186.5 463.28 180C471.28 173.5 490.28 159.5 507.78 165.5C525.28 171.5 529.28 186 525.28 193.5C523.28 188.5 518.28 184.5 512.78 186C507.076 187.556 502.28 180 502.28 180C502.28 180 500.28 191.5 504.28 199C508.28 206.5 515.28 207.5 515.28 207.5C515.28 207.5 497.28 207.5 500.28 221.5C502.985 221.5 504.166 220.89 505.196 220.358C506.452 219.71 507.485 219.176 510.78 220C511.728 220.237 512.614 220.399 513.435 220.549C517.811 221.351 520.359 221.817 520.78 231.5C521.28 243 510 250.5 510 250.5C510 250.5 502 256.5 505.78 264L505.917 264.271L506.095 264.623C509.729 271.81 512.487 277.265 502.28 286.5C508.455 287.382 509.788 291.723 511.059 295.861C511.949 298.759 512.809 301.558 515.28 303C521.28 306.5 525.28 303 525.28 303C525.28 303 525.28 293 518.78 291C520.549 288.726 522.062 289.389 524.094 290.278C526.083 291.149 528.57 292.237 532.28 291C539.78 288.5 546.28 271.5 546.28 271.5C546.28 271.5 537.78 274 532.28 270.5C526.78 267 516.78 274 516.78 274C516.78 274 543.28 242.5 547.28 223.5C551.28 204.5 547.28 164.5 522.28 153C497.28 141.5 482.78 149 469.78 156C456.78 163 439.958 178.5 435.78 197C431.603 215.5 433.78 226.5 447.78 234C461.78 241.5 487.28 232.5 491.28 211.5C495.28 190.5 475.28 175 475.28 175Z" fill="#74C97B"/>
<path d="M458.622 104L443.622 91M448.622 104L439.622 96" stroke="#FEE500" stroke-width="2" stroke-linecap="round"/>
<path d="M508.122 413C500.122 423 488.622 448.5 488.622 448.5C488.622 448.5 488.622 474 500.622 486.5" stroke="#F7B304" stroke-width="2" stroke-linecap="round"/>
<path d="M254.14 564.309C256.252 558.999 251.325 551.276 257.66 545C258.716 554.172 266.441 563.141 290.868 567.822C315.294 572.504 335.529 572.557 370.628 567.237C397.154 563.217 401.535 560.215 409.511 546.756C413.997 554.363 408.992 559.202 407.517 567.822C406.74 572.36 413 578.044 413 583.037C404.027 593.571 363.42 610.987 326.76 609.956C288.087 608.869 248.039 585.067 247.101 577.343C246.162 569.619 252.028 569.619 254.14 564.309Z" fill="#F7B304"/>
<path d="M262.408 583.063L262.861 581.787L263.783 581.975L271.558 572.731L273.587 573.451L273.748 585.51L274.581 585.946L274.129 587.222L270.294 585.861L270.746 584.585L271.664 584.734L271.699 582.61L267.209 581.018L265.882 582.682L266.696 583.148L266.243 584.424L262.408 583.063ZM268.323 579.613L271.728 580.821L271.746 575.801L271.753 575.439L271.703 575.422L271.467 575.72L268.323 579.613Z" fill="#163916"/>
<path d="M280.541 589.092C279.684 588.852 278.993 588.449 278.47 587.883C277.954 587.313 277.621 586.635 277.469 585.851C277.325 585.062 277.379 584.216 277.631 583.313L277.714 583.017C277.962 582.131 278.352 581.388 278.885 580.789C279.418 580.19 280.052 579.78 280.789 579.56C281.533 579.337 282.334 579.345 283.192 579.585C283.976 579.804 284.623 580.122 285.134 580.538C285.645 580.949 286.035 581.393 286.304 581.87L285.628 584.318L284.003 583.864L284.142 582.159C284.029 581.951 283.865 581.766 283.65 581.602C283.435 581.432 283.184 581.307 282.897 581.227C282.428 581.096 281.992 581.111 281.588 581.272C281.19 581.434 280.84 581.716 280.539 582.119C280.245 582.517 280.014 583.016 279.847 583.614L279.764 583.91C279.584 584.553 279.52 585.119 279.572 585.608C279.624 586.098 279.773 586.498 280.02 586.811C280.273 587.125 280.603 587.339 281.009 587.452C281.5 587.59 281.935 587.568 282.314 587.389C282.698 587.21 283.004 586.9 283.231 586.459L285.076 586.975L285.087 587.033C284.852 587.612 284.525 588.095 284.107 588.483C283.695 588.867 283.193 589.119 282.599 589.239C282.012 589.36 281.326 589.312 280.541 589.092Z" fill="#163916"/>
<path d="M291.945 591.805C291.074 591.618 290.361 591.257 289.804 590.724C289.255 590.186 288.881 589.53 288.682 588.756C288.49 587.977 288.492 587.13 288.69 586.213L288.755 585.912C288.948 585.013 289.293 584.248 289.788 583.618C290.284 582.987 290.893 582.54 291.615 582.276C292.344 582.007 293.144 581.967 294.014 582.154C294.811 582.326 295.476 582.604 296.01 582.989C296.546 583.368 296.962 583.787 297.259 584.247L296.733 586.732L295.083 586.376L295.119 584.667C294.994 584.466 294.819 584.291 294.594 584.14C294.37 583.984 294.111 583.875 293.819 583.812C293.344 583.709 292.909 583.751 292.516 583.936C292.128 584.122 291.796 584.425 291.52 584.845C291.251 585.26 291.051 585.772 290.92 586.379L290.855 586.68C290.714 587.333 290.685 587.902 290.766 588.387C290.847 588.872 291.021 589.263 291.287 589.56C291.558 589.858 291.9 590.051 292.312 590.14C292.811 590.247 293.244 590.2 293.611 589.997C293.984 589.796 294.27 589.468 294.47 589.014L296.343 589.417L296.358 589.474C296.158 590.066 295.861 590.569 295.467 590.981C295.079 591.389 294.593 591.671 294.008 591.827C293.429 591.984 292.741 591.977 291.945 591.805Z" fill="#163916"/>
<path d="M303.573 593.831C302.687 593.698 301.943 593.385 301.341 592.892C300.746 592.394 300.319 591.767 300.059 591.011C299.805 590.256 299.746 589.426 299.882 588.522L299.937 588.157C300.074 587.242 300.373 586.454 300.834 585.794C301.301 585.13 301.878 584.642 302.564 584.33C303.252 584.013 303.995 583.914 304.795 584.034C305.647 584.162 306.334 584.44 306.856 584.868C307.384 585.297 307.749 585.849 307.95 586.525C308.151 587.195 308.186 587.97 308.054 588.851L307.866 590.103L302.094 589.236L302.07 589.277C302.02 589.773 302.055 590.226 302.178 590.635C302.306 591.046 302.521 591.386 302.824 591.657C303.133 591.928 303.531 592.101 304.018 592.174C304.527 592.25 305.001 592.25 305.44 592.174C305.878 592.097 306.293 591.958 306.684 591.756L307.165 593.233C306.747 593.49 306.235 593.683 305.629 593.811C305.023 593.939 304.338 593.946 303.573 593.831ZM302.36 587.703L306.002 588.25L306.036 588.024C306.098 587.613 306.088 587.244 306.006 586.918C305.932 586.586 305.774 586.314 305.534 586.1C305.299 585.887 304.979 585.75 304.573 585.689C304.22 585.636 303.895 585.688 303.599 585.845C303.303 586.002 303.048 586.239 302.834 586.557C302.627 586.869 302.463 587.236 302.341 587.656L302.36 587.703Z" fill="#163916"/>
<path d="M315.702 595.179C315.025 595.121 314.397 595.002 313.818 594.823C313.246 594.638 312.676 594.392 312.109 594.085L312.298 591.578L313.883 591.714L314.098 593.109C314.34 593.242 314.589 593.351 314.846 593.438C315.11 593.52 315.405 593.574 315.732 593.602C316.362 593.657 316.816 593.584 317.092 593.384C317.373 593.185 317.528 592.922 317.556 592.595C317.584 592.28 317.47 592 317.214 591.754C316.965 591.503 316.465 591.263 315.715 591.034C314.603 590.691 313.799 590.263 313.302 589.75C312.812 589.231 312.599 588.596 312.664 587.843C312.709 587.323 312.886 586.865 313.197 586.468C313.513 586.072 313.951 585.771 314.509 585.567C315.074 585.357 315.751 585.285 316.539 585.353C317.257 585.415 317.887 585.546 318.428 585.745C318.976 585.939 319.435 586.176 319.805 586.455L319.65 588.867L318.083 588.732L317.919 587.457C317.749 587.313 317.548 587.196 317.315 587.105C317.081 587.014 316.81 586.956 316.5 586.929C316.016 586.887 315.624 586.962 315.325 587.154C315.027 587.34 314.864 587.594 314.836 587.915C314.82 588.102 314.85 588.275 314.924 588.434C315.004 588.594 315.168 588.749 315.413 588.9C315.665 589.045 316.038 589.197 316.53 589.357C317.737 589.749 318.586 590.199 319.078 590.706C319.569 591.213 319.782 591.846 319.717 592.605C319.644 593.451 319.275 594.119 318.609 594.609C317.944 595.098 316.975 595.289 315.702 595.179Z" fill="#163916"/>
<path d="M327.41 595.751C326.73 595.734 326.096 595.653 325.508 595.51C324.925 595.36 324.342 595.149 323.757 594.876L323.794 592.363L325.384 592.403L325.683 593.782C325.932 593.9 326.188 593.994 326.45 594.065C326.718 594.131 327.016 594.167 327.344 594.176C327.976 594.192 328.424 594.092 328.688 593.876C328.957 593.66 329.096 593.388 329.104 593.06C329.112 592.743 328.981 592.47 328.712 592.241C328.448 592.006 327.934 591.796 327.171 591.613C326.041 591.338 325.212 590.96 324.685 590.478C324.164 589.99 323.913 589.368 323.932 588.612C323.946 588.091 324.095 587.623 324.381 587.208C324.673 586.793 325.092 586.467 325.637 586.229C326.188 585.985 326.859 585.873 327.65 585.893C328.37 585.911 329.007 586.003 329.559 586.17C330.118 586.33 330.591 586.538 330.977 586.794L330.968 589.212L329.396 589.172L329.155 587.909C328.977 587.775 328.768 587.671 328.53 587.594C328.292 587.518 328.017 587.476 327.707 587.468C327.221 587.456 326.834 587.554 326.548 587.764C326.261 587.968 326.114 588.231 326.106 588.553C326.101 588.74 326.14 588.911 326.225 589.066C326.314 589.22 326.487 589.365 326.741 589.501C327.002 589.63 327.382 589.76 327.883 589.89C329.112 590.208 329.987 590.606 330.508 591.082C331.029 591.558 331.28 592.177 331.261 592.938C331.24 593.788 330.912 594.477 330.277 595.006C329.642 595.535 328.687 595.783 327.41 595.751Z" fill="#163916"/>
<path d="M335.015 595.558L334.977 594.205L336.288 593.905L336.113 587.641L334.709 587.416L334.671 586.054L338.282 585.954L338.502 593.843L339.818 594.071L339.856 595.424L335.015 595.558ZM335.921 583.865L335.864 581.818L338.166 581.754L338.222 583.801L335.921 583.865Z" fill="#163916"/>
<path d="M349.301 594.919C348.706 594.971 348.182 594.898 347.73 594.702C347.278 594.505 346.887 594.198 346.557 593.779L346.483 594.977L344.583 595.14L343.547 583.1L342.132 582.957L342.015 581.6L345.605 581.291L346.057 586.536C346.308 586.108 346.632 585.772 347.028 585.526C347.43 585.28 347.909 585.133 348.463 585.085C349.24 585.018 349.915 585.172 350.488 585.546C351.067 585.913 351.531 586.461 351.882 587.19C352.233 587.918 352.452 588.791 352.54 589.806L352.555 589.99C352.635 590.913 352.561 591.733 352.335 592.453C352.109 593.172 351.741 593.748 351.231 594.18C350.721 594.606 350.078 594.852 349.301 594.919ZM348.521 593.231C349.245 593.169 349.748 592.869 350.031 592.333C350.32 591.791 350.426 591.073 350.349 590.18L350.333 589.996C350.276 589.331 350.153 588.759 349.965 588.281C349.776 587.798 349.518 587.435 349.192 587.192C348.865 586.944 348.462 586.84 347.983 586.882C347.539 586.92 347.169 587.06 346.872 587.304C346.581 587.54 346.358 587.848 346.202 588.226L346.55 592.271C346.774 592.611 347.048 592.867 347.375 593.038C347.707 593.204 348.089 593.268 348.521 593.231Z" fill="#163916"/>
<path d="M357.381 593.79L357.187 592.45L358.454 592L357.555 585.798L356.134 585.738L355.938 584.39L359.513 583.872L360.646 591.682L361.979 591.756L362.174 593.095L357.381 593.79ZM356.925 582.071L356.632 580.044L358.911 579.714L359.204 581.741L356.925 582.071Z" fill="#163916"/>
<path d="M366.001 592.403L365.746 591.074L367 590.565L365.029 580.284L363.598 580.29L363.341 578.952L366.889 578.272L369.166 590.149L370.519 590.158L370.774 591.488L366.001 592.403Z" fill="#163916"/>
<path d="M374.652 590.603L374.337 589.287L375.557 588.724L374.099 582.629L372.679 582.698L372.362 581.373L375.875 580.532L377.711 588.208L379.046 588.16L379.361 589.476L374.652 590.603ZM373.134 578.974L372.657 576.982L374.897 576.446L375.374 578.438L373.134 578.974Z" fill="#163916"/>
<path d="M386.748 587.556C385.972 587.783 385.304 587.744 384.744 587.438C384.183 587.127 383.762 586.493 383.481 585.537L382.007 580.511L380.674 580.902L380.229 579.384L381.561 578.993L380.911 576.775L383.027 576.154L383.678 578.372L385.483 577.842L385.928 579.36L384.124 579.89L385.598 584.916C385.712 585.304 385.874 585.565 386.084 585.699C386.299 585.825 386.543 585.848 386.819 585.767C386.976 585.721 387.146 585.656 387.329 585.572C387.518 585.486 387.667 585.412 387.777 585.349L388.434 586.777C388.208 586.923 387.942 587.068 387.637 587.213C387.337 587.356 387.041 587.47 386.748 587.556Z" fill="#163916"/>
<path d="M397.113 588.014C396.942 588.076 396.737 588.131 396.499 588.179C396.267 588.226 396.059 588.254 395.876 588.264L395.544 586.618C395.649 586.599 395.773 586.57 395.915 586.531C396.062 586.49 396.177 586.455 396.259 586.425C396.607 586.3 396.859 586.084 397.017 585.779C397.176 585.478 397.261 585.108 397.271 584.669L397.284 583.851L391.521 577.455L390.426 577.681L389.964 576.4L394.296 574.838L394.758 576.119L393.718 576.681L396.775 580.288L397.328 580.967L397.378 580.949L397.428 575.335L396.271 575.574L395.809 574.292L399.919 572.811L400.381 574.093L399.464 574.582L399.198 584.703C399.184 585.181 399.114 585.636 398.989 586.067C398.872 586.502 398.662 586.886 398.358 587.219C398.063 587.557 397.647 587.822 397.113 588.014Z" fill="#163916"/>
<path d="M478.122 471.5C475.622 460.5 488.622 448 488.622 448" stroke="#F7B304" stroke-width="2" stroke-linecap="round"/>
<path d="M458.122 406C454.622 427.5 465.122 427.5 465.122 427.5" stroke="#F7B304" stroke-width="2" stroke-linecap="round"/>
<path d="M489.622 434.5C476.622 456.5 451.122 453.5 441.622 476" stroke="#F7B304" stroke-width="2" stroke-linecap="round"/>
<path d="M465.622 446C455.122 442.5 446.622 448.5 446.622 448.5" stroke="#F7B304" stroke-width="2" stroke-linecap="round"/>
<path d="M393.622 220C400.122 237 363 249.5 363 249.5M406.622 251.5C394.622 244.5 377.122 252.264 377.122 252.264M496.122 361C456.622 304.5 411 311 411 311M507.122 335.5C500.122 326.213 477.622 326.213 477.622 326.213M444.122 315.961L477.622 326.213M490.622 339L477.622 326.213" stroke="#FEE500" stroke-width="2" stroke-linecap="round"/>
<path d="M516.122 197.5C529.622 199.5 533.622 241.5 528.122 247" stroke="#FEE500" stroke-width="2" stroke-linecap="round"/>
<path d="M519.622 215.5L528.622 222.5" stroke="#FEE500" stroke-width="2" stroke-linecap="round"/>
<path d="M536.121 207.5C540.621 225.5 530.621 236 530.621 236" stroke="#FEE500" stroke-width="2" stroke-linecap="round"/>
<path d="M468.622 179.5C468.622 179.5 485.622 193.5 483.122 211M453.622 161.5C453.622 161.5 442.622 148.5 445.122 133" stroke="#FEE500" stroke-width="2" stroke-linecap="round"/>
<path d="M407.622 233C402.122 243.5 382.622 240 382.622 240" stroke="#FEE500" stroke-width="2" stroke-linecap="round"/>
<path d="M152.5 197.5C139 199.5 135 241.5 140.5 247" stroke="#FEE500" stroke-width="2" stroke-linecap="round"/>
<path d="M149 215.5L140 222.5" stroke="#FEE500" stroke-width="2" stroke-linecap="round"/>
<path d="M132.5 207.5C128 225.5 138 236 138 236" stroke="#FEE500" stroke-width="2" stroke-linecap="round"/>
<path d="M516.122 197.5C529.622 199.5 533.622 241.5 528.122 247" stroke="#FEE500" stroke-width="2" stroke-linecap="round"/>
<path d="M519.622 215.5L528.622 222.5" stroke="#FEE500" stroke-width="2" stroke-linecap="round"/>
<path d="M536.121 207.5C540.621 225.5 530.621 236 530.621 236" stroke="#FEE500" stroke-width="2" stroke-linecap="round"/>
<path fill-rule="evenodd" clip-rule="evenodd" d="M322.196 85.5102C321.521 81.3352 325.678 73.7263 330.021 65.7766C331.418 63.2213 332.833 60.6305 334.113 58.1075V58L334.14 58.0538L334.168 58V58.1075C335.448 60.6305 336.863 63.2211 338.259 65.7765C342.602 73.7261 346.759 81.3352 346.085 85.5102C345.19 91.0463 339.578 93.908 339.578 93.908C339.578 93.908 344.362 101.58 345.726 108.591C352.73 108.863 367.902 109.825 377.813 113.176C382.357 114.712 386.501 117.334 390.134 119.632C393.773 121.934 396.9 123.911 399.4 124.148L399.446 124.051L399.933 124.171C400.148 124.169 400.357 124.153 400.561 124.121C405.519 123.339 404.367 118.358 401.144 117.345C398.788 116.605 395.311 120.733 395.311 120.733L391.229 118.127C391.229 118.127 396.322 113.472 399.686 113.176C404.561 112.748 408.654 115.456 409.893 119.691C411.146 123.972 407.173 127.402 402.912 128.552L425.774 183.771H425.927C425.927 183.892 425.925 184.011 425.922 184.131L426 184.318L425.915 184.354C425.432 195.495 411.128 201.486 398.233 201.486C385.115 201.486 371.024 196.171 371.024 183.771H371.348L397.603 127.969C395.711 127.205 393.467 126.02 390.961 124.697C385.933 122.041 379.849 118.829 373.439 117.345C364.716 115.327 351.902 115.425 345.649 115.623C343.901 123.434 337.496 131.843 337.496 131.843C337.496 131.843 346.085 189.284 345.304 193.628C344.523 197.971 341.14 199.709 341.14 199.709C341.14 199.709 346.077 201.767 347.126 204.342C348.351 207.351 344.003 209.844 344.003 209.844C344.003 209.844 348.687 228.088 348.687 239.382C348.687 250.675 344.003 255.888 344.003 255.888H361.439C366.124 259.363 367.425 263.706 367.425 263.706C367.425 263.706 375.104 263.625 379.917 264.575C389.247 266.417 402.299 275 402.299 275H265.982C265.982 275 279.034 266.417 288.364 264.575C293.176 263.625 300.856 263.706 300.856 263.706C300.856 263.706 302.157 259.363 306.841 255.888H324.278C324.278 255.888 319.594 250.675 319.594 239.382C319.594 228.088 324.278 209.844 324.278 209.844C324.278 209.844 319.93 207.351 321.155 204.342C322.204 201.767 327.141 199.709 327.141 199.709C327.141 199.709 323.758 197.971 322.977 193.628C322.196 189.284 330.784 131.843 330.784 131.843C330.784 131.843 324.385 123.441 322.634 115.632C316.492 115.428 303.418 115.296 294.561 117.345C288.151 118.829 282.067 122.041 277.039 124.697C274.533 126.02 272.289 127.205 270.397 127.969L296.652 183.771H296.976C296.976 196.171 282.885 201.486 269.767 201.486C256.872 201.486 242.568 195.495 242.085 184.354L242 184.318L242.078 184.131C242.075 184.011 242.073 183.892 242.073 183.771H242.226L265.088 128.552C260.827 127.402 256.854 123.972 258.107 119.691C259.346 115.456 263.439 112.748 268.314 113.176C271.678 113.472 276.771 118.127 276.771 118.127L272.689 120.733C272.689 120.733 269.212 116.605 266.856 117.345C263.633 118.358 262.481 123.339 267.439 124.121C267.643 124.153 267.852 124.169 268.067 124.171L268.554 124.051L268.6 124.148C271.1 123.911 274.227 121.934 277.866 119.632C281.499 117.334 285.643 114.712 290.187 113.176C300.234 109.779 315.686 108.837 322.557 108.58C323.924 101.572 328.702 93.908 328.702 93.908C328.702 93.908 323.091 91.0463 322.196 85.5102ZM401.122 128.857C401.064 128.857 401.005 128.855 400.946 128.853L398.617 183.771H423.857L401.122 128.857ZM373.305 183.771H397.731L396.846 183.734L399.176 128.785L373.305 183.771ZM244.143 183.771L266.878 128.857C266.936 128.857 266.995 128.855 267.054 128.853L269.383 183.771H244.143ZM270.269 183.771H294.695L268.824 128.785L271.154 183.734L270.269 183.771Z" fill="#F6B304"/>
<path d="M448.963 275L220.455 275C219.379 275 218.457 275.906 218.422 276.983C210.076 528.115 328.359 548.212 333.574 548.975C333.74 549 333.773 548.998 333.939 548.972C339.133 548.158 450.393 527.782 450.998 277.055C451 275.95 450.068 275 448.963 275Z" fill="#234B22"/>
<path d="M440 288H229.444C221.077 522.145 333.822 536 333.822 536C333.822 536 440 522.145 440 288Z" stroke="#E9F4FF" stroke-width="2"/>
<path d="M323.151 304C312.363 304 280 321.951 280 321.951C280 321.951 305.891 349.236 336.097 350.672C366.303 352.109 388.597 321.951 388.597 321.951C388.597 321.951 359.83 304 350.48 304C341.131 304 336.097 312.616 336.097 312.616C336.097 312.616 333.939 304 323.151 304Z" fill="#A37500"/>
<path d="M333.916 334.306C342.64 334.306 360.816 325.186 360.816 325.186C360.816 325.186 345.549 321.679 335.37 321.679C325.191 321.679 312.832 325.186 312.832 325.186C312.832 325.186 325.191 334.306 333.916 334.306Z" fill="#E9F4FF"/>
<path d="M336.336 449.576C311.324 450.713 285.174 474.588 285.174 474.588C285.174 474.588 305.071 495.053 336.336 495.053C367.602 495.053 381.813 474.588 381.813 474.588C381.813 474.588 361.349 448.439 336.336 449.576Z" fill="#E9F4FF"/>
<ellipse cx="336.905" cy="473.451" rx="17.6224" ry="17.0539" fill="#A37500"/>
<circle cx="338.61" cy="473.451" r="7.95851" fill="#234B22"/>
<path d="M353.841 385.391C356.821 369.826 378.446 368.351 383.243 385.353" stroke="#E9F4FF" stroke-width="2" stroke-linecap="round" stroke-linejoin="round"/>
<path d="M345.876 378.505C353.872 355.081 383.853 355.081 392.658 379.24" stroke="#E9F4FF" stroke-width="2" stroke-linecap="round" stroke-linejoin="round"/>
<path d="M352.208 409.855C351.401 413.885 368.929 437.195 368.929 437.195L391.079 441.091C391.079 441.091 406.695 419.528 402.255 409.855C397.815 400.181 376.828 407.436 376.828 407.436C376.828 407.436 372.792 380.029 367.949 382.85C363.105 385.672 367.949 418.319 367.949 418.319C367.949 418.319 353.015 405.824 352.208 409.855Z" fill="#F6B304"/>
<path d="M280.843 396.376C280.424 396.277 280.068 396.205 279.795 396.156C279.816 399.05 280.13 402.002 280.661 404.763C281.329 408.235 282.324 411.317 283.443 413.504C284.004 414.6 284.574 415.427 285.115 415.966C285.665 416.514 286.083 416.667 286.36 416.667C287.494 416.667 288.399 416.391 289.111 415.912C289.824 415.432 290.405 414.707 290.823 413.712C291.672 411.691 291.81 408.625 290.996 404.676C290.259 401.098 287.449 398.941 284.617 397.654C283.215 397.017 281.855 396.617 280.843 396.376Z" fill="#F6B304"/>
<path fill-rule="evenodd" clip-rule="evenodd" d="M266 389.419L271.625 421.949C271.625 421.949 272.875 441.673 287.251 439.617C300.158 437.771 299.966 430.041 299.792 423.048C299.772 422.252 299.752 421.465 299.752 420.698C301.579 415.213 303.993 411.219 306.23 407.518C309.351 402.354 312.129 397.758 312.493 390.471C313.118 377.96 304.752 361.269 286.001 363.145C267.25 365.022 266 389.419 266 389.419ZM299.166 391.265C300.668 383.232 297.761 377.928 293.198 376.394C288.692 374.879 283.251 377.299 280.258 383.288C277.28 389.247 277.323 397.994 278.697 405.14C279.388 408.735 280.432 412.011 281.663 414.415C282.277 415.614 282.959 416.641 283.703 417.383C284.438 418.115 285.336 418.667 286.36 418.667C287.831 418.667 289.138 418.304 290.227 417.571C291.315 416.839 292.124 415.78 292.667 414.486C293.74 411.93 293.805 408.399 292.955 404.273C292.029 399.775 288.518 397.23 285.444 395.833C283.893 395.128 282.404 394.692 281.306 394.43C280.755 394.3 280.299 394.212 279.977 394.157C279.925 394.148 279.876 394.14 279.831 394.132C279.988 390.435 280.671 386.935 282.047 384.182C284.719 378.835 289.243 377.175 292.561 378.29C295.822 379.386 298.598 383.423 297.2 390.898C297.099 391.441 297.456 391.963 297.999 392.065C298.542 392.166 299.065 391.808 299.166 391.265Z" fill="#F6B304"/>
</svg>
