<svg width="2983" height="994" viewBox="0 0 2983 994" fill="none" xmlns="http://www.w3.org/2000/svg">
<rect width="2982" height="994" rx="10" fill="#614878"/>
<path fill-rule="evenodd" clip-rule="evenodd" d="M2643.73 674C2672.61 560 2643.73 416 2578.77 254C2538.42 211.127 2478.94 173.373 2425.52 139.464C2399.21 122.76 2374.36 106.99 2354 92C2301.98 53.7043 2262.73 22.181 2236.25 0H2319L2404 65C2404 65 2403.5 45.9931 2399 35C2391.99 17.8588 2367 0 2367 0H2417.8L2485 56L2622.08 116V0H2689.55C2700.55 39.4576 2730.75 98.4578 2809.76 170C2829.49 127.098 2848.59 61.5521 2864.09 0H2982.1V994H2599.32C2605.21 926.801 2621.16 763.121 2643.73 674Z" fill="#B28CD9"/>
<path fill-rule="evenodd" clip-rule="evenodd" d="M1707.77 994H1534.44C1562.76 961.513 1616.28 906.1 1677.82 872.403C1739.32 838.732 1803.36 818.331 1845.45 804.924C1857.94 800.947 1868.49 797.586 1876.47 794.677C1951.28 767.403 2039.8 737.403 2151.11 754.403C2211.08 763.562 2289.82 750.975 2360.7 739.642C2421.39 729.94 2476.33 721.157 2508.81 727.727C2516.78 729.339 2524.96 730.95 2533.33 732.597C2649.42 755.461 2800.94 785.303 2913.03 920C2935.68 950.872 2948.59 975.126 2954.02 994H2708.93C2695.2 977.48 2675.69 954.126 2652.71 927C2613.53 892.379 2559.59 884.749 2510.57 877.816C2498.45 876.102 2486.63 874.43 2475.41 872.403C2393.02 857.522 1997.98 906.403 1876.47 922.403C1799.86 932.49 1740.89 968.652 1707.77 994Z" fill="#CEB0ED"/>
<path d="M1968.89 824.403C1966.69 831.617 1962.7 875.058 1953.89 872.403C1948.51 870.782 1945.75 840.229 1950.05 819.403C1952.79 806.124 1956.89 788.578 1956.89 781.038C1948.37 782.448 1941.34 783.321 1930.89 786.3C1914.95 790.845 1889.67 817.387 1886.89 809.403C1884.61 802.838 1902.83 778.542 1921.89 769.536C1936.22 762.766 1950.05 762.161 1950.05 757.004V727.403L1997.39 730.403C1997.39 730.403 1997.39 742.004 2003.39 747.903C2009.39 753.802 2020.45 751.5 2022.89 757.004C2025.27 762.352 2014.89 760.403 2004.89 762.903C2005.41 768.23 2005.89 767.673 2011.89 781.038C2017.89 794.403 2018.85 840.589 2012.89 840.903C2003.49 841.398 2002.11 824.314 1997.08 809.403C1993.96 800.181 1986.37 791.791 1983.89 788.903C1974.28 798.516 1971.09 817.188 1968.89 824.403Z" fill="#B183DF"/>
<path d="M1831.09 652.072C1807.06 650.47 1869.55 373.276 1925.62 373.276C1981.7 373.276 1883.97 602.401 1883.97 602.401C1883.97 602.401 1855.12 653.674 1831.09 652.072Z" fill="#B183DF"/>
<path d="M2305.94 549.417C2305.94 549.417 2339.59 603.894 2376.44 627.928C2395.26 640.203 2403.56 565.509 2377.66 495.048C2352.85 427.556 2295.02 339.968 2275.89 360.403C2236.79 402.171 2305.94 549.417 2305.94 549.417Z" fill="#B183DF"/>
<path d="M2239.89 770.403C2228.91 780.064 2249.44 839.489 2229.89 836.403C2224.6 835.567 2213.34 794.658 2215.89 782.403C2218.39 770.403 2221.25 763.337 2219.89 757.903C2209 758.497 2196.51 760.061 2194.89 756.903C2192.43 752.088 2204.82 740.594 2204.82 740.594L2264.39 725.403C2264.39 725.403 2282.33 730.279 2294.39 754.403C2305.91 777.442 2307.89 827.903 2300.39 831.403C2292.89 834.903 2288.89 783.403 2272.53 772.403C2266.39 783.903 2284.53 831.403 2272.53 860.403C2252.03 842.903 2262.82 818.903 2256.39 799.903C2249.97 780.903 2251.91 772.064 2239.89 770.403Z" fill="#B183DF"/>
<path d="M1916.01 736.992C1872.75 698.537 1842.31 445.378 1932.03 389.299L2278.12 370.071C2278.12 370.071 2327.19 453.533 2343.82 511.071C2375.82 621.798 2334.2 742.424 2282.93 750.435C2231.66 758.446 2121.89 710.402 2084.25 711.355C2046.61 712.308 1959.27 775.446 1916.01 736.992Z" fill="#DCC5F3"/>
<path d="M2034.58 575.162C2016.95 571.957 2046.58 480.402 2002.51 419.741C1923.89 395.402 1896.8 359.662 1906.41 281.15C1916.02 202.639 2018.56 124.923 2145.14 145.753C2271.72 166.582 2327.9 304.467 2306.97 344.435C2286.03 384.402 2251.89 430.402 2156.35 419.741C2089.89 440.402 2052.2 578.366 2034.58 575.162Z" fill="#B183DF"/>
<circle cx="2199.61" cy="304.379" r="71.6023" fill="#FFD600" stroke="#F79400"/>
<circle cx="1984.11" cy="284.35" r="59.5852" fill="#FFD600" stroke="#F79400"/>
<circle cx="2202.02" cy="289.157" r="26.4375" fill="#380070"/>
<circle cx="1974.46" cy="289.105" r="28" fill="#380070"/>
<path d="M2556.21 494V412.242H2543.01V446.439H2515.5V412.242H2502.36V494H2515.5V457.557H2543.01V494H2556.21ZM2606.88 495.123C2612.79 495.123 2617.83 493.963 2621.98 491.642C2626.18 489.321 2629.28 486.7 2631.3 483.78L2624.12 476.817C2622.24 479.213 2619.87 481.066 2616.99 482.376C2614.1 483.649 2611 484.286 2607.66 484.286C2605.23 484.286 2602.98 483.874 2600.93 483.05C2598.9 482.227 2597.14 481.066 2595.65 479.569C2594.15 478.146 2592.97 476.537 2592.11 474.74C2591.25 472.943 2590.61 470.715 2590.2 468.058V467.777H2632.31V461.993C2632.31 457.651 2631.73 453.645 2630.57 449.977C2629.41 446.308 2627.69 443.145 2625.41 440.487C2623.12 437.866 2620.3 435.826 2616.93 434.366C2613.56 432.869 2609.69 432.12 2605.31 432.12C2601.38 432.12 2597.67 432.869 2594.19 434.366C2590.74 435.826 2587.71 437.923 2585.09 440.655C2582.47 443.388 2580.41 446.682 2578.91 450.538C2577.42 454.394 2576.67 458.699 2576.67 463.453V465.755C2576.67 469.911 2577.38 473.785 2578.8 477.379C2580.26 480.935 2582.32 484.024 2584.98 486.644C2587.64 489.302 2590.82 491.38 2594.52 492.877C2598.27 494.374 2602.39 495.123 2606.88 495.123ZM2605.25 443.014C2607.5 443.014 2609.46 443.407 2611.15 444.193C2612.87 444.942 2614.29 445.952 2615.41 447.225C2616.57 448.535 2617.47 450.07 2618.11 451.83C2618.74 453.552 2619.06 455.292 2619.06 457.052V457.95H2590.48C2590.89 455.629 2591.53 453.552 2592.39 451.717C2593.25 449.883 2594.32 448.311 2595.59 447C2596.86 445.728 2598.31 444.754 2599.92 444.081C2601.56 443.369 2603.34 443.014 2605.25 443.014Z" fill="#DCC5F3"/>
<path d="M2655.92 407.75V418.924H2675.13V482.882H2655.92V494H2707.08V482.882H2688.66V407.75H2655.92ZM2730.74 407.75V418.924H2749.94V482.882H2730.74V494H2781.89V482.882H2763.48V407.75H2730.74ZM2800.5 463.06V464.239C2800.5 468.694 2801.14 472.793 2802.41 476.537C2803.68 480.28 2805.54 483.537 2807.97 486.307C2810.37 489.077 2813.32 491.249 2816.84 492.821C2820.36 494.393 2824.35 495.179 2828.8 495.179C2833.22 495.179 2837.17 494.393 2840.65 492.821C2844.17 491.249 2847.13 489.077 2849.52 486.307C2851.92 483.537 2853.75 480.28 2855.03 476.537C2856.3 472.793 2856.94 468.694 2856.94 464.239V463.06C2856.94 458.643 2856.3 454.562 2855.03 450.819C2853.75 447.038 2851.92 443.762 2849.52 440.992C2847.09 438.222 2844.11 436.051 2840.6 434.479C2837.11 432.906 2833.15 432.12 2828.69 432.12C2824.24 432.12 2820.27 432.906 2816.79 434.479C2813.31 436.051 2810.37 438.222 2807.97 440.992C2805.54 443.762 2803.68 447.038 2802.41 450.819C2801.14 454.562 2800.5 458.643 2800.5 463.06ZM2813.92 464.239V463.06C2813.92 460.402 2814.2 457.857 2814.77 455.423C2815.36 452.99 2816.26 450.856 2817.46 449.022C2818.7 447.188 2820.23 445.728 2822.06 444.642C2823.94 443.556 2826.15 443.014 2828.69 443.014C2831.27 443.014 2833.48 443.556 2835.32 444.642C2837.19 445.728 2838.72 447.188 2839.92 449.022C2841.12 450.856 2842.02 452.99 2842.62 455.423C2843.22 457.857 2843.52 460.402 2843.52 463.06V464.239C2843.52 466.972 2843.22 469.555 2842.62 471.988C2842.06 474.422 2841.18 476.555 2839.98 478.39C2838.78 480.224 2837.24 481.684 2835.37 482.77C2833.5 483.818 2831.31 484.342 2828.8 484.342C2826.22 484.342 2823.99 483.818 2822.12 482.77C2820.25 481.684 2818.7 480.224 2817.46 478.39C2816.26 476.555 2815.36 474.422 2814.77 471.988C2814.2 469.555 2813.92 466.972 2813.92 464.239Z" fill="#8F5BC4"/>
<path d="M2478.99 604.943C2478.99 606.74 2478.59 608.331 2477.81 609.716C2477.06 611.101 2476.05 612.261 2474.77 613.197C2473.46 614.171 2471.91 614.901 2470.11 615.387C2468.35 615.874 2466.45 616.117 2464.39 616.117C2461.95 616.117 2459.71 615.818 2457.65 615.219C2455.63 614.62 2453.87 613.703 2452.37 612.467C2450.84 611.269 2449.62 609.753 2448.72 607.919C2447.86 606.047 2447.34 603.857 2447.15 601.349H2433.67C2433.71 605.317 2434.49 608.817 2436.03 611.85C2437.6 614.844 2439.72 617.465 2442.38 619.711C2445.26 622.107 2448.65 623.941 2452.54 625.214C2456.43 626.449 2460.38 627.067 2464.39 627.067C2468.17 627.067 2471.76 626.599 2475.17 625.663C2478.57 624.69 2481.57 623.249 2484.15 621.339C2486.7 619.505 2488.72 617.203 2490.22 614.433C2491.75 611.662 2492.52 608.462 2492.52 604.831C2492.52 600.9 2491.64 597.437 2489.88 594.442C2488.16 591.41 2485.86 588.808 2482.97 586.637C2480.65 584.915 2478.11 583.455 2475.34 582.257C2472.6 581.022 2469.8 579.993 2466.91 579.169C2464.63 578.495 2462.44 577.765 2460.34 576.979C2458.28 576.193 2456.45 575.276 2454.84 574.228C2453.27 573.179 2452.01 571.963 2451.08 570.578C2450.14 569.155 2449.66 567.508 2449.62 565.636C2449.62 563.877 2449.97 562.286 2450.69 560.863C2451.4 559.441 2452.39 558.224 2453.66 557.213C2454.93 556.24 2456.43 555.491 2458.15 554.967C2459.91 554.406 2461.82 554.125 2463.88 554.125C2466.24 554.125 2468.32 554.481 2470.11 555.192C2471.95 555.866 2473.5 556.802 2474.77 558C2476.01 559.235 2476.96 560.714 2477.64 562.436C2478.35 564.12 2478.8 565.992 2478.99 568.051H2492.35C2492.35 564.345 2491.6 560.976 2490.1 557.943C2488.64 554.874 2486.64 552.235 2484.1 550.026C2481.55 547.855 2478.56 546.17 2475.11 544.972C2471.71 543.737 2468.02 543.119 2464.05 543.119C2460.31 543.119 2456.73 543.643 2453.32 544.691C2449.96 545.702 2447 547.181 2444.45 549.127C2441.91 551.111 2439.89 553.507 2438.39 556.315C2436.89 559.085 2436.14 562.211 2436.14 565.692C2436.14 568.912 2436.78 571.813 2438.05 574.396C2439.36 576.942 2441.16 579.225 2443.44 581.247C2445.73 583.231 2448.48 585.009 2451.7 586.581C2454.95 588.153 2458.51 589.501 2462.37 590.624C2464.87 591.335 2467.14 592.14 2469.16 593.039C2471.22 593.9 2473 594.873 2474.49 595.958C2475.92 597.119 2477.02 598.429 2477.81 599.889C2478.59 601.349 2478.99 603.034 2478.99 604.943ZM2539.12 616.342C2536.31 616.342 2533.97 615.78 2532.1 614.657C2530.23 613.534 2528.75 612.056 2527.66 610.221C2526.54 608.387 2525.74 606.291 2525.25 603.932C2524.8 601.536 2524.58 599.103 2524.58 596.632V594.667C2524.58 592.234 2524.8 589.838 2525.25 587.479C2525.74 585.121 2526.54 583.025 2527.66 581.19C2528.79 579.356 2530.27 577.877 2532.1 576.754C2533.97 575.594 2536.31 575.014 2539.12 575.014C2540.95 575.014 2542.66 575.332 2544.23 575.968C2545.84 576.605 2547.22 577.466 2548.38 578.551C2549.51 579.637 2550.37 580.91 2550.97 582.37C2551.6 583.83 2551.92 585.383 2551.92 587.03H2564.56C2564.59 583.661 2563.98 580.573 2562.7 577.765C2561.47 574.958 2559.73 572.543 2557.48 570.521C2555.23 568.5 2552.54 566.928 2549.39 565.805C2546.29 564.682 2542.9 564.12 2539.23 564.12C2534.59 564.12 2530.51 564.944 2526.99 566.591C2523.51 568.201 2520.59 570.39 2518.23 573.161C2515.87 575.931 2514.09 579.169 2512.9 582.875C2511.74 586.581 2511.15 590.512 2511.15 594.667V596.632C2511.15 600.825 2511.75 604.774 2512.95 608.48C2514.15 612.149 2515.91 615.368 2518.23 618.139C2520.59 620.909 2523.51 623.118 2526.99 624.765C2530.51 626.374 2534.61 627.179 2539.29 627.179C2542.66 627.179 2545.86 626.636 2548.89 625.551C2551.96 624.428 2554.67 622.912 2557.03 621.002C2559.35 619.093 2561.19 616.847 2562.53 614.264C2563.92 611.644 2564.59 608.855 2564.56 605.897H2551.92C2551.92 607.432 2551.57 608.836 2550.85 610.109C2550.18 611.382 2549.26 612.486 2548.1 613.422C2546.91 614.358 2545.52 615.088 2543.95 615.612C2542.41 616.098 2540.8 616.342 2539.12 616.342ZM2591.73 565.243V576.417H2610.43V614.882H2591.73V626H2641.81V614.882H2623.96V565.243H2591.73ZM2609.19 549.521C2609.19 550.943 2609.53 552.197 2610.2 553.283C2610.91 554.331 2611.94 555.061 2613.29 555.473C2614.6 555.884 2615.8 555.978 2616.88 555.753C2617.97 555.529 2618.9 555.061 2619.69 554.35C2621.26 553.938 2622.46 553.133 2623.28 551.935C2624.11 550.7 2624.39 549.258 2624.13 547.611C2623.94 546.002 2623.21 544.691 2621.94 543.681C2620.7 542.632 2619.07 542.108 2617.05 542.108C2615.85 542.108 2614.77 542.296 2613.79 542.67C2612.86 543.007 2612.05 543.493 2611.38 544.13C2610.67 544.804 2610.13 545.609 2609.75 546.544C2609.38 547.443 2609.19 548.435 2609.19 549.521Z" fill="#DCC5F3"/>
<path d="M2719.47 600.844H2705.93C2705.71 603.314 2705.22 605.504 2704.47 607.414C2703.73 609.323 2702.73 610.914 2701.5 612.187C2700.23 613.497 2698.69 614.489 2696.89 615.163C2695.1 615.836 2693.04 616.173 2690.72 616.173C2688.77 616.173 2687.03 615.911 2685.49 615.387C2684 614.826 2682.67 614.021 2681.51 612.973C2680.38 611.999 2679.41 610.839 2678.59 609.491C2677.8 608.144 2677.15 606.646 2676.62 604.999C2675.95 603.015 2675.44 600.825 2675.11 598.429C2674.81 596.033 2674.66 593.469 2674.66 590.736V579.45C2674.66 577.241 2674.77 575.089 2674.99 572.992C2675.26 570.858 2675.63 568.856 2676.12 566.984C2676.75 564.85 2677.56 562.922 2678.53 561.2C2679.54 559.441 2680.78 558 2682.24 556.876C2683.36 556.015 2684.61 555.342 2686 554.855C2687.42 554.368 2689.01 554.125 2690.77 554.125C2693.28 554.125 2695.43 554.499 2697.23 555.248C2699.03 555.959 2700.54 557.007 2701.78 558.393C2702.98 559.778 2703.91 561.462 2704.59 563.446C2705.3 565.393 2705.77 567.583 2705.99 570.016H2719.47C2719.05 565.936 2718.14 562.23 2716.72 558.898C2715.33 555.566 2713.42 552.721 2710.99 550.363C2708.59 548.042 2705.69 546.245 2702.28 544.972C2698.91 543.699 2695.08 543.063 2690.77 543.063C2687.59 543.063 2684.65 543.493 2681.96 544.354C2679.3 545.215 2676.87 546.413 2674.66 547.948C2672.34 549.633 2670.28 551.673 2668.48 554.069C2666.72 556.427 2665.28 559.066 2664.16 561.986C2663.11 564.607 2662.32 567.396 2661.8 570.353C2661.27 573.31 2661.01 576.38 2661.01 579.562V590.736C2661.01 594.068 2661.29 597.269 2661.85 600.338C2662.42 603.408 2663.22 606.253 2664.27 608.874C2665.35 611.531 2666.68 613.983 2668.26 616.229C2669.87 618.438 2671.74 620.329 2673.87 621.901C2676.08 623.585 2678.59 624.896 2681.4 625.832C2684.24 626.73 2687.35 627.179 2690.72 627.179C2694.83 627.179 2698.58 626.562 2701.95 625.326C2705.35 624.053 2708.29 622.257 2710.76 619.936C2713.2 617.652 2715.16 614.901 2716.66 611.681C2718.16 608.424 2719.09 604.812 2719.47 600.844ZM2738.1 595.06V596.239C2738.1 600.694 2738.74 604.793 2740.01 608.537C2741.28 612.28 2743.14 615.537 2745.57 618.307C2747.97 621.077 2750.92 623.249 2754.44 624.821C2757.96 626.393 2761.95 627.179 2766.4 627.179C2770.82 627.179 2774.77 626.393 2778.25 624.821C2781.77 623.249 2784.73 621.077 2787.12 618.307C2789.52 615.537 2791.35 612.28 2792.63 608.537C2793.9 604.793 2794.54 600.694 2794.54 596.239V595.06C2794.54 590.643 2793.9 586.562 2792.63 582.819C2791.35 579.038 2789.52 575.762 2787.12 572.992C2784.69 570.222 2781.71 568.051 2778.2 566.479C2774.71 564.906 2770.75 564.12 2766.29 564.12C2761.84 564.12 2757.87 564.906 2754.39 566.479C2750.91 568.051 2747.97 570.222 2745.57 572.992C2743.14 575.762 2741.28 579.038 2740.01 582.819C2738.74 586.562 2738.1 590.643 2738.1 595.06ZM2751.52 596.239V595.06C2751.52 592.402 2751.8 589.857 2752.37 587.423C2752.96 584.99 2753.86 582.856 2755.06 581.022C2756.3 579.188 2757.83 577.728 2759.66 576.642C2761.54 575.556 2763.75 575.014 2766.29 575.014C2768.87 575.014 2771.08 575.556 2772.92 576.642C2774.79 577.728 2776.32 579.188 2777.52 581.022C2778.72 582.856 2779.62 584.99 2780.22 587.423C2780.82 589.857 2781.12 592.402 2781.12 595.06V596.239C2781.12 598.972 2780.82 601.555 2780.22 603.988C2779.66 606.422 2778.78 608.555 2777.58 610.39C2776.38 612.224 2774.84 613.684 2772.97 614.77C2771.1 615.818 2768.91 616.342 2766.4 616.342C2763.82 616.342 2761.59 615.818 2759.72 614.77C2757.85 613.684 2756.3 612.224 2755.06 610.39C2753.86 608.555 2752.96 606.422 2752.37 603.988C2751.8 601.555 2751.52 598.972 2751.52 596.239ZM2824.18 565.243H2812.5V626H2824.85V579.337C2825.08 578.776 2825.32 578.271 2825.58 577.821C2825.88 577.372 2826.22 576.979 2826.59 576.642C2827.08 576.155 2827.66 575.8 2828.33 575.575C2829.04 575.313 2829.85 575.182 2830.75 575.182C2831.57 575.182 2832.3 575.294 2832.94 575.519C2833.61 575.744 2834.19 576.099 2834.68 576.586C2835.16 577.073 2835.52 577.746 2835.74 578.607C2836.01 579.431 2836.14 580.442 2836.14 581.64V626H2848.27V580.91C2848.27 580.535 2848.27 580.255 2848.27 580.067C2848.27 579.843 2848.27 579.656 2848.27 579.506C2848.42 578.869 2848.64 578.308 2848.94 577.821C2849.24 577.297 2849.61 576.848 2850.06 576.474C2850.55 576.062 2851.11 575.744 2851.75 575.519C2852.38 575.294 2853.15 575.182 2854.05 575.182C2854.84 575.182 2855.57 575.294 2856.24 575.519C2856.95 575.744 2857.55 576.099 2858.04 576.586C2858.52 577.11 2858.9 577.803 2859.16 578.664C2859.42 579.487 2859.55 580.498 2859.55 581.696V626H2871.91V581.808C2871.91 578.626 2871.57 575.912 2870.9 573.666C2870.26 571.382 2869.34 569.529 2868.14 568.107C2866.95 566.759 2865.52 565.767 2863.88 565.131C2862.27 564.457 2860.49 564.12 2858.54 564.12C2857.05 564.12 2855.66 564.307 2854.39 564.682C2853.15 565.056 2852.03 565.58 2851.02 566.254C2850.23 566.778 2849.5 567.414 2848.83 568.163C2848.15 568.912 2847.56 569.717 2847.03 570.578C2846.66 569.642 2846.21 568.818 2845.68 568.107C2845.16 567.358 2844.56 566.722 2843.89 566.198C2843.03 565.486 2842 564.962 2840.8 564.625C2839.6 564.289 2838.25 564.12 2836.76 564.12C2833.87 564.12 2831.4 564.813 2829.34 566.198C2827.32 567.583 2825.73 569.492 2824.57 571.925L2824.18 565.243Z" fill="#8F5BC4"/>
<path d="M2812 171.999C2812 171.999 2871.21 199.999 2911 171.999C2925.07 150.487 2921.01 92.895 2935 56.0002C2949.62 17.4337 2982 12.9995 2982 12.9995V595.999C2982 595.999 2923.15 326 2899 284C2874.85 241.999 2812 171.999 2812 171.999Z" fill="#8F5BC4"/>
<path d="M2631 230C2663 250 2621 116 2621 116L2503 64L2453 32L2487 100C2487 100 2599 210 2631 230Z" fill="#8F5BC4"/>
<path d="M2982 993V612C2982 612 2942 888 2918 872C2894 856 2766 804 2766 804C2766 804 2844 876 2870 908C2896 940 2894 993 2894 993H2982Z" fill="#A571DA"/>
<circle cx="293.5" cy="715.5" r="9.5" fill="#BF9AE3"/>
<path d="M2459 371C2459 371 2430.93 342.676 2418 354.165C2404.77 365.919 2434 389.165 2434 389.165C2434 389.165 2424 371.329 2434 378.165C2444 385 2462.5 395 2462.5 395C2462.5 395 2450 381.5 2448 374C2446 366.5 2459 371 2459 371Z" fill="#DCC5F3"/>
<circle cx="561.5" cy="734.5" r="9.5" fill="#BF9AE3"/>
<circle cx="284.5" cy="363.5" r="9.5" fill="#BF9AE3"/>
<circle cx="1689.5" cy="147.5" r="9.5" fill="#BF9AE3"/>
<circle cx="1737.5" cy="433.5" r="9.5" fill="#BF9AE3"/>
<circle cx="1407.5" cy="100.5" r="9.5" fill="#BF9AE3"/>
<circle cx="2422.5" cy="360.664" r="9.5" fill="#BF9AE3"/>
<path d="M442.501 796C442.501 796 481.979 833.5 498.15 816.019C514.696 798.132 471.52 770.203 471.52 770.203C471.52 770.203 485.997 788.556 472.999 785.278C460.001 782 440 773.294 440 773.294C440 773.294 448.526 780.832 459.001 791.5C469.476 802.168 442.501 796 442.501 796Z" fill="#DCC5F3"/>
<circle cx="483.296" cy="803.296" r="13.0817" transform="rotate(174.399 483.296 803.296)" fill="#BF9AE3"/>
<circle cx="1358.5" cy="383.5" r="26.5" fill="#8F5BC4"/>
<circle cx="154.5" cy="187.5" r="9.5" fill="#BF9AE3"/>
<circle cx="2802.5" cy="110.5" r="9.5" fill="#BF9AE3"/>
<circle cx="2538.5" cy="31.5" r="9.5" fill="#BF9AE3"/>
<circle cx="756.5" cy="106.5" r="9.5" fill="#BF9AE3"/>
<circle cx="2166.5" cy="50.5" r="9.5" fill="#BF9AE3"/>
<circle cx="977.5" cy="293.5" r="9.5" fill="#BF9AE3"/>
<circle cx="1073.5" cy="882.5" r="9.5" fill="#BF9AE3"/>
<path d="M236.917 218.289C257.249 326.314 377.253 300.596 394.475 281.263C324.586 281.263 300.407 246.443 290.4 206.794C280.392 167.144 310.535 116.445 378.313 102.768C349.452 81.7757 216.586 110.264 236.917 218.289Z" fill="#DCC5F3"/>
<circle cx="397.324" cy="626.912" r="47.9122" fill="#DCC5F3"/>
<path d="M387.412 639.069C370.891 633.287 325.457 607.266 333.718 598.592C337.257 594.875 346.935 596.527 358.5 598.592C341.152 585.375 296.544 572.984 294.066 587.027C291.588 601.07 359.401 641.548 378.325 648.983C397.25 656.417 470.845 686.982 488.193 676.243C505.54 665.504 456.389 638.243 443.585 638.243C451.846 645.265 462.585 650.635 459.281 658.069C451.02 667.156 403.934 644.852 387.412 639.069Z" fill="#B183DF"/>
<circle cx="1558.27" cy="130.152" r="32.2769" transform="rotate(-112.603 1558.27 130.152)" fill="#DCC5F3"/>
<path d="M1568.47 132.195C1570.71 143.773 1574.35 181.366 1566.5 179.5C1563.14 178.7 1557.43 170.184 1554.71 162.752C1552.9 177.332 1560.82 195.499 1569.83 192.179C1578.85 188.859 1579.41 147.659 1577.32 134.122C1575.23 120.585 1568.06 67.3812 1555.93 60.9257C1543.79 54.4702 1544.6 92.3253 1548.94 99.7781C1550.22 92.5883 1549.27 71.0981 1554.71 70.4999C1562.81 72.2267 1566.23 120.617 1568.47 132.195Z" fill="#F6EDFF"/>
<path d="M1563.52 140.945C1554.05 147.983 1508.72 173.883 1507 166C1506.26 162.622 1524.5 147.482 1530.02 141.807C1516.09 146.501 1492.35 166.721 1499.25 173.403C1506.15 180.084 1554.33 157.513 1565.62 149.757C1576.91 142.001 1621.74 112.461 1622.29 98.7277C1622.84 84.9943 1589.08 102.138 1584.25 109.284C1591.29 107.324 1610.6 96.8508 1613.5 101.5C1615.46 109.539 1572.98 133.906 1563.52 140.945Z" fill="#F6EDFF"/>
<path d="M1063 138L1067.49 151.82H1082.02L1070.27 160.361L1074.76 174.18L1063 165.639L1051.24 174.18L1055.73 160.361L1043.98 151.82H1058.51L1063 138Z" fill="#DCC5F3"/>
<path d="M1534 317L1538.49 330.82H1553.02L1541.27 339.361L1545.76 353.18L1534 344.639L1522.24 353.18L1526.73 339.361L1514.98 330.82H1529.51L1534 317Z" fill="#DCC5F3"/>
<path d="M1194 567L1198.49 580.82H1213.02L1201.27 589.361L1205.76 603.18L1194 594.639L1182.24 603.18L1186.73 589.361L1174.98 580.82H1189.51L1194 567Z" fill="#DCC5F3"/>
<path d="M634 305L638.49 318.82H653.021L641.265 327.361L645.756 341.18L634 332.639L622.244 341.18L626.735 327.361L614.979 318.82H629.51L634 305Z" fill="#DCC5F3"/>
<path d="M987 729L991.49 742.82H1006.02L994.265 751.361L998.756 765.18L987 756.639L975.244 765.18L979.735 751.361L967.979 742.82H982.51L987 729Z" fill="#DCC5F3"/>
<path d="M866 310L870.49 323.82H885.021L873.265 332.361L877.756 346.18L866 337.639L854.244 346.18L858.735 332.361L846.979 323.82H861.51L866 310Z" fill="#DCC5F3"/>
<path d="M523 49L527.49 62.8197H542.021L530.265 71.3607L534.756 85.1803L523 76.6393L511.244 85.1803L515.735 71.3607L503.979 62.8197H518.51L523 49Z" fill="#DCC5F3"/>
<path d="M2766 17L2770.49 30.8197H2785.02L2773.27 39.3607L2777.76 53.1803L2766 44.6393L2754.24 53.1803L2758.73 39.3607L2746.98 30.8197H2761.51L2766 17Z" fill="#DCC5F3"/>
<path d="M2325 92L2329.49 105.82H2344.02L2332.27 114.361L2336.76 128.18L2325 119.639L2313.24 128.18L2317.73 114.361L2305.98 105.82H2320.51L2325 92Z" fill="#DCC5F3"/>
<path d="M2443 221L2447.49 234.82H2462.02L2450.27 243.361L2454.76 257.18L2443 248.639L2431.24 257.18L2435.73 243.361L2423.98 234.82H2438.51L2443 221Z" fill="#DCC5F3"/>
<path d="M1954 57L1958.49 70.8197H1973.02L1961.27 79.3607L1965.76 93.1803L1954 84.6393L1942.24 93.1803L1946.73 79.3607L1934.98 70.8197H1949.51L1954 57Z" fill="#DCC5F3"/>
<path d="M102 357L106.49 370.82H121.021L109.265 379.361L113.756 393.18L102 384.639L90.2443 393.18L94.7346 379.361L82.9789 370.82H97.5097L102 357Z" fill="#DCC5F3"/>
<path d="M834.388 221.503C829.407 231.398 808.125 232.221 808.125 232.221C808.125 232.221 824.726 217.429 818.869 209.595C813.565 202.5 803.967 205.361 796.186 209.595C781.889 217.375 786.48 238.209 796.186 251.275C805.893 264.342 842.712 235.153 852.295 209.595C858.5 193.047 852.295 164.342 852.295 164.342C852.295 164.342 871.57 182.219 866.621 207.22C861.672 232.221 798.44 287.216 785.442 263.184C775.486 244.776 773.258 226.61 785.442 209.595C794.19 197.378 804.751 185.397 818.869 190.541C831.577 195.171 840.471 209.423 834.388 221.503Z" fill="#B183DF"/>
<path d="M826.032 156.006C836.754 166.187 841.551 190.541 841.551 190.541C841.551 190.541 829.154 178.097 818.869 175.06C791.243 166.902 771.968 194.642 761.566 221.503C754.008 241.019 751.549 256.718 761.566 275.092C777.01 303.424 866.621 251.275 866.621 251.275C866.621 251.275 772.55 330.389 744.853 296.528C723.358 270.25 729.675 251.872 744.853 221.503C761.835 187.524 785.442 156.006 826.032 156.006Z" fill="#B183DF"/>
<path d="M881.059 158.705C904.485 176.482 866.195 232.526 866.195 232.526C866.195 232.526 934.49 170.294 906.334 145.797C883.638 126.051 830.402 158.776 830.402 158.776C830.402 158.776 865.3 146.747 881.059 158.705Z" fill="#B183DF"/>
<circle cx="1114" cy="790" r="40" fill="#B183DF"/>
<path d="M1136 789C1145.44 789 1153 799 1153 799C1153 799 1145.44 809 1136 809C1126.56 809 1077 799 1077 799C1077 799 1126.56 789 1136 789Z" fill="#E4D6F1"/>
<path d="M1137 772L1089 760V772H1137Z" fill="#DCC5F3"/>
<path d="M1607.05 594.894C1573.49 575.267 1539 583.679 1539 583.679C1539 583.679 1559.5 559.374 1607.98 578.066C1656.45 596.759 1647.13 653.387 1617.3 667.787C1587.47 682.187 1568.83 662.187 1568.83 662.187C1568.83 662.187 1605.15 664.053 1614.5 650.051C1623.85 636.049 1640.6 614.521 1607.05 594.894Z" fill="#7B4BAA"/>
<path d="M1548.68 635.662C1555.18 602.028 1580.35 620.685 1598.54 616.95C1593.41 609.948 1562.09 593.128 1543.5 613.682C1524.91 634.236 1526.7 685.111 1564.95 703.785C1603.21 722.459 1665.8 673.033 1665.8 673.033C1665.8 673.033 1632.02 688.846 1603.21 688.846C1574.39 688.846 1542.17 669.296 1548.68 635.662Z" fill="#7B4BAA"/>
<path d="M1659.19 625.354C1659.19 603.879 1645.35 574 1645.35 574C1645.35 574 1665.78 589.173 1672.25 616.95C1679.63 648.674 1630.26 673.033 1630.26 673.033C1630.26 673.033 1659.19 646.829 1659.19 625.354Z" fill="#7B4BAA"/>
<path d="M1598.63 639.607C1597.71 656.574 1578.02 667.118 1570.89 663.172C1563.77 659.227 1567.65 641.553 1572.77 630.18C1577.03 620.719 1583.19 608.872 1591.24 611.328C1599.3 613.783 1599.55 622.639 1598.63 639.607Z" fill="#7B4BAA"/>
<path d="M472.776 522H479.219L483.567 502.513L484.329 498.26L485.122 502.513L489.565 522H496.008L502.642 487.659H495.754L492.676 508.606L492.073 512.796L491.343 508.638L486.868 487.659H481.885L477.41 508.702L476.711 512.669L476.172 508.702L472.998 487.659H466.143L472.776 522ZM526.285 522.635C529.628 522.635 532.474 521.979 534.823 520.667C537.193 519.355 538.949 517.874 540.092 516.224L536.029 512.288C534.971 513.642 533.627 514.69 531.998 515.43C530.369 516.15 528.613 516.509 526.73 516.509C525.354 516.509 524.085 516.277 522.921 515.811C521.779 515.346 520.784 514.69 519.938 513.843C519.091 513.039 518.425 512.129 517.938 511.114C517.452 510.098 517.092 508.839 516.859 507.337V507.178H540.663V503.909C540.663 501.455 540.335 499.191 539.679 497.117C539.023 495.044 538.05 493.256 536.759 491.753C535.468 490.272 533.871 489.119 531.967 488.294C530.062 487.448 527.872 487.024 525.397 487.024C523.175 487.024 521.08 487.448 519.112 488.294C517.166 489.119 515.452 490.304 513.971 491.849C512.49 493.393 511.326 495.255 510.48 497.435C509.633 499.614 509.21 502.047 509.21 504.734V506.036C509.21 508.384 509.612 510.574 510.416 512.605C511.241 514.616 512.405 516.361 513.907 517.842C515.41 519.345 517.208 520.519 519.303 521.365C521.419 522.212 523.746 522.635 526.285 522.635ZM525.365 493.182C526.634 493.182 527.745 493.404 528.697 493.848C529.671 494.271 530.475 494.843 531.11 495.562C531.765 496.303 532.273 497.17 532.633 498.165C532.993 499.138 533.173 500.122 533.173 501.116V501.624H517.018C517.251 500.312 517.61 499.138 518.097 498.101C518.584 497.064 519.187 496.176 519.906 495.435C520.625 494.716 521.44 494.166 522.35 493.785C523.281 493.383 524.286 493.182 525.365 493.182ZM595.25 487.659H588.649V522H595.631V495.625C595.758 495.308 595.895 495.022 596.044 494.769C596.213 494.515 596.403 494.292 596.615 494.102C596.89 493.827 597.218 493.626 597.599 493.499C598.001 493.351 598.456 493.277 598.963 493.277C599.429 493.277 599.842 493.34 600.201 493.467C600.582 493.594 600.91 493.795 601.185 494.07C601.46 494.345 601.661 494.726 601.788 495.213C601.936 495.678 602.01 496.25 602.01 496.927V522H608.866V496.514C608.866 496.303 608.866 496.144 608.866 496.038C608.866 495.911 608.866 495.805 608.866 495.721C608.95 495.361 609.077 495.044 609.247 494.769C609.416 494.472 609.628 494.218 609.881 494.007C610.157 493.774 610.474 493.594 610.834 493.467C611.193 493.34 611.627 493.277 612.135 493.277C612.579 493.277 612.992 493.34 613.373 493.467C613.775 493.594 614.113 493.795 614.388 494.07C614.663 494.367 614.875 494.758 615.023 495.245C615.171 495.71 615.245 496.281 615.245 496.958V522H622.228V497.022C622.228 495.223 622.037 493.689 621.656 492.42C621.297 491.129 620.778 490.082 620.101 489.278C619.424 488.516 618.62 487.955 617.689 487.596C616.779 487.215 615.774 487.024 614.674 487.024C613.828 487.024 613.045 487.13 612.325 487.342C611.627 487.553 610.992 487.85 610.421 488.23C609.977 488.527 609.564 488.886 609.183 489.31C608.802 489.733 608.464 490.188 608.168 490.674C607.956 490.145 607.702 489.68 607.406 489.278C607.11 488.855 606.771 488.495 606.39 488.199C605.904 487.797 605.322 487.5 604.645 487.31C603.968 487.12 603.206 487.024 602.359 487.024C600.73 487.024 599.334 487.416 598.17 488.199C597.027 488.982 596.128 490.061 595.472 491.436L595.25 487.659ZM653.203 522H660.947V521.46C660.524 520.572 660.196 519.514 659.963 518.287C659.752 517.038 659.646 515.642 659.646 514.097V498.831C659.646 496.884 659.286 495.171 658.567 493.689C657.847 492.187 656.853 490.949 655.583 489.976C654.314 489.003 652.801 488.273 651.045 487.786C649.31 487.278 647.437 487.024 645.427 487.024C643.184 487.024 641.185 487.321 639.429 487.913C637.693 488.484 636.223 489.267 635.017 490.262C633.811 491.235 632.89 492.356 632.256 493.626C631.621 494.896 631.293 496.218 631.272 497.593H638.889C638.889 496.937 639.005 496.324 639.238 495.752C639.492 495.16 639.873 494.663 640.381 494.261C640.888 493.816 641.523 493.467 642.285 493.213C643.068 492.959 643.978 492.833 645.014 492.833C646.157 492.833 647.162 492.981 648.03 493.277C648.918 493.552 649.669 493.954 650.283 494.483C650.854 495.012 651.288 495.636 651.584 496.355C651.902 497.075 652.06 497.879 652.06 498.768V501.084H646.538C644.062 501.084 641.841 501.317 639.873 501.783C637.926 502.248 636.286 502.925 634.953 503.814C633.515 504.766 632.414 505.972 631.653 507.432C630.912 508.871 630.542 510.532 630.542 512.415C630.542 513.875 630.827 515.24 631.399 516.509C631.991 517.758 632.806 518.826 633.843 519.715C634.901 520.625 636.159 521.344 637.619 521.873C639.101 522.381 640.73 522.635 642.507 522.635C643.607 522.635 644.634 522.529 645.586 522.317C646.538 522.106 647.427 521.81 648.252 521.429C649.077 521.069 649.818 520.646 650.473 520.159C651.151 519.651 651.754 519.122 652.283 518.572C652.388 519.228 652.505 519.863 652.632 520.477C652.78 521.069 652.97 521.577 653.203 522ZM643.967 516.541C642.994 516.541 642.147 516.425 641.428 516.192C640.709 515.938 640.106 515.599 639.619 515.176C639.132 514.753 638.762 514.245 638.508 513.653C638.254 513.039 638.127 512.383 638.127 511.685C638.127 510.839 638.275 510.077 638.572 509.4C638.889 508.723 639.365 508.141 640 507.654C640.719 507.083 641.682 506.649 642.888 506.353C644.094 506.036 645.522 505.877 647.173 505.877H652.06V512.225C651.785 512.775 651.394 513.304 650.886 513.812C650.378 514.319 649.775 514.774 649.077 515.176C648.379 515.578 647.596 515.906 646.728 516.16C645.882 516.414 644.962 516.541 643.967 516.541ZM683.417 507.051L694.366 522H703.761L688.463 501.973L701.825 487.659H692.684L682.433 498.45L679.291 501.941V473.25H671.673V522H679.291V510.955L683.417 507.051ZM727.976 522.635C731.319 522.635 734.165 521.979 736.513 520.667C738.883 519.355 740.639 517.874 741.782 516.224L737.719 512.288C736.661 513.642 735.318 514.69 733.689 515.43C732.059 516.15 730.303 516.509 728.42 516.509C727.045 516.509 725.775 516.277 724.612 515.811C723.469 515.346 722.474 514.69 721.628 513.843C720.782 513.039 720.115 512.129 719.629 511.114C719.142 510.098 718.782 508.839 718.55 507.337V507.178H742.353V503.909C742.353 501.455 742.025 499.191 741.369 497.117C740.713 495.044 739.74 493.256 738.449 491.753C737.159 490.272 735.561 489.119 733.657 488.294C731.753 487.448 729.563 487.024 727.087 487.024C724.865 487.024 722.771 487.448 720.803 488.294C718.856 489.119 717.142 490.304 715.661 491.849C714.18 493.393 713.016 495.255 712.17 497.435C711.324 499.614 710.901 502.047 710.901 504.734V506.036C710.901 508.384 711.303 510.574 712.107 512.605C712.932 514.616 714.096 516.361 715.598 517.842C717.1 519.345 718.899 520.519 720.993 521.365C723.109 522.212 725.437 522.635 727.976 522.635ZM727.055 493.182C728.325 493.182 729.436 493.404 730.388 493.848C731.361 494.271 732.165 494.843 732.8 495.562C733.456 496.303 733.964 497.17 734.323 498.165C734.683 499.138 734.863 500.122 734.863 501.116V501.624H718.708C718.941 500.312 719.301 499.138 719.787 498.101C720.274 497.064 720.877 496.176 721.596 495.435C722.316 494.716 723.13 494.166 724.04 493.785C724.971 493.383 725.976 493.182 727.055 493.182ZM815.063 512.701C815.063 513.251 814.936 513.759 814.682 514.224C814.449 514.668 814.09 515.081 813.603 515.462C813.011 515.927 812.217 516.298 811.223 516.573C810.249 516.848 809.107 516.985 807.795 516.985C806.822 516.985 805.859 516.89 804.907 516.7C803.955 516.488 803.108 516.15 802.368 515.684C801.606 515.24 800.971 514.658 800.463 513.938C799.977 513.198 799.702 512.299 799.638 511.241H792.275C792.275 512.658 792.614 514.055 793.291 515.43C793.968 516.806 794.962 518.022 796.274 519.08C797.565 520.159 799.162 521.027 801.066 521.683C802.992 522.339 805.192 522.667 807.668 522.667C809.89 522.667 811.91 522.413 813.73 521.905C815.55 521.397 817.115 520.688 818.427 519.778C819.718 518.868 820.712 517.779 821.411 516.509C822.13 515.24 822.49 513.843 822.49 512.32C822.49 510.754 822.151 509.4 821.474 508.257C820.797 507.115 819.845 506.12 818.618 505.274C817.391 504.47 815.909 503.793 814.174 503.243C812.439 502.693 810.525 502.227 808.43 501.846C806.928 501.592 805.679 501.307 804.685 500.989C803.711 500.672 802.95 500.323 802.4 499.942C801.807 499.582 801.394 499.17 801.162 498.704C800.929 498.217 800.813 497.678 800.813 497.085C800.813 496.514 800.95 495.975 801.225 495.467C801.5 494.938 801.913 494.483 802.463 494.102C803.013 493.679 803.711 493.351 804.558 493.118C805.425 492.864 806.43 492.737 807.573 492.737C808.821 492.737 809.911 492.907 810.842 493.245C811.773 493.562 812.535 493.996 813.127 494.546C813.635 495.012 814.016 495.541 814.27 496.133C814.545 496.705 814.682 497.308 814.682 497.942H822.268C822.268 496.398 821.929 494.959 821.252 493.626C820.575 492.293 819.612 491.14 818.364 490.167C817.094 489.193 815.55 488.431 813.73 487.881C811.91 487.31 809.858 487.024 807.573 487.024C805.436 487.024 803.489 487.299 801.733 487.85C799.998 488.4 798.517 489.151 797.29 490.103C796.041 491.055 795.079 492.166 794.401 493.436C793.746 494.684 793.418 496.006 793.418 497.403C793.418 498.863 793.746 500.143 794.401 501.243C795.057 502.322 795.967 503.274 797.131 504.1C798.316 504.946 799.723 505.665 801.352 506.258C803.003 506.85 804.822 507.347 806.811 507.75C808.398 508.046 809.72 508.363 810.778 508.702C811.836 509.04 812.693 509.4 813.349 509.781C813.963 510.204 814.397 510.648 814.65 511.114C814.926 511.579 815.063 512.108 815.063 512.701ZM837.279 487.659H830.677V522H837.659V495.625C837.786 495.308 837.924 495.022 838.072 494.769C838.241 494.515 838.432 494.292 838.643 494.102C838.918 493.827 839.246 493.626 839.627 493.499C840.029 493.351 840.484 493.277 840.992 493.277C841.457 493.277 841.87 493.34 842.23 493.467C842.611 493.594 842.939 493.795 843.214 494.07C843.489 494.345 843.69 494.726 843.817 495.213C843.965 495.678 844.039 496.25 844.039 496.927V522H850.894V496.514C850.894 496.303 850.894 496.144 850.894 496.038C850.894 495.911 850.894 495.805 850.894 495.721C850.979 495.361 851.106 495.044 851.275 494.769C851.444 494.472 851.656 494.218 851.91 494.007C852.185 493.774 852.502 493.594 852.862 493.467C853.222 493.34 853.656 493.277 854.163 493.277C854.608 493.277 855.02 493.34 855.401 493.467C855.803 493.594 856.142 493.795 856.417 494.07C856.692 494.367 856.903 494.758 857.052 495.245C857.2 495.71 857.274 496.281 857.274 496.958V522H864.256V497.022C864.256 495.223 864.066 493.689 863.685 492.42C863.325 491.129 862.807 490.082 862.13 489.278C861.453 488.516 860.649 487.955 859.718 487.596C858.808 487.215 857.803 487.024 856.702 487.024C855.856 487.024 855.073 487.13 854.354 487.342C853.656 487.553 853.021 487.85 852.45 488.23C852.005 488.527 851.593 488.886 851.212 489.31C850.831 489.733 850.492 490.188 850.196 490.674C849.985 490.145 849.731 489.68 849.434 489.278C849.138 488.855 848.8 488.495 848.419 488.199C847.932 487.797 847.35 487.5 846.673 487.31C845.996 487.12 845.234 487.024 844.388 487.024C842.759 487.024 841.362 487.416 840.199 488.199C839.056 488.982 838.157 490.061 837.501 491.436L837.279 487.659ZM895.231 522H902.976V521.46C902.552 520.572 902.224 519.514 901.992 518.287C901.78 517.038 901.674 515.642 901.674 514.097V498.831C901.674 496.884 901.315 495.171 900.595 493.689C899.876 492.187 898.881 490.949 897.612 489.976C896.342 489.003 894.829 488.273 893.073 487.786C891.338 487.278 889.466 487.024 887.456 487.024C885.213 487.024 883.213 487.321 881.457 487.913C879.722 488.484 878.251 489.267 877.045 490.262C875.839 491.235 874.919 492.356 874.284 493.626C873.649 494.896 873.321 496.218 873.3 497.593H880.917C880.917 496.937 881.034 496.324 881.267 495.752C881.521 495.16 881.901 494.663 882.409 494.261C882.917 493.816 883.552 493.467 884.313 493.213C885.096 492.959 886.006 492.833 887.043 492.833C888.186 492.833 889.191 492.981 890.058 493.277C890.947 493.552 891.698 493.954 892.312 494.483C892.883 495.012 893.317 495.636 893.613 496.355C893.93 497.075 894.089 497.879 894.089 498.768V501.084H888.566C886.091 501.084 883.869 501.317 881.901 501.783C879.955 502.248 878.315 502.925 876.982 503.814C875.543 504.766 874.443 505.972 873.681 507.432C872.941 508.871 872.57 510.532 872.57 512.415C872.57 513.875 872.856 515.24 873.427 516.509C874.02 517.758 874.834 518.826 875.871 519.715C876.929 520.625 878.188 521.344 879.648 521.873C881.129 522.381 882.758 522.635 884.536 522.635C885.636 522.635 886.662 522.529 887.614 522.317C888.566 522.106 889.455 521.81 890.28 521.429C891.105 521.069 891.846 520.646 892.502 520.159C893.179 519.651 893.782 519.122 894.311 518.572C894.417 519.228 894.533 519.863 894.66 520.477C894.808 521.069 894.999 521.577 895.231 522ZM885.996 516.541C885.022 516.541 884.176 516.425 883.457 516.192C882.737 515.938 882.134 515.599 881.647 515.176C881.161 514.753 880.791 514.245 880.537 513.653C880.283 513.039 880.156 512.383 880.156 511.685C880.156 510.839 880.304 510.077 880.6 509.4C880.917 508.723 881.394 508.141 882.028 507.654C882.748 507.083 883.71 506.649 884.917 506.353C886.123 506.036 887.551 505.877 889.201 505.877H894.089V512.225C893.814 512.775 893.422 513.304 892.915 513.812C892.407 514.319 891.804 514.774 891.105 515.176C890.407 515.578 889.624 515.906 888.757 516.16C887.91 516.414 886.99 516.541 885.996 516.541ZM937.379 487.024C935.009 487.024 932.84 487.575 930.872 488.675C928.926 489.775 927.254 491.288 925.858 493.213L925.826 492.42L925.508 487.659H918.399V522H925.985V500.799C926.387 499.783 926.884 498.884 927.476 498.101C928.069 497.318 928.788 496.673 929.634 496.165C930.417 495.636 931.317 495.245 932.332 494.991C933.348 494.737 934.49 494.61 935.76 494.61C936.881 494.61 938.003 494.673 939.124 494.8C940.267 494.927 941.42 495.118 942.584 495.372L943.663 487.881C943.007 487.649 942.097 487.448 940.933 487.278C939.791 487.109 938.606 487.024 937.379 487.024ZM969.211 479.28H961.594V487.659H953.278V493.34H961.594V510.225C961.594 512.426 961.879 514.309 962.451 515.875C963.043 517.44 963.858 518.731 964.894 519.747C965.931 520.741 967.169 521.482 968.608 521.968C970.068 522.434 971.665 522.667 973.4 522.667C974.352 522.667 975.305 522.614 976.257 522.508C977.23 522.423 978.161 522.296 979.05 522.127C979.938 521.958 980.764 521.757 981.525 521.524C982.308 521.27 982.975 520.974 983.525 520.635L982.7 515.398C982.319 515.483 981.843 515.589 981.271 515.716C980.721 515.822 980.118 515.917 979.462 516.001C978.828 516.107 978.161 516.192 977.463 516.255C976.765 516.319 976.087 516.351 975.432 516.351C974.522 516.351 973.686 516.245 972.924 516.033C972.163 515.822 971.507 515.462 970.956 514.954C970.406 514.467 969.973 513.801 969.655 512.955C969.359 512.087 969.211 511.019 969.211 509.749V493.34H982.128V487.659H969.211V479.28ZM1034.72 535.203H1042.3V518.89C1042.7 519.334 1043.14 519.747 1043.6 520.127C1044.07 520.487 1044.55 520.826 1045.06 521.143C1045.93 521.63 1046.87 522 1047.89 522.254C1048.92 522.508 1050.06 522.635 1051.28 522.635C1053.44 522.635 1055.36 522.19 1057.03 521.302C1058.7 520.413 1060.11 519.186 1061.25 517.62C1062.39 516.076 1063.25 514.235 1063.82 512.098C1064.41 509.961 1064.71 507.654 1064.71 505.179V504.512C1064.71 501.931 1064.41 499.572 1063.82 497.435C1063.25 495.276 1062.39 493.425 1061.25 491.88C1060.11 490.336 1058.69 489.14 1057 488.294C1055.32 487.448 1053.39 487.024 1051.19 487.024C1050.07 487.024 1049.01 487.151 1048.01 487.405C1047.02 487.638 1046.11 487.977 1045.28 488.421C1044.65 488.759 1044.06 489.161 1043.51 489.627C1042.96 490.092 1042.45 490.611 1041.98 491.182L1041.7 487.659H1034.72V535.203ZM1057.12 504.512V505.179C1057.12 506.702 1056.98 508.152 1056.68 509.527C1056.38 510.881 1055.91 512.087 1055.25 513.145C1054.62 514.182 1053.79 515.007 1052.78 515.621C1051.78 516.213 1050.57 516.509 1049.16 516.509C1048.29 516.509 1047.5 516.414 1046.78 516.224C1046.06 516.012 1045.41 515.737 1044.84 515.398C1044.29 515.039 1043.8 514.616 1043.38 514.129C1042.96 513.642 1042.6 513.103 1042.3 512.51V497.244C1042.64 496.609 1043.03 496.038 1043.48 495.53C1043.94 495.022 1044.48 494.599 1045.09 494.261C1045.62 493.943 1046.23 493.7 1046.9 493.531C1047.58 493.361 1048.31 493.277 1049.09 493.277C1050.51 493.277 1051.73 493.573 1052.74 494.166C1053.76 494.758 1054.59 495.562 1055.25 496.578C1055.89 497.593 1056.35 498.789 1056.65 500.164C1056.96 501.518 1057.12 502.968 1057.12 504.512ZM1091.02 522.635C1094.36 522.635 1097.21 521.979 1099.56 520.667C1101.93 519.355 1103.68 517.874 1104.82 516.224L1100.76 512.288C1099.7 513.642 1098.36 514.69 1096.73 515.43C1095.1 516.15 1093.35 516.509 1091.46 516.509C1090.09 516.509 1088.82 516.277 1087.65 515.811C1086.51 515.346 1085.52 514.69 1084.67 513.843C1083.82 513.039 1083.16 512.129 1082.67 511.114C1082.18 510.098 1081.83 508.839 1081.59 507.337V507.178H1105.4V503.909C1105.4 501.455 1105.07 499.191 1104.41 497.117C1103.76 495.044 1102.78 493.256 1101.49 491.753C1100.2 490.272 1098.6 489.119 1096.7 488.294C1094.8 487.448 1092.61 487.024 1090.13 487.024C1087.91 487.024 1085.81 487.448 1083.85 488.294C1081.9 489.119 1080.19 490.304 1078.7 491.849C1077.22 493.393 1076.06 495.255 1075.21 497.435C1074.37 499.614 1073.94 502.047 1073.94 504.734V506.036C1073.94 508.384 1074.35 510.574 1075.15 512.605C1075.97 514.616 1077.14 516.361 1078.64 517.842C1080.14 519.345 1081.94 520.519 1084.04 521.365C1086.15 522.212 1088.48 522.635 1091.02 522.635ZM1090.1 493.182C1091.37 493.182 1092.48 493.404 1093.43 493.848C1094.4 494.271 1095.21 494.843 1095.84 495.562C1096.5 496.303 1097.01 497.17 1097.37 498.165C1097.73 499.138 1097.91 500.122 1097.91 501.116V501.624H1081.75C1081.98 500.312 1082.34 499.138 1082.83 498.101C1083.32 497.064 1083.92 496.176 1084.64 495.435C1085.36 494.716 1086.17 494.166 1087.08 493.785C1088.01 493.383 1089.02 493.182 1090.1 493.182ZM1113.93 504.512V505.179C1113.93 507.697 1114.29 510.014 1115.01 512.129C1115.73 514.245 1116.78 516.086 1118.15 517.652C1119.51 519.218 1121.18 520.445 1123.17 521.333C1125.16 522.222 1127.41 522.667 1129.93 522.667C1132.43 522.667 1134.66 522.222 1136.63 521.333C1138.61 520.445 1140.29 519.218 1141.64 517.652C1142.99 516.086 1144.03 514.245 1144.75 512.129C1145.47 510.014 1145.83 507.697 1145.83 505.179V504.512C1145.83 502.015 1145.47 499.709 1144.75 497.593C1144.03 495.456 1142.99 493.605 1141.64 492.039C1140.26 490.473 1138.58 489.246 1136.59 488.357C1134.63 487.469 1132.38 487.024 1129.86 487.024C1127.35 487.024 1125.1 487.469 1123.14 488.357C1121.17 489.246 1119.51 490.473 1118.15 492.039C1116.78 493.605 1115.73 495.456 1115.01 497.593C1114.29 499.709 1113.93 502.015 1113.93 504.512ZM1121.52 505.179V504.512C1121.52 503.01 1121.68 501.571 1121.99 500.196C1122.33 498.82 1122.84 497.614 1123.52 496.578C1124.22 495.541 1125.08 494.716 1126.12 494.102C1127.18 493.488 1128.43 493.182 1129.86 493.182C1131.32 493.182 1132.57 493.488 1133.61 494.102C1134.67 494.716 1135.54 495.541 1136.21 496.578C1136.89 497.614 1137.4 498.82 1137.74 500.196C1138.07 501.571 1138.24 503.01 1138.24 504.512V505.179C1138.24 506.723 1138.07 508.183 1137.74 509.559C1137.42 510.934 1136.92 512.14 1136.24 513.177C1135.57 514.214 1134.7 515.039 1133.64 515.652C1132.58 516.245 1131.35 516.541 1129.93 516.541C1128.47 516.541 1127.21 516.245 1126.15 515.652C1125.09 515.039 1124.22 514.214 1123.52 513.177C1122.84 512.14 1122.33 510.934 1121.99 509.559C1121.68 508.183 1121.52 506.723 1121.52 505.179ZM1155.73 535.203H1163.32V518.89C1163.72 519.334 1164.15 519.747 1164.62 520.127C1165.08 520.487 1165.57 520.826 1166.08 521.143C1166.94 521.63 1167.89 522 1168.9 522.254C1169.94 522.508 1171.07 522.635 1172.3 522.635C1174.46 522.635 1176.37 522.19 1178.04 521.302C1179.71 520.413 1181.12 519.186 1182.26 517.62C1183.41 516.076 1184.26 514.235 1184.83 512.098C1185.43 509.961 1185.72 507.654 1185.72 505.179V504.512C1185.72 501.931 1185.43 499.572 1184.83 497.435C1184.26 495.276 1183.41 493.425 1182.26 491.88C1181.12 490.336 1179.7 489.14 1178.01 488.294C1176.34 487.448 1174.4 487.024 1172.2 487.024C1171.08 487.024 1170.02 487.151 1169.03 487.405C1168.03 487.638 1167.12 487.977 1166.3 488.421C1165.66 488.759 1165.07 489.161 1164.52 489.627C1163.97 490.092 1163.46 490.611 1163 491.182L1162.71 487.659H1155.73V535.203ZM1178.14 504.512V505.179C1178.14 506.702 1177.99 508.152 1177.69 509.527C1177.4 510.881 1176.92 512.087 1176.27 513.145C1175.63 514.182 1174.81 515.007 1173.79 515.621C1172.79 516.213 1171.59 516.509 1170.17 516.509C1169.3 516.509 1168.51 516.414 1167.79 516.224C1167.07 516.012 1166.43 515.737 1165.85 515.398C1165.3 515.039 1164.82 514.616 1164.39 514.129C1163.97 513.642 1163.61 513.103 1163.32 512.51V497.244C1163.65 496.609 1164.05 496.038 1164.49 495.53C1164.96 495.022 1165.5 494.599 1166.11 494.261C1166.64 493.943 1167.24 493.7 1167.92 493.531C1168.59 493.361 1169.32 493.277 1170.11 493.277C1171.53 493.277 1172.74 493.573 1173.76 494.166C1174.77 494.758 1175.61 495.562 1176.27 496.578C1176.9 497.593 1177.37 498.789 1177.66 500.164C1177.98 501.518 1178.14 502.968 1178.14 504.512ZM1197.46 473.25V479.566H1208.32V515.716H1197.46V522H1226.38V515.716H1215.97V473.25H1197.46ZM1252.37 522.635C1255.71 522.635 1258.56 521.979 1260.91 520.667C1263.28 519.355 1265.03 517.874 1266.18 516.224L1262.11 512.288C1261.06 513.642 1259.71 514.69 1258.08 515.43C1256.45 516.15 1254.7 516.509 1252.82 516.509C1251.44 516.509 1250.17 516.277 1249.01 515.811C1247.86 515.346 1246.87 514.69 1246.02 513.843C1245.18 513.039 1244.51 512.129 1244.02 511.114C1243.54 510.098 1243.18 508.839 1242.94 507.337V507.178H1266.75V503.909C1266.75 501.455 1266.42 499.191 1265.76 497.117C1265.11 495.044 1264.14 493.256 1262.84 491.753C1261.55 490.272 1259.96 489.119 1258.05 488.294C1256.15 487.448 1253.96 487.024 1251.48 487.024C1249.26 487.024 1247.17 487.448 1245.2 488.294C1243.25 489.119 1241.54 490.304 1240.06 491.849C1238.58 493.393 1237.41 495.255 1236.57 497.435C1235.72 499.614 1235.3 502.047 1235.3 504.734V506.036C1235.3 508.384 1235.7 510.574 1236.5 512.605C1237.33 514.616 1238.49 516.361 1239.99 517.842C1241.5 519.345 1243.29 520.519 1245.39 521.365C1247.5 522.212 1249.83 522.635 1252.37 522.635ZM1251.45 493.182C1252.72 493.182 1253.83 493.404 1254.78 493.848C1255.76 494.271 1256.56 494.843 1257.2 495.562C1257.85 496.303 1258.36 497.17 1258.72 498.165C1259.08 499.138 1259.26 500.122 1259.26 501.116V501.624H1243.1C1243.34 500.312 1243.7 499.138 1244.18 498.101C1244.67 497.064 1245.27 496.176 1245.99 495.435C1246.71 494.716 1247.53 494.166 1248.44 493.785C1249.37 493.383 1250.37 493.182 1251.45 493.182ZM1325.65 522H1333.27V493.34H1346V487.659H1333.27V485.564C1333.27 484.358 1333.42 483.3 1333.71 482.391C1334.03 481.481 1334.5 480.719 1335.11 480.105C1335.77 479.45 1336.6 478.952 1337.62 478.614C1338.65 478.275 1339.88 478.106 1341.3 478.106C1342.65 478.106 1343.86 478.191 1344.92 478.36C1346 478.529 1346.96 478.73 1347.81 478.963L1348.41 472.901C1347.77 472.774 1347.15 472.658 1346.54 472.552C1345.92 472.425 1345.32 472.319 1344.73 472.234C1344.01 472.129 1343.27 472.044 1342.51 471.98C1341.76 471.896 1341 471.854 1340.22 471.854C1338 471.854 1335.99 472.15 1334.19 472.742C1332.41 473.335 1330.89 474.202 1329.62 475.345C1328.35 476.508 1327.37 477.947 1326.67 479.661C1325.99 481.354 1325.65 483.322 1325.65 485.564V487.659H1316.45V493.34H1325.65V522ZM1379.86 522H1386.75V487.659H1379.13V511.971C1378.83 512.605 1378.47 513.187 1378.05 513.716C1377.63 514.224 1377.14 514.668 1376.59 515.049C1375.93 515.472 1375.17 515.811 1374.31 516.065C1373.44 516.298 1372.45 516.414 1371.35 516.414C1370.3 516.414 1369.38 516.277 1368.59 516.001C1367.81 515.726 1367.16 515.261 1366.66 514.605C1366.15 513.97 1365.78 513.124 1365.55 512.066C1365.31 510.987 1365.2 509.654 1365.2 508.067V487.659H1357.61V508.003C1357.61 510.585 1357.9 512.806 1358.47 514.668C1359.04 516.509 1359.84 518.022 1360.88 519.207C1361.94 520.392 1363.2 521.27 1364.66 521.841C1366.14 522.391 1367.78 522.667 1369.58 522.667C1371.63 522.667 1373.49 522.19 1375.16 521.238C1376.83 520.265 1378.25 518.921 1379.42 517.208L1379.86 522ZM1397.7 522H1405.28V497.498C1405.62 496.927 1406.01 496.398 1406.46 495.911C1406.9 495.424 1407.38 495.012 1407.88 494.673C1408.54 494.229 1409.27 493.89 1410.07 493.658C1410.88 493.404 1411.74 493.277 1412.68 493.277C1413.8 493.277 1414.79 493.404 1415.66 493.658C1416.53 493.89 1417.27 494.292 1417.88 494.864C1418.49 495.435 1418.96 496.197 1419.28 497.149C1419.59 498.101 1419.75 499.286 1419.75 500.704V522H1427.34V500.577C1427.34 498.165 1427.05 496.112 1426.48 494.419C1425.91 492.706 1425.11 491.299 1424.07 490.198C1423.03 489.098 1421.78 488.294 1420.32 487.786C1418.86 487.278 1417.26 487.024 1415.5 487.024C1414.17 487.024 1412.9 487.215 1411.69 487.596C1410.49 487.977 1409.38 488.516 1408.36 489.214C1407.72 489.659 1407.12 490.167 1406.55 490.738C1406 491.288 1405.49 491.891 1405.03 492.547L1404.55 487.659H1397.7V522ZM1438.03 522H1445.62V497.498C1445.96 496.927 1446.35 496.398 1446.79 495.911C1447.24 495.424 1447.71 495.012 1448.22 494.673C1448.88 494.229 1449.61 493.89 1450.41 493.658C1451.22 493.404 1452.08 493.277 1453.01 493.277C1454.14 493.277 1455.13 493.404 1456 493.658C1456.86 493.89 1457.61 494.292 1458.22 494.864C1458.83 495.435 1459.3 496.197 1459.62 497.149C1459.93 498.101 1460.09 499.286 1460.09 500.704V522H1467.68V500.577C1467.68 498.165 1467.39 496.112 1466.82 494.419C1466.25 492.706 1465.44 491.299 1464.41 490.198C1463.37 489.098 1462.12 488.294 1460.66 487.786C1459.2 487.278 1457.59 487.024 1455.84 487.024C1454.51 487.024 1453.24 487.215 1452.03 487.596C1450.82 487.977 1449.71 488.516 1448.7 489.214C1448.06 489.659 1447.46 490.167 1446.89 490.738C1446.34 491.288 1445.83 491.891 1445.37 492.547L1444.89 487.659H1438.03V522ZM1482.69 535.87C1484.36 535.87 1485.82 535.573 1487.07 534.981C1488.32 534.41 1489.4 533.69 1490.31 532.823C1491.22 531.976 1491.97 531.045 1492.56 530.03C1493.17 529.035 1493.68 528.094 1494.08 527.205L1511.51 487.659H1503.1L1494.81 508.733L1493.38 512.415L1492.21 508.638L1483.67 487.659H1475.32L1489.96 520.477L1487.8 524.571C1487.57 525.036 1487.31 525.481 1487.04 525.904C1486.78 526.327 1486.44 526.814 1486.02 527.364C1485.58 527.914 1485.06 528.401 1484.47 528.824C1483.87 529.268 1483.21 529.49 1482.47 529.49C1482.13 529.49 1481.68 529.469 1481.13 529.427C1480.6 529.406 1480.13 529.384 1479.7 529.363L1478.66 535.298C1479.27 535.446 1479.92 535.573 1480.59 535.679C1481.27 535.806 1481.97 535.87 1482.69 535.87Z" fill="#F6EDFF"/>
</svg>
