<svg width="2668" height="1616" viewBox="0 0 2668 1616" fill="none" xmlns="http://www.w3.org/2000/svg">
<rect width="2668" height="1616" fill="#D8D8D8"/>
<path d="M373.191 1239.01C366.31 1239.01 348.841 1258.77 338.254 1262.3C330.51 1264.88 363.134 1231.07 363.134 1223.13C363.134 1215.19 355.193 1212.54 355.193 1212.54H396.483C396.483 1212.54 393.836 1218.37 396.483 1223.13C399.129 1227.9 431.949 1244.83 421.892 1245.36C411.834 1245.89 396.483 1235.84 390.13 1242.19C383.778 1248.54 382.72 1276.07 382.72 1276.07C382.72 1276.07 367.368 1303.06 367.368 1290.36C367.368 1277.65 380.073 1239.01 373.191 1239.01Z" fill="#CCB884"/>
<path d="M549.995 1272.89C544.701 1272.05 547.348 1251.72 544.701 1241.13C542.054 1230.54 534.114 1218.9 534.114 1218.9L585.461 1200.9C585.461 1200.9 629.397 1248.01 624.104 1251.72C618.81 1255.42 580.697 1218.9 580.697 1218.9C580.697 1218.9 610.87 1266.01 605.047 1272.89C599.224 1279.77 585.461 1251.72 585.461 1251.72C585.461 1251.72 571.169 1237.95 560.582 1241.13C549.995 1244.31 562.909 1274.93 549.995 1272.89Z" fill="#CCB884"/>
<path d="M288.495 1161.73C272.614 1160.67 313.904 977.512 350.958 977.512C388.013 977.512 323.432 1128.91 323.432 1128.91C323.432 1128.91 304.375 1162.79 288.495 1161.73Z" fill="#554F41"/>
<path d="M602.252 1093.9C602.252 1093.9 624.485 1129.89 648.835 1145.77C661.272 1153.88 664.109 1104.53 646.997 1057.97C630.606 1013.38 596.895 974.525 584.254 988.027C558.416 1015.63 602.252 1093.9 602.252 1093.9Z" fill="#554F41"/>
<path d="M344.606 1217.84C316.021 1192.43 295.906 1025.15 355.193 988.099L583.873 975.395C583.873 975.395 616.291 1030.54 627.28 1068.56C648.428 1141.72 620.928 1232.66 587.049 1237.95C553.171 1243.25 455.77 1200.9 455.77 1200.9C455.77 1200.9 373.191 1243.25 344.606 1217.84Z" fill="#EBE3CD"/>
<path d="M422.95 1110.91C411.304 1108.79 428.244 1023.64 391.189 1008.21C354.134 992.788 337.195 971.16 343.547 919.284C349.899 867.407 412.363 813.413 496.001 827.176C579.638 840.94 611.248 942.575 602.93 958.456C594.611 974.336 547.877 1008.21 503.412 1008.21C458.946 1008.21 434.596 1113.03 422.95 1110.91Z" fill="#C6AE71"/>
<circle cx="531.997" cy="931.988" r="47.6417" fill="#FAE161"/>
<circle cx="389.601" cy="918.754" r="39.7014" fill="#FAE161"/>
<circle cx="533.585" cy="921.931" r="17.4686" fill="black"/>
<circle cx="384.837" cy="918.225" r="20.1154" fill="black"/>
<path d="M857.301 1229.06C850.801 1229.06 834.301 1247.72 824.301 1251.06C816.987 1253.49 847.801 1221.56 847.801 1214.06C847.801 1206.56 840.301 1204.06 840.301 1204.06H879.301C879.301 1204.06 876.801 1209.56 879.301 1214.06C881.801 1218.56 912.801 1234.56 903.301 1235.06C893.801 1235.56 879.301 1226.06 873.301 1232.06C867.301 1238.06 866.301 1264.06 866.301 1264.06C866.301 1264.06 851.801 1289.56 851.801 1277.56C851.801 1265.56 863.801 1229.06 857.301 1229.06Z" fill="#380070"/>
<path d="M1024.3 1261.06C1019.3 1260.27 1021.8 1241.06 1019.3 1231.06C1016.8 1221.06 1009.3 1210.06 1009.3 1210.06L1057.8 1193.06C1057.8 1193.06 1099.3 1237.56 1094.3 1241.06C1089.3 1244.56 1053.3 1210.06 1053.3 1210.06C1053.3 1210.06 1081.8 1254.56 1076.3 1261.06C1070.8 1267.56 1057.8 1241.06 1057.8 1241.06C1057.8 1241.06 1044.3 1228.06 1034.3 1231.06C1024.3 1234.06 1036.5 1262.98 1024.3 1261.06Z" fill="#380070"/>
<path d="M777.301 1156.06C762.301 1155.06 801.301 982.056 836.301 982.056C871.301 982.056 810.301 1125.06 810.301 1125.06C810.301 1125.06 792.301 1157.06 777.301 1156.06Z" fill="#380070"/>
<path d="M1073.66 1091.99C1073.66 1091.99 1094.66 1125.99 1117.66 1140.99C1129.41 1148.65 1132.09 1102.03 1115.92 1058.06C1100.44 1015.93 1068.6 979.234 1056.66 991.987C1032.26 1018.06 1073.66 1091.99 1073.66 1091.99Z" fill="#380070"/>
<path d="M830.301 1209.06C803.301 1185.06 784.301 1027.06 840.301 992.056L1056.3 980.056C1056.3 980.056 1086.92 1032.15 1097.3 1068.06C1117.28 1137.16 1091.3 1223.06 1059.3 1228.06C1027.3 1233.06 935.301 1193.06 935.301 1193.06C935.301 1193.06 857.301 1233.06 830.301 1209.06Z" fill="#DCC5F3"/>
<path d="M904.301 1108.06C893.301 1106.06 909.301 1025.63 874.301 1011.06C839.301 996.484 823.301 976.056 829.301 927.056C835.301 878.056 894.301 827.056 973.301 840.056C1052.3 853.056 1082.16 949.056 1074.3 964.056C1066.44 979.056 1022.3 1011.06 980.301 1011.06C938.301 1011.06 915.301 1110.06 904.301 1108.06Z" fill="#B28CD9"/>
<path d="M904.301 1108.06C893.301 1106.06 909.301 1025.63 874.301 1011.06C839.301 996.484 823.301 976.056 829.301 927.056C835.301 878.056 894.301 827.056 973.301 840.056C1052.3 853.056 1082.16 949.056 1074.3 964.056C1066.44 979.056 1022.3 1011.06 980.301 1011.06C938.301 1011.06 915.301 1110.06 904.301 1108.06Z" fill="#B28CD9"/>
<circle cx="1007.3" cy="939.056" r="45" fill="#FFD600"/>
<circle cx="872.801" cy="926.556" r="37.5" fill="#FFD600"/>
<circle cx="1008.8" cy="929.556" r="16.5" fill="#380070"/>
<circle cx="868.301" cy="926.056" r="19" fill="#380070"/>
<path d="M1437.04 1057.99V837.135H1410.5V932.09H1319.94V837.135H1293.55V1057.99H1319.94V955.904H1410.5V1057.99H1437.04Z" fill="#380070"/>
<path d="M1557.63 1061.02C1573.61 1061.02 1587.01 1057.84 1597.83 1051.47C1608.75 1044.99 1616.94 1037.61 1622.4 1029.32L1605.26 1015.97C1600.1 1022.65 1593.63 1028 1585.84 1032.05C1578.06 1036.09 1569.16 1038.12 1559.15 1038.12C1551.56 1038.12 1544.64 1036.7 1538.37 1033.87C1532.1 1031.04 1526.74 1027.15 1522.29 1022.19C1517.94 1017.54 1514.5 1012.18 1511.97 1006.11C1509.55 1000.04 1507.98 993.016 1507.27 985.028V983.966H1624.52V971.376C1624.52 959.949 1623.06 949.331 1620.12 939.522C1617.29 929.713 1612.94 921.168 1607.08 913.887C1601.21 906.708 1593.83 901.095 1584.93 897.05C1576.14 892.904 1565.82 890.831 1553.99 890.831C1544.59 890.831 1535.38 892.753 1526.38 896.595C1517.48 900.438 1509.55 905.949 1502.57 913.129C1495.49 920.41 1489.83 929.309 1485.58 939.825C1481.33 950.241 1479.21 962.073 1479.21 975.32V981.69C1479.21 993.117 1481.13 1003.68 1484.97 1013.39C1488.82 1023.1 1494.18 1031.49 1501.05 1038.57C1507.93 1045.65 1516.17 1051.16 1525.78 1055.11C1535.48 1059.05 1546.1 1061.02 1557.63 1061.02ZM1553.99 913.887C1561.17 913.887 1567.34 915.202 1572.5 917.831C1577.75 920.46 1582.1 923.899 1585.54 928.146C1588.98 932.393 1591.66 937.449 1593.58 943.314C1595.5 949.078 1596.46 954.488 1596.46 959.544V960.91H1508.18C1509.29 953.325 1511.21 946.651 1513.95 940.887C1516.78 935.022 1520.21 930.067 1524.26 926.022C1528.3 922.078 1532.86 919.095 1537.91 917.073C1542.97 914.949 1548.33 913.887 1553.99 913.887Z" fill="#380070"/>
<path d="M1676.1 825V849.421H1731.92V1033.72H1676.1V1057.99H1813.52V1033.72H1759.98V825H1676.1Z" fill="#380070"/>
<path d="M1862.67 825V849.421H1918.49V1033.72H1862.67V1057.99H2000.1V1033.72H1946.55V825H1862.67Z" fill="#380070"/>
<path d="M2036.95 974.41V977.747C2036.95 989.578 2038.67 1000.55 2042.11 1010.66C2045.55 1020.77 2050.5 1029.57 2056.98 1037.06C2063.35 1044.54 2071.13 1050.4 2080.34 1054.65C2089.64 1058.9 2100.11 1061.02 2111.74 1061.02C2123.26 1061.02 2133.63 1058.9 2142.83 1054.65C2152.03 1050.4 2159.87 1044.54 2166.34 1037.06C2172.71 1029.57 2177.62 1020.77 2181.06 1010.66C2184.49 1000.55 2186.21 989.578 2186.21 977.747V974.41C2186.21 962.578 2184.49 951.606 2181.06 941.494C2177.62 931.281 2172.71 922.432 2166.34 914.949C2159.87 907.466 2151.98 901.601 2142.68 897.354C2133.48 893.005 2123.06 890.831 2111.43 890.831C2099.9 890.831 2089.54 893.005 2080.34 897.354C2071.13 901.601 2063.35 907.466 2056.98 914.949C2050.5 922.432 2045.55 931.281 2042.11 941.494C2038.67 951.606 2036.95 962.578 2036.95 974.41ZM2065.02 977.747V974.41C2065.02 966.421 2065.98 958.786 2067.9 951.505C2069.82 944.123 2072.75 937.651 2076.7 932.09C2080.54 926.528 2085.34 922.129 2091.11 918.893C2096.87 915.556 2103.65 913.887 2111.43 913.887C2119.22 913.887 2125.99 915.556 2131.76 918.893C2137.62 922.129 2142.53 926.528 2146.47 932.09C2150.31 937.651 2153.2 944.123 2155.12 951.505C2157.14 958.786 2158.15 966.421 2158.15 974.41V977.747C2158.15 985.837 2157.19 993.572 2155.27 1000.95C2153.35 1008.24 2150.47 1014.66 2146.62 1020.22C2142.68 1025.78 2137.77 1030.18 2131.91 1033.42C2126.15 1036.65 2119.42 1038.27 2111.74 1038.27C2103.95 1038.27 2097.12 1036.65 2091.26 1033.42C2085.39 1030.18 2080.54 1025.78 2076.7 1020.22C2072.75 1014.66 2069.82 1008.24 2067.9 1000.95C2065.98 993.572 2065.02 985.837 2065.02 977.747Z" fill="#380070"/>
<path d="M1406.69 1295.95C1406.69 1302.02 1405.38 1307.28 1402.75 1311.73C1400.12 1316.08 1396.73 1319.67 1392.59 1322.5C1388.44 1325.43 1383.69 1327.61 1378.33 1329.02C1373.07 1330.34 1367.71 1330.99 1362.25 1330.99C1355.37 1330.99 1349 1330.08 1343.14 1328.26C1337.37 1326.34 1332.27 1323.51 1327.82 1319.77C1323.37 1316.13 1319.73 1311.68 1316.9 1306.42C1314.07 1301.06 1312.19 1294.94 1311.28 1288.07H1282.62C1282.92 1297.57 1284.99 1306.22 1288.84 1314.01C1292.78 1321.69 1298.09 1328.42 1304.76 1334.18C1312.25 1340.85 1321.04 1345.96 1331.16 1349.5C1341.37 1353.04 1351.73 1354.81 1362.25 1354.81C1371.05 1354.81 1379.85 1353.59 1388.64 1351.17C1397.44 1348.64 1405.33 1344.9 1412.31 1339.94C1419.28 1335.09 1424.95 1328.97 1429.3 1321.59C1433.74 1314.21 1435.97 1305.56 1435.97 1295.65C1435.97 1285.84 1433.9 1277.2 1429.75 1269.71C1425.71 1262.23 1420.35 1255.91 1413.67 1250.75C1406.9 1245.19 1399.41 1240.64 1391.22 1237.1C1383.03 1233.46 1374.84 1230.38 1366.65 1227.85C1361.69 1226.33 1356.39 1224.56 1350.72 1222.54C1345.16 1220.52 1340 1217.99 1335.25 1214.95C1330.4 1211.92 1326.4 1208.23 1323.27 1203.88C1320.13 1199.43 1318.51 1194.02 1318.41 1187.65C1318.41 1181.79 1319.58 1176.63 1321.9 1172.18C1324.33 1167.73 1327.57 1163.99 1331.61 1160.96C1335.55 1157.92 1340.05 1155.65 1345.11 1154.13C1350.27 1152.61 1355.53 1151.85 1360.89 1151.85C1367.56 1151.85 1373.53 1152.92 1378.78 1155.04C1384.14 1157.06 1388.74 1159.94 1392.59 1163.69C1396.43 1167.43 1399.51 1171.93 1401.84 1177.19C1404.17 1182.34 1405.73 1188.11 1406.54 1194.48H1435.36C1435.16 1184.37 1432.99 1175.21 1428.84 1167.02C1424.69 1158.83 1419.18 1151.85 1412.31 1146.09C1405.43 1140.33 1397.54 1135.88 1388.64 1132.74C1379.74 1129.51 1370.49 1127.89 1360.89 1127.89C1352.19 1127.89 1343.54 1129.25 1334.95 1131.98C1326.35 1134.61 1318.67 1138.51 1311.89 1143.66C1305.12 1148.82 1299.6 1155.14 1295.36 1162.62C1291.21 1170.11 1289.14 1178.6 1289.14 1188.11C1289.14 1197.61 1291.21 1205.9 1295.36 1212.98C1299.6 1219.96 1305.07 1226.03 1311.74 1231.19C1318.31 1236.24 1325.59 1240.59 1333.58 1244.23C1341.67 1247.77 1349.61 1250.8 1357.4 1253.33C1362.76 1255.05 1368.32 1256.97 1374.08 1259.1C1379.95 1261.22 1385.31 1263.85 1390.16 1266.98C1395.01 1270.22 1398.96 1274.16 1401.99 1278.81C1405.13 1283.47 1406.69 1289.18 1406.69 1295.95Z" fill="#380070"/>
<path d="M1547.61 1332.06C1538.81 1332.06 1531.43 1330.34 1525.46 1326.9C1519.6 1323.36 1514.9 1318.76 1511.36 1313.09C1507.72 1307.53 1505.09 1301.26 1503.47 1294.29C1501.95 1287.21 1501.19 1280.08 1501.19 1272.9V1266.53C1501.19 1259.45 1501.95 1252.42 1503.47 1245.44C1505.09 1238.47 1507.72 1232.15 1511.36 1226.48C1515 1220.92 1519.75 1216.42 1525.62 1212.98C1531.58 1209.44 1538.91 1207.67 1547.61 1207.67C1553.27 1207.67 1558.53 1208.63 1563.38 1210.56C1568.34 1212.48 1572.59 1215.11 1576.13 1218.44C1579.67 1221.78 1582.45 1225.67 1584.47 1230.12C1586.59 1234.47 1587.7 1239.12 1587.81 1244.08H1614.35C1614.35 1235.79 1612.68 1228 1609.35 1220.72C1606.01 1213.44 1601.41 1207.12 1595.54 1201.76C1589.58 1196.5 1582.5 1192.35 1574.31 1189.32C1566.22 1186.19 1557.32 1184.62 1547.61 1184.62C1535.17 1184.62 1524.3 1186.84 1515 1191.29C1505.69 1195.74 1497.96 1201.71 1491.79 1209.19C1485.52 1216.78 1480.82 1225.52 1477.68 1235.43C1474.55 1245.34 1472.98 1255.71 1472.98 1266.53V1272.9C1472.98 1283.82 1474.55 1294.24 1477.68 1304.15C1480.82 1313.95 1485.52 1322.6 1491.79 1330.08C1497.96 1337.67 1505.69 1343.68 1515 1348.13C1524.3 1352.58 1535.17 1354.81 1547.61 1354.81C1556.31 1354.81 1564.65 1353.34 1572.64 1350.41C1580.63 1347.38 1587.7 1343.33 1593.87 1338.27C1600.04 1333.32 1604.95 1327.56 1608.59 1320.98C1612.33 1314.31 1614.25 1307.33 1614.35 1300.05H1587.81C1587.7 1304.6 1586.49 1308.85 1584.17 1312.79C1581.94 1316.63 1578.96 1319.97 1575.22 1322.8C1571.47 1325.74 1567.18 1328.01 1562.32 1329.63C1557.57 1331.25 1552.67 1332.06 1547.61 1332.06Z" fill="#380070"/>
<path d="M1668.65 1187.65V1212.07H1724.47V1327.51H1668.65V1351.77H1806.08V1327.51H1752.54V1187.65H1668.65ZM1720.83 1144.57C1720.83 1149.12 1722.2 1152.92 1724.93 1155.95C1727.76 1158.98 1732.01 1160.5 1737.67 1160.5C1743.23 1160.5 1747.43 1158.98 1750.26 1155.95C1753.09 1152.92 1754.51 1149.12 1754.51 1144.57C1754.51 1142.04 1754.1 1139.72 1753.29 1137.6C1752.49 1135.47 1751.27 1133.7 1749.65 1132.29C1748.34 1130.97 1746.67 1129.96 1744.65 1129.25C1742.63 1128.44 1740.3 1128.04 1737.67 1128.04C1735.04 1128.04 1732.67 1128.44 1730.54 1129.25C1728.52 1129.96 1726.85 1130.97 1725.54 1132.29C1723.92 1133.8 1722.7 1135.62 1721.9 1137.75C1721.19 1139.87 1720.83 1142.15 1720.83 1144.57Z" fill="#380070"/>
<path d="M1993.87 1285.34H1965.8C1964.89 1292.01 1963.33 1298.23 1961.1 1303.99C1958.88 1309.66 1955.89 1314.56 1952.15 1318.71C1948.41 1322.95 1943.81 1326.24 1938.35 1328.57C1932.99 1330.89 1926.62 1332.06 1919.24 1332.06C1912.46 1332.06 1906.55 1330.99 1901.49 1328.87C1896.43 1326.65 1892.04 1323.61 1888.29 1319.77C1884.55 1316.03 1881.47 1311.68 1879.04 1306.72C1876.61 1301.77 1874.64 1296.46 1873.13 1290.8C1871.61 1285.24 1870.5 1279.57 1869.79 1273.81C1869.18 1267.94 1868.88 1262.28 1868.88 1256.82V1225.72C1868.88 1220.26 1869.18 1214.65 1869.79 1208.89C1870.5 1203.02 1871.61 1197.31 1873.13 1191.75C1874.64 1186.19 1876.61 1180.93 1879.04 1175.97C1881.57 1171.02 1884.7 1166.67 1888.45 1162.93C1892.09 1159.19 1896.43 1156.25 1901.49 1154.13C1906.65 1151.9 1912.56 1150.79 1919.24 1150.79C1926.62 1150.79 1932.99 1152.06 1938.35 1154.58C1943.81 1157.01 1948.41 1160.4 1952.15 1164.75C1955.89 1169.1 1958.88 1174.15 1961.1 1179.92C1963.33 1185.68 1964.89 1191.9 1965.8 1198.57H1993.87C1992.65 1188.06 1990.12 1178.45 1986.28 1169.75C1982.54 1161.06 1977.54 1153.57 1971.27 1147.3C1965 1141.13 1957.51 1136.38 1948.82 1133.04C1940.12 1129.61 1930.26 1127.89 1919.24 1127.89C1910.04 1127.89 1901.74 1129.2 1894.36 1131.83C1886.98 1134.36 1880.41 1137.9 1874.64 1142.45C1868.78 1147 1863.72 1152.41 1859.47 1158.68C1855.33 1164.85 1851.89 1171.57 1849.16 1178.85C1846.33 1186.13 1844.2 1193.77 1842.79 1201.76C1841.47 1209.75 1840.77 1217.84 1840.66 1226.03V1256.82C1840.77 1265.01 1841.47 1273.1 1842.79 1281.09C1844.2 1289.08 1846.33 1296.71 1849.16 1303.99C1851.89 1311.27 1855.33 1318 1859.47 1324.17C1863.72 1330.34 1868.78 1335.7 1874.64 1340.25C1880.41 1344.8 1886.98 1348.39 1894.36 1351.02C1901.84 1353.54 1910.14 1354.81 1919.24 1354.81C1929.86 1354.81 1939.46 1353.14 1948.06 1349.8C1956.75 1346.36 1964.29 1341.56 1970.66 1335.39C1976.93 1329.33 1982.04 1322.04 1985.98 1313.55C1989.92 1304.95 1992.55 1295.55 1993.87 1285.34Z" fill="#380070"/>
<path d="M2029.51 1268.2V1271.53C2029.51 1283.36 2031.23 1294.34 2034.67 1304.45C2038.11 1314.56 2043.06 1323.36 2049.53 1330.84C2055.91 1338.33 2063.69 1344.19 2072.89 1348.44C2082.2 1352.68 2092.66 1354.81 2104.29 1354.81C2115.82 1354.81 2126.19 1352.68 2135.39 1348.44C2144.59 1344.19 2152.43 1338.33 2158.9 1330.84C2165.27 1323.36 2170.17 1314.56 2173.61 1304.45C2177.05 1294.34 2178.77 1283.36 2178.77 1271.53V1268.2C2178.77 1256.36 2177.05 1245.39 2173.61 1235.28C2170.17 1225.07 2165.27 1216.22 2158.9 1208.74C2152.43 1201.25 2144.54 1195.39 2135.24 1191.14C2126.03 1186.79 2115.62 1184.62 2103.99 1184.62C2092.46 1184.62 2082.1 1186.79 2072.89 1191.14C2063.69 1195.39 2055.91 1201.25 2049.53 1208.74C2043.06 1216.22 2038.11 1225.07 2034.67 1235.28C2031.23 1245.39 2029.51 1256.36 2029.51 1268.2ZM2057.57 1271.53V1268.2C2057.57 1260.21 2058.53 1252.57 2060.46 1245.29C2062.38 1237.91 2065.31 1231.44 2069.25 1225.88C2073.1 1220.31 2077.9 1215.92 2083.66 1212.68C2089.43 1209.34 2096.2 1207.67 2103.99 1207.67C2111.78 1207.67 2118.55 1209.34 2124.32 1212.68C2130.18 1215.92 2135.09 1220.31 2139.03 1225.88C2142.87 1231.44 2145.75 1237.91 2147.67 1245.29C2149.7 1252.57 2150.71 1260.21 2150.71 1268.2V1271.53C2150.71 1279.62 2149.75 1287.36 2147.83 1294.74C2145.91 1302.02 2143.02 1308.44 2139.18 1314.01C2135.24 1319.57 2130.33 1323.97 2124.47 1327.2C2118.7 1330.44 2111.98 1332.06 2104.29 1332.06C2096.51 1332.06 2089.68 1330.44 2083.82 1327.2C2077.95 1323.97 2073.1 1319.57 2069.25 1314.01C2065.31 1308.44 2062.38 1302.02 2060.46 1294.74C2058.53 1287.36 2057.57 1279.62 2057.57 1271.53Z" fill="#380070"/>
<path d="M2236.87 1187.65H2211.69V1351.77H2238.38V1221.17C2238.99 1219.56 2239.75 1218.04 2240.66 1216.62C2241.67 1215.21 2242.83 1213.94 2244.15 1212.83C2245.87 1211.42 2247.94 1210.35 2250.37 1209.65C2252.89 1208.84 2255.83 1208.43 2259.16 1208.43C2262.2 1208.43 2264.83 1208.84 2267.05 1209.65C2269.38 1210.35 2271.3 1211.52 2272.82 1213.13C2274.43 1214.85 2275.6 1217.03 2276.3 1219.66C2277.11 1222.29 2277.52 1225.32 2277.52 1228.76V1351.77H2304.21V1228.91C2304.21 1228.3 2304.21 1227.8 2304.21 1227.39C2304.21 1226.89 2304.21 1226.38 2304.21 1225.88C2304.52 1223.35 2305.12 1221.07 2306.03 1219.05C2306.94 1216.93 2308.21 1215.06 2309.83 1213.44C2311.44 1211.92 2313.47 1210.71 2315.89 1209.8C2318.32 1208.89 2321.2 1208.43 2324.54 1208.43C2327.67 1208.43 2330.4 1208.84 2332.73 1209.65C2335.16 1210.45 2337.18 1211.67 2338.8 1213.29C2340.31 1215.01 2341.48 1217.18 2342.29 1219.81C2343.1 1222.44 2343.5 1225.47 2343.5 1228.91V1351.77H2370.2V1229.21C2370.2 1221.33 2369.29 1214.5 2367.47 1208.74C2365.65 1202.87 2363.02 1198.12 2359.58 1194.48C2356.44 1191.24 2352.6 1188.81 2348.05 1187.2C2343.5 1185.48 2338.39 1184.62 2332.73 1184.62C2328.58 1184.72 2324.74 1185.28 2321.2 1186.29C2317.76 1187.3 2314.63 1188.66 2311.8 1190.38C2309.57 1191.9 2307.5 1193.67 2305.58 1195.69C2303.66 1197.71 2301.99 1199.89 2300.57 1202.21C2299.46 1199.69 2298.1 1197.41 2296.48 1195.39C2294.96 1193.37 2293.24 1191.65 2291.32 1190.23C2288.69 1188.41 2285.61 1187.04 2282.07 1186.13C2278.63 1185.12 2274.74 1184.62 2270.39 1184.62C2262.7 1184.72 2256.13 1186.39 2250.67 1189.62C2245.31 1192.86 2240.96 1197.36 2237.62 1203.12L2236.87 1187.65Z" fill="#380070"/>
<path d="M705 1382.11H2384V1397.28H705V1382.11Z" fill="#380070"/>
<rect x="1308" y="192" width="490" height="490" fill="#4E4E4E"/>
<path d="M1458.3 610.056C1451.8 610.056 1435.3 628.722 1425.3 632.056C1417.99 634.494 1448.8 602.556 1448.8 595.056C1448.8 587.556 1441.3 585.056 1441.3 585.056H1480.3C1480.3 585.056 1477.8 590.556 1480.3 595.056C1482.8 599.556 1513.8 615.556 1504.3 616.056C1494.8 616.556 1480.3 607.056 1474.3 613.056C1468.3 619.056 1467.3 645.056 1467.3 645.056C1467.3 645.056 1452.8 670.556 1452.8 658.556C1452.8 646.556 1464.8 610.056 1458.3 610.056Z" fill="#D0A4FC"/>
<path d="M1625.3 642.056C1620.3 641.266 1622.8 622.056 1620.3 612.056C1617.8 602.056 1610.3 591.056 1610.3 591.056L1658.8 574.056C1658.8 574.056 1700.3 618.556 1695.3 622.056C1690.3 625.556 1654.3 591.056 1654.3 591.056C1654.3 591.056 1682.8 635.556 1677.3 642.056C1671.8 648.556 1658.8 622.056 1658.8 622.056C1658.8 622.056 1645.3 609.056 1635.3 612.056C1625.3 615.056 1637.5 643.982 1625.3 642.056Z" fill="#D0A4FC"/>
<path d="M1378.3 537.056C1363.3 536.056 1402.3 363.056 1437.3 363.056C1472.3 363.056 1411.3 506.056 1411.3 506.056C1411.3 506.056 1393.3 538.056 1378.3 537.056Z" fill="#D0A4FC"/>
<path d="M1674.66 472.987C1674.66 472.987 1695.66 506.987 1718.66 521.987C1730.41 529.649 1733.09 483.031 1716.92 439.056C1701.44 396.932 1669.6 360.234 1657.66 372.987C1633.26 399.055 1674.66 472.987 1674.66 472.987Z" fill="#D0A4FC"/>
<path d="M1431.3 590.056C1404.3 566.056 1385.3 408.056 1441.3 373.056L1657.3 361.056C1657.3 361.056 1687.92 413.145 1698.3 449.056C1718.28 518.162 1692.3 604.056 1660.3 609.056C1628.3 614.056 1536.3 574.056 1536.3 574.056C1536.3 574.056 1458.3 614.056 1431.3 590.056Z" fill="#D0A4FC"/>
<path d="M1505.3 489.056C1494.3 487.056 1510.3 406.627 1475.3 392.056C1440.3 377.484 1424.3 357.056 1430.3 308.056C1436.3 259.056 1495.3 208.056 1574.3 221.056C1653.3 234.056 1683.16 330.056 1675.3 345.056C1667.44 360.056 1623.3 392.056 1581.3 392.056C1539.3 392.056 1516.3 491.056 1505.3 489.056Z" fill="#B28CD9"/>
<path d="M1505.3 489.056C1494.3 487.056 1510.3 406.627 1475.3 392.056C1440.3 377.484 1424.3 357.056 1430.3 308.056C1436.3 259.056 1495.3 208.056 1574.3 221.056C1653.3 234.056 1683.16 330.056 1675.3 345.056C1667.44 360.056 1623.3 392.056 1581.3 392.056C1539.3 392.056 1516.3 491.056 1505.3 489.056Z" fill="#B28CD9"/>
<circle cx="1608.3" cy="320.056" r="45" fill="#FFD600"/>
<circle cx="1473.8" cy="307.556" r="37.5" fill="#FFD600"/>
<circle cx="1609.8" cy="310.556" r="16.5" fill="#5B03B3"/>
<circle cx="1469.3" cy="307.056" r="19" fill="#5B03B3"/>
<rect x="722" y="192" width="490" height="490" fill="#4E4E4E"/>
<path fill-rule="evenodd" clip-rule="evenodd" d="M815.853 511.578C819.639 546.503 828.852 576.636 839.31 585.932C843.615 589.759 849.266 591.899 855.698 592.805C853.889 597.376 847.42 605.585 841.762 612.764L841.762 612.764L841.762 612.764C835.407 620.829 830.075 627.595 833.522 626.446C838.237 624.875 844.451 619.769 850.303 614.959C856.424 609.93 862.15 605.224 865.355 605.224C869.197 605.224 866.338 618.446 863.548 631.349C861.785 639.502 860.049 647.527 860.049 652.009C860.049 663.585 874.036 638.987 874.036 638.987C874.036 638.987 875.001 613.906 880.789 608.118C884.283 604.624 890.765 606.579 897.371 608.572C901.707 609.88 906.096 611.203 909.728 611.012C915.28 610.72 906.491 604.939 898.164 599.462L898.164 599.462C892.748 595.9 887.527 592.466 886.577 590.755C886.521 590.655 886.468 590.555 886.418 590.454C913.644 584.319 940.596 570.498 940.596 570.498C940.596 570.498 982.285 588.624 1018.46 598.476C1019.73 601.244 1020.9 604.243 1021.63 607.154C1022.58 610.962 1022.78 616.154 1022.97 621.092C1023.26 628.662 1023.53 635.632 1026.45 636.093C1032.6 637.064 1032.32 629.906 1032.03 622.438C1031.76 615.616 1031.49 608.535 1036.09 607.154C1045.74 604.26 1058.76 616.8 1058.76 616.8C1058.76 616.8 1071.3 642.363 1076.61 636.093C1079.73 632.406 1071.51 616.048 1064.21 603.193C1065.95 602.535 1067.67 601.632 1069.35 600.502C1079.41 609.255 1091.3 618.674 1093.97 616.8C1096.39 615.108 1087.54 603.477 1078.1 592.298C1091.7 575.701 1101.78 544.081 1103.39 509.624C1107.58 513.643 1112 517.335 1116.51 520.271C1127.84 527.662 1130.42 482.693 1114.83 440.272C1101.65 404.421 1076.19 372.642 1062.47 374.111C1059.32 368.447 1057.32 365.031 1057.32 365.031L854.781 376.283C853.482 370.436 850.456 366.96 845.097 366.96C811.335 366.96 773.715 533.842 788.184 534.806C798.3 535.481 809.83 520.596 815.853 511.578Z" fill="#FDFCFF"/>
<path d="M880.408 399.166C887.603 402.161 892.459 408.634 895.747 417.438C899.04 426.252 900.578 436.936 901.415 447.542C901.832 452.822 902.071 458.021 902.278 462.905C902.302 463.475 902.326 464.041 902.35 464.603C902.527 468.83 902.694 472.817 902.951 476.304C903.239 480.21 903.656 483.758 904.419 486.458C904.8 487.805 905.327 489.17 906.13 490.307C906.963 491.489 908.242 492.616 910.066 492.948C912.137 493.324 913.855 492.409 914.982 491.523C916.13 490.621 917.162 489.374 918.093 488.047C919.97 485.37 921.969 481.574 924.076 477.224C925.792 473.682 927.581 469.776 929.487 465.615C932.417 459.218 935.622 452.22 939.258 445.021C945.189 433.279 951.929 421.73 959.564 413.154C967.232 404.539 975.34 399.435 984.004 399.435C1005.08 399.435 1026.46 391.433 1043.43 381.73C1051.94 376.864 1059.43 371.52 1065.3 366.431C1071.1 361.406 1075.58 356.421 1077.78 352.221C1079.19 349.537 1079.51 345.703 1079.29 341.63C1079.06 337.396 1078.21 332.304 1076.76 326.69C1073.85 315.451 1068.45 301.821 1060.39 288.277C1044.31 261.234 1017.3 234.027 977.82 227.529C899.963 214.717 840.937 264.939 834.871 314.481C831.931 338.491 834.296 356.117 842.196 369.64C850.103 383.178 863.21 392.006 880.408 399.166Z" fill="#FDFCFF" stroke="#4E4E4E" stroke-width="7"/>
<circle cx="1017" cy="327" r="45" fill="#FFD600"/>
<circle cx="882.5" cy="314.5" r="37.5" fill="#FFD600"/>
<circle cx="1018.5" cy="317.5" r="16.5" fill="#4E4E4E"/>
<circle cx="878" cy="314" r="19" fill="#4E4E4E"/>
<path fill-rule="evenodd" clip-rule="evenodd" d="M315.853 506.578C319.639 541.503 328.852 571.636 339.31 580.932C343.615 584.759 349.266 586.899 355.698 587.805C353.889 592.376 347.42 600.585 341.762 607.764L341.762 607.764L341.762 607.764C335.407 615.829 330.075 622.595 333.522 621.446C338.237 619.875 344.451 614.769 350.303 609.959C356.424 604.93 362.15 600.224 365.355 600.224C369.197 600.224 366.338 613.446 363.548 626.349C361.785 634.502 360.049 642.527 360.049 647.009C360.049 658.585 374.036 633.987 374.036 633.987C374.036 633.987 375.001 608.906 380.789 603.118C384.283 599.624 390.765 601.579 397.371 603.572C401.707 604.88 406.096 606.203 409.728 606.012C415.28 605.72 406.491 599.939 398.164 594.462L398.164 594.462C392.748 590.9 387.527 587.466 386.577 585.755C386.521 585.655 386.468 585.555 386.418 585.454C413.644 579.319 440.596 565.498 440.596 565.498C440.596 565.498 482.285 583.624 518.456 593.476C519.73 596.244 520.897 599.243 521.625 602.154C522.577 605.962 522.777 611.154 522.968 616.092C523.26 623.662 523.529 630.632 526.448 631.093C532.598 632.064 532.32 624.906 532.03 617.438C531.764 610.616 531.489 603.535 536.094 602.154C545.741 599.26 558.763 611.8 558.763 611.8C558.763 611.8 571.304 637.363 576.609 631.093C579.728 627.406 571.51 611.048 564.208 598.193C565.95 597.535 567.668 596.632 569.354 595.502C579.405 604.255 591.295 613.674 593.972 611.8C596.39 610.108 587.537 598.477 578.105 587.298C591.695 570.701 601.784 539.081 603.39 504.624C607.58 508.643 612.003 512.335 616.506 515.271C627.838 522.662 630.422 477.693 614.831 435.272C601.654 399.421 576.191 367.642 562.47 369.111C559.324 363.447 557.316 360.031 557.316 360.031L354.781 371.283C353.482 365.436 350.456 361.96 345.097 361.96C311.335 361.96 273.715 528.842 288.184 529.806C298.3 530.481 309.83 515.596 315.853 506.578Z" fill="#4E4E4E"/>
<path d="M380.408 394.166C387.603 397.161 392.459 403.634 395.747 412.438C399.04 421.252 400.578 431.936 401.415 442.542C401.832 447.822 402.071 453.021 402.278 457.905C402.302 458.475 402.326 459.041 402.35 459.603C402.527 463.83 402.694 467.817 402.951 471.304C403.239 475.21 403.656 478.758 404.419 481.458C404.8 482.805 405.327 484.17 406.13 485.307C406.963 486.489 408.242 487.616 410.066 487.948C412.137 488.324 413.855 487.409 414.982 486.523C416.13 485.621 417.162 484.374 418.093 483.047C419.97 480.37 421.969 476.574 424.076 472.224C425.792 468.682 427.581 464.776 429.487 460.615C432.417 454.218 435.622 447.22 439.258 440.021C445.189 428.279 451.929 416.73 459.564 408.154C467.232 399.539 475.34 394.435 484.004 394.435C505.083 394.435 526.464 386.433 543.43 376.73C551.94 371.864 559.427 366.52 565.303 361.431C571.105 356.406 575.58 351.421 577.78 347.221C579.186 344.537 579.508 340.703 579.29 336.63C579.063 332.396 578.212 327.304 576.759 321.69C573.849 310.451 568.449 296.821 560.393 283.277C544.308 256.234 517.303 229.027 477.82 222.529C399.963 209.717 340.937 259.939 334.871 309.481C331.931 333.491 334.296 351.117 342.196 364.64C350.103 378.178 363.21 387.006 380.408 394.166Z" fill="#4E4E4E" stroke="#E5E5E5" stroke-width="7"/>
<circle cx="517" cy="322" r="45" fill="#FFD600"/>
<circle cx="382.5" cy="309.5" r="37.5" fill="#FFD600"/>
<circle cx="518.5" cy="312.5" r="16.5" fill="#4E4E4E"/>
<circle cx="378" cy="309" r="19" fill="#4E4E4E"/>
<rect x="1894" y="192" width="490" height="490" fill="#C8C8C8"/>
<path d="M2026.3 605.056C2019.8 605.056 2003.3 623.722 1993.3 627.056C1985.99 629.494 2016.8 597.556 2016.8 590.056C2016.8 582.556 2009.3 580.056 2009.3 580.056H2048.3C2048.3 580.056 2045.8 585.556 2048.3 590.056C2050.8 594.556 2081.8 610.556 2072.3 611.056C2062.8 611.556 2048.3 602.056 2042.3 608.056C2036.3 614.056 2035.3 640.056 2035.3 640.056C2035.3 640.056 2020.8 665.556 2020.8 653.556C2020.8 641.556 2032.8 605.056 2026.3 605.056Z" fill="#416703"/>
<path d="M2193.3 637.056C2188.3 636.266 2190.8 617.056 2188.3 607.056C2185.8 597.056 2178.3 586.056 2178.3 586.056L2226.8 569.056C2226.8 569.056 2268.3 613.556 2263.3 617.056C2258.3 620.556 2222.3 586.056 2222.3 586.056C2222.3 586.056 2250.8 630.556 2245.3 637.056C2239.8 643.556 2226.8 617.056 2226.8 617.056C2226.8 617.056 2213.3 604.056 2203.3 607.056C2193.3 610.056 2205.5 638.982 2193.3 637.056Z" fill="#416703"/>
<path d="M1946.3 532.056C1931.3 531.056 1970.3 358.056 2005.3 358.056C2040.3 358.056 1979.3 501.056 1979.3 501.056C1979.3 501.056 1961.3 533.056 1946.3 532.056Z" fill="#416703"/>
<path d="M2242.66 467.987C2242.66 467.987 2263.66 501.987 2286.66 516.987C2298.41 524.649 2301.09 478.031 2284.92 434.056C2269.44 391.932 2237.6 355.234 2225.66 367.987C2201.26 394.055 2242.66 467.987 2242.66 467.987Z" fill="#416703"/>
<path d="M1999.3 585.056C1972.3 561.056 1953.3 403.056 2009.3 368.056L2225.3 356.056C2225.3 356.056 2255.92 408.145 2266.3 444.056C2286.28 513.162 2260.3 599.056 2228.3 604.056C2196.3 609.056 2104.3 569.056 2104.3 569.056C2104.3 569.056 2026.3 609.056 1999.3 585.056Z" fill="#E6DF3B"/>
<path d="M2073.3 484.056C2062.3 482.056 2078.3 401.627 2043.3 387.056C2008.3 372.484 1992.3 352.056 1998.3 303.056C2004.3 254.056 2063.3 203.056 2142.3 216.056C2221.3 229.056 2251.16 325.056 2243.3 340.056C2235.44 355.056 2191.3 387.056 2149.3 387.056C2107.3 387.056 2084.3 486.056 2073.3 484.056Z" fill="#AAAD00"/>
<circle cx="2176.3" cy="315.056" r="45" fill="#FFD600"/>
<circle cx="2041.8" cy="302.556" r="37.5" fill="#FFD600"/>
<circle cx="2177.8" cy="305.556" r="16.5" fill="#416703"/>
<circle cx="2037.3" cy="302.056" r="19" fill="#416703"/>
</svg>
