<svg width="3664" height="3980" viewBox="0 0 3664 3980" fill="none" xmlns="http://www.w3.org/2000/svg">
<path d="M0 0H3664V3980H0V0Z" fill="#333333"/>
<path d="M1508.86 655.943H1478.95V540.929H1376.92V655.943H1347.19V407.115H1376.92V514.098H1478.95V407.115H1508.86V655.943Z" fill="white"/>
<path d="M1644.72 659.361C1631.73 659.361 1619.77 657.14 1608.83 652.696C1598.01 648.253 1588.72 642.044 1580.98 634.068C1573.23 626.093 1567.19 616.637 1562.86 605.699C1558.53 594.762 1556.37 582.856 1556.37 569.981V562.804C1556.37 547.879 1558.76 534.549 1563.55 522.813C1568.33 510.965 1574.65 500.995 1582.51 492.906C1590.49 484.703 1599.49 478.437 1609.52 474.107C1619.66 469.778 1630.02 467.613 1640.62 467.613C1653.95 467.613 1665.57 469.949 1675.48 474.62C1685.51 479.177 1693.83 485.558 1700.43 493.761C1707.04 501.85 1711.94 511.42 1715.13 522.472C1718.44 533.523 1720.09 545.486 1720.09 558.36V572.545H1587.98C1588.33 580.976 1589.92 588.894 1592.77 596.3C1595.73 603.705 1599.72 610.2 1604.73 615.782C1609.86 621.251 1615.95 625.58 1623.02 628.771C1630.08 631.961 1637.89 633.556 1646.43 633.556C1657.71 633.556 1667.74 631.277 1676.51 626.72C1685.28 622.162 1692.57 616.124 1698.38 608.604L1717.7 623.644C1714.62 628.315 1710.75 632.815 1706.07 637.145C1701.52 641.36 1696.22 645.12 1690.18 648.424C1684.14 651.728 1677.31 654.348 1669.67 656.285C1662.04 658.336 1653.72 659.361 1644.72 659.361ZM1640.62 493.59C1634.24 493.59 1628.2 494.786 1622.51 497.179C1616.81 499.457 1611.68 502.875 1607.12 507.433C1602.57 511.876 1598.69 517.402 1595.5 524.01C1592.43 530.504 1590.26 538.023 1589.01 546.568H1688.47V544.176C1688.13 538.023 1686.93 531.928 1684.88 525.89C1682.95 519.851 1680.04 514.439 1676.17 509.654C1672.29 504.869 1667.39 500.995 1661.47 498.033C1655.66 495.071 1648.71 493.59 1640.62 493.59Z" fill="white"/>
<path d="M1778.19 393.443H1872.7V628.6H1933.03V655.943H1778.19V628.6H1841.08V420.958H1778.19V393.443Z" fill="white"/>
<path d="M1988.4 393.443H2082.91V628.6H2143.23V655.943H1988.4V628.6H2051.29V420.958H1988.4V393.443Z" fill="white"/>
<path d="M2184.76 561.778C2184.76 548.448 2186.7 536.087 2190.57 524.693C2194.45 513.186 2199.97 503.217 2207.15 494.786C2214.44 486.355 2223.27 479.747 2233.64 474.962C2244.01 470.063 2255.68 467.613 2268.67 467.613C2281.77 467.613 2293.51 470.063 2303.88 474.962C2314.36 479.747 2323.19 486.355 2330.37 494.786C2337.66 503.217 2343.24 513.186 2347.11 524.693C2350.99 536.087 2352.92 548.448 2352.92 561.778V565.538C2352.92 578.868 2350.99 591.23 2347.11 602.623C2343.24 614.016 2337.66 623.928 2330.37 632.359C2323.19 640.79 2314.42 647.398 2304.05 652.184C2293.68 656.969 2282 659.361 2269.01 659.361C2255.91 659.361 2244.12 656.969 2233.64 652.184C2223.27 647.398 2214.44 640.79 2207.15 632.359C2199.97 623.928 2194.45 614.016 2190.57 602.623C2186.7 591.23 2184.76 578.868 2184.76 565.538V561.778ZM2216.38 565.538C2216.38 574.653 2217.46 583.368 2219.62 591.686C2221.79 599.889 2225.04 607.123 2229.37 613.39C2233.81 619.656 2239.33 624.612 2245.94 628.258C2252.55 631.904 2260.24 633.727 2269.01 633.727C2277.67 633.727 2285.25 631.904 2291.74 628.258C2298.35 624.612 2303.82 619.656 2308.15 613.39C2312.59 607.123 2315.9 599.889 2318.06 591.686C2320.23 583.368 2321.31 574.653 2321.31 565.538V561.778C2321.31 552.778 2320.17 544.176 2317.89 535.973C2315.73 527.656 2312.42 520.364 2307.98 514.098C2303.65 507.831 2298.18 502.875 2291.57 499.229C2285.08 495.47 2277.44 493.59 2268.67 493.59C2259.9 493.59 2252.27 495.47 2245.77 499.229C2239.28 502.875 2233.81 507.831 2229.37 514.098C2225.04 520.364 2221.79 527.656 2219.62 535.973C2217.46 544.176 2216.38 552.778 2216.38 561.778V565.538Z" fill="white"/>
<path d="M1474.67 924.053C1474.67 916.419 1472.9 909.982 1469.37 904.741C1465.95 899.5 1461.51 895.114 1456.04 891.582C1450.57 887.936 1444.53 884.917 1437.92 882.524C1431.43 880.132 1425.16 877.967 1419.13 876.03C1410.35 873.182 1401.41 869.764 1392.29 865.776C1383.29 861.789 1375.03 856.89 1367.51 851.079C1360.11 845.269 1354.01 838.433 1349.23 830.571C1344.56 822.596 1342.22 813.254 1342.22 802.544C1342.22 791.834 1344.56 782.264 1349.23 773.833C1354.01 765.402 1360.22 758.281 1367.86 752.471C1375.49 746.66 1384.15 742.274 1393.83 739.312C1403.52 736.235 1413.26 734.697 1423.06 734.697C1433.88 734.697 1444.3 736.52 1454.33 740.166C1464.36 743.698 1473.24 748.711 1480.99 755.205C1488.74 761.699 1494.95 769.561 1499.62 778.789C1504.29 788.018 1506.74 798.328 1506.97 809.722H1474.5C1473.58 802.544 1471.82 796.05 1469.2 790.239C1466.58 784.315 1463.1 779.245 1458.77 775.029C1454.44 770.814 1449.26 767.567 1443.22 765.288C1437.3 762.896 1430.58 761.699 1423.06 761.699C1417.02 761.699 1411.09 762.554 1405.28 764.263C1399.59 765.972 1394.46 768.535 1389.9 771.953C1385.46 775.371 1381.87 779.587 1379.13 784.6C1376.51 789.613 1375.2 795.423 1375.2 802.031C1375.32 809.209 1377.14 815.304 1380.67 820.317C1384.2 825.216 1388.65 829.375 1394 832.793C1399.47 836.211 1405.34 839.059 1411.61 841.338C1417.99 843.617 1423.97 845.61 1429.55 847.319C1435.7 849.256 1441.91 851.478 1448.18 853.984C1454.44 856.377 1460.48 859.168 1466.29 862.358C1472.1 865.549 1477.52 869.137 1482.53 873.125C1487.54 877.113 1491.93 881.67 1495.69 886.797C1499.45 891.81 1502.35 897.393 1504.4 903.545C1506.57 909.583 1507.65 916.305 1507.65 923.711C1507.65 934.876 1505.14 944.618 1500.13 952.935C1495.23 961.252 1488.85 968.201 1480.99 973.784C1473.13 979.253 1464.24 983.411 1454.33 986.26C1444.42 988.994 1434.51 990.361 1424.59 990.361C1413.54 990.361 1402.72 988.652 1392.12 985.234C1381.53 981.816 1372.01 976.917 1363.58 970.537C1355.27 964.043 1348.49 956.182 1343.25 946.953C1338.01 937.611 1335.21 927.015 1334.87 915.166H1367.17C1368.2 922.913 1370.31 929.806 1373.5 935.845C1376.69 941.769 1380.79 946.839 1385.8 951.055C1390.81 955.156 1396.57 958.289 1403.06 960.454C1409.67 962.505 1416.85 963.53 1424.59 963.53C1430.75 963.53 1436.78 962.79 1442.71 961.309C1448.75 959.714 1454.1 957.321 1458.77 954.131C1463.44 950.827 1467.26 946.725 1470.22 941.826C1473.19 936.813 1474.67 930.889 1474.67 924.053Z" fill="white"/>
<path d="M1633.43 964.727C1639.13 964.727 1644.65 963.815 1650.01 961.992C1655.48 960.169 1660.32 957.663 1664.54 954.473C1668.75 951.169 1672.11 947.352 1674.62 943.022C1677.24 938.579 1678.61 933.794 1678.72 928.667H1708.63C1708.51 936.87 1706.35 944.731 1702.13 952.251C1698.03 959.657 1692.51 966.208 1685.56 971.904C1678.61 977.487 1670.63 981.987 1661.63 985.405C1652.63 988.709 1643.23 990.361 1633.43 990.361C1619.42 990.361 1607.17 987.855 1596.69 982.842C1586.21 977.829 1577.43 971.107 1570.37 962.676C1563.42 954.131 1558.18 944.333 1554.65 933.281C1551.12 922.116 1549.35 910.381 1549.35 898.076V890.898C1549.35 878.708 1551.12 867.03 1554.65 855.864C1558.18 844.699 1563.42 834.901 1570.37 826.47C1577.43 817.925 1586.21 811.146 1596.69 806.133C1607.17 801.12 1619.42 798.613 1633.43 798.613C1644.37 798.613 1654.4 800.379 1663.51 803.911C1672.74 807.329 1680.66 812.057 1687.26 818.096C1693.99 824.02 1699.23 831.084 1702.99 839.287C1706.75 847.49 1708.63 856.263 1708.63 865.605H1678.72C1678.61 860.023 1677.35 854.782 1674.96 849.883C1672.68 844.87 1669.55 840.483 1665.56 836.724C1661.57 832.964 1656.79 830.002 1651.21 827.837C1645.74 825.672 1639.81 824.59 1633.43 824.59C1623.63 824.59 1615.37 826.584 1608.65 830.571C1602.04 834.445 1596.69 839.572 1592.59 845.952C1588.49 852.218 1585.52 859.282 1583.7 867.144C1581.99 875.005 1581.14 882.923 1581.14 890.898V898.076C1581.14 906.165 1581.99 914.198 1583.7 922.173C1585.52 930.034 1588.43 937.155 1592.42 943.535C1596.52 949.801 1601.87 954.928 1608.48 958.916C1615.2 962.79 1623.52 964.727 1633.43 964.727Z" fill="white"/>
<path d="M1769.81 802.031H1864.32V959.6H1924.64V986.943H1769.81V959.6H1832.7V829.546H1769.81V802.031ZM1828.6 753.496C1828.6 748.255 1830.14 743.869 1833.21 740.337C1836.4 736.691 1841.19 734.868 1847.57 734.868C1853.83 734.868 1858.56 736.691 1861.75 740.337C1864.94 743.869 1866.54 748.255 1866.54 753.496C1866.54 758.623 1864.94 762.896 1861.75 766.313C1858.56 769.731 1853.83 771.44 1847.57 771.44C1841.19 771.44 1836.4 769.731 1833.21 766.313C1830.14 762.896 1828.6 758.623 1828.6 753.496Z" fill="white"/>
<path d="M2136.21 912.09C2134.73 923.597 2131.77 934.193 2127.33 943.877C2122.88 953.447 2117.07 961.707 2109.9 968.657C2102.83 975.493 2094.4 980.848 2084.6 984.722C2074.92 988.481 2064.1 990.361 2052.13 990.361C2041.88 990.361 2032.54 988.937 2024.11 986.089C2015.79 983.127 2008.33 979.082 2001.72 973.955C1995.22 968.828 1989.58 962.79 1984.8 955.84C1980.13 948.89 1976.2 941.313 1973.01 933.11C1969.93 924.907 1967.6 916.305 1966 907.305C1964.52 898.304 1963.72 889.189 1963.61 879.961V845.269C1963.72 836.04 1964.52 826.925 1966 817.925C1967.6 808.924 1969.93 800.322 1973.01 792.119C1976.2 783.916 1980.13 776.34 1984.8 769.39C1989.58 762.326 1995.22 756.23 2001.72 751.104C2008.33 745.977 2015.79 741.989 2024.11 739.141C2032.42 736.178 2041.77 734.697 2052.13 734.697C2064.55 734.697 2075.66 736.634 2085.46 740.508C2095.26 744.268 2103.69 749.679 2110.75 756.743C2117.81 763.693 2123.45 772.067 2127.67 781.865C2132 791.663 2134.85 802.487 2136.21 814.336H2104.6C2103.57 806.816 2101.81 799.81 2099.3 793.315C2096.79 786.821 2093.43 781.125 2089.22 776.226C2085 771.326 2079.82 767.51 2073.67 764.775C2067.63 761.927 2060.45 760.503 2052.13 760.503C2044.61 760.503 2037.95 761.756 2032.14 764.263C2026.44 766.655 2021.49 769.959 2017.27 774.175C2013.17 778.39 2009.69 783.289 2006.84 788.872C2004.11 794.455 2001.89 800.379 2000.18 806.646C1998.47 812.912 1997.22 819.349 1996.42 825.957C1995.74 832.451 1995.39 838.774 1995.39 844.927V879.961C1995.39 886.113 1995.74 892.493 1996.42 899.102C1997.22 905.596 1998.47 912.033 2000.18 918.413C2001.89 924.679 2004.11 930.604 2006.84 936.187C2009.58 941.769 2013.05 946.725 2017.27 951.055C2021.49 955.27 2026.44 958.631 2032.14 961.138C2037.83 963.53 2044.5 964.727 2052.13 964.727C2060.45 964.727 2067.63 963.416 2073.67 960.796C2079.82 958.175 2085 954.53 2089.22 949.858C2093.43 945.073 2096.79 939.491 2099.3 933.11C2101.81 926.616 2103.57 919.609 2104.6 912.09H2136.21Z" fill="white"/>
<path d="M2176.38 892.778C2176.38 879.448 2178.31 867.087 2182.19 855.693C2186.06 844.186 2191.59 834.217 2198.76 825.786C2206.06 817.355 2214.89 810.747 2225.25 805.962C2235.62 801.063 2247.3 798.613 2260.29 798.613C2273.39 798.613 2285.12 801.063 2295.49 805.962C2305.97 810.747 2314.8 817.355 2321.98 825.786C2329.27 834.217 2334.86 844.186 2338.73 855.693C2342.6 867.087 2344.54 879.448 2344.54 892.778V896.538C2344.54 909.868 2342.6 922.23 2338.73 933.623C2334.86 945.016 2329.27 954.928 2321.98 963.359C2314.8 971.79 2306.03 978.398 2295.66 983.184C2285.3 987.969 2273.62 990.361 2260.63 990.361C2247.53 990.361 2235.73 987.969 2225.25 983.184C2214.89 978.398 2206.06 971.79 2198.76 963.359C2191.59 954.928 2186.06 945.016 2182.19 933.623C2178.31 922.23 2176.38 909.868 2176.38 896.538V892.778ZM2207.99 896.538C2207.99 905.653 2209.07 914.368 2211.24 922.686C2213.4 930.889 2216.65 938.123 2220.98 944.39C2225.42 950.656 2230.95 955.612 2237.56 959.258C2244.17 962.904 2251.86 964.727 2260.63 964.727C2269.29 964.727 2276.86 962.904 2283.36 959.258C2289.97 955.612 2295.44 950.656 2299.76 944.39C2304.21 938.123 2307.51 930.889 2309.68 922.686C2311.84 914.368 2312.92 905.653 2312.92 896.538V892.778C2312.92 883.778 2311.78 875.176 2309.51 866.973C2307.34 858.656 2304.04 851.364 2299.59 845.098C2295.26 838.831 2289.8 833.875 2283.19 830.229C2276.69 826.47 2269.06 824.59 2260.29 824.59C2251.51 824.59 2243.88 826.47 2237.39 830.229C2230.89 833.875 2225.42 838.831 2220.98 845.098C2216.65 851.364 2213.4 858.656 2211.24 866.973C2209.07 875.176 2207.99 883.778 2207.99 892.778V896.538Z" fill="white"/>
<path d="M2409.99 802.031L2410.85 819.463C2414.61 812.969 2419.51 807.899 2425.55 804.253C2431.7 800.607 2439.1 798.727 2447.76 798.613C2464.74 798.613 2476.07 805.221 2481.77 818.438C2485.42 812.513 2490.2 807.785 2496.13 804.253C2502.17 800.607 2509.46 798.727 2518 798.613C2531.56 798.613 2541.98 802.772 2549.28 811.089C2556.57 819.406 2560.21 831.995 2560.21 848.857V986.943H2530.14V848.516C2530.14 833.021 2523.02 825.33 2508.77 825.444C2505.01 825.444 2501.77 825.957 2499.03 826.982C2496.3 828.008 2494.02 829.432 2492.2 831.255C2490.37 832.964 2488.95 835.015 2487.92 837.407C2486.9 839.686 2486.21 842.078 2485.87 844.585V986.943H2455.8V848.345C2455.8 840.939 2454.14 835.243 2450.84 831.255C2447.53 827.267 2442.29 825.33 2435.12 825.444C2428.51 825.444 2423.38 826.755 2419.74 829.375C2416.09 831.995 2413.41 835.47 2411.7 839.8V986.943H2381.63V802.031H2409.99Z" fill="white"/>
<path d="M684.091 1021.12H2575.77V1038.21H684.091V1021.12Z" fill="white"/>
<path d="M804.471 997.578C794.056 997.578 767.619 1027.49 751.596 1032.83C739.876 1036.73 789.249 985.561 789.249 973.544C789.249 961.527 777.232 957.521 777.232 957.521H839.721C839.721 957.521 835.715 966.334 839.721 973.544C843.727 980.754 893.397 1006.39 878.176 1007.19C862.954 1007.99 839.721 992.771 830.107 1002.39C820.494 1012 818.891 1053.66 818.891 1053.66C818.891 1053.66 795.659 1094.52 795.659 1075.29C795.659 1056.06 814.886 997.578 804.471 997.578Z" fill="#B28CD9"/>
<path d="M1072.05 1048.85C1064.04 1047.59 1068.04 1016.81 1064.04 1000.78C1060.03 984.76 1048.02 967.135 1048.02 967.135L1125.73 939.896C1125.73 939.896 1192.22 1011.2 1184.21 1016.81C1176.2 1022.41 1118.52 967.135 1118.52 967.135C1118.52 967.135 1164.18 1038.44 1155.37 1048.85C1146.56 1059.27 1125.73 1016.81 1125.73 1016.81C1125.73 1016.81 1104.1 995.976 1088.07 1000.78C1072.05 1005.59 1091.6 1051.94 1072.05 1048.85Z" fill="#B28CD9"/>
<path d="M676.289 880.613C652.255 879.011 714.744 601.817 770.823 601.817C826.903 601.817 729.164 830.942 729.164 830.942C729.164 830.942 700.323 882.215 676.289 880.613Z" fill="#B28CD9"/>
<path d="M1151.14 777.957C1151.14 777.957 1184.79 832.434 1221.64 856.468C1240.46 868.744 1244.75 794.05 1218.86 723.589C1194.05 656.096 1143.03 597.295 1123.9 617.73C1084.8 659.498 1151.14 777.957 1151.14 777.957Z" fill="#B28CD9"/>
<path d="M761.209 965.533C717.948 927.078 687.505 673.919 777.232 617.84L1123.32 598.612C1123.32 598.612 1172.38 682.074 1189.02 739.612C1221.02 850.339 1179.4 987.965 1128.13 995.976C1076.86 1003.99 929.448 939.896 929.448 939.896C929.448 939.896 804.471 1003.99 761.209 965.533Z" fill="#DCC5F3"/>
<path d="M879.778 803.703C862.153 800.498 887.789 671.63 831.709 648.282C775.63 624.935 749.993 592.203 759.607 513.691C769.221 435.18 863.755 353.464 990.334 374.294C1116.91 395.123 1164.75 548.941 1152.16 572.976C1139.57 597.01 1068.85 648.282 1001.55 648.282C934.255 648.282 897.403 806.907 879.778 803.703Z" fill="#B28CD9"/>
<path d="M879.778 803.703C862.153 800.498 887.789 671.63 831.709 648.282C775.63 624.935 749.993 592.203 759.607 513.691C769.221 435.18 863.755 353.464 990.334 374.294C1116.91 395.123 1164.75 548.941 1152.16 572.976C1139.57 597.01 1068.85 648.282 1001.55 648.282C934.255 648.282 897.403 806.907 879.778 803.703Z" fill="#B28CD9"/>
<path d="M1116.91 532.919C1116.91 572.74 1084.63 605.021 1044.81 605.021C1004.99 605.021 972.71 572.74 972.71 532.919C972.71 493.098 1004.99 460.816 1044.81 460.816C1084.63 460.816 1116.91 493.098 1116.91 532.919Z" fill="#FFD600"/>
<path d="M889.391 512.891C889.391 546.075 862.49 572.976 829.306 572.976C796.122 572.976 769.221 546.075 769.221 512.891C769.221 479.707 796.122 452.806 829.306 452.806C862.49 452.806 889.391 479.707 889.391 512.891Z" fill="#FFD600"/>
<path d="M1073.65 517.697C1073.65 532.298 1061.82 544.135 1047.22 544.135C1032.61 544.135 1020.78 532.298 1020.78 517.697C1020.78 503.096 1032.61 491.26 1047.22 491.26C1061.82 491.26 1073.65 503.096 1073.65 517.697Z" fill="#380070"/>
<path d="M852.539 512.09C852.539 528.903 838.909 542.533 822.096 542.533C805.283 542.533 791.653 528.903 791.653 512.09C791.653 495.276 805.283 481.646 822.096 481.646C838.909 481.646 852.539 495.276 852.539 512.09Z" fill="#380070"/>
<path d="M814.268 2113.99L863.145 2215.5H896.47L896.641 2213.45L843.833 2107.15C850.669 2104.19 856.935 2100.6 862.632 2096.38C868.329 2092.17 873.228 2087.33 877.329 2081.86C881.431 2076.39 884.621 2070.29 886.9 2063.57C889.292 2056.85 890.488 2049.44 890.488 2041.35C890.488 2028.82 888.267 2017.94 883.823 2008.71C879.494 1999.37 873.512 1991.62 865.879 1985.47C858.132 1979.32 849.131 1974.7 838.877 1971.63C828.623 1968.55 817.686 1966.9 806.065 1966.67H733.091V2215.5H764.536V2113.99H814.268ZM764.536 2088.01V1992.65H806.065C813.698 1992.76 820.705 1993.84 827.085 1995.9C833.579 1997.95 839.162 2000.97 843.833 2004.95C848.504 2009.05 852.15 2014.12 854.771 2020.16C857.391 2026.09 858.701 2033.04 858.701 2041.01C858.701 2048.53 857.334 2055.2 854.6 2061.01C851.865 2066.7 848.163 2071.55 843.491 2075.53C838.706 2079.52 833.18 2082.6 826.914 2084.76C820.648 2086.81 813.983 2087.9 806.919 2088.01H764.536Z" fill="white"/>
<path d="M933.213 2121.33V2125.09C933.213 2138.42 935.15 2150.79 939.024 2162.18C942.897 2173.57 948.48 2183.49 955.772 2191.92C962.949 2200.35 971.722 2206.96 982.09 2211.74C992.572 2216.53 1004.36 2218.92 1017.47 2218.92C1030.45 2218.92 1042.13 2216.53 1052.5 2211.74C1062.87 2206.96 1071.7 2200.35 1078.99 2191.92C1086.17 2183.49 1091.69 2173.57 1095.57 2162.18C1099.44 2150.79 1101.38 2138.42 1101.38 2125.09V2121.33C1101.38 2108 1099.44 2095.64 1095.57 2084.25C1091.69 2072.74 1086.17 2062.77 1078.99 2054.34C1071.7 2045.91 1062.81 2039.3 1052.33 2034.52C1041.96 2029.62 1030.23 2027.17 1017.12 2027.17C1004.14 2027.17 992.458 2029.62 982.09 2034.52C971.722 2039.3 962.949 2045.91 955.772 2054.34C948.48 2062.77 942.897 2072.74 939.024 2084.25C935.15 2095.64 933.213 2108 933.213 2121.33ZM964.829 2125.09V2121.33C964.829 2112.33 965.912 2103.73 968.076 2095.53C970.241 2087.21 973.545 2079.92 977.988 2073.65C982.318 2067.39 987.73 2062.43 994.224 2058.79C1000.72 2055.03 1008.35 2053.15 1017.12 2053.15C1025.9 2053.15 1033.53 2055.03 1040.02 2058.79C1046.63 2062.43 1052.16 2067.39 1056.6 2073.65C1060.93 2079.92 1064.18 2087.21 1066.34 2095.53C1068.62 2103.73 1069.76 2112.33 1069.76 2121.33V2125.09C1069.76 2134.21 1068.68 2142.93 1066.51 2151.24C1064.35 2159.45 1061.1 2166.68 1056.77 2172.95C1052.33 2179.21 1046.8 2184.17 1040.2 2187.81C1033.7 2191.46 1026.12 2193.28 1017.47 2193.28C1008.69 2193.28 1001 2191.46 994.395 2187.81C987.787 2184.17 982.318 2179.21 977.988 2172.95C973.545 2166.68 970.241 2159.45 968.076 2151.24C965.912 2142.93 964.829 2134.21 964.829 2125.09Z" fill="white"/>
<path d="M1309.02 2125.09V2121.51C1309.02 2111.82 1308.22 2102.65 1306.63 2093.99C1305.03 2085.22 1302.7 2077.24 1299.62 2070.07C1296.66 2063.69 1293.24 2057.93 1289.37 2052.8C1285.49 2047.56 1281.11 2043.12 1276.21 2039.47C1270.74 2035.6 1264.64 2032.58 1257.92 2030.42C1251.2 2028.25 1243.85 2027.17 1235.87 2027.17C1229.49 2027.17 1223.57 2027.8 1218.1 2029.05C1212.63 2030.3 1207.62 2032.13 1203.06 2034.52C1199.42 2036.46 1196 2038.79 1192.81 2041.53C1189.62 2044.15 1186.71 2047.11 1184.09 2050.41V1953H1152.48V2215.5H1181.53L1183.07 2194.48C1185.12 2197.1 1187.28 2199.49 1189.56 2201.66C1191.84 2203.82 1194.23 2205.82 1196.74 2207.64C1201.98 2211.28 1207.85 2214.08 1214.34 2216.01C1220.95 2217.95 1228.24 2218.92 1236.22 2218.92C1243.17 2218.92 1249.6 2218.06 1255.53 2216.35C1261.57 2214.65 1267.09 2212.25 1272.1 2209.18C1279.05 2204.73 1284.98 2199.15 1289.88 2192.43C1294.89 2185.59 1298.94 2177.9 1302.01 2169.36C1304.29 2162.86 1306 2155.91 1307.14 2148.51C1308.39 2140.99 1309.02 2133.18 1309.02 2125.09ZM1277.4 2121.51V2125.09C1277.4 2130.56 1277.06 2135.92 1276.38 2141.16C1275.69 2146.4 1274.61 2151.3 1273.13 2155.86C1271.31 2161.89 1268.86 2167.36 1265.78 2172.26C1262.71 2177.16 1258.89 2181.21 1254.33 2184.4C1250.91 2186.9 1247.04 2188.84 1242.71 2190.21C1238.38 2191.46 1233.6 2192.09 1228.35 2192.09C1222.89 2192.09 1217.87 2191.4 1213.32 2190.04C1208.76 2188.56 1204.66 2186.5 1201.01 2183.88C1197.37 2181.26 1194.12 2178.24 1191.27 2174.83C1188.54 2171.29 1186.14 2167.48 1184.09 2163.38V2082.54C1186.03 2078.44 1188.36 2074.68 1191.1 2071.26C1193.95 2067.73 1197.19 2064.65 1200.84 2062.03C1204.37 2059.53 1208.42 2057.59 1212.97 2056.22C1217.53 2054.74 1222.54 2054 1228.01 2054C1233.03 2054 1237.58 2054.57 1241.68 2055.71C1245.79 2056.85 1249.49 2058.44 1252.79 2060.5C1257.58 2063.34 1261.62 2067.27 1264.93 2072.29C1268.23 2077.3 1270.91 2082.83 1272.96 2088.86C1274.44 2093.76 1275.52 2099 1276.21 2104.59C1277 2110.06 1277.4 2115.7 1277.4 2121.51Z" fill="white"/>
<path d="M1353.62 2121.33V2125.09C1353.62 2138.42 1355.56 2150.79 1359.43 2162.18C1363.31 2173.57 1368.89 2183.49 1376.18 2191.92C1383.36 2200.35 1392.13 2206.96 1402.5 2211.74C1412.98 2216.53 1424.77 2218.92 1437.88 2218.92C1450.86 2218.92 1462.54 2216.53 1472.91 2211.74C1483.28 2206.96 1492.11 2200.35 1499.4 2191.92C1506.58 2183.49 1512.1 2173.57 1515.98 2162.18C1519.85 2150.79 1521.79 2138.42 1521.79 2125.09V2121.33C1521.79 2108 1519.85 2095.64 1515.98 2084.25C1512.1 2072.74 1506.58 2062.77 1499.4 2054.34C1492.11 2045.91 1483.22 2039.3 1472.74 2034.52C1462.37 2029.62 1450.64 2027.17 1437.53 2027.17C1424.55 2027.17 1412.87 2029.62 1402.5 2034.52C1392.13 2039.3 1383.36 2045.91 1376.18 2054.34C1368.89 2062.77 1363.31 2072.74 1359.43 2084.25C1355.56 2095.64 1353.62 2108 1353.62 2121.33ZM1385.24 2125.09V2121.33C1385.24 2112.33 1386.32 2103.73 1388.49 2095.53C1390.65 2087.21 1393.96 2079.92 1398.4 2073.65C1402.73 2067.39 1408.14 2062.43 1414.63 2058.79C1421.13 2055.03 1428.76 2053.15 1437.53 2053.15C1446.31 2053.15 1453.94 2055.03 1460.43 2058.79C1467.04 2062.43 1472.57 2067.39 1477.01 2073.65C1481.34 2079.92 1484.59 2087.21 1486.75 2095.53C1489.03 2103.73 1490.17 2112.33 1490.17 2121.33V2125.09C1490.17 2134.21 1489.09 2142.93 1486.92 2151.24C1484.76 2159.45 1481.51 2166.68 1477.18 2172.95C1472.74 2179.21 1467.21 2184.17 1460.61 2187.81C1454.11 2191.46 1446.53 2193.28 1437.88 2193.28C1429.1 2193.28 1421.41 2191.46 1414.8 2187.81C1408.2 2184.17 1402.73 2179.21 1398.4 2172.95C1393.96 2166.68 1390.65 2159.45 1388.49 2151.24C1386.32 2142.93 1385.24 2134.21 1385.24 2125.09Z" fill="white"/>
<path d="M1647.57 1985.81H1615.78V2030.59H1567.25V2055.03H1615.78V2155.51C1615.78 2166.91 1617.26 2176.65 1620.22 2184.74C1623.3 2192.71 1627.46 2199.21 1632.7 2204.22C1637.94 2209.35 1644.09 2213.11 1651.16 2215.5C1658.34 2217.78 1666.03 2218.92 1674.23 2218.92C1679.13 2218.92 1684.03 2218.69 1688.93 2218.23C1693.94 2217.78 1698.67 2217.1 1703.11 2216.18C1707.55 2215.39 1711.66 2214.42 1715.42 2213.28C1719.17 2212.03 1722.37 2210.6 1724.99 2209.01L1720.54 2186.62C1718.61 2187.07 1716.1 2187.64 1713.02 2188.33C1710.06 2188.9 1706.87 2189.47 1703.45 2190.04C1699.92 2190.61 1696.33 2191.12 1692.69 2191.57C1689.04 2191.92 1685.51 2192.09 1682.09 2192.09C1677.42 2192.09 1672.98 2191.52 1668.76 2190.38C1664.66 2189.24 1661.01 2187.24 1657.82 2184.4C1654.63 2181.66 1652.13 2177.96 1650.3 2173.29C1648.48 2168.62 1647.57 2162.69 1647.57 2155.51V2055.03H1717.98V2030.59H1647.57V1985.81Z" fill="white"/>
<path d="M1774.03 2121.33V2125.09C1774.03 2138.42 1775.97 2150.79 1779.84 2162.18C1783.72 2173.57 1789.3 2183.49 1796.59 2191.92C1803.77 2200.35 1812.54 2206.96 1822.91 2211.74C1833.39 2216.53 1845.18 2218.92 1858.29 2218.92C1871.27 2218.92 1882.95 2216.53 1893.32 2211.74C1903.69 2206.96 1912.52 2200.35 1919.81 2191.92C1926.99 2183.49 1932.51 2173.57 1936.39 2162.18C1940.26 2150.79 1942.2 2138.42 1942.2 2125.09V2121.33C1942.2 2108 1940.26 2095.64 1936.39 2084.25C1932.51 2072.74 1926.99 2062.77 1919.81 2054.34C1912.52 2045.91 1903.63 2039.3 1893.15 2034.52C1882.78 2029.62 1871.05 2027.17 1857.94 2027.17C1844.96 2027.17 1833.28 2029.62 1822.91 2034.52C1812.54 2039.3 1803.77 2045.91 1796.59 2054.34C1789.3 2062.77 1783.72 2072.74 1779.84 2084.25C1775.97 2095.64 1774.03 2108 1774.03 2121.33ZM1805.65 2125.09V2121.33C1805.65 2112.33 1806.73 2103.73 1808.9 2095.53C1811.06 2087.21 1814.37 2079.92 1818.81 2073.65C1823.14 2067.39 1828.55 2062.43 1835.04 2058.79C1841.54 2055.03 1849.17 2053.15 1857.94 2053.15C1866.72 2053.15 1874.35 2055.03 1880.84 2058.79C1887.45 2062.43 1892.98 2067.39 1897.42 2073.65C1901.75 2079.92 1905 2087.21 1907.16 2095.53C1909.44 2103.73 1910.58 2112.33 1910.58 2121.33V2125.09C1910.58 2134.21 1909.5 2142.93 1907.33 2151.24C1905.17 2159.45 1901.92 2166.68 1897.59 2172.95C1893.15 2179.21 1887.62 2184.17 1881.02 2187.81C1874.52 2191.46 1866.95 2193.28 1858.29 2193.28C1849.51 2193.28 1841.82 2191.46 1835.21 2187.81C1828.61 2184.17 1823.14 2179.21 1818.81 2172.95C1814.37 2166.68 1811.06 2159.45 1808.9 2151.24C1806.73 2142.93 1805.65 2134.21 1805.65 2125.09Z" fill="white"/>
<path d="M2238.02 1966.67H2198.89V2215.5H2229.65V2116.21L2227.09 2015.89L2269.3 2146.29H2287.41L2333.38 2012.3L2330.82 2116.21V2215.5H2361.58V1966.67H2322.28L2278.53 2091.09L2238.02 1966.67Z" fill="white"/>
<path d="M2404.65 2121.33V2125.09C2404.65 2138.42 2406.59 2150.79 2410.46 2162.18C2414.33 2173.57 2419.92 2183.49 2427.21 2191.92C2434.38 2200.35 2443.16 2206.96 2453.53 2211.74C2464.01 2216.53 2475.8 2218.92 2488.9 2218.92C2501.89 2218.92 2513.57 2216.53 2523.94 2211.74C2534.3 2206.96 2543.13 2200.35 2550.42 2191.92C2557.6 2183.49 2563.13 2173.57 2567 2162.18C2570.88 2150.79 2572.81 2138.42 2572.81 2125.09V2121.33C2572.81 2108 2570.88 2095.64 2567 2084.25C2563.13 2072.74 2557.6 2062.77 2550.42 2054.34C2543.13 2045.91 2534.25 2039.3 2523.76 2034.52C2513.4 2029.62 2501.66 2027.17 2488.56 2027.17C2475.57 2027.17 2463.89 2029.62 2453.53 2034.52C2443.16 2039.3 2434.38 2045.91 2427.21 2054.34C2419.92 2062.77 2414.33 2072.74 2410.46 2084.25C2406.59 2095.64 2404.65 2108 2404.65 2121.33ZM2436.26 2125.09V2121.33C2436.26 2112.33 2437.35 2103.73 2439.51 2095.53C2441.68 2087.21 2444.98 2079.92 2449.42 2073.65C2453.75 2067.39 2459.17 2062.43 2465.66 2058.79C2472.15 2055.03 2479.79 2053.15 2488.56 2053.15C2497.33 2053.15 2504.97 2055.03 2511.46 2058.79C2518.07 2062.43 2523.59 2067.39 2528.04 2073.65C2532.37 2079.92 2535.61 2087.21 2537.78 2095.53C2540.06 2103.73 2541.2 2112.33 2541.2 2121.33V2125.09C2541.2 2134.21 2540.11 2142.93 2537.95 2151.24C2535.78 2159.45 2532.54 2166.68 2528.21 2172.95C2523.76 2179.21 2518.24 2184.17 2511.63 2187.81C2505.14 2191.46 2497.56 2193.28 2488.9 2193.28C2480.13 2193.28 2472.44 2191.46 2465.83 2187.81C2459.22 2184.17 2453.75 2179.21 2449.42 2172.95C2444.98 2166.68 2441.68 2159.45 2439.51 2151.24C2437.35 2142.93 2436.26 2134.21 2436.26 2125.09Z" fill="white"/>
<path d="M2623.74 2215.5H2655.36V2082.88C2657.52 2078.9 2660.03 2075.25 2662.88 2071.95C2665.84 2068.64 2669.03 2065.74 2672.45 2063.23C2676.66 2060.38 2681.28 2058.16 2686.29 2056.56C2691.3 2054.86 2696.71 2054 2702.52 2054C2709.25 2054 2715.17 2054.8 2720.3 2056.39C2725.54 2057.99 2729.98 2060.55 2733.63 2064.08C2737.16 2067.62 2739.84 2072.23 2741.66 2077.93C2743.48 2083.62 2744.39 2090.57 2744.39 2098.78V2215.5H2776.01V2098.09C2776.01 2085.79 2774.47 2075.19 2771.4 2066.31C2768.43 2057.31 2764.16 2049.9 2758.58 2044.09C2753 2038.28 2746.22 2034.01 2738.24 2031.27C2730.38 2028.54 2721.61 2027.17 2711.92 2027.17C2704.75 2027.28 2697.91 2028.37 2691.42 2030.42C2685.04 2032.35 2679.11 2035.15 2673.64 2038.79C2670 2041.18 2666.52 2044.03 2663.22 2047.34C2660.03 2050.53 2657.07 2054.06 2654.33 2057.93L2652.11 2030.59H2623.74V2215.5Z" fill="white"/>
<path d="M2825.06 2121.33V2125.09C2825.06 2138.42 2827 2150.79 2830.87 2162.18C2834.74 2173.57 2840.33 2183.49 2847.62 2191.92C2854.8 2200.35 2863.57 2206.96 2873.94 2211.74C2884.42 2216.53 2896.21 2218.92 2909.31 2218.92C2922.3 2218.92 2933.98 2216.53 2944.35 2211.74C2954.71 2206.96 2963.54 2200.35 2970.84 2191.92C2978.01 2183.49 2983.54 2173.57 2987.41 2162.18C2991.29 2150.79 2993.22 2138.42 2993.22 2125.09V2121.33C2993.22 2108 2991.29 2095.64 2987.41 2084.25C2983.54 2072.74 2978.01 2062.77 2970.84 2054.34C2963.54 2045.91 2954.66 2039.3 2944.17 2034.52C2933.81 2029.62 2922.07 2027.17 2908.97 2027.17C2895.98 2027.17 2884.3 2029.62 2873.94 2034.52C2863.57 2039.3 2854.8 2045.91 2847.62 2054.34C2840.33 2062.77 2834.74 2072.74 2830.87 2084.25C2827 2095.64 2825.06 2108 2825.06 2121.33ZM2856.67 2125.09V2121.33C2856.67 2112.33 2857.76 2103.73 2859.92 2095.53C2862.09 2087.21 2865.39 2079.92 2869.83 2073.65C2874.16 2067.39 2879.58 2062.43 2886.07 2058.79C2892.56 2055.03 2900.2 2053.15 2908.97 2053.15C2917.74 2053.15 2925.38 2055.03 2931.87 2058.79C2938.48 2062.43 2944 2067.39 2948.45 2073.65C2952.78 2079.92 2956.02 2087.21 2958.19 2095.53C2960.47 2103.73 2961.61 2112.33 2961.61 2121.33V2125.09C2961.61 2134.21 2960.52 2142.93 2958.36 2151.24C2956.19 2159.45 2952.95 2166.68 2948.62 2172.95C2944.17 2179.21 2938.65 2184.17 2932.04 2187.81C2925.55 2191.46 2917.97 2193.28 2909.31 2193.28C2900.54 2193.28 2892.85 2191.46 2886.24 2187.81C2879.63 2184.17 2874.16 2179.21 2869.83 2172.95C2865.39 2166.68 2862.09 2159.45 2859.92 2151.24C2857.76 2142.93 2856.67 2134.21 2856.67 2125.09Z" fill="white"/>
<path d="M837.779 2439V2539.8H827.555V2459.16L787.955 2526.98H782.915L743.315 2459.59V2539.8H733.091V2439H741.875L785.651 2513.74L828.995 2439H837.779Z" fill="white"/>
<path d="M899.422 2540.52C892.126 2540.52 885.55 2538.89 879.694 2535.62C873.838 2532.26 869.23 2527.66 865.87 2521.8C862.51 2515.94 860.83 2509.32 860.83 2501.93C860.83 2494.54 862.51 2487.91 865.87 2482.06C869.23 2476.2 873.838 2471.64 879.694 2468.38C885.55 2465.11 892.126 2463.48 899.422 2463.48C906.718 2463.48 913.294 2465.11 919.15 2468.38C925.006 2471.64 929.566 2476.2 932.83 2482.06C936.19 2487.91 937.87 2494.54 937.87 2501.93C937.87 2509.32 936.19 2515.94 932.83 2521.8C929.566 2527.66 925.006 2532.26 919.15 2535.62C913.294 2538.89 906.718 2540.52 899.422 2540.52ZM899.422 2531.45C904.798 2531.45 909.598 2530.25 913.822 2527.85C918.142 2525.35 921.502 2521.85 923.902 2517.34C926.302 2512.82 927.502 2507.69 927.502 2501.93C927.502 2496.17 926.302 2491.03 923.902 2486.52C921.502 2482.01 918.142 2478.55 913.822 2476.15C909.598 2473.66 904.798 2472.41 899.422 2472.41C894.046 2472.41 889.198 2473.66 884.878 2476.15C880.654 2478.55 877.294 2482.01 874.798 2486.52C872.398 2491.03 871.198 2496.17 871.198 2501.93C871.198 2507.69 872.398 2512.82 874.798 2517.34C877.294 2521.85 880.654 2525.35 884.878 2527.85C889.198 2530.25 894.046 2531.45 899.422 2531.45Z" fill="white"/>
<path d="M997.335 2463.48C1006.84 2463.48 1014.38 2466.26 1019.94 2471.83C1025.61 2477.3 1028.44 2485.32 1028.44 2495.88V2539.8H1018.22V2496.89C1018.22 2489.02 1016.25 2483.02 1012.31 2478.89C1008.38 2474.76 1002.76 2472.7 995.463 2472.7C987.303 2472.7 980.823 2475.14 976.023 2480.04C971.319 2484.84 968.967 2491.51 968.967 2500.06V2539.8H958.743V2464.06H968.535V2478.02C971.319 2473.42 975.159 2469.86 980.055 2467.37C985.047 2464.78 990.807 2463.48 997.335 2463.48Z" fill="white"/>
<path d="M1096.08 2535.19C1094.16 2536.92 1091.76 2538.26 1088.88 2539.22C1086.1 2540.09 1083.17 2540.52 1080.1 2540.52C1073 2540.52 1067.52 2538.6 1063.68 2534.76C1059.84 2530.92 1057.92 2525.5 1057.92 2518.49V2472.7H1044.39V2464.06H1057.92V2447.5H1068.15V2464.06H1091.19V2472.7H1068.15V2517.91C1068.15 2522.42 1069.25 2525.88 1071.46 2528.28C1073.76 2530.58 1077.03 2531.74 1081.25 2531.74C1083.36 2531.74 1085.38 2531.4 1087.3 2530.73C1089.32 2530.06 1091.04 2529.1 1092.48 2527.85L1096.08 2535.19Z" fill="white"/>
<path d="M1135 2540.52C1128.86 2540.52 1122.95 2539.66 1117.29 2537.93C1111.72 2536.1 1107.35 2533.85 1104.18 2531.16L1108.79 2523.1C1111.96 2525.59 1115.94 2527.66 1120.74 2529.29C1125.54 2530.82 1130.54 2531.59 1135.72 2531.59C1142.63 2531.59 1147.72 2530.54 1150.98 2528.42C1154.34 2526.22 1156.02 2523.14 1156.02 2519.21C1156.02 2516.42 1155.11 2514.26 1153.29 2512.73C1151.46 2511.1 1149.16 2509.9 1146.38 2509.13C1143.59 2508.26 1139.9 2507.45 1135.29 2506.68C1129.14 2505.53 1124.2 2504.38 1120.46 2503.22C1116.71 2501.98 1113.5 2499.91 1110.81 2497.03C1108.22 2494.15 1106.92 2490.17 1106.92 2485.08C1106.92 2478.74 1109.56 2473.56 1114.84 2469.53C1120.12 2465.5 1127.46 2463.48 1136.87 2463.48C1141.77 2463.48 1146.66 2464.15 1151.56 2465.5C1156.46 2466.74 1160.49 2468.42 1163.66 2470.54L1159.19 2478.74C1152.95 2474.42 1145.51 2472.26 1136.87 2472.26C1130.34 2472.26 1125.4 2473.42 1122.04 2475.72C1118.78 2478.02 1117.14 2481.05 1117.14 2484.79C1117.14 2487.67 1118.06 2489.98 1119.88 2491.7C1121.8 2493.43 1124.15 2494.73 1126.94 2495.59C1129.72 2496.36 1133.56 2497.18 1138.46 2498.04C1144.5 2499.19 1149.35 2500.34 1153 2501.5C1156.65 2502.65 1159.77 2504.62 1162.36 2507.4C1164.95 2510.18 1166.25 2514.02 1166.25 2518.92C1166.25 2525.54 1163.46 2530.82 1157.9 2534.76C1152.42 2538.6 1144.79 2540.52 1135 2540.52Z" fill="white"/>
<path d="M1251.1 2505.1H1187.74C1188.32 2512.97 1191.34 2519.35 1196.81 2524.25C1202.29 2529.05 1209.2 2531.45 1217.55 2531.45C1222.25 2531.45 1226.57 2530.63 1230.51 2529C1234.45 2527.27 1237.85 2524.78 1240.73 2521.51L1246.49 2528.14C1243.13 2532.17 1238.91 2535.24 1233.82 2537.35C1228.83 2539.46 1223.31 2540.52 1217.26 2540.52C1209.49 2540.52 1202.57 2538.89 1196.53 2535.62C1190.57 2532.26 1185.92 2527.66 1182.56 2521.8C1179.2 2515.94 1177.52 2509.32 1177.52 2501.93C1177.52 2494.54 1179.1 2487.91 1182.27 2482.06C1185.53 2476.2 1189.95 2471.64 1195.52 2468.38C1201.18 2465.11 1207.52 2463.48 1214.53 2463.48C1221.53 2463.48 1227.82 2465.11 1233.39 2468.38C1238.96 2471.64 1243.33 2476.2 1246.49 2482.06C1249.66 2487.82 1251.25 2494.44 1251.25 2501.93L1251.1 2505.1ZM1214.53 2472.26C1207.23 2472.26 1201.09 2474.62 1196.09 2479.32C1191.2 2483.93 1188.41 2489.98 1187.74 2497.46H1241.45C1240.78 2489.98 1237.95 2483.93 1232.96 2479.32C1228.06 2474.62 1221.92 2472.26 1214.53 2472.26Z" fill="white"/>
<path d="M1281.85 2478.89C1284.25 2473.8 1287.8 2469.96 1292.5 2467.37C1297.3 2464.78 1303.21 2463.48 1310.22 2463.48V2473.42L1307.77 2473.27C1299.8 2473.27 1293.56 2475.72 1289.05 2480.62C1284.54 2485.51 1282.28 2492.38 1282.28 2501.21V2539.8H1272.06V2464.06H1281.85V2478.89Z" fill="white"/>
<path d="M1338.52 2478.89C1340.92 2473.8 1344.47 2469.96 1349.18 2467.37C1353.98 2464.78 1359.88 2463.48 1366.89 2463.48V2473.42L1364.44 2473.27C1356.47 2473.27 1350.23 2475.72 1345.72 2480.62C1341.21 2485.51 1338.95 2492.38 1338.95 2501.21V2539.8H1328.73V2464.06H1338.52V2478.89Z" fill="white"/>
<path d="M1411.76 2463.48C1421.64 2463.48 1429.23 2465.98 1434.51 2470.97C1439.79 2475.86 1442.43 2483.16 1442.43 2492.86V2539.8H1432.64V2527.99C1430.33 2531.93 1426.92 2535 1422.41 2537.21C1418 2539.42 1412.72 2540.52 1406.57 2540.52C1398.12 2540.52 1391.4 2538.5 1386.41 2534.47C1381.42 2530.44 1378.92 2525.11 1378.92 2518.49C1378.92 2512.06 1381.23 2506.87 1385.84 2502.94C1390.54 2499 1397.98 2497.03 1408.16 2497.03H1432.2V2492.42C1432.2 2485.9 1430.38 2480.95 1426.73 2477.59C1423.08 2474.14 1417.76 2472.41 1410.75 2472.41C1405.95 2472.41 1401.34 2473.22 1396.92 2474.86C1392.51 2476.39 1388.72 2478.55 1385.55 2481.34L1380.94 2473.7C1384.78 2470.44 1389.39 2467.94 1394.76 2466.22C1400.14 2464.39 1405.8 2463.48 1411.76 2463.48ZM1408.16 2532.46C1413.92 2532.46 1418.86 2531.16 1422.99 2528.57C1427.12 2525.88 1430.19 2522.04 1432.2 2517.05V2504.66H1408.44C1395.48 2504.66 1389 2509.18 1389 2518.2C1389 2522.62 1390.68 2526.12 1394.04 2528.71C1397.4 2531.21 1402.11 2532.46 1408.16 2532.46Z" fill="white"/>
<path d="M1510.08 2535.19C1508.16 2536.92 1505.76 2538.26 1502.88 2539.22C1500.1 2540.09 1497.17 2540.52 1494.1 2540.52C1487 2540.52 1481.52 2538.6 1477.68 2534.76C1473.84 2530.92 1471.92 2525.5 1471.92 2518.49V2472.7H1458.39V2464.06H1471.92V2447.5H1482.15V2464.06H1505.19V2472.7H1482.15V2517.91C1482.15 2522.42 1483.25 2525.88 1485.46 2528.28C1487.76 2530.58 1491.03 2531.74 1495.25 2531.74C1497.36 2531.74 1499.38 2531.4 1501.3 2530.73C1503.32 2530.06 1505.04 2529.1 1506.48 2527.85L1510.08 2535.19Z" fill="white"/>
<path d="M797.027 2998.89C781.283 2998.89 768.707 2995.82 759.299 2989.67C749.891 2983.53 743.171 2974.79 739.139 2963.46C735.107 2951.94 733.091 2938.5 733.091 2923.14V2834.73C733.091 2819.37 735.107 2806.22 739.139 2795.27C743.363 2784.14 750.083 2775.69 759.299 2769.93C768.707 2763.98 781.283 2761 797.027 2761C812.771 2761 825.251 2763.98 834.467 2769.93C843.683 2775.88 850.307 2784.33 854.339 2795.27C858.563 2806.22 860.675 2819.37 860.675 2834.73V2923.43C860.675 2938.6 858.563 2951.85 854.339 2963.18C850.307 2974.5 843.683 2983.34 834.467 2989.67C825.251 2995.82 812.771 2998.89 797.027 2998.89ZM797.027 2973.26C805.667 2973.26 812.195 2971.53 816.611 2968.07C821.027 2964.42 824.003 2959.43 825.539 2953.1C827.075 2946.57 827.843 2938.98 827.843 2930.34V2828.1C827.843 2819.46 827.075 2812.07 825.539 2805.93C824.003 2799.59 821.027 2794.79 816.611 2791.53C812.195 2788.07 805.667 2786.34 797.027 2786.34C788.387 2786.34 781.763 2788.07 777.155 2791.53C772.739 2794.79 769.763 2799.59 768.227 2805.93C766.691 2812.07 765.923 2819.46 765.923 2828.1V2930.34C765.923 2938.98 766.691 2946.57 768.227 2953.1C769.763 2959.43 772.739 2964.42 777.155 2968.07C781.763 2971.53 788.387 2973.26 797.027 2973.26Z" fill="white"/>
<path d="M928.661 2998.6C915.029 2998.6 904.085 2994.38 895.829 2985.93C887.573 2977.29 882.869 2965.96 881.717 2951.94L907.349 2944.17C908.885 2954.73 911.477 2962.7 915.125 2968.07C918.773 2973.26 924.149 2975.85 931.253 2975.85C936.821 2975.85 941.045 2974.31 943.925 2971.24C946.805 2967.98 948.245 2963.66 948.245 2958.28C948.245 2953.48 947.189 2949.16 945.077 2945.32C942.965 2941.48 939.509 2937.54 934.709 2933.51L906.197 2909.03C900.437 2904.04 895.541 2898.47 891.509 2892.33C887.669 2886.18 885.749 2878.22 885.749 2868.42C885.749 2859.59 887.477 2852.2 890.933 2846.25C894.581 2840.1 899.573 2835.5 905.909 2832.42C912.437 2829.16 920.021 2827.53 928.661 2827.53C941.909 2827.53 951.989 2831.85 958.901 2840.49C966.005 2848.94 970.037 2859.21 970.997 2871.3L950.261 2879.08C949.493 2873.32 948.341 2868.33 946.805 2864.1C945.269 2859.69 943.157 2856.33 940.469 2854.02C937.781 2851.53 934.229 2850.28 929.813 2850.28C924.821 2850.28 920.789 2852.01 917.717 2855.46C914.837 2858.73 913.397 2862.66 913.397 2867.27C913.397 2870.15 913.973 2873.03 915.125 2875.91C916.469 2878.6 918.677 2881.29 921.749 2883.98L951.125 2911.05C955.157 2914.7 958.901 2918.63 962.357 2922.86C966.005 2927.08 968.981 2931.88 971.285 2937.26C973.589 2942.63 974.741 2948.87 974.741 2955.98C974.741 2965.38 972.821 2973.26 968.981 2979.59C965.141 2985.93 959.765 2990.73 952.853 2993.99C945.941 2997.06 937.877 2998.6 928.661 2998.6Z" fill="white"/>
<path d="M1017.08 2996.3L990.3 2829.83H1015.64L1032.92 2952.52L1055.1 2829.83H1078.72L1100.89 2951.94L1118.17 2829.83H1143.52L1115.87 2996.3H1089.95L1067.2 2878.79L1044.73 2996.3H1017.08Z" fill="white"/>
<path d="M1197.05 2998.6C1190.52 2998.6 1184.76 2996.78 1179.77 2993.13C1174.78 2989.29 1170.84 2984.49 1167.96 2978.73C1165.08 2972.78 1163.64 2966.54 1163.64 2960.01C1163.64 2949.64 1165.37 2940.9 1168.83 2933.8C1172.28 2926.7 1176.99 2920.74 1182.94 2915.94C1189.08 2910.95 1196.09 2906.63 1203.96 2902.98C1212.03 2899.34 1220.48 2895.78 1229.31 2892.33V2880.52C1229.31 2873.8 1228.92 2868.23 1228.16 2863.82C1227.39 2859.4 1225.76 2856.14 1223.26 2854.02C1220.96 2851.72 1217.4 2850.57 1212.6 2850.57C1208.38 2850.57 1204.92 2851.53 1202.24 2853.45C1199.74 2855.37 1197.92 2858.15 1196.76 2861.8C1195.61 2865.26 1195.04 2869.38 1195.04 2874.18V2882.54L1164.51 2881.38C1164.89 2862.95 1169.12 2849.42 1177.18 2840.78C1185.24 2831.94 1197.72 2827.53 1214.62 2827.53C1231.13 2827.53 1242.84 2832.04 1249.76 2841.06C1256.67 2850.09 1260.12 2863.14 1260.12 2880.23V2956.26C1260.12 2961.45 1260.22 2966.44 1260.41 2971.24C1260.8 2976.04 1261.18 2980.55 1261.56 2984.78C1262.14 2988.81 1262.62 2992.65 1263 2996.3H1234.78C1234.2 2993.22 1233.44 2989.38 1232.48 2984.78C1231.71 2979.98 1231.13 2975.66 1230.75 2971.82C1228.83 2978.34 1225.08 2984.49 1219.52 2990.25C1214.14 2995.82 1206.65 2998.6 1197.05 2998.6ZM1209.15 2972.1C1212.22 2972.1 1215.1 2971.24 1217.79 2969.51C1220.48 2967.78 1222.88 2965.86 1224.99 2963.75C1227.1 2961.45 1228.54 2959.62 1229.31 2958.28V2911.05C1224.51 2913.74 1220 2916.42 1215.77 2919.11C1211.55 2921.8 1207.8 2924.68 1204.54 2927.75C1201.47 2930.63 1198.97 2933.99 1197.05 2937.83C1195.32 2941.48 1194.46 2945.7 1194.46 2950.5C1194.46 2957.22 1195.71 2962.5 1198.2 2966.34C1200.7 2970.18 1204.35 2972.1 1209.15 2972.1Z" fill="white"/>
<path d="M1292.61 2996.3V2763.02H1323.42V2996.3H1292.61Z" fill="white"/>
<path d="M1394.13 2998.6C1380.11 2998.6 1369.65 2993.51 1362.74 2983.34C1355.83 2972.97 1352.37 2955.5 1352.37 2930.92V2898.66C1352.37 2885.99 1353.43 2874.28 1355.54 2863.53C1357.65 2852.58 1361.59 2843.85 1367.35 2837.32C1373.3 2830.79 1381.94 2827.53 1393.27 2827.53C1398.83 2827.53 1403.92 2828.78 1408.53 2831.27C1413.14 2833.77 1417.27 2836.84 1420.91 2840.49V2763.02H1451.73V2996.3H1420.91V2985.64C1417.27 2989.48 1413.23 2992.65 1408.82 2995.14C1404.59 2997.45 1399.7 2998.6 1394.13 2998.6ZM1401.91 2974.41C1404.79 2974.41 1407.86 2973.93 1411.12 2972.97C1414.39 2971.82 1417.65 2970.18 1420.91 2968.07V2858.92C1418.23 2857 1415.25 2855.37 1411.99 2854.02C1408.72 2852.49 1405.17 2851.72 1401.33 2851.72C1394.23 2851.72 1389.43 2855.18 1386.93 2862.09C1384.43 2868.81 1383.19 2876.97 1383.19 2886.57V2933.51C1383.19 2941.19 1383.57 2948.2 1384.34 2954.54C1385.3 2960.68 1387.12 2965.58 1389.81 2969.22C1392.5 2972.68 1396.53 2974.41 1401.91 2974.41Z" fill="white"/>
<rect x="719.091" y="3238" width="371" height="371" fill="#C485FF"/>
<rect x="1194.09" y="3238" width="371" height="371" fill="#111111"/>
<path d="M1669.09 3238H2040.09V3609H1669.09V3238Z" fill="#1A1B1F"/>
<path d="M2144.09 3238.06H2515.09V3609.06H2144.09V3238.06Z" fill="white"/>
<rect x="719.091" y="1361.94" width="371" height="371" fill="#FFD600"/>
<rect x="1194.09" y="1361.94" width="371" height="371" fill="#DCC5F3"/>
<rect x="1669.09" y="1361.94" width="371" height="371" fill="#B28CD9"/>
<rect x="2144.09" y="1361.94" width="371" height="371" fill="#380070"/>
</svg>
