<svg id="Layer_1" data-name="Layer 1" xmlns="http://www.w3.org/2000/svg" viewBox="0 0 500 500"><defs><style>.cls-1,.cls-25{fill:#eaefbf;}.cls-2,.cls-26,.cls-32{fill:#aabf00;}.cls-13,.cls-3{fill:#bfcf40;}.cls-11,.cls-4,.cls-46,.cls-5,.cls-7{fill:none;}.cls-4{stroke:#adb17f;}.cls-11,.cls-12,.cls-13,.cls-14,.cls-15,.cls-16,.cls-17,.cls-18,.cls-19,.cls-20,.cls-21,.cls-22,.cls-23,.cls-24,.cls-25,.cls-26,.cls-27,.cls-28,.cls-29,.cls-30,.cls-32,.cls-33,.cls-34,.cls-35,.cls-36,.cls-38,.cls-4,.cls-40,.cls-41,.cls-42,.cls-44,.cls-45,.cls-46,.cls-5,.cls-6,.cls-7,.cls-8,.cls-9{stroke-miterlimit:10;}.cls-5{stroke:#848b40;}.cls-6{fill:#5b6400;}.cls-11,.cls-12,.cls-13,.cls-14,.cls-15,.cls-16,.cls-17,.cls-18,.cls-19,.cls-20,.cls-21,.cls-22,.cls-23,.cls-24,.cls-25,.cls-26,.cls-27,.cls-28,.cls-29,.cls-33,.cls-35,.cls-38,.cls-44,.cls-6,.cls-8,.cls-9{stroke:#000;}.cls-36,.cls-45,.cls-7{stroke:#3c3f00;}.cls-31,.cls-8{fill:#e20000;}.cls-36,.cls-9{fill:#f8f6d7;}.cls-10{fill:#f6f8e5;}.cls-12,.cls-40{fill:#e5db61;}.cls-14{fill:#cd7f8c;}.cls-15,.cls-34,.cls-39{fill:#9b001a;}.cls-16,.cls-42{fill:#f07f7f;}.cls-17{fill:#3c3f00;}.cls-18{fill:#b44053;}.cls-19{fill:#ece489;}.cls-20{fill:#e6bfc6;}.cls-21{fill:#adb17f;}.cls-22{fill:#d6d8bf;}.cls-23,.cls-45,.cls-47{fill:#848b40;}.cls-24{fill:#d4df7f;}.cls-27{fill:#e94040;}.cls-28{fill:#f5e5e8;}.cls-29{fill:#f2edb0;}.cls-30,.cls-43,.cls-44{fill:#f8bfbf;}.cls-30{stroke:#e20000;}.cls-32,.cls-40,.cls-41{stroke:#5b6400;}.cls-33{fill:#eabc86;}.cls-34{stroke:#f07f7f;}.cls-35{fill:#fff;}.cls-37,.cls-41{fill:#eae7ac;}.cls-38{fill:#f7d2a1;}.cls-42{stroke:#e94040;}.cls-46{stroke:#9b001a;}.cls-48{font-size:11px;font-family:Futura-Medium, Futura;font-weight:500;}.cls-49{letter-spacing:-0.02em;}.cls-50{letter-spacing:0.03em;}.cls-51{letter-spacing:0.02em;}.cls-52{letter-spacing:-0.08em;}.cls-53{letter-spacing:-0.08em;}.cls-54{font-size:15px;font-family:Futura-Bold, Futura;font-weight:700;}.cls-55{letter-spacing:0em;}.cls-56{letter-spacing:0.01em;}</style></defs><rect class="cls-1" x="0.5" y="0.2" width="499" height="500"/><rect class="cls-2" x="0.5" y="399.72" width="499" height="100.48"/><rect class="cls-3" x="0.5" y="364.7" width="499" height="35"/><line class="cls-4" x1="0.5" y1="365.16" x2="499.5" y2="365.16"/><line class="cls-5" x1="0.5" y1="373.69" x2="499.5" y2="373.69"/><polygon class="cls-6" points="317.9 417.28 317.9 117.03 169.66 117.03 169.66 416.72 317.9 417.28"/><line class="cls-7" x1="0.5" y1="399.62" x2="499.5" y2="399.62"/><path d="M181.16,103.62s-3-2-4-7c-.81-4.05,2-8,2-8a55,55,0,0,1,0-17c1-6,6-12,6-12s2.8-10.08,5-13c3-4,5-4.65,5-4.65l.77-8.71s-2.26-10.36.23-12.29S205,27,205,27l10.53.35s5.66-5.74,10.66-7.39c2,4.65-2,13-2,13s2.64,3,3,5C228.16,43.62,223,51,223,51l1.2,7.6s4.15,3.48,5,6c1.39,4.14,2,15,2,15s3,2,4,8a17.52,17.52,0,0,1-1,10l5,1-9,5Z"/><polygon class="cls-8" points="176.66 116.62 176.66 103.16 237.03 103.16 237.34 116.62 176.66 116.62"/><path class="cls-9" d="M203,37a11,11,0,0,1,4.15.08,5.23,5.23,0,0,1,3,2.52,5.21,5.21,0,0,1-4.19.5C204.25,39.5,203,37,203,37Z"/><path class="cls-9" d="M216.16,40.62a3.7,3.7,0,0,1,3-2h3.09s-.09,3-2.22,3.35C219,42.14,216.16,40.62,216.16,40.62Z"/><polygon class="cls-10" points="208.08 56.62 209.29 58.79 210.16 56.62 208.08 56.62"/><line class="cls-11" x1="207.16" y1="36.62" x2="206.27" y2="38.61"/><line class="cls-11" x1="219.66" y1="38.12" x2="219.52" y2="40.37"/><rect class="cls-12" x="173.09" y="129.87" width="3.92" height="36.27"/><polygon class="cls-13" points="177.01 122.91 177.01 166.14 185.16 166.62 184.16 122.91 177.01 122.91"/><polygon class="cls-14" points="185.16 120.62 185.16 166.13 193.16 166.13 193.16 120.91 185.16 120.62"/><polygon class="cls-15" points="193.38 166.98 194.38 134.62 199.91 134.62 199.91 166.62 193.38 166.98"/><polygon class="cls-16" points="200.08 139.8 200.12 166.85 206.66 166.85 206.96 140.23 200.08 139.8"/><polygon class="cls-12" points="207.16 136.17 208.08 167.12 213.96 166.85 213.96 136.17 207.16 136.17"/><polygon class="cls-17" points="214.18 166.13 214.18 139.35 219.25 139.35 218.74 166.39 214.18 166.13"/><polygon class="cls-8" points="260.35 167.13 260.35 137.17 270.95 137.17 270.95 166.62 260.35 167.13"/><polygon class="cls-14" points="271.16 130.35 271.16 166.13 275.66 166.13 274.57 130.35 271.16 130.35"/><polygon class="cls-18" points="275.66 120.91 275.66 166.13 280.66 166.85 280.66 120.91 275.66 120.91"/><polygon class="cls-8" points="281.57 126.62 281.57 167.13 286.29 167.13 286.29 126.63 281.57 126.62"/><polygon class="cls-19" points="286.02 166.85 286.02 125.62 288.2 125.62 288.2 166.13 286.02 166.85"/><polygon class="cls-18" points="288.56 130.35 289.47 166.85 294.55 166.13 293.82 130.35 288.56 130.35"/><polygon class="cls-20" points="294.16 131.62 294.16 167.13 299.27 167.13 298.54 131.62 294.16 131.62"/><rect class="cls-6" x="299.81" y="130.62" width="7.08" height="36.23"/><rect class="cls-21" x="307.16" y="125.62" width="4" height="41.23"/><rect class="cls-22" x="312.15" y="120.91" width="2.72" height="45.94"/><polygon class="cls-23" points="249.39 122.91 249.39 166.13 260.02 166.62 260.02 122.91 249.39 122.91"/><polygon class="cls-24" points="248.78 133.44 248.78 166.13 242.98 166.39 242.98 133.44 248.78 133.44"/><polygon class="cls-20" points="219.69 166.13 219.42 139.35 224.35 139.35 224.35 166.39 219.69 166.13"/><polygon class="cls-16" points="173.09 234.57 173.09 179.39 182.16 179.62 181.08 234.57 173.09 234.57"/><polygon class="cls-18" points="182.53 179.39 182.53 235.12 192.65 235.12 193.16 179.39 182.53 179.39"/><polygon class="cls-8" points="195.16 181.62 193.08 234.57 198.07 234.57 199.16 181.62 195.16 181.62"/><polygon class="cls-15" points="224.56 166.57 224.56 137.2 233.2 137.2 233.2 166.52 224.56 166.57"/><rect class="cls-25" x="233.21" y="140.35" width="8.74" height="26.44"/><rect class="cls-26" x="275.68" y="377.26" width="7.48" height="25.54"/><polygon class="cls-16" points="305.66 315.91 305.66 341.12 309.66 340.57 309.66 316.26 305.66 315.91"/><polygon class="cls-19" points="310.16 308.96 310.16 341.62 315.47 341.62 314.61 308.66 310.16 308.96"/><polygon class="cls-22" points="310.16 253.62 309.29 291.12 313.64 291.12 314.92 253.62 310.16 253.62"/><polygon class="cls-15" points="298.66 300.62 298.66 343.08 304.9 343.63 305.86 300.62 298.66 300.62"/><polygon class="cls-26" points="283.57 312.12 283.57 342.57 297.7 342.57 298.71 312.12 283.57 312.12"/><polygon class="cls-12" points="199.09 201.95 199.09 233.19 199.09 234.03 203.01 234.03 203.01 201.95 199.09 201.95"/><rect class="cls-17" x="311.16" y="198.62" width="3.37" height="35.42"/><polygon class="cls-19" points="275.16 254.62 275.16 290.19 279.16 290.04 279.16 254.62 275.16 254.62"/><polygon class="cls-27" points="279.45 258.95 279.45 291.04 281.08 291.04 281.38 258.95 279.45 258.95"/><polygon class="cls-26" points="281.62 250.77 281.65 291.04 288.52 290.64 288.52 250.77 281.62 250.77"/><polygon class="cls-24" points="289.16 255.62 289.16 291.04 299.72 291.04 299.59 255.62 289.16 255.62"/><polygon class="cls-20" points="299.42 254.62 299.25 291.04 303.21 291.04 303.21 254.62 299.42 254.62"/><polygon class="cls-15" points="304.6 291.04 304.16 252.62 308.83 252.62 308.83 291.04 304.6 291.04"/><polygon class="cls-28" points="172.16 402.62 172.16 356.75 179.84 356.75 179.84 402.56 172.16 402.62"/><polygon class="cls-27" points="180.16 355.11 181.16 402.56 185.38 402.56 183.45 355.11 180.16 355.11"/><polygon class="cls-24" points="186.07 402.43 186.07 373.82 192.81 373.82 192.81 402.61 186.07 402.43"/><polygon class="cls-28" points="201.52 367.82 201.88 402.56 204.23 402.56 203.72 367.82 201.52 367.82"/><polygon class="cls-15" points="204.23 367.82 205.21 402.56 207.73 402.56 206.56 367.82 204.23 367.82"/><polygon class="cls-18" points="207.73 369.18 208.58 402.56 210.72 402.56 209.18 369.18 207.73 369.18"/><polygon class="cls-20" points="198.99 367.39 199.34 402.13 201.69 402.13 201.18 367.39 198.99 367.39"/><polygon class="cls-14" points="195.99 367.39 196.34 402.13 198.69 402.13 198.18 367.39 195.99 367.39"/><polygon class="cls-18" points="192.99 367.39 193.34 402.13 195.69 402.13 195.18 367.39 192.99 367.39"/><rect class="cls-17" x="169.66" y="403.12" width="148" height="14.16"/><rect class="cls-17" x="169.66" y="167.12" width="148" height="7.68"/><rect class="cls-17" x="169.66" y="234.15" width="148" height="7.68"/><rect class="cls-17" x="169.66" y="291.04" width="148" height="7.68"/><rect class="cls-17" x="169.66" y="341.18" width="148" height="7.68"/><rect class="cls-19" x="309.16" y="348.86" width="5.72" height="54.26"/><polygon class="cls-18" points="308.42 403.12 308.42 353.12 302.27 353.12 302.27 403.13 308.42 403.12"/><polygon class="cls-29" points="301.71 402.13 301.71 365.56 299.16 365.56 299.16 402.12 301.71 402.13"/><polygon class="cls-23" points="296.92 350.12 298.55 403.12 293.02 403.12 291.29 350.12 296.92 350.12"/><polygon class="cls-12" points="291.81 402.61 291.81 369.18 290.57 369.18 290.36 402.12 291.81 402.61"/><rect class="cls-15" x="282.18" y="364.62" width="6.97" height="38.5"/><path class="cls-30" d="M116.16,425.3s0-4.68,4-6.18c2.07-.78,3,5.5,3,5.5Z"/><path class="cls-30" d="M155.16,436.62s1.38,7.08-10.62,6.08c-2.51-.2-8.38-1.08-8.38-1.08l-3,1s5.93,6.33,9,7c2.78.6,8-1,10-3S155.16,436.62,155.16,436.62Z"/><path class="cls-30" d="M98.81,450c1.35-1.33,1-4.33,1-4.33l-1.65-1c-2,4-14.57,3.73-18,1a49.66,49.66,0,0,1-6-6s.2,4.72,1,6c2.12,3.44,9,5.52,13,6C91.08,452,96.72,452,98.81,450Z"/><path d="M79.16,411.62s-5,28-4.14,31c1,3.38,8.8,6.62,12.17,7.11,3,.44,9.32.44,11-2.11,4.66-7.22-4-32-4-32Z"/><path d="M122.16,406.69s-2.6,12.31-1.5,16.34c2.08,7.7,15.38,21.17,20.5,22.59,2.69.74,8.88.83,11-1,1.79-1.56,3-9,3-9l-16-19,1-14Z"/><path class="cls-31" d="M123.16,424.62c3.27-1.33,9.21-6.73,12.17-7.15,3.42-.5,9.83,1.15,9.83,1.15l6,7s-7.34-2.34-11-2c-2.46.22-9,4-9,4l2,6s5.87-2.78,8-3c3.34-.36,13.31,2,13.31,2l3.69,4s-13.29.22-18,2c-2,.75-7,5-7,5l-17-18S121.52,425.28,123.16,424.62Z"/><path class="cls-32" d="M141.47,274.59l3.4,19.68,4.29,32.35-4.59,85.11s-24.29,1.71-27.41-4.11c-1.4-2.61,3.23-2.86,5-7-3.17-3.07-6-6-3.24-16.67,2.72-10.5,1.24-43.33,1.24-43.33l-8.89-46-.11,46s-4.44,44.87-7.21,55.25c-1.79,6.75-5.79,6.75-5.79,6.75s5.52,3.29,5.79,5.11c.41,2.67-5.38,8.39-5.38,8.39s-20,1.5-22.9-2c-5.51-6.53.45-16.75.45-16.75l3-54.78s-4.42-45.45-5-60c-.31-7.65,6-30,6-30l61.31,11.24Z"/><polygon class="cls-33" points="87.16 148.62 116.78 164.32 117.16 173.62 131.34 181.76 135.43 215.36 88.18 218.27 80.12 180.94 90.69 175.96 87.16 148.62"/><path class="cls-33" d="M124.45,150.23c-.29,12.39-10.3,20.82-15.74,21.16a19.93,19.93,0,0,1-16.85-7.94c-3.43-4.64-3.94-12.62-4.7-18.83-1.81-14.62,7.54-25.55,19.55-25.55S124.77,136.89,124.45,150.23Z"/><path d="M126.11,128.76s-3-16.14-13-18.43c-6.26-1.43-17.49-4.21-25.38,2.89-6.87,6.18-6.08,21.85-6.08,21.85l3.14,9.35,4,2,1.35-.38V128.62l10,9,6-3,2.67,4.78,1.33-5.78,4.6.53,5.09-4.8L124,139.62l1,5.31.13-9.31Z"/><path class="cls-33" d="M137.63,134l-6.47-13.35-14-5,6,3,3,10-1,7c1.15,1.08,8,7,8,7l6.5,5.5,3-6Z"/><path class="cls-34" d="M104.2,193.75l0-29.13h-17l1,11.62s-7-.62-10.88,5.13c-4.14-1.75-10.92,4.43-10.92,4.43l8.58,50-3.27,37.43s22.22,8.81,27.39,8.36c5.9-.52,19.29-10.19,19.29-10.19s-3.23-38.17-5.22-48.68C111.74,215.29,104.2,193.75,104.2,193.75Z"/><path class="cls-34" d="M66.38,185.8c-7.15,4.76-14.28,46.9-9.22,54.82,3.91,6.12,26,13,26,13v-22h-8s-.46-6.26-2-18C72.35,207.49,71.16,182.62,66.38,185.8Z"/><path class="cls-34" d="M142.24,235.62l-6.08-20-1-19,2-22-12.49,2.62-3.51-14.62-10,2-4.45,34.81,6.17,75.43s26.28,6.76,31.28.76S142.24,235.62,142.24,235.62Z"/><path class="cls-34" d="M141.16,158.62l-7.48-12.13L139,133.67s32.13,21,38.13,36c1.39,3.48-12.26,19.73-16,20l-16,6-8,25s-8.33-41.17-.48-48.82c1.08-1.05,3.48-1.18,6.48-.18,1-2,4-1.75,7-2a43.23,43.23,0,0,0,6-1Z"/><path class="cls-28" d="M97.89,140.17c-1.61.85-2.92,4.2-2.92,4.2s1.67,6.9,7.69,7.36c5,.39,8.6-5,8-8C110.1,140.56,103.66,137.12,97.89,140.17Z"/><path class="cls-28" d="M114.16,142.77c-.31,2.22,4,7.29,6.21,7.46,4.21.32,5.86-4,6.38-5.94.43-1.59-1-5.2-3-5.85C121,137.56,114.53,140.05,114.16,142.77Z"/><line class="cls-35" x1="110.71" y1="144.37" x2="114.16" y2="143.37"/><line class="cls-35" x1="94.86" y1="144.29" x2="87.96" y2="141.23"/><path class="cls-11" d="M113.16,146.37s3.81,4.69,3.6,6.55c-.15,1.35-3.6,4.09-3.6,4.09l-4-1.14"/><path class="cls-33" d="M89.58,146.55s-3.54-7.92-5-7.57c-1.91.47-1.31,7.76-1.31,7.76s2.67,5.67,4.51,5.94c.81.11,2.62-2,2.62-2"/><line class="cls-11" x1="99.27" y1="144.29" x2="106.71" y2="144.29"/><line class="cls-11" x1="117.66" y1="143.37" x2="124.53" y2="142.73"/><path d="M102.16,144.12a2,2,0,0,0,4,0Z"/><path d="M120.13,143.12a2,2,0,0,0,4,0Z"/><polygon class="cls-36" points="85.97 210.72 105.15 209.12 105.15 239.87 91.96 239.87 85.97 210.72"/><path class="cls-33" d="M84.16,230.62a4.83,4.83,0,0,1,0-4,28.29,28.29,0,0,1,6-3s10.26.55,9.55,2.5c-.3.81-3.68.49-6.74.95a11.13,11.13,0,0,0-5,2.63s17.19-1.08,16.81,2.42c-.28,2.56-16.62,1.5-16.37,2.71.37,1.77,14.77,2.77,14.29,5.13-.54,2.66-18.29-.09-18.29-.09s13.75.75,13.44,2.36c-.43,2.2-10,2-10,2s-1.59,2.1-2.47,2.39c-1.36.45-5.55-.52-6-1.9-.59-2,2.72-9.1,2.72-9.1v-3C82.16,231.11,84.16,230.62,84.16,230.62Z"/><path class="cls-31" d="M77.16,420.62c-2,1.51-2,9-2,9s7.83-5.07,10.81-5c3.18.07,11.3,7.88,11.3,7.88a47.25,47.25,0,0,0-13.35.43,13.71,13.71,0,0,1-9.35-1l-2.25,3.7L74.14,440s16.62-1.59,21.42.82c1.43.71,5.11,6.88,5.25,4.78.35-5-3.65-24-3.65-24S81.2,417.63,77.16,420.62Z"/><polygon class="cls-9" points="283.29 340.98 283.56 314.12 278.34 314.12 277.66 340.98 283.29 340.98"/><polygon class="cls-18" points="277.16 340.62 278.36 315.12 273.18 315.12 272.23 340.62 277.16 340.62"/><polygon class="cls-17" points="272.16 340.17 272.16 310.94 269.41 310.94 269.41 340.62 272.16 340.17"/><polygon class="cls-26" points="172.09 340.62 172.16 303.26 179.84 303.26 178.62 340.62 172.09 340.62"/><polygon class="cls-23" points="179.53 340.62 179.77 304.53 184.84 304.53 184.84 341.18 179.53 340.62"/><polygon class="cls-16" points="185.73 303.26 185.73 340.62 190.69 340.62 190.99 302.35 185.73 303.26"/><polygon class="cls-13" points="191.34 314.34 191.34 340.62 196.88 340.62 196.37 314.34 191.34 314.34"/><polygon class="cls-8" points="196.79 312.89 196.79 340.62 202.72 340.62 203.43 312.89 196.79 312.89"/><polygon class="cls-12" points="203.97 340.62 204.16 309.62 205.97 309.62 205.97 340.18 203.97 340.62"/><rect class="cls-17" x="207.23" y="310.94" width="4.74" height="29.68"/><polygon class="cls-20" points="212.72 340.41 212.72 323.86 220.35 323.86 220.56 340.41 212.72 340.41"/><rect class="cls-23" x="220.66" y="312.89" width="5.55" height="27.73"/><polygon class="cls-15" points="226.42 308.53 226.42 340.62 229.81 340.18 229.81 308.35 226.42 308.53"/><polygon class="cls-18" points="230.16 307.62 230.16 340.62 232.78 340.62 232.78 307.53 230.16 307.62"/><rect class="cls-29" x="233.17" y="312.16" width="4.22" height="28.45"/><rect class="cls-12" x="255.43" y="312.89" width="5.45" height="27.73"/><polygon class="cls-21" points="261.16 308.62 261.61 340.62 265.6 340.62 265.6 309.62 261.16 308.62"/><polygon class="cls-15" points="266.16 305.62 265.6 340.62 269.09 340.62 269.09 306.31 266.16 305.62"/><rect class="cls-8" x="242.47" y="310.94" width="4.74" height="29.47"/><polygon class="cls-13" points="241.96 312.12 241.96 340.41 237.39 340.62 237.39 312.16 241.96 312.12"/><polygon class="cls-16" points="247.21 300.62 247.21 340.41 255.43 340.62 255.43 300.62 247.21 300.62"/><polygon class="cls-14" points="274.84 402.13 274.84 373.82 267.6 373.82 267.6 402.61 274.84 402.13"/><polygon class="cls-26" points="220.26 402.13 218.72 364.62 224.08 364.62 224.08 402.13 220.26 402.13"/><polygon class="cls-13" points="224.66 367.82 224.66 402.13 227.66 402.61 227.66 367.39 224.66 367.82"/><rect class="cls-9" x="228.42" y="367.82" width="3.74" height="34.31"/><polygon class="cls-9" points="233.17 367.39 233.17 402.13 237.39 402.13 237.39 367.82 233.17 367.39"/><polygon class="cls-9" points="237.67 402.13 237.67 367.82 241.78 367.82 241.66 402.13 237.67 402.13"/><polygon class="cls-13" points="242.21 365.56 242.21 402.13 244.66 402.13 244.66 367.39 242.21 365.56"/><polygon class="cls-21" points="219.17 402.13 219.17 367.82 211.96 367.82 211.72 402.56 219.17 402.13"/><rect class="cls-8" x="254.71" y="350.12" width="8.67" height="52.01"/><polygon class="cls-20" points="264.39 356.11 263.78 403.13 267.86 403.13 267.86 356.11 264.39 356.11"/><polygon class="cls-17" points="244.66 402.13 244.84 360.2 254.71 360.11 254.71 402.13 244.66 402.13"/><rect class="cls-14" x="301.88" y="207.76" width="8.74" height="26.44"/><polygon class="cls-37" points="348.58 189.56 341.36 235.06 351.08 251.57 363.15 230.38 348.58 189.56"/><polygon class="cls-38" points="419.61 377.26 419.16 404.83 406.16 407.62 404.16 375.12 419.61 377.26"/><polygon class="cls-38" points="364.8 381.62 367.02 401.28 379.36 398.78 379.66 379.62 364.8 381.62"/><polygon points="357.86 153.19 357.86 203.97 415.06 206.76 403.24 153.19 357.86 153.19"/><path class="cls-39" d="M366.19,270.56c10.81-10.54,60.4-.31,60.4-.31l5.83,27.41-10.66,90-18.93-.9,1.82-45.17-8.86-44-9.39,47-4.74,43.09-20.3,1.17,2.41-44.74S352.11,284.29,366.19,270.56Z"/><polygon class="cls-40" points="420.58 216.82 422.31 184.4 398.44 179.77 375.98 178.91 345.82 187.72 353.94 225.6 356.77 274.05 374.16 292.62 389.25 290.31 386.16 273.62 399.16 272.62 401.29 285.32 412.19 286.8 429.42 274 420.58 216.82"/><polygon class="cls-32" points="371.85 168.19 371.85 178.37 366.49 180.9 387.16 283.12 400.16 279.23 400.01 181.16 391.74 176.93 390.93 167.68 371.85 168.19"/><polygon class="cls-38" points="391.62 175.74 390.81 166.48 371.74 166.99 371.74 177.17 366.37 179.71 399.89 179.96 391.62 175.74"/><path class="cls-38" d="M398.58,151.55c0,6.2-4,9-6,13-2.25,4.49-5.44,5.88-10.09,6.43-4.91.57-11.91-2.43-13.25-7.52-1-3.81-4.66-7.15-4.66-11.91,0-12,6.42-21.06,19-23C391.2,127.38,398.58,139.55,398.58,151.55Z"/><path d="M375.83,158.29s5.09,5.5,9.66,5.15c5.84-.45,6.67-2.82,6.67-2.82A35.19,35.19,0,0,0,388.1,159C385.1,158.38,375.83,158.29,375.83,158.29Z"/><path class="cls-41" d="M363.63,179.63l-3.91,16.09,7.37,1.8s-8.69,6.74-8.23,10.74c.34,3,5.4,8.19,8,12.52,3.26,5.42,11.4,18.33,11.4,18.33s-2.4-31.59-6.93-45.19c-1.74-5.2-1.76-13.6-1.76-13.6l2.62-1.14s-.08-4-.13-4.33Z"/><path class="cls-41" d="M400.32,251.57s10.84-34.95,10.71-42.95c-.12-7-8.87-14-8.87-14l7-6-6.58-10.93-10.42-4.07v4l4.45,4.07Z"/><path class="cls-42" d="M369.27,173.55s13.31,3,23.17,0c1.19-.36,1.63,3.88.9,4.89-1,1.41-4.55,2.51-4.55,2.51s6.57,22.39,6.55,30.09c0,4.68-4.11,18.28-4.11,18.28l-6.29-41.75s-.3,16.18-2.64,20.9c-1.3,2.63-8.38,8.22-8.38,8.22l6-34.07s-11.38-2.07-12.55-4.18C366.78,177.29,369.27,173.55,369.27,173.55Z"/><path class="cls-41" d="M335.58,216.55c-1.11,1.79,2,7.85,2,7.85s-3.16,19.14.54,24.71c1.81,2.73,12,5.33,12,5.33l4.83-8.79s-7.36-23.1-9.36-30.1C344.89,213.14,337,214.21,335.58,216.55Z"/><path class="cls-43" d="M364.11,393s4.71,26.95,3.07,34.31c-1,4.31-8.37,13.37-8.3,17.07.05,3.49,7.24,9.43,10.44,9.69,2.29.19,7.48-1.11,8.65-3.08,1.75-2.93.8-10.44,2.07-13.58.72-1.78,2.75-3.95,3-6.44.34-2.85-2.39-13.09-2.39-13.09V390.07Z"/><path class="cls-43" d="M403.85,406.53l1.1,4.34s-3.8.56-3.71,2.05S406,415.8,406,415.8s-3.89,1-3.8,2.12c.1,1.33,3.25,3.24,3.25,3.24l-1.09,6.49s2.52,8.9,2.17,11.9c-.38,3.23-4.15,9.42,0,13,2.05,1.76,8.24,1.93,10.82,1.08,3.09-1,9-5.66,9.73-8.66,1.05-4.35-6.35-11.92-7.57-16.22-.55-2,.62-8.11.62-8.11s2.63-2.71,2.63-3.8-2.17-2.16-2.17-2.16,3.25-.78,3.25-2.16c0-1.08-3.25-2.17-3.25-2.17l2.17-4.32-.41-5.28Z"/><path d="M379.26,114.13A27.05,27.05,0,0,0,357.85,125c-2.39,3.52-2,5.68-2,5.68s-.86.87-7.11-.07c-2.25-.33,6.25,5.27,6.25,5.27a21.6,21.6,0,0,1-13,1.73c3,5.66,13,6.07,13,6.07s-7.84,3.22-18.2,0c2.56,10.15,11.26,8.66,11.26,8.66a12,12,0,0,0,4.34,13c1.88,1.41-3.34,2.73-7.8,2.6-2.39-.07-6.9,10.4-1.73,10.4,6.06-10.4,4.38,10,5.19,11.26,3.43,5.37,11.86-7.8,13.87-13,2.51-6.47,3-26.57,3-26.57l16.7-6.89L395.72,146s4.18,31.53,8.67,36.64c5.1,5.82,20-6.42,20-6.42s-5-1.17-6.33-2.18c-3.2-2.39-9.27-13-9.27-13s3.52-2.41,3.38-6.1c-.09-2.24-4.33-6-3.47-6.93,3-3.11,13.42-.23,13.36-4.59-9,.26-13.36-4.08-13.36-4.08s10.4-.86,10.4-6.93c-10.4,1.74-13.86.87-13.86.87s9.53-5.2,7.27-7.47c-3.81,1.4-6.5,1.71-8.49,0a29.43,29.43,0,0,1-5.72-5.86C395.73,116.37,390.52,114.13,379.26,114.13Z"/><path class="cls-11" d="M382.16,147.62s-3.86,2.45-2.63,4c1.63,2,3.63,0,3.63,0a21,21,0,0,0,3,2c1.4.42,4.12-1,4.5-2,.89-2.33-2.19-9.74-2.19-9.74"/><polygon class="cls-26" points="386.66 160.12 396.66 158.12 397.66 162.12 387.58 162.12 386.66 160.12"/><path class="cls-44" d="M404.24,156.36s1.76,1.21.71,2.36c-.57.62-2.76.19-3.25-.45a3.65,3.65,0,0,1,.39-3.48c1.19-1,5.16.05,6,1.28.48.68,1.71,2.19-.45,4.23-1.43,1.35-3.27,2.84-5.94,2.1a16.55,16.55,0,0,1-2.6-1.43"/><polygon class="cls-8" points="397.16 157.62 400.48 157.62 401.12 162.6 398.09 162.6 397.16 157.62"/><circle class="cls-45" cx="366.53" cy="208.65" r="1.73"/><circle class="cls-45" cx="368.79" cy="241.31" r="1.73"/><circle class="cls-45" cx="371.26" cy="252.64" r="1.73"/><circle class="cls-45" cx="408.69" cy="246.78" r="1.73"/><path class="cls-41" d="M438.16,226.62s2.32-1.7,2-3c-.55-2.24-6-6-6-6s2.07-3.66,2-5c-.42-7.94-13.84-27.12-13.84-27.12s-6.62,44.24,0,57.62c1.37,2.77,9.84,6.5,9.84,6.5s8.88-8.53,10-13C443.16,232.62,438.16,226.62,438.16,226.62Z"/><path class="cls-38" d="M421.7,214.63l2.46-8v-7l-7.25-9.5s-6.75.5-10.08,2.58c.05,1.56,4.18.92,4.18.92l-2.74,1.58s-4.31,3.85-3.44,4.92,5.15-2.34,5.15-2.34l6.5-.63,1.13,2.8-4.13-1.54-5.62,4.11s-2.33,2.57-1.94,3.5,2.24-.4,3.68-1c-1.44,4.57,3.17,10.12,3.17,10.12l10.76,25.37a6.77,6.77,0,0,0,5.21-.38c2.73-1.39,5.67-5.17,6.42-6.67a10.7,10.7,0,0,0,0-7C430.16,222.62,421.7,214.63,421.7,214.63Z"/><path class="cls-11" d="M411,206c1.29.93,4.08-1.07,5.13-1.36,1.51-.43,3.51,2,1,3"/><polyline class="cls-11" points="409.6 205.05 412.16 202.62 415.16 202.62"/><polyline class="cls-11" points="421.16 195.39 418.16 192.62 409.16 194.62"/><path class="cls-46" d="M378.16,446.62s-5.24,1.16-7,1-8.36-3.14-8.36-3.14"/><path class="cls-46" d="M422,445.86s-7.21-.29-9.59,0c-1.71.2-7.69,1.62-7.69,1.62"/><polygon class="cls-36" points="335.23 185.06 351.08 185.06 348.99 210.2 337.23 210.2 335.23 185.06"/><path class="cls-38" d="M336.64,217.55l-1-3.9s-4.84-4.13-5.06-6.1c-.07-.55,1-2,1-2s-1.34-2.6-1-3.43c.11-.27,1-.57,1-.57v-3l4.06-3.88s-1.16-1.22-1.06-1.72c.17-.88,2.88-2.1,2.88-2.1s5-.58,5.12.7-5,3-5,3h6s2.62,2,2.24,2.85c-.67,1.41-6.24.15-6.24.15l-2,1,6,1s4.07,1.89,3.59,2.95c-.58,1.29-5.59-.95-5.59-.95l-5,1,6,2s3.82,2.21,4,3c.3,1.37-5.86-.79-5.86-.79l-4.08,1,1.36,2.62h6.76l-.31,7.17s-2.78,2-3.87,2S336.64,217.55,336.64,217.55Z"/><path class="cls-36" d="M335.23,410.28c1.59,2.22,9.41,2.27,10.92,0,4.39-6.58,7.6-21.23,6.93-29.91-.63-8.13-9.28-20.24-10.21-28.25-.73-6.29,4.18-16.12,2.27-22.23a6.41,6.41,0,0,0-5.34-4.27,7.23,7.23,0,0,0-6.24,4.27c-2.21,5.95,1.4,15.93,1,22.23-.57,8.35-7.58,22.47-7,30.78S330.54,403.7,335.23,410.28Z"/><polygon class="cls-31" points="332.52 359.95 345.15 359.95 342.86 354.24 333.9 354.24 332.52 359.95"/><polygon class="cls-31" points="333.65 344.57 344.04 344.57 343.58 349.02 333.97 349.02 333.65 344.57"/><path class="cls-47" d="M243.51,431.56c-8.77,1.14-23.38,15-27.77,17.14-4,1.95-15.1,4.7-15.1,4.7s-14.19,1.46-14.9,5.3c-.82,4.34,13,5,13,5s-5.89,9.2-4.48,12.43c2.77,6.32,9.38,7.65,15.48,4.57,2.64-1.33,15-4,15-4s9.78,3.48,15,4c10,1,12.25-3.16,18-11,3.3-4.5,17-13,17-13S280,445.6,278.91,443C275.49,434.63,252.44,430.39,243.51,431.56Z"/><path class="cls-36" d="M267.84,416.69s20.44-6.59,24-5a7.67,7.67,0,0,1,4,9c-2.21,7.17-19,19-19,19Z"/><path class="cls-36" d="M261.84,430.69c-1.74-6,2-14.06,7.94-14.4,4-.23,8.83,5.53,10.06,10.4s.06,14.11-5,14S264.13,438.61,261.84,430.69Z"/><text class="cls-48" transform="matrix(0.96, -0.27, 0.27, 0.96, 211.64, 465.5)">Al<tspan class="cls-49" x="10.89" y="0">e</tspan><tspan x="16.76" y="0">x</tspan></text><path class="cls-47" d="M279.62,431.37c-1.48-4.29-18.05,6.26-18.05,6.26s7,3.57,11,3.57c1.73,0,3.94-.51,5-2C278.86,437.44,280.25,433.19,279.62,431.37Z"/><rect class="cls-29" x="172.54" y="268.7" width="94" height="22"/><text class="cls-48" transform="translate(176.82 284.89)">499 Ozi<tspan class="cls-50" x="42.31" y="0">c</tspan><tspan x="47.83" y="0">k </tspan><tspan class="cls-51" x="56.71" y="0">S</tspan><tspan x="63.31" y="0">t #2</tspan></text><rect class="cls-26" x="209.48" y="209.7" width="81.05" height="23.29"/><rect class="cls-16" x="176.23" y="246.7" width="82.8" height="22"/><text class="cls-48" transform="translate(180.88 263.75)"><tspan class="cls-52">1</tspan><tspan x="5.92" y="0">2/</tspan><tspan class="cls-53" x="18.41" y="0">1</tspan><tspan x="24.37" y="0">8 @ 8pm</tspan></text><text class="cls-54" transform="translate(213.26 227.66)">D<tspan class="cls-55" x="11.79" y="0">r</tspan><tspan x="18.78" y="0">in</tspan><tspan class="cls-56" x="33.31" y="0">k</tspan><tspan x="43.99" y="0">s?</tspan></text><rect class="cls-8" x="221.53" y="194.7" width="64.01" height="14.28"/><rect class="cls-18" x="225.54" y="184.7" width="35.52" height="9.77"/><text class="cls-48" transform="translate(237.3 456.36)">is</text><text class="cls-48" transform="translate(249.82 453.01)">33</text></svg>