<svg width="1434" height="1434" viewBox="0 0 1434 1434" fill="none" xmlns="http://www.w3.org/2000/svg">
<rect width="1434" height="1434" fill="#F1F4F4"/>
<path d="M973.338 577.828C973.338 719.307 858.648 833.998 717.169 833.998C575.691 833.998 461 719.307 461 577.828C461 436.35 652.74 282.487 717.169 166C780.567 284.549 973.338 436.35 973.338 577.828Z" fill="#62DCF7"/>
<path d="M973.338 577.828C973.338 719.307 858.648 833.998 717.169 833.998C575.691 833.998 461 719.307 461 577.828C461 436.35 652.74 282.487 717.169 166C780.567 284.549 973.338 436.35 973.338 577.828Z" fill="#62DCF7"/>
<path d="M828.12 397.222C834.896 411.721 826.141 420.264 824.76 432.046C835.474 439.532 844.367 418.089 850.384 422.005C856.401 425.921 837.827 455.936 824.794 466.874C811.762 477.812 759.647 507.07 753.797 507.117C751.31 536.154 726.542 554.904 726.542 554.904L722.829 532.482C722.829 532.482 711.162 546.133 677.855 555.177C669.741 569.404 698.413 587.206 698.413 587.206C698.413 587.206 772.625 578.769 773.349 597.07C774.073 615.372 726.961 617.989 711.615 644.046C696.269 670.102 718.475 713.706 696.138 722.239C673.8 730.771 655.691 628.665 655.691 628.665C655.691 628.665 641.914 611.272 633.816 594.758C623.626 573.977 622.943 530.627 622.943 530.627C622.943 530.627 610.018 543.078 595.578 534.358C581.139 525.638 601.919 478.993 610.041 468.156C618.162 457.319 638.437 459.212 638.437 459.212C638.437 459.212 648.439 405.935 682.061 398.038C715.684 390.141 724.065 399.272 724.065 399.272C724.065 399.272 796.745 384.161 828.12 397.222Z" fill="#008C95"/>
<circle cx="692.681" cy="319.611" r="24.2253" fill="#DDF7FF" fill-opacity="0.7"/>
<circle cx="752.986" cy="342.805" r="15.4629" fill="#DDF7FF" fill-opacity="0.7"/>
<circle cx="743.192" cy="295.901" r="9.79319" fill="#DDF7FF" fill-opacity="0.7"/>
<path d="M973.338 577.83C973.338 719.308 858.648 833.999 717.169 833.999C575.691 833.999 461 719.308 461 577.83C461 493.815 599.37 737.099 717.169 737.099C917.821 737.098 973.338 497.938 973.338 577.83Z" fill="#4D7EFF"/>
<path d="M973.338 577.827C973.338 719.306 858.648 833.996 717.169 833.996C575.691 833.996 461 719.306 461 577.827C461 436.349 597.383 566.774 704.283 619.58C875.407 704.11 973.338 436.349 973.338 577.827Z" fill="#DDF7FF" fill-opacity="0.4"/>
<path d="M461 577.83C461 719.309 575.691 834 717.169 834C858.648 834 973.338 719.309 973.338 577.83C973.338 436.352 732.157 554.423 651.709 601.023C567.179 649.989 461 436.352 461 577.83Z" fill="#0085FF" fill-opacity="0.3"/>
<path d="M447.043 1200.15L456.926 1196.67C459.172 1200.64 462.242 1203.79 466.135 1206.11C470.103 1208.43 474.67 1209.59 479.836 1209.59C485.376 1209.59 489.868 1208.24 493.312 1205.54C496.757 1202.85 498.479 1199.22 498.479 1194.65C498.479 1192.26 497.954 1190.16 496.906 1188.36C495.933 1186.49 494.361 1184.88 492.189 1183.53C490.018 1182.19 487.959 1181.1 486.013 1180.28C484.141 1179.45 481.595 1178.52 478.376 1177.47C469.466 1174.55 463.365 1172.04 460.07 1169.94C453.332 1165.6 449.963 1159.65 449.963 1152.09C449.963 1145.2 452.621 1139.7 457.937 1135.58C463.327 1131.39 470.402 1129.29 479.162 1129.29C486.05 1129.29 492.002 1130.9 497.019 1134.12C502.035 1137.26 505.666 1141.27 507.912 1146.14L498.591 1149.28C494.024 1142.17 487.473 1138.61 478.938 1138.61C473.472 1138.61 469.13 1139.85 465.91 1142.32C462.766 1144.79 461.193 1148.04 461.193 1152.09C461.193 1154.41 461.755 1156.47 462.878 1158.26C464.001 1160.06 465.723 1161.63 468.044 1162.98C470.365 1164.25 472.574 1165.3 474.67 1166.13C476.766 1166.95 479.536 1167.92 482.98 1169.05C483.954 1169.35 484.665 1169.57 485.114 1169.72C488.708 1170.92 491.74 1172.12 494.211 1173.31C496.757 1174.44 499.302 1175.97 501.848 1177.92C504.468 1179.79 506.415 1182.11 507.688 1184.88C509.035 1187.58 509.709 1190.72 509.709 1194.31C509.709 1202.1 506.939 1208.17 501.398 1212.51C495.933 1216.85 488.671 1219.02 479.611 1219.02C471.825 1219.02 465.124 1217.34 459.509 1213.97C453.968 1210.52 449.813 1205.92 447.043 1200.15Z" fill="#525252"/>
<path d="M536.262 1186.12C536.262 1193.68 537.947 1199.59 541.316 1203.86C544.685 1208.05 548.803 1210.15 553.67 1210.15C558.461 1210.15 562.542 1208.05 565.911 1203.86C569.28 1199.59 570.964 1193.68 570.964 1186.12C570.964 1178.4 569.28 1172.45 565.911 1168.26C562.542 1164.07 558.461 1161.97 553.67 1161.97C548.878 1161.97 544.76 1164.07 541.316 1168.26C537.947 1172.38 536.262 1178.33 536.262 1186.12ZM525.481 1186.12C525.481 1176.76 527.914 1168.93 532.781 1162.64C537.647 1156.28 544.61 1153.1 553.67 1153.1C562.579 1153.1 569.467 1156.28 574.334 1162.64C579.275 1168.93 581.746 1176.76 581.746 1186.12C581.746 1190.01 581.222 1193.79 580.173 1197.46C579.2 1201.13 577.665 1204.65 575.569 1208.02C573.547 1211.31 570.628 1213.97 566.809 1215.99C562.991 1218.01 558.611 1219.02 553.67 1219.02C548.728 1219.02 544.348 1218.05 540.53 1216.1C536.786 1214.08 533.829 1211.42 531.658 1208.13C529.561 1204.83 527.989 1201.35 526.941 1197.68C525.968 1193.94 525.481 1190.08 525.481 1186.12Z" fill="#525252"/>
<path d="M603.021 1217V1128.28H613.465V1217H603.021Z" fill="#525252"/>
<path d="M637.997 1194.99V1155.12H648.554V1193.19C648.554 1204.5 652.634 1210.15 660.795 1210.15C665.736 1210.15 669.554 1208.17 672.25 1204.2C674.945 1200.23 676.293 1195.55 676.293 1190.16V1155.12H686.737V1217H676.63V1208.02H676.517C675.694 1210.49 673.785 1212.96 670.79 1215.43C667.795 1217.82 663.677 1219.02 658.436 1219.02C652.596 1219.02 647.73 1217.07 643.837 1213.18C639.943 1209.21 637.997 1203.15 637.997 1194.99Z" fill="#525252"/>
<path d="M704.306 1163.99V1155.12H714.75V1135.8H725.307V1155.12H740.805V1163.99H725.307V1198.25C725.307 1201.76 725.981 1204.27 727.329 1205.77C728.676 1207.27 730.81 1208.02 733.73 1208.02H740.917V1217H732.382C720.628 1217 714.75 1211.05 714.75 1199.14V1163.99H704.306Z" fill="#525252"/>
<path d="M760.62 1142.88V1130.08H773.086V1142.88H760.62ZM761.743 1217V1155.12H772.075V1217H761.743Z" fill="#525252"/>
<path d="M804.805 1186.12C804.805 1193.68 806.49 1199.59 809.859 1203.86C813.228 1208.05 817.346 1210.15 822.212 1210.15C827.004 1210.15 831.085 1208.05 834.454 1203.86C837.823 1199.59 839.507 1193.68 839.507 1186.12C839.507 1178.4 837.823 1172.45 834.454 1168.26C831.085 1164.07 827.004 1161.97 822.212 1161.97C817.421 1161.97 813.303 1164.07 809.859 1168.26C806.49 1172.38 804.805 1178.33 804.805 1186.12ZM794.024 1186.12C794.024 1176.76 796.457 1168.93 801.324 1162.64C806.19 1156.28 813.153 1153.1 822.212 1153.1C831.122 1153.1 838.01 1156.28 842.877 1162.64C847.818 1168.93 850.289 1176.76 850.289 1186.12C850.289 1190.01 849.765 1193.79 848.716 1197.46C847.743 1201.13 846.208 1204.65 844.112 1208.02C842.09 1211.31 839.171 1213.97 835.352 1215.99C831.534 1218.01 827.154 1219.02 822.212 1219.02C817.271 1219.02 812.891 1218.05 809.073 1216.1C805.329 1214.08 802.372 1211.42 800.201 1208.13C798.104 1204.83 796.532 1201.35 795.484 1197.68C794.511 1193.94 794.024 1190.08 794.024 1186.12Z" fill="#525252"/>
<path d="M870.216 1217V1155.12H880.548V1164.78H880.66C881.634 1162.01 883.767 1159.39 887.062 1156.92C890.431 1154.37 894.549 1153.1 899.415 1153.1C905.33 1153.1 910.122 1154.93 913.79 1158.6C917.534 1162.27 919.405 1168.41 919.405 1177.02V1217H908.737V1178.7C908.737 1167.55 904.843 1161.97 897.057 1161.97C892.64 1161.97 888.821 1163.81 885.602 1167.47C882.457 1171.07 880.885 1175.41 880.885 1180.5V1217H870.216Z" fill="#525252"/>
<path d="M937.761 1204.53L945.51 1200.04C949.927 1206.86 955.842 1210.26 963.254 1210.26C967.446 1210.26 970.816 1209.48 973.361 1207.9C975.907 1206.33 977.18 1204.12 977.18 1201.28C977.18 1200.23 976.992 1199.26 976.618 1198.36C976.319 1197.46 975.645 1196.64 974.596 1195.89C973.623 1195.06 972.762 1194.43 972.013 1193.98C971.34 1193.45 970.029 1192.85 968.083 1192.18C966.211 1191.51 964.789 1191.02 963.815 1190.72C962.917 1190.42 961.195 1189.86 958.649 1189.04C955.954 1188.21 953.67 1187.39 951.799 1186.57C950.002 1185.67 948.055 1184.54 945.959 1183.2C943.937 1181.77 942.402 1180.01 941.354 1177.92C940.306 1175.82 939.782 1173.43 939.782 1170.73C939.782 1165.49 941.916 1161.26 946.183 1158.04C950.526 1154.75 956.216 1153.1 963.254 1153.1C968.345 1153.1 973.062 1154.45 977.404 1157.14C981.747 1159.76 984.891 1162.98 986.838 1166.8L979.763 1171.29C978.041 1168.67 975.757 1166.46 972.912 1164.67C970.067 1162.79 966.885 1161.86 963.366 1161.86C959.173 1161.86 955.954 1162.68 953.708 1164.33C951.537 1165.9 950.451 1168.07 950.451 1170.84C950.451 1172.49 950.863 1173.99 951.686 1175.33C952.585 1176.61 954.007 1177.77 955.954 1178.82C957.901 1179.79 959.548 1180.54 960.895 1181.06C962.318 1181.59 964.377 1182.26 967.072 1183.08C969.842 1183.91 972.238 1184.77 974.26 1185.67C976.356 1186.57 978.527 1187.73 980.773 1189.15C983.019 1190.57 984.741 1192.33 985.939 1194.43C987.212 1196.52 987.848 1198.84 987.848 1201.39C987.848 1206.33 985.677 1210.52 981.335 1213.97C976.992 1217.34 971.003 1219.02 963.366 1219.02C957.676 1219.02 952.622 1217.75 948.205 1215.2C943.788 1212.66 940.306 1209.1 937.761 1204.53Z" fill="#525252"/>
<path d="M571.118 1063V977.312H603.799C612.334 977.312 619.035 979.632 623.901 984.274C628.843 988.916 631.313 995.093 631.313 1002.8C631.313 1010.67 628.805 1016.88 623.789 1021.45C618.773 1026.01 612.147 1028.3 603.911 1028.3H582.012V1063H571.118ZM582.012 1019.09H602.339C607.954 1019.09 612.297 1017.74 615.366 1015.05C618.511 1012.28 620.083 1008.2 620.083 1002.8C620.083 997.564 618.548 993.558 615.479 990.788C612.409 988.018 607.954 986.633 602.114 986.633H582.012V1019.09Z" fill="#525252"/>
<path d="M653.599 1063V977.312H706.495V986.633H664.493V1015.27H702.115V1024.48H664.493V1063H653.599Z" fill="#525252"/>
<path d="M734.62 1030.77H764.606L755.509 1004.15C755.06 1002.8 754.161 1000.15 752.814 996.179C751.541 992.211 750.605 989.328 750.006 987.531H749.332C748.808 989.178 747.872 991.949 746.525 995.842C745.252 999.735 744.353 1002.51 743.829 1004.15L734.62 1030.77ZM711.598 1063L743.268 977.312H756.071L787.628 1063H775.836L767.75 1039.53H731.588L723.39 1063H711.598Z" fill="#525252"/>
<path d="M797.223 1046.15L807.106 1042.67C809.352 1046.64 812.422 1049.79 816.315 1052.11C820.283 1054.43 824.85 1055.59 830.016 1055.59C835.557 1055.59 840.049 1054.24 843.493 1051.54C846.937 1048.85 848.659 1045.22 848.659 1040.65C848.659 1038.26 848.135 1036.16 847.087 1034.36C846.113 1032.49 844.541 1030.88 842.37 1029.53C840.199 1028.19 838.14 1027.1 836.193 1026.28C834.321 1025.45 831.776 1024.52 828.556 1023.47C819.647 1020.55 813.545 1018.04 810.251 1015.94C803.512 1011.6 800.143 1005.65 800.143 998.088C800.143 991.2 802.801 985.697 808.117 981.579C813.508 977.386 820.583 975.29 829.343 975.29C836.231 975.29 842.183 976.9 847.199 980.119C852.215 983.264 855.846 987.269 858.093 992.136L848.771 995.28C844.204 988.168 837.653 984.611 829.118 984.611C823.652 984.611 819.31 985.847 816.091 988.317C812.946 990.788 811.374 994.045 811.374 998.088C811.374 1000.41 811.935 1002.47 813.058 1004.26C814.181 1006.06 815.903 1007.63 818.224 1008.98C820.545 1010.25 822.754 1011.3 824.85 1012.13C826.947 1012.95 829.717 1013.92 833.161 1015.05C834.134 1015.35 834.846 1015.57 835.295 1015.72C838.888 1016.92 841.921 1018.12 844.391 1019.31C846.937 1020.44 849.483 1021.97 852.028 1023.92C854.649 1025.79 856.595 1028.11 857.868 1030.88C859.216 1033.58 859.889 1036.72 859.889 1040.31C859.889 1048.1 857.119 1054.17 851.579 1058.51C846.113 1062.85 838.851 1065.02 829.792 1065.02C822.005 1065.02 815.304 1063.34 809.689 1059.97C804.149 1056.52 799.994 1051.92 797.223 1046.15Z" fill="#525252"/>
</svg>
