<svg width="3856" height="2934" viewBox="0 0 3856 2934" fill="none" xmlns="http://www.w3.org/2000/svg">
<rect width="3856" height="2934" fill="#E5E5E5"/>
<path d="M1094.32 212.284L1085.65 196.071L1076.75 212.16C1061.46 239.81 1038.46 272.742 1012.2 309.129C1006.25 317.373 1000.13 325.789 993.919 334.345C972.843 363.361 950.593 393.994 929.536 425.046C902.26 465.27 876.721 506.576 857.981 546.644C839.289 586.608 827 626.087 827 662.499C827 805.265 942.734 920.999 1085.5 920.999C1228.27 920.999 1344 805.265 1344 662.499C1344 626.072 1331.64 586.708 1312.87 546.897C1294.04 506.984 1268.41 465.865 1241.07 425.775C1221.33 396.82 1200.54 368.171 1180.7 340.82C1173.09 330.334 1165.61 320.038 1158.39 309.99C1132.19 273.525 1109.34 240.378 1094.32 212.284Z" fill="url(#paint0_linear_304_405)" fill-opacity="0.6" stroke="#49BEFF" stroke-width="20"/>
<circle cx="1075" cy="667" r="157" fill="#9DCFFE"/>
<path fill-rule="evenodd" clip-rule="evenodd" d="M872.767 791.009C900.869 774.063 968.606 736.462 1006.74 742.806C1029.57 746.604 1025.63 752.656 1020.18 761.023C1013.94 770.604 1005.73 783.221 1033.45 798.97C1096.72 818.626 1220.49 828.617 1267.39 831.823C1222.02 880.534 1157.32 910.999 1085.5 910.999C995.29 910.999 916.307 862.93 872.767 791.009Z" fill="#49BEFF"/>
<path fill-rule="evenodd" clip-rule="evenodd" d="M974.531 884.907C990.202 881.546 1043.28 869.23 1082.47 848.936C1128.95 824.872 1138.71 795.784 1138.71 750.015C1138.71 704.246 1104.67 657 1104.67 657L1279.3 664.382C1279.3 664.382 1340.43 716.057 1225 848.936C1205.99 870.82 1186.32 886.497 1166.73 897.418C1141.28 906.219 1113.95 910.999 1085.5 910.999C1045.62 910.999 1007.93 901.604 974.531 884.907Z" fill="#4D7EFF"/>
<path fill-rule="evenodd" clip-rule="evenodd" d="M1090.3 910.954C1225.33 908.394 1334 798.137 1334 662.499C1334 640.73 1329.29 617.551 1321.13 593.498C1283.79 522.679 1209.02 489.321 1187 483C1155.96 474.093 1074.79 513 1088.39 536.411C1095.67 548.937 1108.48 546.996 1119.51 545.326C1129.09 543.875 1137.32 542.629 1139.38 551.256C1141.35 559.495 1121.47 567.587 1099.07 576.702C1071.03 588.118 1039.04 601.139 1041.09 618.061C1043.05 634.153 1061.94 626.793 1080.19 619.685C1096.46 613.351 1112.21 607.217 1114.99 618.061C1117.71 628.646 1110.42 632.163 1101.76 636.343C1091.59 641.249 1079.52 647.07 1079.52 666.308C1079.52 679.267 1094.62 677.013 1115.97 673.826C1153.31 668.252 1209.79 659.822 1238 725C1276.1 813.029 1131.68 890.817 1090.3 910.954Z" fill="#E3F2FF"/>
<path fill-rule="evenodd" clip-rule="evenodd" d="M1287.72 806.958C1316.85 766.249 1334 716.376 1334 662.499C1334 644.91 1330.93 626.401 1325.44 607.255C1304.99 597.375 1171 534.132 1258.5 616.464C1326.73 680.675 1305.06 765.007 1287.72 806.958Z" fill="#49BEFF"/>
<path d="M1707.32 220.284L1698.65 204.071L1689.75 220.16C1674.46 247.81 1651.46 280.742 1625.2 317.129C1619.25 325.373 1613.13 333.789 1606.92 342.345C1585.84 371.361 1563.59 401.994 1542.54 433.046C1515.26 473.27 1489.72 514.576 1470.98 554.644C1452.29 594.608 1440 634.087 1440 670.499C1440 813.265 1555.73 928.999 1698.5 928.999C1841.27 928.999 1957 813.265 1957 670.499C1957 634.072 1944.64 594.708 1925.87 554.897C1907.04 514.984 1881.41 473.865 1854.07 433.775C1834.33 404.82 1813.54 376.171 1793.7 348.82C1786.09 338.334 1778.61 328.038 1771.39 317.99C1745.19 281.525 1722.34 248.378 1707.32 220.284Z" fill="url(#paint1_linear_304_405)" fill-opacity="0.6" stroke="#68B7FF" stroke-width="20"/>
<circle cx="1688" cy="675" r="157" fill="#9DCFFE"/>
<path fill-rule="evenodd" clip-rule="evenodd" d="M1485.77 799.009C1513.87 782.063 1581.61 744.462 1619.74 750.806C1642.57 754.604 1638.63 760.656 1633.18 769.023C1626.94 778.604 1618.73 791.221 1646.45 806.97C1709.72 826.626 1833.49 836.617 1880.39 839.823C1835.02 888.534 1770.32 918.999 1698.5 918.999C1608.29 918.999 1529.31 870.93 1485.77 799.009Z" fill="#68B7FF"/>
<path fill-rule="evenodd" clip-rule="evenodd" d="M1587.53 892.907C1603.2 889.546 1656.28 877.23 1695.47 856.936C1741.95 832.872 1751.71 803.784 1751.71 758.015C1751.71 712.246 1717.67 665 1717.67 665L1892.3 672.382C1892.3 672.382 1953.43 724.057 1838 856.936C1818.99 878.82 1799.32 894.497 1779.73 905.418C1754.28 914.219 1726.95 918.999 1698.5 918.999C1658.62 918.999 1620.93 909.604 1587.53 892.907Z" fill="#4D7EFF"/>
<path fill-rule="evenodd" clip-rule="evenodd" d="M1703.3 918.954C1838.33 916.394 1947 806.137 1947 670.499C1947 648.73 1942.29 625.551 1934.13 601.498C1896.79 530.679 1822.02 497.321 1800 491C1768.96 482.093 1687.79 521 1701.39 544.411C1708.67 556.937 1721.48 554.996 1732.51 553.326C1742.09 551.875 1750.32 550.629 1752.38 559.256C1754.35 567.495 1734.47 575.587 1712.07 584.702C1684.03 596.118 1652.04 609.139 1654.09 626.061C1656.05 642.153 1674.94 634.793 1693.19 627.685C1709.46 621.351 1725.21 615.217 1727.99 626.061C1730.71 636.646 1723.42 640.163 1714.76 644.343C1704.59 649.249 1692.52 655.07 1692.52 674.308C1692.52 687.267 1707.62 685.013 1728.97 681.826C1766.31 676.252 1822.79 667.822 1851 733C1889.1 821.029 1744.68 898.817 1703.3 918.954Z" fill="#E4F2FF"/>
<path fill-rule="evenodd" clip-rule="evenodd" d="M1900.72 814.958C1929.85 774.249 1947 724.376 1947 670.499C1947 652.91 1943.93 634.401 1938.44 615.255C1917.99 605.375 1784 542.132 1871.5 624.464C1939.73 688.675 1918.06 773.007 1900.72 814.958Z" fill="#68B7FF"/>
<path d="M3694.28 1607.51C3694.28 1774.25 3559.11 1909.42 3392.37 1909.42C3225.63 1909.42 3090.46 1774.25 3090.46 1607.51C3090.46 1440.77 3316.44 1259.44 3392.37 1122.15C3467.09 1261.87 3694.28 1440.77 3694.28 1607.51Z" fill="#7BDFFF"/>
<path d="M3523.13 1394.66C3531.11 1411.74 3520.8 1421.81 3519.17 1435.7C3531.8 1444.52 3542.28 1419.25 3549.37 1423.86C3556.46 1428.48 3534.57 1463.85 3519.21 1476.74C3503.85 1489.64 3442.43 1524.12 3435.53 1524.17C3432.6 1558.4 3403.41 1580.49 3403.41 1580.49L3399.04 1554.07C3399.04 1554.07 3385.29 1570.16 3346.03 1580.81C3336.47 1597.58 3370.26 1618.56 3370.26 1618.56C3370.26 1618.56 3457.72 1608.62 3458.58 1630.19C3459.43 1651.76 3403.91 1654.84 3385.82 1685.55C3367.74 1716.26 3393.91 1767.65 3367.58 1777.71C3341.25 1787.76 3332.8 1704.31 3332.8 1704.31L3321.56 1689.92L3305.53 1732.06C3305.53 1732.06 3289.21 1729.59 3280.53 1704.7C3271.85 1679.8 3301.9 1658.2 3301.9 1658.2L3281.32 1551.88C3281.32 1551.88 3266.08 1566.55 3249.07 1556.28C3232.05 1546 3256.54 1491.03 3266.11 1478.26C3275.68 1465.48 3299.58 1467.71 3299.58 1467.71C3299.58 1467.71 3311.36 1404.93 3350.99 1395.62C3390.62 1386.31 3400.49 1397.07 3400.49 1397.07C3400.49 1397.07 3486.15 1379.26 3523.13 1394.66Z" fill="#49BEFF"/>
<circle cx="3358.35" cy="1313.5" r="28.5507" fill="#DDF7FF" fill-opacity="0.6"/>
<circle cx="3429.42" cy="1340.84" r="18.2239" fill="#DDF7FF" fill-opacity="0.6"/>
<circle cx="3417.88" cy="1285.56" r="11.5418" fill="#DDF7FF" fill-opacity="0.6"/>
<path d="M3694.28 1607.51C3694.28 1774.25 3559.11 1909.42 3392.37 1909.42C3225.63 1909.42 3090.46 1774.25 3090.46 1607.51C3090.46 1508.5 3253.54 1795.22 3392.37 1795.22C3628.85 1795.22 3694.28 1513.36 3694.28 1607.51Z" fill="#4D7EFF"/>
<path d="M3694.28 1607.51C3694.28 1774.25 3559.11 1909.42 3392.37 1909.42C3225.63 1909.42 3090.46 1774.25 3090.46 1607.51C3090.46 1440.77 3251.19 1594.48 3377.18 1656.72C3578.86 1756.34 3694.28 1440.77 3694.28 1607.51Z" fill="#DDF7FF" fill-opacity="0.4"/>
<path d="M3090.46 1607.51C3090.46 1774.25 3225.63 1909.42 3392.37 1909.42C3559.11 1909.42 3694.28 1774.25 3694.28 1607.51C3694.28 1440.77 3410.03 1579.93 3315.22 1634.85C3215.6 1692.56 3090.46 1440.77 3090.46 1607.51Z" fill="#0085FF" fill-opacity="0.3"/>
<path d="M483.318 216.284L474.648 200.071L465.749 216.16C450.456 243.81 427.457 276.742 401.196 313.129C395.246 321.373 389.133 329.789 382.919 338.345C361.843 367.361 339.593 397.994 318.536 429.046C291.26 469.27 265.721 510.576 246.981 550.644C228.289 590.608 216 630.087 216 666.499C216 809.265 331.734 924.999 474.5 924.999C617.266 924.999 733 809.265 733 666.499C733 630.072 720.639 590.708 701.865 550.897C683.044 510.984 657.408 469.865 630.075 429.775C610.333 400.82 589.544 372.171 569.696 344.82C562.086 334.334 554.615 324.038 547.394 313.99C521.193 277.525 498.342 244.378 483.318 216.284Z" fill="#75CDFF" fill-opacity="0.61" stroke="#4D7EFF" stroke-width="20"/>
<circle cx="464" cy="671" r="152" fill="#E8F4FF" stroke="#4D7EFF" stroke-width="10"/>
<path fill-rule="evenodd" clip-rule="evenodd" d="M261.766 795.009C289.868 778.063 357.606 740.462 395.742 746.806C418.571 750.604 414.631 756.656 409.183 765.023C402.944 774.604 394.729 787.221 422.452 802.97C485.722 822.626 609.487 832.617 656.385 835.823C611.018 884.534 546.316 914.999 474.5 914.999C384.29 914.999 305.306 866.93 261.766 795.009Z" fill="#30B4FF"/>
<path d="M395.742 746.806L396.562 741.874L396.562 741.874L395.742 746.806ZM261.766 795.009L259.184 790.728L254.895 793.314L257.489 797.599L261.766 795.009ZM409.183 765.023L413.373 767.752L413.373 767.752L409.183 765.023ZM422.452 802.97L419.982 807.317L420.452 807.584L420.968 807.744L422.452 802.97ZM656.385 835.823L660.044 839.23L667.197 831.55L656.726 830.834L656.385 835.823ZM396.562 741.874C386.092 740.132 373.967 741.445 361.512 744.415C348.996 747.399 335.796 752.144 323.034 757.573C297.511 768.43 273.325 782.201 259.184 790.728L264.348 799.291C278.31 790.872 302.043 777.369 326.949 766.775C339.401 761.478 352.043 756.953 363.831 754.142C375.681 751.316 386.324 750.308 394.921 751.738L396.562 741.874ZM413.373 767.752C414.663 765.77 416.199 763.438 417.182 761.163C418.172 758.87 419.022 755.698 417.722 752.378C416.436 749.093 413.562 746.981 410.28 745.514C406.951 744.025 402.43 742.85 396.562 741.874L394.921 751.738C400.469 752.661 404.016 753.667 406.198 754.643C408.429 755.64 408.509 756.275 408.41 756.024C408.298 755.737 408.568 755.885 408.001 757.198C407.426 758.53 406.427 760.093 404.992 762.295L413.373 767.752ZM424.921 798.622C411.516 791.007 408.443 785.046 408.057 781.186C407.63 776.913 410.044 772.863 413.373 767.752L404.992 762.295C402.082 766.765 397.27 773.813 398.107 782.181C398.984 790.962 405.664 799.184 419.982 807.317L424.921 798.622ZM656.726 830.834C633.32 829.234 590.747 825.942 546.152 820.601C501.461 815.248 455.098 807.876 423.935 798.195L420.968 807.744C453.075 817.719 500.23 825.172 544.963 830.53C589.793 835.899 632.552 839.205 656.044 840.811L656.726 830.834ZM652.726 832.415C608.265 880.153 544.872 909.999 474.5 909.999V919.999C547.761 919.999 613.77 888.915 660.044 839.23L652.726 832.415ZM474.5 909.999C386.111 909.999 308.716 862.907 266.044 792.42L257.489 797.599C301.897 870.954 382.469 919.999 474.5 919.999V909.999Z" fill="#4D7EFF"/>
<path fill-rule="evenodd" clip-rule="evenodd" d="M363.531 888.907C379.202 885.546 432.281 873.23 471.474 852.936C517.948 828.872 527.711 799.784 527.711 754.015C527.711 708.246 493.673 661 493.673 661L668.303 668.382C668.303 668.382 729.434 720.057 614 852.936C594.989 874.82 575.323 890.497 555.734 901.418C530.279 910.219 502.948 914.999 474.5 914.999C434.619 914.999 396.932 905.604 363.531 888.907Z" fill="#4D7EFF"/>
<path fill-rule="evenodd" clip-rule="evenodd" d="M479.303 914.954C614.329 912.394 723 802.137 723 666.499C723 644.73 718.295 621.551 710.132 597.498C672.787 526.679 598.024 493.321 576 487C544.962 478.093 463.794 517 477.39 540.411C484.665 552.937 497.485 550.996 508.511 549.326C518.092 547.875 526.32 546.629 528.381 555.256C530.35 563.495 510.469 571.587 488.074 580.702C460.028 592.118 428.04 605.139 430.094 622.061C432.048 638.153 450.945 630.793 469.195 623.685C485.459 617.351 501.208 611.217 503.994 622.061C506.714 632.646 499.424 636.163 490.759 640.343C480.588 645.249 468.522 651.07 468.522 670.308C468.522 683.267 483.62 681.013 504.967 677.826C542.314 672.252 598.786 663.822 627 729C665.105 817.029 520.676 894.817 479.303 914.954Z" fill="#D1E9FF"/>
<path d="M479.303 914.954L477.115 910.458L479.398 919.953L479.303 914.954ZM710.132 597.498L714.867 595.891L714.74 595.516L714.555 595.166L710.132 597.498ZM576 487L574.621 491.806L574.621 491.806L576 487ZM477.39 540.411L473.066 542.922L473.066 542.922L477.39 540.411ZM508.511 549.326L509.26 554.269L509.26 554.269L508.511 549.326ZM528.381 555.256L523.518 556.418L523.518 556.418L528.381 555.256ZM488.074 580.702L489.959 585.334L489.959 585.334L488.074 580.702ZM430.094 622.061L425.131 622.663L430.094 622.061ZM469.195 623.685L471.009 628.345L471.009 628.345L469.195 623.685ZM503.994 622.061L508.837 620.816L508.837 620.816L503.994 622.061ZM490.759 640.343L488.586 635.84L488.586 635.84L490.759 640.343ZM504.967 677.826L505.705 682.772L505.705 682.772L504.967 677.826ZM627 729L622.411 730.986L622.411 730.986L627 729ZM718 666.499C718 799.408 611.516 907.447 479.208 909.955L479.398 919.953C617.143 917.342 728 804.867 728 666.499H718ZM705.397 599.105C713.442 622.81 718 645.431 718 666.499H728C728 644.028 723.147 620.291 714.867 595.891L705.397 599.105ZM574.621 491.806C585.077 494.807 608.786 504.483 634.485 522.18C660.152 539.856 687.522 565.34 705.709 599.83L714.555 595.166C695.398 558.837 666.713 532.232 640.156 513.944C613.631 495.677 588.946 485.514 577.379 482.194L574.621 491.806ZM481.714 537.9C480.072 535.072 480.539 530.744 486.397 524.3C492.014 518.121 501.27 511.668 512.241 506.034C523.149 500.433 535.398 495.823 546.729 493.163C558.227 490.465 568.104 489.936 574.621 491.806L577.379 482.194C568.377 479.611 556.469 480.605 544.444 483.428C532.251 486.29 519.238 491.2 507.673 497.138C496.172 503.044 485.746 510.15 478.998 517.573C472.491 524.73 467.911 534.044 473.066 542.922L481.714 537.9ZM507.763 544.382C502.081 545.243 496.916 545.982 492.328 545.254C488.125 544.587 484.503 542.701 481.714 537.9L473.066 542.922C477.553 550.647 483.977 554.054 490.76 555.13C497.157 556.145 503.915 555.079 509.26 554.269L507.763 544.382ZM533.244 554.094C532.542 551.154 531.2 548.632 529.072 546.745C526.966 544.878 524.483 543.979 522.088 543.58C517.617 542.834 512.265 543.7 507.763 544.382L509.26 554.269C514.338 553.5 517.891 553.018 520.444 553.443C521.562 553.63 522.12 553.946 522.437 554.227C522.73 554.487 523.19 555.044 523.518 556.418L533.244 554.094ZM489.959 585.334C501.048 580.82 511.947 576.393 519.798 572.018C523.7 569.844 527.237 567.476 529.705 564.851C532.166 562.235 534.302 558.519 533.244 554.094L523.518 556.418C523.519 556.421 523.517 556.415 523.517 556.405C523.516 556.394 523.516 556.386 523.516 556.383C523.517 556.374 523.516 556.419 523.472 556.531C523.375 556.781 523.103 557.275 522.421 558.001C521.015 559.495 518.551 561.265 514.93 563.283C507.734 567.293 497.495 571.47 486.189 576.071L489.959 585.334ZM435.058 621.458C434.762 619.027 435.595 616.373 438.184 613.265C440.819 610.103 444.965 606.871 450.383 603.596C461.222 597.045 475.824 591.087 489.959 585.334L486.189 576.071C472.278 581.734 456.863 587.994 445.21 595.038C439.382 598.56 434.163 602.47 430.501 606.864C426.794 611.314 424.398 616.634 425.131 622.663L435.058 621.458ZM467.38 619.026C458.002 622.679 449.451 625.963 443.041 626.597C439.883 626.91 438.084 626.473 437.118 625.867C436.398 625.415 435.418 624.425 435.058 621.458L425.131 622.663C425.747 627.742 427.862 631.866 431.805 634.339C435.502 636.657 439.934 636.953 444.025 636.549C452.116 635.749 462.137 631.8 471.009 628.345L467.38 619.026ZM508.837 620.816C507.774 616.68 505.239 613.695 501.529 612.208C498.181 610.866 494.387 610.953 490.89 611.489C483.903 612.562 475.313 615.937 467.38 619.026L471.009 628.345C479.34 625.1 486.757 622.241 492.407 621.374C495.229 620.941 496.911 621.131 497.808 621.49C498.343 621.705 498.821 622.019 499.152 623.305L508.837 620.816ZM492.931 644.846C496.992 642.887 501.952 640.572 505.286 637.031C507.079 635.127 508.498 632.796 509.163 629.924C509.821 627.085 509.667 624.047 508.837 620.816L499.152 623.305C499.681 625.367 499.636 626.738 499.421 627.667C499.214 628.561 498.779 629.355 498.006 630.176C496.208 632.085 493.191 633.618 488.586 635.84L492.931 644.846ZM473.522 670.308C473.522 661.889 476.101 656.891 479.436 653.411C483 649.693 487.718 647.361 492.931 644.846L488.586 635.84C483.629 638.231 477.229 641.263 472.217 646.491C466.977 651.958 463.522 659.489 463.522 670.308H473.522ZM504.229 672.881C493.269 674.517 484.912 675.726 479.248 675.148C476.483 674.865 475.157 674.215 474.544 673.668C474.121 673.29 473.522 672.518 473.522 670.308H463.522C463.522 674.578 464.811 678.384 467.885 681.128C470.77 683.703 474.553 684.72 478.232 685.096C485.453 685.833 495.318 684.322 505.705 682.772L504.229 672.881ZM631.589 727.014C616.86 692.988 594.424 677.73 570.573 672.018C547.167 666.414 522.753 670.116 504.229 672.881L505.705 682.772C524.528 679.962 547.023 676.662 568.244 681.743C589.019 686.718 608.927 699.834 622.411 730.986L631.589 727.014ZM481.491 919.45C502.294 909.325 549.257 884.597 586.306 851.148C623.02 818.002 652.055 774.294 631.589 727.014L622.411 730.986C640.05 771.735 615.924 810.936 579.605 843.725C543.623 876.211 497.685 900.446 477.115 910.458L481.491 919.45Z" fill="#4D7EFF"/>
<path fill-rule="evenodd" clip-rule="evenodd" d="M676.721 810.958C705.854 770.249 723 720.377 723 666.499C723 643.808 717.888 619.585 709.076 594.437C677.435 582.51 565.72 543.51 647.496 620.464C715.73 684.675 694.059 769.007 676.721 810.958Z" fill="#79CFFF"/>
<path d="M676.721 810.958L672.1 809.048L680.787 813.868L676.721 810.958ZM709.076 594.437L713.795 592.784L713.023 590.582L710.84 589.759L709.076 594.437ZM647.496 620.464L650.922 616.823L650.922 616.823L647.496 620.464ZM718 666.499C718 719.299 701.201 768.16 672.655 808.048L680.787 813.868C710.507 772.338 728 721.454 728 666.499H718ZM704.358 596.091C713.047 620.89 718 644.537 718 666.499H728C728 643.078 722.729 618.279 713.795 592.784L704.358 596.091ZM650.922 616.823C640.802 607.299 633.832 599.713 629.364 593.761C624.767 587.635 623.306 583.865 623.154 581.875C623.092 581.053 623.271 580.787 623.315 580.721C623.391 580.608 623.672 580.269 624.582 579.899C626.581 579.087 630.149 578.715 635.381 579.106C645.631 579.874 659.563 583.32 673.157 587.436C686.656 591.523 699.457 596.155 707.313 599.116L710.84 589.759C702.875 586.756 689.846 582.04 676.055 577.865C662.359 573.718 647.54 569.989 636.128 569.134C630.529 568.715 625.038 568.921 620.819 570.634C618.62 571.527 616.502 572.937 615.023 575.131C613.512 577.372 612.98 579.969 613.183 582.635C613.564 587.625 616.545 593.34 621.366 599.764C626.319 606.362 633.746 614.391 644.069 624.106L650.922 616.823ZM681.342 812.868C698.83 770.554 721.606 683.338 650.922 616.823L644.069 624.106C709.855 686.012 689.289 767.459 672.1 809.048L681.342 812.868Z" fill="#4D7EFF"/>
<path d="M317.934 189.24L316.164 188.713L316.434 187.828L318.203 188.484L318.15 186.469H319.047L318.988 188.514L320.729 187.869L320.998 188.76L319.199 189.293L320.359 190.881L319.633 191.432L318.543 189.744L317.488 191.391L316.756 190.857L317.934 189.24Z" fill="black"/>
<path d="M720 2499.5C720 2636.74 608.743 2748 471.5 2748C334.257 2748 223 2636.74 223 2499.5C223 2362.26 409 2167 471.5 2054C533 2169 720 2362.26 720 2499.5Z" fill="#306AFF"/>
<circle cx="506" cy="2413" r="111" fill="#70BAFF"/>
<circle cx="417" cy="2262" r="30" fill="#86A8FF"/>
<path fill-rule="evenodd" clip-rule="evenodd" d="M471.5 2748C608.743 2748 720 2636.74 720 2499.5C720 2461 705.287 2418.1 682.758 2373.75C645.104 2368.22 603.641 2367.54 571 2381C536.974 2395.04 519.41 2420.47 498.227 2451.14C469.604 2492.59 434.373 2543.6 343 2589C309.018 2605.88 284.72 2623.77 267.518 2641.47C312.421 2705.86 387.04 2748 471.5 2748Z" fill="#9DE8FF" fill-opacity="0.4"/>
<path fill-rule="evenodd" clip-rule="evenodd" d="M471.5 2748C608.743 2748 720 2636.74 720 2499.5C720 2490.06 719.115 2480.35 717.448 2470.43C627.865 2448.48 485.046 2420.17 385 2433C299.846 2443.92 250.447 2478.67 223.142 2507.99C227.616 2641.3 337.098 2748 471.5 2748Z" fill="#68B7FF" fill-opacity="0.5"/>
<path d="M1998 2502.5C1998 2639.74 1886.74 2751 1749.5 2751C1612.26 2751 1501 2639.74 1501 2502.5C1501 2365.26 1687 2170 1749.5 2057C1811 2172 1998 2365.26 1998 2502.5Z" fill="url(#paint2_linear_304_405)"/>
<circle cx="1695" cy="2265" r="30" fill="#86A8FF"/>
<path fill-rule="evenodd" clip-rule="evenodd" d="M1749.5 2751C1886.74 2751 1998 2639.74 1998 2502.5C1998 2493.06 1997.12 2483.35 1995.45 2473.43C1905.87 2451.48 1763.05 2423.17 1663 2436C1577.85 2446.92 1528.45 2481.67 1501.14 2510.99C1505.62 2644.3 1615.1 2751 1749.5 2751Z" fill="url(#paint3_linear_304_405)"/>
<circle cx="1784" cy="2416" r="111" fill="#7BC0FF"/>
<path fill-rule="evenodd" clip-rule="evenodd" d="M1749.5 2751C1886.74 2751 1998 2639.74 1998 2502.5C1998 2464 1983.29 2421.1 1960.76 2376.75C1923.1 2371.22 1881.64 2370.54 1849 2384C1814.97 2398.04 1797.41 2423.47 1776.23 2454.14C1747.6 2495.59 1712.37 2546.6 1621 2592C1587.02 2608.88 1562.72 2626.77 1545.52 2644.47C1590.42 2708.86 1665.04 2751 1749.5 2751Z" fill="#9DE8FF" fill-opacity="0.4"/>
<path d="M1359 2499.5C1359 2636.74 1247.74 2748 1110.5 2748C973.257 2748 862 2636.74 862 2499.5C862 2362.26 1048 2167 1110.5 2054C1172 2169 1359 2362.26 1359 2499.5Z" fill="#3FA3FF"/>
<circle cx="1056" cy="2262" r="30" fill="#83E1FF"/>
<circle cx="1145" cy="2413" r="111" fill="#84C4FF"/>
<path fill-rule="evenodd" clip-rule="evenodd" d="M1110.5 2748C1247.74 2748 1359 2636.74 1359 2499.5C1359 2490.06 1358.12 2480.35 1356.45 2470.43C1266.87 2448.48 1124.05 2420.17 1024 2433C938.846 2443.92 889.447 2478.67 862.142 2507.99C866.616 2641.3 976.098 2748 1110.5 2748Z" fill="#0267FF" fill-opacity="0.5"/>
<path fill-rule="evenodd" clip-rule="evenodd" d="M1110.5 2748C1247.74 2748 1359 2636.74 1359 2499.5C1359 2461 1344.29 2418.1 1321.76 2373.75C1284.1 2368.22 1242.64 2367.54 1210 2381C1175.97 2395.04 1158.41 2420.47 1137.23 2451.14C1108.6 2492.59 1073.37 2543.6 982 2589C948.018 2605.88 923.72 2623.77 906.518 2641.47C951.421 2705.86 1026.04 2748 1110.5 2748Z" fill="#9DE8FF" fill-opacity="0.4"/>
<path d="M2637 2502.5C2637 2639.74 2525.74 2751 2388.5 2751C2251.26 2751 2140 2639.74 2140 2502.5C2140 2365.26 2326 2170 2388.5 2057C2450 2172 2637 2365.26 2637 2502.5Z" fill="url(#paint4_linear_304_405)"/>
<circle cx="2334" cy="2265" r="30" fill="#83E1FF"/>
<circle cx="2423" cy="2416" r="111" fill="#39A0FF"/>
<path fill-rule="evenodd" clip-rule="evenodd" d="M2388.5 2751C2525.74 2751 2637 2639.74 2637 2502.5C2637 2493.06 2636.12 2483.35 2634.45 2473.43C2544.87 2451.48 2402.05 2423.17 2302 2436C2216.85 2446.92 2167.45 2481.67 2140.14 2510.99C2144.62 2644.3 2254.1 2751 2388.5 2751Z" fill="#0267FF" fill-opacity="0.5"/>
<path fill-rule="evenodd" clip-rule="evenodd" d="M2388.5 2751C2525.74 2751 2637 2639.74 2637 2502.5C2637 2464 2622.29 2421.1 2599.76 2376.75C2562.1 2371.22 2520.64 2370.54 2488 2384C2453.97 2398.04 2436.41 2423.47 2415.23 2454.14C2386.6 2495.59 2351.37 2546.6 2260 2592C2226.02 2608.88 2201.72 2626.77 2184.52 2644.47C2229.42 2708.86 2304.04 2751 2388.5 2751Z" fill="#9DE8FF" fill-opacity="0.4"/>
<path d="M548.318 1171.17L539.648 1154.96L530.749 1171.05C515.456 1198.7 492.457 1231.63 466.196 1268.02C460.246 1276.26 454.133 1284.68 447.919 1293.24C426.843 1322.25 404.593 1352.88 383.536 1383.94C356.26 1424.16 330.721 1465.47 311.981 1505.54C293.289 1545.5 281 1584.98 281 1621.39C281 1764.16 396.734 1879.89 539.5 1879.89C682.266 1879.89 798 1764.16 798 1621.39C798 1584.96 785.639 1545.6 766.865 1505.79C748.044 1465.87 722.408 1424.76 695.075 1384.67C675.333 1355.71 654.544 1327.06 634.696 1299.71C627.086 1289.22 619.615 1278.93 612.394 1268.88C586.193 1232.42 563.342 1199.27 548.318 1171.17Z" fill="#C7E4FF" stroke="#6DC6A6" stroke-width="20"/>
<path fill-rule="evenodd" clip-rule="evenodd" d="M741.916 1757.34C697.926 1827.18 620.132 1873.58 531.5 1873.58C394.257 1873.58 283 1762.32 283 1625.08C283 1529.98 372.307 1407.03 447.949 1302.89C454.097 1294.42 460.156 1286.08 466.068 1277.89C459.876 1303.97 389.745 1604.02 428 1657.58C468 1713.58 632 1791.58 632 1791.58C632 1791.58 696 1739.58 723 1747.08C729.822 1748.98 736.197 1752.75 741.916 1757.34Z" fill="#68C5FA"/>
<path d="M639 1778.89C601 1814.89 421 1815.89 381 1698.89" stroke="#C7E4FF" stroke-width="15" stroke-linecap="round" stroke-linejoin="round"/>
<path fill-rule="evenodd" clip-rule="evenodd" d="M760.666 1734.81C778.139 1700.81 788.001 1662.25 788.001 1621.39C788.001 1527.99 701.403 1408.66 626.687 1305.7C603.301 1273.47 581.08 1242.85 563.042 1215.13C554.928 1276.84 534.919 1455.78 566 1519.89C597.866 1585.61 722.29 1700.33 760.666 1734.81Z" fill="#6DC6A6"/>
<path d="M634 1417.89C725 1511.89 721 1705.89 721 1705.89" stroke="#C7E4FF" stroke-width="15" stroke-linecap="round" stroke-linejoin="round"/>
<path d="M1451 1621.39C1451 1758.63 1339.74 1869.89 1202.5 1869.89C1065.26 1869.89 954 1758.63 954 1621.39C954 1484.15 1140 1288.89 1202.5 1175.89C1264 1290.89 1451 1484.15 1451 1621.39Z" fill="#C7E4FF"/>
<path fill-rule="evenodd" clip-rule="evenodd" d="M1412.92 1753.65C1368.93 1823.49 1291.13 1869.89 1202.5 1869.89C1065.26 1869.89 954 1758.63 954 1621.39C954 1526.29 1043.31 1403.34 1118.95 1299.2C1125.1 1290.73 1131.16 1282.39 1137.07 1274.2C1130.88 1300.28 1060.74 1600.33 1099 1653.89C1139 1709.89 1303 1787.89 1303 1787.89C1303 1787.89 1367 1735.89 1394 1743.39C1400.82 1745.29 1407.2 1749.06 1412.92 1753.65Z" fill="#68C5FA"/>
<path d="M1302 1778.89C1264 1814.89 1084 1815.89 1044 1698.89" stroke="#C7E4FF" stroke-width="15" stroke-linecap="round" stroke-linejoin="round"/>
<path fill-rule="evenodd" clip-rule="evenodd" d="M1423.67 1734.81C1441.14 1700.81 1451 1662.25 1451 1621.39C1451 1527.99 1364.4 1408.66 1289.69 1305.7C1266.3 1273.47 1244.08 1242.85 1226.04 1215.13C1217.93 1276.84 1197.92 1455.78 1229 1519.89C1260.87 1585.61 1385.29 1700.33 1423.67 1734.81Z" fill="#6DC6A6"/>
<path d="M1297 1417.89C1388 1511.89 1384 1705.89 1384 1705.89" stroke="#C7E4FF" stroke-width="15" stroke-linecap="round" stroke-linejoin="round"/>
<path d="M1293 1485.89L1355 1525.89L1371 1485.89M1317 1561.89L1371 1599.89L1415 1543.89" stroke="#C7E4FF" stroke-width="15" stroke-linecap="round" stroke-linejoin="round"/>
<path d="M1874.32 1171.17L1865.65 1154.96L1856.75 1171.05C1841.46 1198.7 1818.46 1231.63 1792.2 1268.02C1786.25 1276.26 1780.13 1284.68 1773.92 1293.24C1752.84 1322.25 1730.59 1352.88 1709.54 1383.94C1682.26 1424.16 1656.72 1465.47 1637.98 1505.54C1619.29 1545.5 1607 1584.98 1607 1621.39C1607 1764.16 1722.73 1879.89 1865.5 1879.89C2008.27 1879.89 2124 1764.16 2124 1621.39C2124 1584.96 2111.64 1545.6 2092.87 1505.79C2074.04 1465.87 2048.41 1424.76 2021.07 1384.67C2001.33 1355.71 1980.54 1327.06 1960.7 1299.71C1953.09 1289.22 1945.61 1278.93 1938.39 1268.88C1912.19 1232.42 1889.34 1199.27 1874.32 1171.17Z" fill="#C7E4FF" stroke="#68C5FA" stroke-width="20"/>
<path fill-rule="evenodd" clip-rule="evenodd" d="M2075.92 1753.65C2031.93 1823.49 1954.13 1869.89 1865.5 1869.89C1728.26 1869.89 1617 1758.63 1617 1621.39C1617 1526.29 1706.31 1403.34 1781.95 1299.2C1788.1 1290.73 1794.16 1282.39 1800.07 1274.2C1793.88 1300.28 1723.74 1600.33 1762 1653.89C1802 1709.89 1966 1787.89 1966 1787.89C1966 1787.89 2030 1735.89 2057 1743.39C2063.82 1745.29 2070.2 1749.06 2075.92 1753.65Z" fill="#68C5FA"/>
<path d="M1965 1778.89C1927 1814.89 1747 1815.89 1707 1698.89" stroke="#C7E4FF" stroke-width="15" stroke-linecap="round" stroke-linejoin="round"/>
<path fill-rule="evenodd" clip-rule="evenodd" d="M2096.47 1749.57C2113.95 1715.56 2123.81 1677.01 2123.81 1636.15C2123.81 1542.75 2037.21 1423.42 1962.49 1320.46C1939.11 1288.23 1916.89 1257.61 1898.85 1229.89C1890.74 1291.6 1870.73 1470.54 1901.81 1534.65C1933.67 1600.37 2058.1 1715.09 2096.47 1749.57Z" fill="#6DC6A6"/>
<path d="M1960 1417.89C2051 1511.89 2047 1705.89 2047 1705.89" stroke="#C7E4FF" stroke-width="15" stroke-linecap="round" stroke-linejoin="round"/>
<path d="M1956 1485.89L2018 1525.89L2034 1485.89M1980 1561.89L2034 1599.89L2078 1543.89" stroke="#C7E4FF" stroke-width="15" stroke-linecap="round" stroke-linejoin="round"/>
<path d="M187.652 220.434H181.113V177.086L168 181.902V175.996L186.633 169H187.652V220.434Z" fill="black"/>
<path d="M195.523 1175.89H161.984V1171.21L179.703 1151.53C182.328 1148.55 184.133 1146.14 185.117 1144.29C186.125 1142.41 186.629 1140.48 186.629 1138.48C186.629 1135.81 185.82 1133.62 184.203 1131.91C182.586 1130.2 180.43 1129.34 177.734 1129.34C174.5 1129.34 171.98 1130.27 170.176 1132.12C168.395 1133.95 167.504 1136.5 167.504 1139.79H161C161 1135.07 162.512 1131.27 165.535 1128.36C168.582 1125.45 172.648 1124 177.734 1124C182.492 1124 186.254 1125.25 189.02 1127.76C191.785 1130.25 193.168 1133.56 193.168 1137.71C193.168 1142.75 189.957 1148.75 183.535 1155.71L169.824 1170.58H195.523V1175.89Z" fill="black"/>
<path d="M197.848 2195H204.949V2200.3H197.848V2212.19H191.309V2200.3H168V2196.47L190.922 2161H197.848V2195ZM175.383 2195H191.309V2169.89L190.535 2171.3L175.383 2195Z" fill="black"/>
<path d="M2356.41 1147.13H2361.29C2364.36 1147.09 2366.78 1146.28 2368.54 1144.71C2370.29 1143.14 2371.17 1141.02 2371.17 1138.34C2371.17 1132.34 2368.18 1129.34 2362.21 1129.34C2359.39 1129.34 2357.14 1130.15 2355.46 1131.77C2353.79 1133.36 2352.96 1135.48 2352.96 1138.13H2346.46C2346.46 1134.08 2347.93 1130.71 2350.89 1128.04C2353.86 1125.35 2357.64 1124 2362.21 1124C2367.04 1124 2370.82 1125.28 2373.56 1127.83C2376.3 1130.39 2377.68 1133.94 2377.68 1138.48C2377.68 1140.71 2376.95 1142.87 2375.5 1144.95C2374.07 1147.04 2372.11 1148.6 2369.62 1149.63C2372.44 1150.52 2374.61 1152 2376.13 1154.06C2377.68 1156.12 2378.45 1158.64 2378.45 1161.62C2378.45 1166.21 2376.95 1169.86 2373.95 1172.55C2370.95 1175.25 2367.05 1176.59 2362.24 1176.59C2357.44 1176.59 2353.52 1175.29 2350.5 1172.69C2347.5 1170.09 2346 1166.66 2346 1162.39H2352.54C2352.54 1165.09 2353.42 1167.24 2355.18 1168.86C2356.93 1170.48 2359.29 1171.29 2362.24 1171.29C2365.38 1171.29 2367.79 1170.46 2369.45 1168.82C2371.11 1167.18 2371.95 1164.83 2371.95 1161.76C2371.95 1158.78 2371.03 1156.5 2369.2 1154.9C2367.38 1153.31 2364.74 1152.49 2361.29 1152.44H2356.41V1147.13Z" fill="black"/>
<path d="M2977.47 1611.84C2977.47 1784.24 2837.68 1924 2665.24 1924C2492.79 1924 2353 1784.24 2353 1611.84C2353 1439.44 2586.71 1251.95 2665.24 1110C2742.51 1254.46 2977.47 1439.44 2977.47 1611.84Z" fill="#007A8B"/>
<path d="M2800.36 1391.76C2808.61 1409.43 2797.95 1419.84 2796.26 1434.19C2809.32 1443.31 2820.16 1417.18 2827.49 1421.96C2834.82 1426.73 2812.19 1463.3 2796.31 1476.63C2780.42 1489.96 2716.92 1525.61 2709.79 1525.67C2706.76 1561.05 2676.58 1583.9 2676.58 1583.9L2672.05 1556.58C2672.05 1556.58 2657.84 1573.21 2617.25 1584.24C2607.36 1601.57 2642.3 1623.26 2642.3 1623.26C2642.3 1623.26 2732.73 1612.98 2733.62 1635.28C2734.5 1657.59 2677.09 1660.78 2658.39 1692.53C2639.69 1724.28 2666.75 1777.41 2639.53 1787.81C2612.31 1798.21 2603.57 1711.92 2603.57 1711.92L2591.94 1697.05L2575.37 1740.62C2575.37 1740.62 2558.5 1738.06 2549.52 1712.32C2540.55 1686.58 2571.62 1664.25 2571.62 1664.25L2550.34 1554.32C2550.34 1554.32 2534.59 1569.49 2516.99 1558.87C2499.4 1548.24 2524.72 1491.4 2534.61 1478.19C2544.51 1464.99 2569.22 1467.3 2569.22 1467.3C2569.22 1467.3 2581.4 1402.37 2622.38 1392.75C2663.35 1383.13 2673.56 1394.26 2673.56 1394.26C2673.56 1394.26 2762.12 1375.84 2800.36 1391.76Z" fill="#00FFC2" fill-opacity="0.65"/>
<circle cx="2630" cy="1308.03" r="29.1582" fill="#0085FF"/>
<circle cx="2703.51" cy="1336.58" r="18.8313" fill="#0085FF"/>
<ellipse cx="2691.36" cy="1278.87" rx="11.5418" ry="12.1493" fill="#0085FF"/>
<path d="M2977.47 1611.43C2977.47 1784.06 2837.68 1924 2665.24 1924C2492.79 1924 2353 1784.06 2353 1611.43C2353 1508.91 2521.65 1805.76 2665.24 1805.76C2909.8 1805.76 2977.47 1513.94 2977.47 1611.43Z" fill="#100072"/>
<path d="M2977.47 1611.76C2977.47 1784.21 2837.68 1924 2665.24 1924C2492.79 1924 2353 1784.21 2353 1611.76C2353 1439.32 2519.23 1598.29 2649.53 1662.66C2858.11 1765.69 2977.47 1439.32 2977.47 1611.76Z" fill="#00C3FF" fill-opacity="0.55"/>
<path d="M2353 1612.32C2353 1784.46 2492.79 1924 2665.24 1924C2837.68 1924 2977.47 1784.46 2977.47 1612.32C2977.47 1440.19 2683.5 1583.84 2585.45 1640.54C2482.42 1700.12 2353 1440.19 2353 1612.32Z" fill="#0085FF" fill-opacity="0.4"/>
<path d="M3125 675.499C3125 812.742 3013.74 923.999 2876.5 923.999C2739.26 923.999 2628 812.742 2628 675.499C2628 538.256 2814 343 2876.5 230C2938 345 3125 538.256 3125 675.499Z" fill="url(#paint5_linear_304_405)" fill-opacity="0.61"/>
<circle cx="2866" cy="680" r="157" fill="#9DE8FF"/>
<path fill-rule="evenodd" clip-rule="evenodd" d="M2663.77 804.009C2691.87 787.063 2759.61 749.462 2797.74 755.806C2820.57 759.604 2816.63 765.656 2811.18 774.023C2804.94 783.604 2796.73 796.221 2824.45 811.97C2887.72 831.626 3011.49 841.617 3058.39 844.823C3013.02 893.534 2948.32 923.999 2876.5 923.999C2786.29 923.999 2707.31 875.93 2663.77 804.009Z" fill="#30B4FF"/>
<path fill-rule="evenodd" clip-rule="evenodd" d="M2765.53 897.907C2781.2 894.546 2834.28 882.23 2873.47 861.936C2919.95 837.872 2929.71 808.784 2929.71 763.015C2929.71 717.246 2895.67 670 2895.67 670L3070.3 677.382C3070.3 677.382 3131.43 729.057 3016 861.936C2996.99 883.82 2977.32 899.497 2957.73 910.418C2932.28 919.219 2904.95 923.999 2876.5 923.999C2836.62 923.999 2798.93 914.604 2765.53 897.907Z" fill="#4D7EFF"/>
<path fill-rule="evenodd" clip-rule="evenodd" d="M2881.3 923.954C3016.33 921.394 3125 811.137 3125 675.499C3125 653.73 3120.29 630.551 3112.13 606.498C3074.79 535.679 3000.02 502.321 2978 496C2946.96 487.093 2865.79 526 2879.39 549.411C2886.67 561.937 2899.48 559.996 2910.51 558.326C2920.09 556.875 2928.32 555.629 2930.38 564.256C2932.35 572.495 2912.47 580.587 2890.07 589.702C2862.03 601.118 2830.04 614.139 2832.09 631.061C2834.05 647.153 2852.94 639.793 2871.19 632.685C2887.46 626.351 2903.21 620.217 2905.99 631.061C2908.71 641.646 2901.42 645.163 2892.76 649.343C2882.59 654.249 2870.52 660.07 2870.52 679.308C2870.52 692.267 2885.62 690.013 2906.97 686.826C2944.31 681.252 3000.79 672.822 3029 738C3067.1 826.029 2922.68 903.817 2881.3 923.954Z" fill="#E8F4FF"/>
<path fill-rule="evenodd" clip-rule="evenodd" d="M3078.72 819.958C3107.85 779.249 3125 729.377 3125 675.499C3125 652.808 3119.89 628.585 3111.08 603.437C3079.43 591.51 2967.72 552.51 3049.5 629.464C3117.73 693.675 3096.06 778.007 3078.72 819.958Z" fill="#37B7FF"/>
<path d="M2549 682.499C2549 819.742 2437.74 930.999 2300.5 930.999C2163.26 930.999 2052 819.742 2052 682.499C2052 545.256 2238 350 2300.5 237C2362 352 2549 545.256 2549 682.499Z" fill="url(#paint6_linear_304_405)" fill-opacity="0.8"/>
<circle cx="2290" cy="687" r="157" fill="url(#paint7_linear_304_405)"/>
<path fill-rule="evenodd" clip-rule="evenodd" d="M2087.77 811.009C2115.87 794.063 2183.61 756.462 2221.74 762.806C2244.57 766.604 2240.63 772.656 2235.18 781.023C2228.94 790.604 2220.73 803.221 2248.45 818.97C2311.72 838.626 2435.49 848.617 2482.39 851.823C2437.02 900.534 2372.32 930.999 2300.5 930.999C2210.29 930.999 2131.31 882.93 2087.77 811.009Z" fill="#30B4FF"/>
<path fill-rule="evenodd" clip-rule="evenodd" d="M2189.53 904.907C2205.2 901.546 2258.28 889.23 2297.47 868.936C2343.95 844.872 2353.71 815.784 2353.71 770.015C2353.71 724.246 2319.67 677 2319.67 677L2494.3 684.382C2494.3 684.382 2555.43 736.057 2440 868.936C2420.99 890.82 2401.32 906.497 2381.73 917.418C2356.28 926.219 2328.95 930.999 2300.5 930.999C2260.62 930.999 2222.93 921.604 2189.53 904.907Z" fill="#4D7EFF"/>
<path fill-rule="evenodd" clip-rule="evenodd" d="M2305.3 930.954C2440.33 928.394 2549 818.137 2549 682.499C2549 660.73 2544.29 637.551 2536.13 613.498C2498.79 542.679 2424.02 509.321 2402 503C2370.96 494.093 2289.79 533 2303.39 556.411C2310.67 568.937 2323.48 566.996 2334.51 565.326C2344.09 563.875 2352.32 562.629 2354.38 571.256C2356.35 579.495 2336.47 587.587 2314.07 596.702C2286.03 608.118 2254.04 621.139 2256.09 638.061C2258.05 654.153 2276.94 646.793 2295.19 639.685C2311.46 633.351 2327.21 627.217 2329.99 638.061C2332.71 648.646 2325.42 652.163 2316.76 656.343C2306.59 661.249 2294.52 667.07 2294.52 686.308C2294.52 699.267 2309.62 697.013 2330.97 693.826C2368.31 688.252 2424.79 679.822 2453 745C2491.1 833.029 2346.68 910.817 2305.3 930.954Z" fill="#E7F3FF"/>
<path fill-rule="evenodd" clip-rule="evenodd" d="M2502.72 826.958C2531.85 786.249 2549 736.377 2549 682.499C2549 659.808 2543.89 635.585 2535.08 610.437C2503.43 598.51 2391.72 559.51 2473.5 636.464C2541.73 700.675 2520.06 785.007 2502.72 826.958Z" fill="#9DE8FF"/>
<defs>
<linearGradient id="paint0_linear_304_405" x1="1085.5" y1="217" x2="1085.5" y2="910.999" gradientUnits="userSpaceOnUse">
<stop stop-color="#9DE8FF"/>
<stop offset="1" stop-color="#7BC9F4" stop-opacity="0"/>
</linearGradient>
<linearGradient id="paint1_linear_304_405" x1="1698.5" y1="225" x2="1698.5" y2="918.999" gradientUnits="userSpaceOnUse">
<stop stop-color="#9CD0FF"/>
<stop offset="1" stop-color="#7BC9F4" stop-opacity="0"/>
</linearGradient>
<linearGradient id="paint2_linear_304_405" x1="1749.5" y1="2057" x2="1749.5" y2="2751" gradientUnits="userSpaceOnUse">
<stop stop-color="#306AFF"/>
<stop offset="1" stop-color="#306AFF" stop-opacity="0"/>
</linearGradient>
<linearGradient id="paint3_linear_304_405" x1="1749.57" y1="2432.79" x2="1749.57" y2="2751" gradientUnits="userSpaceOnUse">
<stop stop-color="#47A7FF"/>
<stop offset="1" stop-color="#47A7FF" stop-opacity="0"/>
</linearGradient>
<linearGradient id="paint4_linear_304_405" x1="2388.5" y1="2057" x2="2388.5" y2="2751" gradientUnits="userSpaceOnUse">
<stop stop-color="#3FA3FF"/>
<stop offset="1" stop-color="#3FA3FF" stop-opacity="0"/>
</linearGradient>
<linearGradient id="paint5_linear_304_405" x1="2876.5" y1="230" x2="2876.5" y2="923.999" gradientUnits="userSpaceOnUse">
<stop stop-color="#7BC9F4"/>
<stop offset="1" stop-color="#7BC9F4" stop-opacity="0"/>
</linearGradient>
<linearGradient id="paint6_linear_304_405" x1="2300.5" y1="237" x2="2300.5" y2="930.999" gradientUnits="userSpaceOnUse">
<stop stop-color="#7BC9F4"/>
<stop offset="1" stop-color="#7BC9F4" stop-opacity="0"/>
</linearGradient>
<linearGradient id="paint7_linear_304_405" x1="2290" y1="530" x2="2290" y2="844" gradientUnits="userSpaceOnUse">
<stop stop-color="#94CBFF"/>
<stop offset="1" stop-color="#94CBFF" stop-opacity="0"/>
</linearGradient>
</defs>
</svg>
