<svg width="1216" height="1216" viewBox="0 0 1216 1216" fill="none" xmlns="http://www.w3.org/2000/svg">
<rect width="1216" height="1216" rx="10" fill="url(#paint0_linear_802_58)"/>
<path fill-rule="evenodd" clip-rule="evenodd" d="M833.318 1216H1206C1211.52 1216 1216 1211.52 1216 1206V10C1216 4.47715 1211.52 0 1206 0H1106.44C1088.78 109.655 1065.22 223.968 1043.76 223.968C961.068 132.366 931.836 52.5764 922.137 0H856.079V141.908L719 68.5072L651.8 0H601C601 0 625.988 21.8473 633 42.8169C637.497 56.2651 638 79.5171 638 79.5171L553 0H470.249C496.732 27.1349 535.975 65.6986 588 112.547C608.363 130.885 633.208 150.177 659.522 170.612L659.522 170.612L659.522 170.612C712.94 212.094 772.416 258.28 812.768 310.728C877.734 508.91 906.607 685.071 877.734 824.531C855.161 933.556 839.207 1133.79 833.318 1216Z" fill="#B28CD9"/>
<path fill-rule="evenodd" clip-rule="evenodd" d="M0 1164.55V1059.8L0.499916 1056.5C0.499916 1056.5 35.6568 1043.95 110.469 1016.68C185.28 989.403 273.803 959.403 385.114 976.403C445.084 985.562 523.817 972.975 594.703 961.642C655.391 951.94 710.326 943.157 742.811 949.727C750.78 951.339 758.961 952.95 767.327 954.597C883.417 977.461 1034.94 1007.3 1147.03 1142C1169.68 1172.87 1182.59 1197.13 1188.02 1216H942.925C929.201 1199.48 909.689 1176.13 886.708 1149C847.53 1114.38 793.588 1106.75 744.569 1099.82C732.447 1098.1 720.627 1096.43 709.405 1094.4C627.018 1079.52 231.984 1128.4 110.469 1144.4C48.2638 1152.59 16.3421 1159.63 0 1164.55Z" fill="#CFAFEF"/>
<path d="M202.892 1046.4C200.692 1053.62 196.704 1097.06 187.892 1094.4C182.511 1092.78 179.749 1062.23 184.051 1041.4C186.794 1028.12 190.892 1010.58 190.892 1003.04C182.368 1004.45 175.345 1005.32 164.892 1008.3C148.949 1012.84 123.669 1039.39 120.892 1031.4C118.609 1024.84 136.829 1000.54 155.892 991.536C170.222 984.766 184.051 984.16 184.051 979.003V949.402L231.392 952.402C231.392 952.402 231.392 964.003 237.392 969.902C243.392 975.801 254.445 973.5 256.892 979.003C259.27 984.352 248.892 982.402 238.892 984.902C239.41 990.23 239.892 989.672 245.892 1003.04C251.892 1016.4 252.854 1062.59 246.892 1062.9C237.487 1063.4 236.107 1046.31 231.076 1031.4C227.965 1022.18 220.369 1013.79 217.892 1010.9C208.278 1020.52 205.091 1039.19 202.892 1046.4Z" fill="#B183DF"/>
<path d="M65.0907 874.072C41.0567 872.47 103.545 595.276 159.625 595.276C215.704 595.276 117.966 824.401 117.966 824.401C117.966 824.401 89.1248 875.674 65.0907 874.072Z" fill="#B183DF"/>
<path d="M539.94 771.417C539.94 771.417 573.588 825.894 610.44 849.928C629.263 862.203 637.555 787.509 611.658 717.048C586.852 649.556 529.024 561.968 509.893 582.403C470.789 624.171 539.94 771.417 539.94 771.417Z" fill="#B183DF"/>
<path d="M473.892 992.402C462.91 1002.06 483.437 1061.49 463.892 1058.4C458.598 1057.57 447.339 1016.66 449.892 1004.4C452.392 992.402 455.251 985.337 453.892 979.902C442.998 980.497 430.51 982.061 428.892 978.902C426.427 974.088 438.817 962.594 438.817 962.594L498.392 947.402C498.392 947.402 516.332 952.279 528.392 976.402C539.91 999.441 541.892 1049.9 534.392 1053.4C526.892 1056.9 522.892 1005.4 506.528 994.402C500.392 1005.9 518.528 1053.4 506.528 1082.4C486.028 1064.9 496.817 1040.9 490.392 1021.9C483.967 1002.9 485.91 994.063 473.892 992.402Z" fill="#B183DF"/>
<path d="M150.011 958.992C106.749 920.537 76.3062 667.378 166.033 611.299L512.124 592.071C512.124 592.071 561.186 675.533 577.818 733.071C609.823 843.798 568.204 964.424 516.931 972.435C465.659 980.446 355.892 932.402 318.249 933.355C280.606 934.308 193.272 997.446 150.011 958.992Z" fill="#DCC5F3"/>
<path d="M268.579 797.162C250.954 793.957 280.579 702.402 236.511 641.741C157.893 617.402 130.795 581.662 140.409 503.15C150.023 424.639 252.557 346.923 379.136 367.753C505.716 388.582 561.901 526.467 540.966 566.435C520.03 606.402 485.893 652.402 390.352 641.741C323.893 662.402 286.204 800.366 268.579 797.162Z" fill="#B183DF"/>
<circle cx="433.613" cy="526.379" r="72.1023" fill="#FFD600"/>
<circle cx="218.108" cy="506.35" r="60.0852" fill="#FFD600"/>
<circle cx="436.017" cy="511.156" r="26.4375" fill="#380070"/>
<circle cx="208.455" cy="511.105" r="28" fill="#380070"/>
<path d="M780.206 569V487.242H767.01V521.439H739.496V487.242H726.356V569H739.496V532.557H767.01V569H780.206ZM833.178 570.123C839.093 570.123 844.128 568.963 848.283 566.642C852.476 564.321 855.583 561.7 857.604 558.78L850.417 551.817C848.545 554.213 846.168 556.066 843.285 557.376C840.403 558.649 837.296 559.286 833.964 559.286C831.531 559.286 829.285 558.874 827.226 558.05C825.204 557.227 823.445 556.066 821.947 554.569C820.45 553.146 819.271 551.537 818.41 549.74C817.549 547.943 816.912 545.715 816.501 543.058V542.777H858.615V536.993C858.615 532.651 858.035 528.645 856.874 524.977C855.714 521.308 853.992 518.145 851.708 515.487C849.425 512.866 846.598 510.826 843.229 509.366C839.86 507.869 835.986 507.12 831.606 507.12C827.675 507.12 823.969 507.869 820.488 509.366C817.043 510.826 814.011 512.923 811.391 515.655C808.77 518.388 806.711 521.682 805.214 525.538C803.717 529.394 802.968 533.699 802.968 538.453V540.755C802.968 544.911 803.679 548.785 805.102 552.379C806.562 555.935 808.621 559.024 811.279 561.644C813.936 564.302 817.118 566.38 820.824 567.877C824.568 569.374 828.686 570.123 833.178 570.123ZM831.55 518.014C833.796 518.014 835.761 518.407 837.446 519.193C839.168 519.942 840.59 520.952 841.713 522.225C842.874 523.535 843.772 525.07 844.408 526.83C845.045 528.552 845.363 530.292 845.363 532.052V532.95H816.781C817.193 530.629 817.83 528.552 818.691 526.717C819.552 524.883 820.619 523.311 821.891 522C823.164 520.728 824.605 519.754 826.215 519.081C827.862 518.369 829.64 518.014 831.55 518.014Z" fill="#DCC5F3"/>
<path d="M884.521 482.75V493.924H903.725V557.882H884.521V569H935.676V557.882H917.258V482.75H884.521ZM961.639 482.75V493.924H980.843V557.882H961.639V569H1012.79V557.882H994.376V482.75H961.639ZM1033.7 538.06V539.239C1033.7 543.694 1034.34 547.793 1035.61 551.537C1036.88 555.28 1038.74 558.537 1041.17 561.307C1043.57 564.077 1046.52 566.249 1050.04 567.821C1053.56 569.393 1057.55 570.179 1062 570.179C1066.42 570.179 1070.37 569.393 1073.85 567.821C1077.37 566.249 1080.33 564.077 1082.72 561.307C1085.12 558.537 1086.95 555.28 1088.23 551.537C1089.5 547.793 1090.14 543.694 1090.14 539.239V538.06C1090.14 533.643 1089.5 529.562 1088.23 525.819C1086.95 522.038 1085.12 518.762 1082.72 515.992C1080.29 513.222 1077.31 511.051 1073.8 509.479C1070.31 507.906 1066.35 507.12 1061.89 507.12C1057.44 507.12 1053.47 507.906 1049.99 509.479C1046.51 511.051 1043.57 513.222 1041.17 515.992C1038.74 518.762 1036.88 522.038 1035.61 525.819C1034.34 529.562 1033.7 533.643 1033.7 538.06ZM1047.12 539.239V538.06C1047.12 535.402 1047.4 532.857 1047.97 530.423C1048.56 527.99 1049.48 525.856 1050.72 524.022C1051.91 522.188 1053.43 520.728 1055.26 519.642C1057.14 518.556 1059.35 518.014 1061.89 518.014C1064.47 518.014 1066.68 518.556 1068.52 519.642C1070.39 520.728 1071.94 522.188 1073.18 524.022C1074.34 525.856 1075.22 527.99 1075.82 530.423C1076.42 532.857 1076.72 535.402 1076.72 538.06V539.239C1076.72 541.972 1076.42 544.555 1075.82 546.988C1075.26 549.422 1074.38 551.555 1073.18 553.39C1071.98 555.224 1070.44 556.684 1068.57 557.77C1066.7 558.818 1064.51 559.342 1062 559.342C1059.42 559.342 1057.19 558.818 1055.32 557.77C1053.45 556.684 1051.91 555.224 1050.72 553.39C1049.48 551.555 1048.56 549.422 1047.97 546.988C1047.4 544.555 1047.12 541.972 1047.12 539.239Z" fill="#6F39A6"/>
<path d="M716.203 673.027C716.203 674.902 715.793 676.562 714.973 678.008C714.191 679.453 713.137 680.664 711.809 681.641C710.441 682.656 708.82 683.418 706.945 683.926C705.109 684.434 703.117 684.688 700.969 684.688C698.43 684.688 696.086 684.375 693.938 683.75C691.828 683.125 689.992 682.168 688.43 680.879C686.828 679.629 685.559 678.047 684.621 676.133C683.723 674.18 683.176 671.895 682.98 669.277H668.918C668.957 673.379 669.777 677.012 671.379 680.176C673.02 683.34 675.227 686.094 678 688.438C681.008 690.938 684.543 692.852 688.605 694.18C692.668 695.469 696.789 696.113 700.969 696.113C704.914 696.113 708.664 695.625 712.219 694.648C715.773 693.633 718.898 692.129 721.594 690.137C724.25 688.223 726.359 685.82 727.922 682.93C729.523 680.039 730.324 676.699 730.324 672.91C730.324 668.809 729.406 665.195 727.57 662.07C725.773 658.906 723.371 656.191 720.363 653.926C717.941 652.129 715.285 650.605 712.395 649.355C709.543 648.066 706.613 646.992 703.605 646.133C701.223 645.43 698.938 644.668 696.75 643.848C694.602 643.027 692.688 642.07 691.008 640.977C689.367 639.883 688.059 638.613 687.082 637.168C686.105 635.684 685.598 633.965 685.559 632.012C685.559 630.176 685.93 628.516 686.672 627.031C687.414 625.547 688.449 624.277 689.777 623.223C691.105 622.207 692.668 621.426 694.465 620.879C696.301 620.293 698.293 620 700.441 620C702.902 620 705.07 620.371 706.945 621.113C708.859 621.816 710.48 622.793 711.809 624.043C713.098 625.332 714.094 626.875 714.797 628.672C715.539 630.43 716.008 632.383 716.203 634.531H730.148C730.148 630.664 729.367 627.148 727.805 623.984C726.281 620.781 724.191 618.027 721.535 615.723C718.879 613.457 715.754 611.699 712.16 610.449C708.605 609.16 704.758 608.516 700.617 608.516C696.711 608.516 692.98 609.062 689.426 610.156C685.91 611.211 682.824 612.754 680.168 614.785C677.512 616.855 675.402 619.355 673.84 622.285C672.277 625.176 671.496 628.438 671.496 632.07C671.496 635.43 672.16 638.457 673.488 641.152C674.855 643.809 676.73 646.191 679.113 648.301C681.496 650.371 684.367 652.246 687.727 653.926C691.125 655.566 694.836 656.953 698.859 658.086C701.477 658.828 703.84 659.668 705.949 660.605C708.098 661.504 709.953 662.52 711.516 663.652C713 664.863 714.152 666.23 714.973 667.754C715.793 669.277 716.203 671.035 716.203 673.027ZM780.15 684.922C777.22 684.922 774.779 684.336 772.826 683.164C770.873 681.992 769.33 680.43 768.197 678.477C767.025 676.602 766.185 674.434 765.677 671.973C765.209 669.473 764.974 666.934 764.974 664.355V662.305C764.974 659.766 765.209 657.266 765.677 654.805C766.185 652.344 767.045 650.156 768.255 648.242C769.388 646.328 770.912 644.785 772.826 643.613C774.779 642.402 777.22 641.797 780.15 641.797C782.064 641.797 783.841 642.129 785.482 642.793C787.162 643.457 788.607 644.355 789.818 645.488C790.99 646.621 791.888 647.949 792.513 649.473C793.177 650.996 793.509 652.617 793.509 654.336H806.693C806.732 650.82 806.088 647.598 804.759 644.668C803.47 641.738 801.654 639.219 799.31 637.109C796.966 635 794.154 633.359 790.873 632.188C787.63 631.016 784.095 630.43 780.267 630.43C775.423 630.43 771.166 631.289 767.494 633.008C763.861 634.688 760.814 636.973 758.353 639.863C755.892 642.754 754.037 646.133 752.787 650C751.576 653.867 750.97 657.969 750.97 662.305V664.355C750.97 668.73 751.595 672.852 752.845 676.719C754.095 680.547 755.951 683.906 758.412 686.797C760.834 689.688 763.861 691.992 767.494 693.711C771.166 695.391 775.443 696.23 780.326 696.23C783.841 696.23 787.181 695.664 790.345 694.531C793.548 693.359 796.38 691.758 798.841 689.727C801.263 687.773 803.177 685.449 804.584 682.754C806.029 680.02 806.732 677.109 806.693 674.023H793.509C793.509 675.625 793.138 677.09 792.396 678.418C791.693 679.746 790.736 680.898 789.525 681.875C788.275 682.852 786.83 683.613 785.189 684.16C783.588 684.668 781.908 684.922 780.15 684.922ZM836.245 631.602V643.262H855.757V683.398H836.245V695H888.511V683.398H869.878V631.602H836.245ZM854.468 615.195C854.468 616.68 854.82 617.988 855.523 619.121C856.265 620.215 857.339 620.977 858.745 621.406C860.113 621.836 861.363 621.934 862.495 621.699C863.628 621.465 864.605 620.977 865.425 620.234C867.066 619.805 868.316 618.965 869.175 617.715C870.034 616.426 870.327 614.922 870.054 613.203C869.859 611.523 869.097 610.156 867.769 609.102C866.48 608.008 864.78 607.461 862.671 607.461C861.421 607.461 860.288 607.656 859.273 608.047C858.296 608.398 857.456 608.906 856.753 609.57C856.011 610.273 855.445 611.113 855.054 612.09C854.663 613.027 854.468 614.062 854.468 615.195Z" fill="#DCC5F3"/>
<path d="M970.739 668.75H956.618C956.384 671.328 955.876 673.613 955.095 675.605C954.313 677.598 953.278 679.258 951.989 680.586C950.661 681.953 949.059 682.988 947.184 683.691C945.309 684.395 943.161 684.746 940.739 684.746C938.708 684.746 936.891 684.473 935.29 683.926C933.727 683.34 932.341 682.5 931.13 681.406C929.958 680.391 928.942 679.18 928.083 677.773C927.262 676.367 926.579 674.805 926.032 673.086C925.329 671.016 924.802 668.73 924.45 666.23C924.137 663.73 923.981 661.055 923.981 658.203V646.426C923.981 644.121 924.098 641.875 924.333 639.688C924.606 637.461 924.997 635.371 925.505 633.418C926.169 631.191 927.009 629.18 928.024 627.383C929.079 625.547 930.387 624.062 931.95 622.93C933.083 621.992 934.372 621.27 935.817 620.762C937.302 620.254 938.962 620 940.798 620C943.415 620 945.661 620.391 947.536 621.172C949.411 621.914 950.993 623.008 952.282 624.453C953.532 625.898 954.509 627.656 955.212 629.727C955.954 631.758 956.442 634.043 956.677 636.582H970.739C970.309 632.324 969.352 628.457 967.868 624.98C966.423 621.504 964.43 618.535 961.891 616.074C959.391 613.652 956.364 611.777 952.809 610.449C949.294 609.121 945.29 608.457 940.798 608.457C937.477 608.457 934.411 608.906 931.598 609.805C928.825 610.703 926.286 611.953 923.981 613.555C921.559 615.312 919.411 617.441 917.536 619.941C915.7 622.402 914.196 625.156 913.024 628.203C911.93 630.938 911.11 633.848 910.563 636.934C910.016 640.02 909.743 643.223 909.743 646.543V658.203C909.743 661.68 910.016 665.02 910.563 668.223C911.149 671.426 912.009 674.395 913.141 677.129C914.274 679.902 915.661 682.461 917.302 684.805C918.981 687.109 920.934 689.082 923.161 690.723C925.466 692.48 928.083 693.848 931.012 694.824C933.981 695.762 937.223 696.23 940.739 696.23C945.036 696.23 948.942 695.586 952.458 694.297C956.012 692.969 959.079 691.094 961.657 688.672C964.196 686.289 966.247 683.418 967.809 680.059C969.372 676.66 970.348 672.891 970.739 668.75ZM991.385 662.715V663.945C991.385 668.594 992.049 672.871 993.377 676.777C994.705 680.684 996.639 684.082 999.178 686.973C1001.68 689.863 1004.76 692.129 1008.44 693.77C1012.11 695.41 1016.27 696.23 1020.92 696.23C1025.53 696.23 1029.65 695.41 1033.28 693.77C1036.95 692.129 1040.04 689.863 1042.54 686.973C1045.04 684.082 1046.95 680.684 1048.28 676.777C1049.61 672.871 1050.27 668.594 1050.27 663.945V662.715C1050.27 658.105 1049.61 653.848 1048.28 649.941C1046.95 645.996 1045.04 642.578 1042.54 639.688C1040 636.797 1036.89 634.531 1033.22 632.891C1029.59 631.25 1025.45 630.43 1020.8 630.43C1016.15 630.43 1012.01 631.25 1008.38 632.891C1004.74 634.531 1001.68 636.797 999.178 639.688C996.639 642.578 994.705 645.996 993.377 649.941C992.049 653.848 991.385 658.105 991.385 662.715ZM1005.39 663.945V662.715C1005.39 659.941 1005.68 657.285 1006.27 654.746C1006.89 652.207 1007.85 649.98 1009.14 648.066C1010.39 646.152 1011.97 644.629 1013.89 643.496C1015.84 642.363 1018.14 641.797 1020.8 641.797C1023.49 641.797 1025.8 642.363 1027.71 643.496C1029.67 644.629 1031.29 646.152 1032.58 648.066C1033.79 649.98 1034.71 652.207 1035.33 654.746C1035.96 657.285 1036.27 659.941 1036.27 662.715V663.945C1036.27 666.797 1035.96 669.492 1035.33 672.031C1034.74 674.57 1033.83 676.797 1032.58 678.711C1031.33 680.625 1029.73 682.148 1027.77 683.281C1025.82 684.375 1023.53 684.922 1020.92 684.922C1018.22 684.922 1015.9 684.375 1013.94 683.281C1011.99 682.148 1010.39 680.625 1009.14 678.711C1007.85 676.797 1006.89 674.57 1006.27 672.031C1005.68 669.492 1005.39 666.797 1005.39 663.945ZM1082.4 631.602H1070.21V695H1083.11V646.309C1083.34 645.723 1083.59 645.195 1083.87 644.727C1084.18 644.258 1084.53 643.848 1084.92 643.496C1085.43 642.988 1086.04 642.617 1086.74 642.383C1087.48 642.109 1088.32 641.973 1089.26 641.973C1090.12 641.973 1090.88 642.09 1091.54 642.324C1092.25 642.559 1092.85 642.93 1093.36 643.438C1093.87 643.945 1094.24 644.648 1094.47 645.547C1094.75 646.406 1094.88 647.461 1094.88 648.711V695H1107.54V647.949C1107.54 647.559 1107.54 647.266 1107.54 647.07C1107.54 646.836 1107.54 646.641 1107.54 646.484C1107.7 645.82 1107.93 645.234 1108.24 644.727C1108.55 644.18 1108.95 643.711 1109.41 643.32C1109.92 642.891 1110.51 642.559 1111.17 642.324C1111.84 642.09 1112.62 641.973 1113.52 641.973C1114.38 641.973 1115.16 642.09 1115.86 642.324C1116.6 642.559 1117.23 642.93 1117.73 643.438C1118.24 643.984 1118.63 644.707 1118.91 645.605C1119.18 646.465 1119.32 647.52 1119.32 648.77V695H1132.21V648.887C1132.21 645.566 1131.86 642.734 1131.15 640.391C1130.49 638.008 1129.53 636.074 1128.28 634.59C1127.03 633.184 1125.55 632.148 1123.83 631.484C1122.15 630.781 1120.29 630.43 1118.26 630.43C1116.7 630.43 1115.25 630.625 1113.93 631.016C1112.64 631.406 1111.46 631.953 1110.41 632.656C1109.59 633.203 1108.83 633.867 1108.12 634.648C1107.42 635.43 1106.8 636.27 1106.25 637.168C1105.86 636.191 1105.39 635.332 1104.84 634.59C1104.3 633.809 1103.67 633.145 1102.97 632.598C1102.07 631.855 1101 631.309 1099.75 630.957C1098.5 630.605 1097.09 630.43 1095.53 630.43C1092.52 630.43 1089.94 631.152 1087.79 632.598C1085.68 634.043 1084.02 636.035 1082.81 638.574L1082.4 631.602Z" fill="#6F39A6"/>
<path d="M1044 223.909C1044 223.909 1103.91 255.943 1144.16 223.909C1158.41 199.297 1154.29 133.407 1168.45 91.1963C1183.24 47.073 1216 42 1216 42V709C1216 709 1156.46 400.098 1132.02 352.046C1107.59 303.994 1044 223.909 1044 223.909Z" fill="#8F5BC4"/>
<path d="M864 236C896 256 855 122 855 122L736 70L688 37L720 106C720 106 832 216 864 236Z" fill="#8F5BC4"/>
<path d="M1216 1215V834C1216 834 1176 1110 1152 1094C1128 1078 1000 1026 1000 1026C1000 1026 1078 1098 1104 1130C1130 1162 1138 1215 1138 1215H1216Z" fill="#A470D9"/>
<circle cx="245.5" cy="318.5" r="9.5" fill="#BF9AE3"/>
<circle cx="580.5" cy="223.5" r="9.5" fill="#BF9AE3"/>
<circle cx="562.5" cy="406.5" r="9.5" fill="#BF9AE3"/>
<path d="M55 556.5C55 561.747 50.7467 566 45.5 566C40.2533 566 36 561.747 36 556.5C36 551.253 40.2533 547 45.5 547C50.7467 547 55 551.253 55 556.5Z" fill="#BF9AE3"/>
<circle cx="1030.5" cy="140.5" r="9.5" fill="#BF9AE3"/>
<circle cx="772.5" cy="50.5" r="9.5" fill="#BF9AE3"/>
<circle cx="415.5" cy="223.5" r="9.5" fill="#BF9AE3"/>
<circle cx="302.5" cy="41.5" r="9.5" fill="#BF9AE3"/>
<circle cx="26.5" cy="248.5" r="9.5" fill="#BF9AE3"/>
<circle cx="83.5" cy="91.5" r="9.5" fill="#BF9AE3"/>
<path d="M143.152 138.874C154.302 198.118 220.115 184.013 229.56 173.41C191.231 173.41 177.971 154.314 172.483 132.57C166.994 110.825 183.526 83.0201 220.696 75.5193C204.868 64.0066 132.001 79.6302 143.152 138.874Z" fill="#DCC5F3"/>
<circle cx="608.325" cy="327.912" r="47.9122" fill="#DCC5F3"/>
<path d="M598.412 340.069C581.891 334.287 536.457 308.266 544.718 299.592C548.257 295.875 557.935 297.527 569.5 299.592C552.152 286.375 507.544 273.984 505.066 288.027C502.588 302.07 570.401 342.548 589.325 349.983C608.25 357.417 681.845 387.982 699.193 377.243C716.54 366.504 667.389 339.243 654.585 339.243C662.846 346.265 673.585 351.635 670.281 359.069C662.02 368.156 614.934 345.852 598.412 340.069Z" fill="#B183DF"/>
<path d="M351 192L355.49 205.82H370.021L358.265 214.361L362.756 228.18L351 219.639L339.244 228.18L343.735 214.361L331.979 205.82H346.51L351 192Z" fill="#DCC5F3"/>
<path d="M992 28L996.49 41.8197H1011.02L999.265 50.3607L1003.76 64.1803L992 55.6393L980.244 64.1803L984.735 50.3607L972.979 41.8197H987.51L992 28Z" fill="#DCC5F3"/>
<path d="M753 290L757.49 303.82H772.021L760.265 312.361L764.756 326.18L753 317.639L741.244 326.18L745.735 312.361L733.979 303.82H748.51L753 290Z" fill="#DCC5F3"/>
<path d="M500 72L504.49 85.8197H519.021L507.265 94.3607L511.756 108.18L500 99.6393L488.244 108.18L492.735 94.3607L480.979 85.8197H495.51L500 72Z" fill="#DCC5F3"/>
<path d="M94 430L98.4903 443.82H113.021L101.265 452.361L105.756 466.18L94 457.639L82.2443 466.18L86.7346 452.361L74.9789 443.82H89.5097L94 430Z" fill="#DCC5F3"/>
<path d="M77.501 306.409C77.501 306.409 116.979 343.908 133.15 326.427C149.696 308.541 106.52 280.612 106.52 280.612C106.52 280.612 120.997 298.965 107.999 295.687C95.0008 292.409 75.0001 283.703 75.0001 283.703C75.0001 283.703 83.5258 291.241 94.0008 301.909C104.476 312.577 77.501 306.409 77.501 306.409Z" fill="#DCC5F3"/>
<circle cx="118.296" cy="313.705" r="13.0817" transform="rotate(174.399 118.296 313.705)" fill="#BF9AE3"/>
<defs>
<linearGradient id="paint0_linear_802_58" x1="608" y1="0" x2="608" y2="1216" gradientUnits="userSpaceOnUse">
<stop offset="0.140625" stop-color="#210A37"/>
<stop offset="1" stop-color="#8F5BC3"/>
</linearGradient>
</defs>
</svg>
