<svg id="Layer_1" data-name="Layer 1" xmlns="http://www.w3.org/2000/svg" viewBox="0 0 700 700"><defs><style>.cls-1{fill:#716fb3;}.cls-2{fill:#523a66;}.cls-3{fill:#ddc7e1;}.cls-4{fill:#00a651;}.cls-5{fill:#075532;}.cls-6{fill:#5dba47;}.cls-7{fill:#d7df23;}.cls-8{fill:#cde5bb;}.cls-9{fill:#064749;}.cls-10{fill:#ef4136;}.cls-11{fill:#292a71;}.cls-12{fill:#70c8b5;}.cls-13{fill:#00a79d;}.cls-14{fill:#360f41;}.cls-15{fill:#ee2a7b;}.cls-16{fill:#be73b0;}.cls-17{fill:#fbb040;}.cls-18{fill:#435caa;}.cls-19{fill:#f8bac6;}.cls-20{fill:#752265;}.cls-21{fill:#360c42;}.cls-22{fill:#f3f3ba;}.cls-23{fill:#095633;}</style></defs><rect class="cls-1" width="700" height="700"/><ellipse class="cls-2" cx="350" cy="531.05" rx="204.49" ry="72.3"/><ellipse class="cls-3" cx="350" cy="276.48" rx="196.64" ry="204.07"/><path class="cls-4" d="M373.5,468.2l-33.73-36.82s-70.22-8-63.54-18.92c19.56-1.16-74.58-51.49-59.63-68.4,17.48-3.4-32.43-59.64-19.2-69.57,14.43,10.32-2-42.48,9-53.34,10.59,14.69,11.21-29,18.81-35.76C237.28,195.78,246.47,151.75,256,153s16.6,33.72,26.17,20.68c16.88,14.84,18.81,40.1,27.69,30.52,15.19,14.22,18,47.27,28.84,39.5,10.28,35.15,9.19,51.22,21.08,42.75,18.07,24.72-3,93.53,15,90.35a219.73,219.73,0,0,1-11,57.86l27.5,24.71Z"/><path class="cls-5" d="M363.78,434.94s-68.31-114.5-96.25-155.08C239.89,239.7,260.21,202,256,153.28c-7.51-5.95-18.68,42.74-30.75,32.35-7.6,6.81-8.22,50.45-18.81,35.75-11,10.87,5.43,63.67-9,53.35-13.23,9.93,36.68,66.17,19.2,69.57-14.95,16.9,79.19,67.24,59.63,68.4-6.68,10.9,63.54,18.05,63.54,18.05l33.73,37.69,17.78-8.79Z"/><path class="cls-6" d="M505,84.19c-26.74,2.35-54.73,41.93-65.21,61.8-28.11,53.22-38.21,237.71-38.21,237.71s14.94,168.88,25.46,188.13c4.05,7.4,16.12-12.85,16.12-12.85L433,398.54s77.36-73.1,88.17-107.12C536.94,241.76,483.16,191.77,505,84.19Z"/><path class="cls-7" d="M366.42,507.76s-30.22-78-51.63-97c-26-23.07-113.2-22.31-136.44,3.48-20.92,23.21-5.55,72.45,19.88,100,20.43,22.13,77.39,21.62,77.39,21.62l13.86-23.19s53.73,30.72,60.35,54.52c3.52,12.63-8.24,49.94-3,58.87,3.84,6.57,14.95-9.75,17.63-17.67s-4.5-39.88-8.37-47.18c-11.63-21.94-56.84-58.47-56.84-58.47Z"/><path class="cls-8" d="M505,84.54c-35,59.27-20.09,112.13-17,157.25,3.26,47.74-55.57,146.5-66.67,149.07,0,0,5.71,181,21.83,168.47C438.66,511,433,398.89,433,398.89s89.9-71.69,96.2-115C534.82,245.25,492.41,186.21,505,84.54Z"/><path class="cls-9" d="M501.61,401.64l-77,117.77L493.4,382,411.3,527.42l42.22-117L403.09,533.58s5.82,7,19.5,0c13.14-6.77,66.7-65.68,66.7-65.68l-57.46,51.51Z"/><polygon class="cls-10" points="339.77 263.92 305.24 243.27 307.3 205.1 394.4 179.54 339.77 263.92"/><path class="cls-11" d="M403.07,196s-4.14-34.15-21.5-36.11c4.06,20.21-4.45,46.5-11.54,56.78-8.78,12.74-36.88,40.82-36.88,40.82s-12.43-8.5-12-12.82c.4-4,2.21-11.25-1.22-15.9-3.28-4.44-12.07-8.87-12.07-8.87l19.74-23.69-25.05-10.62L288.31,219l15.51-10.2-11.75,19.6,9.59,15.79-9.33,138.07,30.46,10.52,1.69-66.25,90.8,97.5,11.44,6.26,5.08,16.92,5.07-4.51V289.86s30.47-18.87,29.89-29.33c-.38-7-24.59-40.33-31.08-43.57a36.16,36.16,0,0,0-9.29-2.56,15.78,15.78,0,0,0-3.85-6.2c-3.93-3.45-9.25-.65-9.25-.65.77.82,2.92-4.3-2.43-9.09C408.56,196.4,403.07,196,403.07,196Z"/><polygon class="cls-12" points="323.97 361.69 344.72 468.31 370.03 480.99 376.87 371.19 323.97 361.69"/><polygon class="cls-13" points="426.72 391.37 413.19 336.67 399.28 341.18 405.43 316.37 365.81 297.75 319.57 308.47 319.57 364.3 350.59 387.14 357.92 417.88 368.63 425.21 360.18 428.59 368.63 433.67 363.33 475.76 401.02 480.99 409.53 440.44 426.72 391.37"/><path class="cls-14" d="M373.27,518.58c-9.64-36.44-5.7-62.71-5.7-62.71s-2.5-8.38-9.6-7.38c-9,1.27-12.12,15.31-12.12,15.31l1.62,33.84-3.58,27.59,4.25,22.67,6,14.75-20.44,9.72s-17.37,10.44-17.37,14.46c0,5,24.07.28,24.07.28l18.43-6v7.59l9.63.21s3.33,2.48,6.47,11.06c3.36,9.2,16.48,24.14,21.46,23.36C406,621.82,383.69,558,373.27,518.58Z"/><path class="cls-15" d="M384.28,478.77s-3-10.46-9-10.46c-7.2,0-11.73,8.39-11.73,8.39l-3.68,74.89L369,566.13s-2.45,2.86-2.14,4.5c.39,2,5.37,6.37,5.37,6.37s-1.31,4.59-.84,6.25c.38,1.39,3.94,2.85,3.94,2.85a10.26,10.26,0,0,0,.25,3.41c.56,1.39,3.94,1.06,4.94,3.72,2.18,5.77,7.51,14.32,7.51,14.32l5.81-111.62Z"/><path class="cls-14" d="M396.42,623.3c3.82,0,4-24.57,3.13-30.14-.81-5.23-5.53-15.77-5.53-15.77s2.14-4,2-5.46c-.13-1.83-4.3-5.42-4.3-5.42,5.14-10.89,7.28-39.1,9-48.43,1.87-10.16,2.34-41.55,2.34-41.55s-3.77-8.59-7.84-8.21c-3.9.37-11.07,11.07-11.07,11.07l6.18,33.66S370,554.38,370,561.18c0,4.6,16.61,3.69,16.61,3.69s-15.89,2.32-15.38,6.77c.45,3.87,14.15,3.69,14.15,3.69s-12.92.22-11.07,5.53c1.2,3.45,11.68,1.23,11.68,1.23s-7.86,2.85-7.92,5.07c-.05,1.73,3.9,1.8,4.78,3.8C385.84,597.76,391.35,623.3,396.42,623.3Z"/><path class="cls-15" d="M316.25,143.18l3.87-21.93s3.25,6,5.27,6.27c0-17.94,48.37-31.71,48.37-31.71l-3.11,18,17.65-.4-9.2,10.18s4.63,1.31,9.2,7.68a37.71,37.71,0,0,1,5.42,11.9l-12.92,2.35,2.74,4.7-2.35,7.9Z"/><polygon class="cls-14" points="313.07 150.23 322.47 135.74 322.47 142.98 342.96 131.28 373.93 141.06 376.61 154.14 384.9 197.99 367.97 214.9 339.69 226.53 321.68 214.78 313.07 150.23"/><path class="cls-16" d="M386.51,184.14s-1.27-29.06-9.9-30c-3.46,14-18.34,29.25-15.11,33.7C365.73,193.68,386.51,184.14,386.51,184.14Z"/><path class="cls-17" d="M359.27,141.61l-28.19,3.92s2.08-15.87,7.5-16.9C344.44,127.52,359.27,141.61,359.27,141.61Z"/><path class="cls-16" d="M335.78,154.14l-9.49,12.64-15.69.67s-1.61,18.75.89,24.28c3.46,7.64,24.29,22.16,24.29,22.16s15.46-1.71,17.23-6.5c.81-2.21-8.75-12.78-10.24-17.66-1.28-4.2-1.11-14.72.49-17.56,1.91-3.4,8.79,1.44,12.68-1.8,7.44-6.21.66-16.71.66-16.71Z"/><path class="cls-10" d="M320,150s-32.89-2.2-32,7.26c11.07.73,37.38,0,37.38,0Z"/><path class="cls-10" d="M292.09,161.19c8.62-.59,32.41,0,32.41,0s-1.85,5-8.25,9.18C309.33,167.87,290.69,167.67,292.09,161.19Z"/><circle class="cls-14" cx="345.12" cy="145.53" r="7.24"/><path class="cls-17" d="M345.12,153.66a8.14,8.14,0,1,1,8.14-8.13A8.15,8.15,0,0,1,345.12,153.66Zm0-14.48a6.35,6.35,0,1,0,6.35,6.35A6.36,6.36,0,0,0,345.12,139.18Z"/><circle class="cls-17" cx="341.37" cy="144.36" r="2.89"/><polygon class="cls-18" points="334.84 417.53 272.63 369.24 267.27 373.62 336.84 427.84 334.84 417.53"/><path class="cls-19" d="M309.36,390.78s-11.85-5.82-15-4.47c-22,9.43-45.59,84.16-45.59,84.16s1.13,7.63,6.67,10.32c5.81,2.82,18.15.2,18.15.2s39.93-30.37,44.27-44C321.51,425.54,309.36,390.78,309.36,390.78Z"/><polygon class="cls-10" points="296.52 383.7 296.52 396.98 302.15 395.03 302.21 408.49 305.54 408.49 310 395.52 319.57 397.88 319.57 387.25 296.52 383.7"/><path class="cls-20" d="M319.57,397.88c3.43,4.07,7.26,14.5,7.89,19.78.49,4.09-2.35,12.73-2.35,12.73l4.54,7.47s-1.38,15.09-5.6,21.58c-5.51,8.48-18,14.94-18,14.94l-8.45-5.18s-6.94,6.39-11.33,7.84c-3.45,1.13-15.89,7.17-16.23,3.06-.42-5,17.1-16.72,26.54-31.24,8.45-13,15.62-24.41,16.11-40.37.22-7-4.63-19.12-4.63-19.12S317.27,395.14,319.57,397.88Z"/><path class="cls-21" d="M294.37,386.31c-6.33.4-14.27,7.83-17.84,13.36-5.1,7.87-13.15,27.64-17,36.22-2.77,6.23-10.43,15.81-11.68,22.41-.57,3,.89,12.16.89,12.16s24.5-31.27,30.53-42.62C284.51,418.05,292.42,392.43,294.37,386.31Z"/><path class="cls-10" d="M302.56,424.92s-3.43,10.53-7,16.43c-3.05,5-12.34,17.93-12.34,17.93L262.11,451s11.66-14.75,14.74-20.19c2-3.58,7.27-15.17,7.27-15.17Z"/><path class="cls-21" d="M283.23,415.64l19.33,9.28s1.3-12-5.14-14.64S283.23,415.64,283.23,415.64Z"/><path class="cls-21" d="M263.92,446.62l-7,12.85s-1.44,8.46,6,11c8.54,2.91,20.34-11.19,20.34-11.19Z"/><path class="cls-22" d="M289.48,512.68s-66.43-23.09-111.13-98.43c-30.25,45.71-4.94,95.69,18.9,112.19,24.76,17.14,99.28,23.36,99.28,23.36Z"/><polygon class="cls-23" points="415.21 244.37 410.98 266.15 428.13 258.06 415.21 244.37"/></svg>