<svg id="Layer_1" data-name="Layer 1" xmlns="http://www.w3.org/2000/svg" viewBox="0 0 600 300"><defs><style>.cls-1,.cls-5,.cls-7{fill:#231f20;}.cls-2{fill:#d1d3d4;}.cls-3{fill:#808285;}.cls-4{fill:#bcbec0;}.cls-5{stroke:#231f20;}.cls-12,.cls-5,.cls-7{stroke-miterlimit:10;}.cls-6{fill:#6d6e71;}.cls-12,.cls-7{stroke:#fff;}.cls-12,.cls-8{fill:#414042;}.cls-9{fill:#939598;}.cls-10{fill:#58595b;}.cls-11{fill:#e6e7e8;}.cls-12{stroke-width:2px;}.cls-13{fill:#201d50;}.cls-14{fill:#523a66;}.cls-15{fill:#ddc7e1;}.cls-16{fill:#00a651;}.cls-17{fill:#075532;}.cls-18{fill:#4fb848;}.cls-19{fill:#d7df23;}.cls-20{fill:#c9e4bf;}.cls-21{fill:#064749;}.cls-22{fill:#ef4136;}.cls-23{fill:#292a71;}.cls-24{fill:#70c8b5;}.cls-25{fill:#00a79d;}.cls-26{fill:#360f41;}.cls-27{fill:#ee2a7b;}.cls-28{fill:#be73b0;}.cls-29{fill:#fbb040;}.cls-30{fill:#435caa;}.cls-31{fill:#f8bac6;}.cls-32{fill:#752265;}.cls-33{fill:#360c42;}.cls-34{fill:#f3f3ba;}.cls-35{fill:#095633;}</style></defs><path class="cls-1" d="M108.53,82.28s-1.43-15-9.08-15.91c1.79,8.9-2.36,20.49-5.48,25-3.87,5.62-16.25,18-16.25,18s-5.49-3.74-5.3-5.65,1-5-.53-7-5.32-3.91-5.32-3.91l8.7-10.43-11-4.68L58,92.4l6.84-4.49-5.18,8.63,4.22,7-4.1,60.85L73.15,169l.74-29.2,40,43,5,2.76,2.24,7.46,2.24-2V123.63s13.42-8.31,13.17-12.92c-.17-3.08-10.84-17.77-13.7-19.2a15.73,15.73,0,0,0-4.1-1.13,7,7,0,0,0-1.69-2.74c-1.74-1.51-4.08-.28-4.08-.28.34.36,1.29-1.9-1.07-4C111,82.45,108.53,82.28,108.53,82.28Z"/><polygon class="cls-2" points="73.67 155.29 82.81 202.28 93.97 207.87 96.98 159.47 73.67 155.29"/><polygon class="cls-3" points="118.95 168.37 112.99 144.26 106.86 146.25 109.57 135.31 92.11 127.11 71.73 131.84 71.73 156.44 85.4 166.51 88.63 180.05 93.35 183.28 89.62 184.77 93.35 187.01 91.01 205.56 107.63 207.87 111.37 189.99 118.95 168.37"/><path class="cls-1" d="M95.39,224.43c-4.24-16.06-2.51-27.64-2.51-27.64s-1.1-3.69-4.23-3.25c-4,.56-5.34,6.75-5.34,6.75L84,215.2l-1.57,12.16,1.87,10L87,243.85l-9,4.29s-7.65,4.6-7.65,6.37c0,2.22,10.6.12,10.6.12L89,252v3.34l4.25.09s1.46,1.09,2.85,4.88c1.48,4,7.26,10.63,9.46,10.29C109.81,269.93,100,241.79,95.39,224.43Z"/><path class="cls-4" d="M100.25,206.89s-1.31-4.61-4-4.61c-3.17,0-5.17,3.69-5.17,3.69l-1.62,33,4,6.41s-1.08,1.26-.94,2c.17.9,2.36,2.81,2.36,2.81a8.43,8.43,0,0,0-.37,2.75c.17.61,1.74,1.26,1.74,1.26a4.61,4.61,0,0,0,.11,1.5c.25.62,1.73.47,2.18,1.64a47.26,47.26,0,0,0,3.31,6.31l2.56-49.19Z"/><path class="cls-5" d="M105.6,270.58c1.68,0,1.76-10.83,1.38-13.28a40.26,40.26,0,0,0-2.44-7,8.25,8.25,0,0,0,.9-2.41c-.06-.8-1.9-2.38-1.9-2.38,2.27-4.81,3.21-17.24,4-21.35.83-4.48,1-18.31,1-18.31s-1.66-3.79-3.46-3.62-4.88,4.88-4.88,4.88L102.93,222s-9,18.21-9,21.21c0,2,7.32,1.62,7.32,1.62s-7,1-6.78,3c.2,1.7,6.23,1.62,6.23,1.62s-5.69.1-4.87,2.44c.52,1.52,5.15.54,5.15.54s-3.47,1.26-3.5,2.24c0,.76,1.72.79,2.11,1.67C100.94,259.33,103.36,270.58,105.6,270.58Z"/><path class="cls-3" d="M70.26,53.87,72,44.21S73.4,46.84,74.3,47c0-7.91,21.31-14,21.31-14l-1.37,7.94,7.78-.17-4,4.49a8.56,8.56,0,0,1,4,3.38,16.64,16.64,0,0,1,2.39,5.24l-5.7,1L99.92,57l-1,1.12Z"/><polygon class="cls-1" points="68.86 56.98 73 50.59 73 53.79 82.03 48.63 95.69 52.94 96.87 58.7 101.7 78.03 92.67 88.63 80.6 92.18 72.66 87 68.86 56.98"/><polygon class="cls-4" points="102.02 73.11 96.87 58.7 86.46 78.03 102.02 73.11"/><path class="cls-4" d="M89.22,53.18,76.8,54.91s.92-7,3.31-7.45C82.69,47,89.22,53.18,89.22,53.18Z"/><polygon class="cls-4" points="87.84 58.7 78.87 58.7 74.3 63.88 65.41 64.57 65.41 75.27 78.87 87 86.46 82.17 84.39 73.11 87.84 58.7"/><path class="cls-6" d="M71.93,56.88s-14.5-1-14.11,3.2c4.88.32,16.48,0,16.48,0Z"/><path class="cls-6" d="M59.62,61.81c3.8-.26,14.28,0,14.28,0a9.27,9.27,0,0,1-3.64,4C67.22,64.75,59,64.67,59.62,61.81Z"/><circle class="cls-7" cx="82.99" cy="54.91" r="3.19"/><polygon class="cls-8" points="78.46 179.9 51.04 158.62 48.68 160.55 79.34 184.44 78.46 179.9"/><path class="cls-2" d="M66.44,167.72s-4.43-2.17-5.82-1.58c-9.69,4.16-20.09,37.09-20.09,37.09s.5,3.36,2.94,4.55,8,.09,8,.09,17.6-13.39,19.51-19.4C72.58,183.43,66.44,167.72,66.44,167.72Z"/><polygon class="cls-9" points="61.57 164.99 61.57 170.84 64.05 169.98 64.08 175.92 65.54 175.92 67.51 170.2 71.73 171.24 71.73 166.55 61.57 164.99"/><path class="cls-8" d="M71.73,171.24c1.51,1.79,3.2,6.39,3.48,8.72.21,1.8-1,5.61-1,5.61l2,3.29s-.61,6.65-2.47,9.51c-2.42,3.74-7.93,6.58-7.93,6.58L62,202.67s-3.06,2.82-5,3.45c-1.52.5-7,3.17-7.15,1.35-.19-2.22,8.89-8.93,11.69-13.76,3.43-5.92,6.69-13.52,7.1-17.79.3-3.09-2-8.43-2-8.43S70.71,170,71.73,171.24Z"/><path class="cls-1" d="M60.51,166.32c-2.79.17-6.18,3.27-7.75,5.71-2.25,3.47-5.8,12.18-7.47,16-1.22,2.74-4.6,7-5.15,9.88a27,27,0,0,0,.39,5.36S51.33,189.44,54,184.44C56.28,180.13,59.65,169,60.51,166.32Z"/><path class="cls-3" d="M64.23,183.15a29.11,29.11,0,0,1-3.08,7.24c-2.43,3.78-6,8.41-6,8.41l-8.74-4.15s5.14-6.5,6.49-8.9c.89-1.58,3.21-6.68,3.21-6.68Z"/><path class="cls-1" d="M55.71,179.07l8.3,4.51s.8-5.72-2-6.88S55.71,179.07,55.71,179.07Z"/><path class="cls-1" d="M47.2,192.72l-3.1,5.66s-.63,3.73,2.65,4.85c3.76,1.28,9-4.93,9-4.93Z"/><path class="cls-3" d="M315.28,37.82s-22.49,17.23-26.8,25.39c-11.55,21.88-15.7,97.69-15.7,97.69l14.5,92,9.93-9.69L285.68,167s34.36-30,38.8-44C331,102.57,315.28,37.82,315.28,37.82Z"/><path class="cls-2" d="M258.18,218.92s-12.42-32-21.22-39.86c-10.66-9.48-46.41-9.07-56.07,1.43-10.43,11.34-5.25,46.16,5.2,57.48,8.4,9.09,52,3.89,52,3.89l-11.58-20.92s22.08,12.62,24.8,22.4c1.45,5.19-3.38,23.46-1.24,27.13,1.58,2.7,6.14-6.94,7.24-10.2s-1.85-16.39-3.44-19.39c-4.78-9-23.36-24-23.36-24Z"/><path class="cls-10" d="M252.13,180l-12.68-13.39S209.17,153,213.51,148.93c9.19,1,6.91-2.17,6.91-2.17s-33.8-23.81-24.94-29.82c8.48-.09,3.81-8.38,3.81-8.38s-13.69-20.91-6.43-24.1c5.5,5.48,7.2,1.66,7.16-.52-.11-6.48-3.92-22,2.43-25.78,3.22,7,6.21,5.79,7.51,3.32s1.7-10.3,6-12.6c2,3.54,3.36,4.45,4.61,3.66,3.77-2.39,8.92-13.08,13.24-12,1.28.32-.15,12.94,9.84,7.77.37,7,8.11,18.57,12.17,12.94,5.34,5.63,5.11,12.24,5.94,17,.58,3.29.49,7.39,6.4,4.93,4.62,14.27-1.53,23.61-1.53,23.61s-.57,7.72,8.6,9.94c6.52,1.58-12.47,27.91-12.47,27.91s-1.15,3.71,8,.08c.56,9.74-19.29,20.32-19.29,20.32l9.89,12.57Z"/><path class="cls-2" d="M315.28,39.8s1,57.29-3.28,65.46c-11.55,21.87-31.1,60.42-31.1,60.42l16.31,79.5L285.68,169s34.36-30,38.8-44C331,104.55,315.28,39.8,315.28,39.8Z"/><rect class="cls-11" x="233.64" y="91.24" width="35.76" height="29.6"/><path class="cls-1" d="M273.24,90.82s-1.33-14-8.47-14.84c1.67,8.3-2.19,19.11-5.11,23.33-3.6,5.24-15.15,16.78-15.15,16.78s-5.11-3.5-4.93-5.27.91-4.62-.51-6.53-4.95-3.65-4.95-3.65l8.11-9.73-10.3-4.37-5.85,13.71,6.38-4.19-4.83,8.06,3.94,6.48-3.83,56.74,12.51,4.33.7-27.23,37.31,40.07,4.7,2.57L285,194l2.09-1.85v-62.8s12.52-7.76,12.28-12c-.15-2.87-10.1-16.58-12.77-17.91a14.82,14.82,0,0,0-3.82-1,6.43,6.43,0,0,0-1.58-2.55c-1.62-1.42-3.8-.27-3.8-.27.31.34,1.2-1.76-1-3.73A6.73,6.73,0,0,0,273.24,90.82Z"/><polygon class="cls-2" points="240.74 158.9 249.26 202.71 259.66 207.92 262.48 162.79 240.74 158.9"/><polygon class="cls-3" points="282.96 171.09 277.4 148.61 271.68 150.47 274.21 140.27 257.93 132.62 238.93 137.02 238.93 159.97 251.67 169.35 254.69 181.98 259.09 185 255.61 186.38 259.09 188.47 256.91 205.77 272.4 207.92 275.89 191.25 282.96 171.09"/><path class="cls-1" d="M261,223.36c-4-15-2.34-25.77-2.34-25.77s-1-3.44-3.94-3c-3.69.52-5,6.29-5,6.29l.66,13.91-1.47,11.34,1.75,9.31,2.48,6.06-8.4,4s-7.14,4.29-7.14,5.94c0,2.07,9.89.11,9.89.11l7.57-2.47v3.12l4,.08s1.37,1,2.66,4.55c1.38,3.78,6.77,9.91,8.82,9.6C274.43,265.79,265.28,239.55,261,223.36Z"/><path class="cls-2" d="M265.52,207s-1.22-4.3-3.7-4.3c-3,0-4.82,3.44-4.82,3.44l-1.51,30.78,3.77,6s-1,1.18-.88,1.85c.16.84,2.2,2.62,2.2,2.62a7.84,7.84,0,0,0-.34,2.57c.16.57,1.62,1.17,1.62,1.17a4.2,4.2,0,0,0,.1,1.4c.23.57,1.62.44,2,1.53a44.66,44.66,0,0,0,3.09,5.89l2.38-45.87Z"/><path class="cls-5" d="M270.51,266.4c1.57,0,1.64-10.1,1.28-12.39a37.29,37.29,0,0,0-2.27-6.48,7.63,7.63,0,0,0,.84-2.24c-.06-.75-1.77-2.23-1.77-2.23,2.11-4.48,3-16.07,3.7-19.9.76-4.18,1-17.08,1-17.08s-1.55-3.53-3.22-3.37-4.55,4.55-4.55,4.55L268,221.09s-8.35,17-8.36,19.78c0,1.89,6.83,1.52,6.83,1.52s-6.53,1-6.32,2.78c.18,1.59,5.81,1.51,5.81,1.51s-5.31.09-4.55,2.28c.5,1.41,4.8.5,4.8.5s-3.23,1.17-3.25,2.09c0,.71,1.6.73,2,1.56C266.16,255.9,268.42,266.4,270.51,266.4Z"/><path class="cls-3" d="M237.56,64.33l1.59-9s1.34,2.45,2.17,2.57c0-7.37,19.87-13,19.87-13l-1.27,7.4,7.25-.16-3.78,4.19a8,8,0,0,1,3.78,3.15,15.65,15.65,0,0,1,2.23,4.89l-5.31,1,1.13,1.94-1,1Z"/><polygon class="cls-1" points="236.26 67.22 240.12 61.27 240.12 64.25 248.54 59.44 261.27 63.46 262.37 68.83 266.88 86.85 258.45 96.74 247.2 100.05 239.8 95.22 236.26 67.22"/><polygon class="cls-2" points="267.17 82.26 262.37 68.83 252.67 86.85 267.17 82.26"/><path class="cls-2" d="M255.24,63.69l-11.58,1.6s.85-6.52,3.08-6.94C249.15,57.89,255.24,63.69,255.24,63.69Z"/><polygon class="cls-2" points="253.95 68.83 245.59 68.83 241.32 73.66 233.04 74.3 233.04 84.28 245.59 95.22 252.67 90.72 250.74 82.26 253.95 68.83"/><path class="cls-6" d="M239.11,67.14s-13.51-.91-13.15,3c4.55.3,15.36,0,15.36,0Z"/><path class="cls-6" d="M227.64,71.73c3.54-.24,13.31,0,13.31,0a8.66,8.66,0,0,1-3.39,3.77C234.72,74.47,227.06,74.39,227.64,71.73Z"/><circle class="cls-12" cx="249.43" cy="65.29" r="2.98"/><polygon class="cls-8" points="245.2 181.84 219.64 162 217.44 163.79 246.03 186.07 245.2 181.84"/><path class="cls-11" d="M234,170.48s-4.14-2-5.43-1.47c-9,3.88-18.73,34.58-18.73,34.58s.46,3.14,2.74,4.24,7.46.09,7.46.09,16.4-12.48,18.19-18.09C239.73,185.13,234,170.48,234,170.48Z"/><polygon class="cls-3" points="229.46 167.94 229.46 173.39 231.77 172.59 231.79 178.13 233.16 178.13 235 172.79 238.93 173.76 238.93 169.4 229.46 167.94"/><path class="cls-8" d="M238.93,173.77a20.56,20.56,0,0,1,3.24,8.12c.2,1.68-1,5.24-1,5.24l1.87,3.06s-.57,6.2-2.3,8.87c-2.27,3.49-7.4,6.14-7.4,6.14l-3.47-2.13s-2.86,2.63-4.66,3.22c-1.42.47-6.53,3-6.67,1.26-.17-2.07,8.29-8.33,10.91-12.84,3.19-5.51,6.23-12.6,6.62-16.58.28-2.88-1.91-7.86-1.91-7.86A32.52,32.52,0,0,1,238.93,173.77Z"/><path class="cls-1" d="M228.47,169.18c-2.6.16-5.76,3-7.23,5.32-2.09,3.24-5.4,11.36-7,14.88-1.14,2.56-4.28,6.5-4.8,9.21a25.38,25.38,0,0,0,.37,5s10.06-12.85,12.54-17.52C224.52,182.05,227.67,171.69,228.47,169.18Z"/><path class="cls-3" d="M231.94,184.87a27.26,27.26,0,0,1-2.88,6.76c-2.26,3.52-5.59,7.83-5.59,7.83l-8.15-3.87s4.79-6.06,6.05-8.29c.83-1.47,3-6.24,3-6.24Z"/><path class="cls-1" d="M224,181.06l7.74,4.21s.74-5.33-1.91-6.41S224,181.06,224,181.06Z"/><path class="cls-1" d="M216.06,193.79l-2.89,5.28s-.59,3.48,2.47,4.52c3.51,1.2,8.35-4.6,8.35-4.6Z"/><path class="cls-11" d="M226.56,220.94s-27.29-9.49-45.67-40.45c-12.42,18.78-5.25,46.16,5.2,57.48,8.4,9.09,52,3.89,52,3.89Z"/><polygon class="cls-1" points="318.16 188.64 288.16 234.55 314.96 180.99 282.96 237.67 299.42 192.07 279.76 240.07 287.36 240.07 313.36 214.47 290.96 234.55 318.16 188.64"/><rect class="cls-13" x="375.12" y="16.8" width="194.57" height="271.52"/><ellipse class="cls-14" cx="470.72" cy="223.38" rx="80.5" ry="28.46"/><ellipse class="cls-15" cx="470.72" cy="123.17" rx="77.41" ry="80.33"/><path class="cls-16" d="M480,198.64,466.7,184.15s-27.64-3.16-25-7.45c7.7-.46-29.36-20.27-23.48-26.93,6.88-1.33-12.76-23.47-7.56-27.38,5.69,4.06-.79-16.72,3.55-21,4.16,5.79,4.41-11.39,7.4-14.07,4.75,4.09,8.37-13.25,12.11-12.74s6.53,13.28,10.3,8.14c6.64,5.84,7.4,15.79,10.9,12,6,5.6,7.08,18.61,11.35,15.55,4.05,13.84,3.62,20.17,8.3,16.83,7.11,9.73-1.19,36.82,5.92,35.57a86.21,86.21,0,0,1-4.33,22.77L487,195.18Z"/><path class="cls-17" d="M476.15,185.55s-26.89-45.07-37.89-61.05c-10.88-15.81-2.88-30.67-4.55-49.83-3-2.34-7.36,16.83-12.11,12.74-3,2.68-3.24,19.86-7.4,14.07-4.34,4.28,2.14,25.07-3.55,21-5.2,3.91,14.44,26.05,7.56,27.39-5.88,6.65,31.18,26.47,23.48,26.93-2.63,4.28,25,7.1,25,7.1L480,198.74l7-3.46Z"/><path class="cls-18" d="M531.75,47.48c-10.52.92-21.54,16.5-25.67,24.32-11.06,21-15,93.58-15,93.58s5.88,66.48,10,74.06c1.6,2.91,6.35-5.06,6.35-5.06l-4-63.16s30.45-28.77,34.7-42.17C544.31,109.5,523.14,89.82,531.75,47.48Z"/><path class="cls-19" d="M477.19,214.21s-11.9-30.69-20.32-38.18c-10.22-9.08-44.56-8.78-53.72,1.38-8.23,9.13-2.18,28.51,7.83,39.36,8,8.71,30.46,8.51,30.46,8.51l5.46-9.13s21.15,12.09,23.76,21.46c1.38,5-3.25,19.66-1.19,23.18,1.51,2.58,5.88-3.84,6.94-7s-1.77-15.7-3.3-18.57c-4.58-8.64-22.38-23-22.38-23Z"/><path class="cls-20" d="M531.75,47.62c-13.78,23.32-7.9,44.14-6.69,61.9,1.28,18.79-21.87,57.67-26.25,58.68,0,0,2.25,71.24,8.6,66.32-1.79-19-4-63.16-4-63.16s35.39-28.22,37.87-45.27C543.48,110.88,526.78,87.64,531.75,47.62Z"/><path class="cls-21" d="M530.4,172.44,500.11,218.8l27.06-54.09L494.85,222l16.62-46-19.84,48.48s2.28,2.77,7.67,0c5.17-2.66,26.26-25.85,26.26-25.85L502.94,218.8Z"/><polygon class="cls-22" points="466.7 118.23 453.11 110.1 453.92 95.07 488.2 85.01 466.7 118.23"/><path class="cls-23" d="M491.62,91.5S490,78.06,483.15,77.29c1.6,7.95-1.75,18.3-4.54,22.35-3.46,5-14.52,16.07-14.52,16.07s-4.89-3.35-4.72-5,.87-4.42-.48-6.26-4.75-3.49-4.75-3.49l7.77-9.32-9.86-4.18-5.61,13.13,6.11-4-4.63,7.71,3.77,6.22L448,164.81,460,169l.67-26.08,35.74,38.38,4.51,2.47,2,6.66,2-1.78V128.44s12-7.43,11.77-11.55c-.15-2.74-9.68-15.87-12.24-17.15a14.12,14.12,0,0,0-3.65-1,6.34,6.34,0,0,0-1.52-2.44c-1.55-1.35-3.64-.25-3.64-.25.3.32,1.15-1.7-1-3.58A6.47,6.47,0,0,0,491.62,91.5Z"/><polygon class="cls-24" points="460.48 156.72 468.64 198.69 478.61 203.68 481.3 160.45 460.48 156.72"/><polygon class="cls-25" points="500.93 168.4 495.6 146.87 490.12 148.64 492.55 138.87 476.95 131.55 458.75 135.76 458.75 157.74 470.96 166.73 473.84 178.83 478.06 181.72 474.73 183.05 478.06 185.05 475.97 201.62 490.81 203.68 494.16 187.71 500.93 168.4"/><path class="cls-26" d="M479.89,218.48c-3.8-14.35-2.25-24.69-2.25-24.69s-1-3.3-3.78-2.9c-3.53.49-4.77,6-4.77,6l.64,13.32-1.41,10.86L470,230l2.38,5.8-8.05,3.83s-6.84,4.11-6.84,5.69c0,2,9.48.11,9.48.11l7.25-2.37v3l3.79.08s1.31,1,2.55,4.35c1.32,3.63,6.49,9.5,8.45,9.2C492.76,259.11,484,234,479.89,218.48Z"/><path class="cls-27" d="M484.22,202.81s-1.17-4.13-3.54-4.13c-2.84,0-4.62,3.31-4.62,3.31l-1.45,29.48,3.61,5.72s-1,1.13-.84,1.77c.15.81,2.11,2.51,2.11,2.51a7.54,7.54,0,0,0-.33,2.46c.15.55,1.55,1.12,1.55,1.12a4.2,4.2,0,0,0,.1,1.35c.22.54,1.55.41,1.94,1.46a42.45,42.45,0,0,0,3,5.64L488,209.56Z"/><path class="cls-26" d="M489,259.7c1.5,0,1.57-9.68,1.23-11.87a36,36,0,0,0-2.18-6.21,7.17,7.17,0,0,0,.8-2.14c-.05-.72-1.69-2.14-1.69-2.14,2-4.29,2.87-15.39,3.54-19.06.74-4,.93-16.36.93-16.36s-1.49-3.38-3.09-3.23-4.36,4.36-4.36,4.36l2.43,13.25s-8,16.27-8,18.95c0,1.8,6.54,1.45,6.54,1.45s-6.26.91-6,2.66c.17,1.52,5.56,1.45,5.56,1.45s-5.08.09-4.35,2.18c.47,1.36,4.6.49,4.6.49s-3.1,1.12-3.12,2c0,.68,1.53.71,1.88,1.5C484.83,249.64,487,259.7,489,259.7Z"/><path class="cls-27" d="M457.44,70.7,459,62.07s1.28,2.35,2.08,2.46c0-7.06,19-12.48,19-12.48l-1.23,7.09L485.8,59l-3.62,4a7.63,7.63,0,0,1,3.62,3,14.9,14.9,0,0,1,2.14,4.69l-5.09.92,1.08,1.85L483,76.58Z"/><polygon class="cls-26" points="456.19 73.47 459.89 67.77 459.89 70.62 467.95 66.01 480.15 69.86 481.2 75.01 484.46 92.28 477.8 98.93 466.67 103.51 459.58 98.88 456.19 73.47"/><path class="cls-28" d="M485.1,86.82s-.5-11.44-3.9-11.81c-1.36,5.51-7.22,11.52-5.95,13.27C476.92,90.58,485.1,86.82,485.1,86.82Z"/><path class="cls-29" d="M474.37,70.08l-11.09,1.54s.82-6.24,3-6.65C468.54,64.53,474.37,70.08,474.37,70.08Z"/><path class="cls-28" d="M465.13,75l-3.74,5-6.18.26s-.63,7.38.36,9.56c1.36,3,9.56,8.72,9.56,8.72s6.08-.67,6.78-2.56c.32-.87-3.44-5-4-7-.51-1.65-.44-5.79.19-6.91.76-1.34,3.46.57,5-.71,2.93-2.44.26-6.57.26-6.57Z"/><path class="cls-22" d="M458.93,73.39s-12.95-.87-12.61,2.86c4.36.28,14.72,0,14.72,0Z"/><path class="cls-22" d="M447.93,77.79c3.39-.24,12.76,0,12.76,0a8.32,8.32,0,0,1-3.25,3.61C454.72,80.42,447.38,80.34,447.93,77.79Z"/><circle class="cls-26" cx="468.8" cy="71.62" r="2.85"/><path class="cls-29" d="M468.8,74.83A3.21,3.21,0,1,1,472,71.62,3.21,3.21,0,0,1,468.8,74.83Zm0-5.71a2.5,2.5,0,1,0,2.5,2.5A2.51,2.51,0,0,0,468.8,69.12Z"/><polygon class="cls-30" points="464.76 178.7 440.27 159.69 438.16 161.41 465.55 182.75 464.76 178.7"/><path class="cls-31" d="M454.73,168.17s-4.67-2.29-5.9-1.76c-8.66,3.71-17.95,33.13-17.95,33.13s.45,3,2.62,4.06,7.15.08,7.15.08,15.72-12,17.43-17.33C459.51,181.85,454.73,168.17,454.73,168.17Z"/><polygon class="cls-22" points="449.68 165.38 449.68 170.61 451.89 169.84 451.91 175.14 453.22 175.14 454.98 170.03 458.75 170.96 458.75 166.78 449.68 165.38"/><path class="cls-32" d="M458.75,171a19.67,19.67,0,0,1,3.1,7.79c.19,1.61-.92,5-.92,5l1.78,2.94s-.54,5.94-2.2,8.49c-2.17,3.34-7.09,5.89-7.09,5.89l-3.33-2s-2.73,2.51-4.46,3.08c-1.35.45-6.25,2.83-6.39,1.21-.16-2,6.74-6.58,10.45-12.3,3.33-5.12,6.15-9.61,6.34-15.89.09-2.77-1.82-7.53-1.82-7.53A31.27,31.27,0,0,1,458.75,171Z"/><path class="cls-33" d="M448.83,166.41c-2.5.16-5.62,3.08-7,5.25-2,3.11-5.17,10.89-6.67,14.26-1.09,2.46-4.11,6.23-4.6,8.83a23.6,23.6,0,0,0,.35,4.78s9.64-12.31,12-16.78C444.94,178.9,448.06,168.82,448.83,166.41Z"/><path class="cls-22" d="M452.05,181.6a39.79,39.79,0,0,1-2.75,6.47c-1.2,2-4.86,7.06-4.86,7.06l-8.31-3.26s4.59-5.8,5.8-7.94c.8-1.41,2.86-6,2.86-6Z"/><path class="cls-33" d="M444.44,178l7.61,3.65s.51-4.73-2-5.76S444.44,178,444.44,178Z"/><path class="cls-33" d="M436.84,190.15l-2.77,5s-.57,3.33,2.37,4.34c3.36,1.14,8-4.41,8-4.41Z"/><path class="cls-34" d="M446.9,216.15s-26.15-9.09-43.75-38.74c-11.9,18-1.94,37.66,7.45,44.16,9.74,6.75,39.07,9.19,39.07,9.19Z"/><polygon class="cls-35" points="496.4 110.53 494.73 119.11 501.48 115.92 496.4 110.53"/></svg>