<svg width="728" height="728" viewBox="0 0 728 728" fill="none" xmlns="http://www.w3.org/2000/svg">
<rect width="728" height="728" fill="#45554C"/>
<rect x="230" y="229" width="186" height="178" fill="#C4C4C4"/>
<path d="M230 500V473L447 454V509L230 500Z" fill="#81950B"/>
<path d="M502 217C496.5 212.6 426 203 426 203L430 477L447 465V509L516 465V257C516 257 507.5 221.4 502 217Z" fill="#AFB491"/>
<path d="M213 208C203 223 204.667 463 213 468C221.333 473 269.58 476.449 321.5 478.136C375.047 479.875 428.874 480.689 432 476C438 467 434.638 412.961 434.806 350C434.987 281.672 438 211.5 428 203C419.61 200.532 370.668 201.892 321.5 202.777C271.041 203.685 220.344 204.201 213 208Z" fill="#C6CAAC"/>
<path d="M208 419L441 426V438L208 431V419Z" fill="#AFB491"/>
<path d="M234 228L246 244H404L411 228H234Z" fill="#81950B"/>
<path d="M230.049 399.015L232.827 230.493C232.877 227.476 236.847 226.412 238.399 228.999L246.064 241.774C246.349 242.249 246.497 242.793 246.492 243.347L245.03 389.97C245.014 391.639 246.361 393 248.03 393H405.877C406.89 393 407.834 393.511 408.388 394.358L412.885 401.237C414.206 403.256 412.723 405.93 410.31 405.878L232.984 402.064C231.334 402.029 230.022 400.666 230.049 399.015Z" fill="#EFFE90"/>
<path d="M403.207 242.075L409.703 228.775C410.633 226.87 413.5 227.532 413.5 229.653V401.073C413.5 403.116 410.797 403.844 409.77 402.077L404.765 393.456C404.591 393.157 404.498 392.818 404.495 392.472L403.005 242.973C403.002 242.662 403.071 242.355 403.207 242.075Z" fill="#5B670F"/>
<path d="M245 246C245 243.791 246.791 242 249 242H401C403.209 242 405 243.791 405 246V393.924C405 396.163 403.163 397.966 400.925 397.924L248.925 395.074C246.745 395.033 245 393.254 245 391.074V246Z" fill="#540909"/>
<path d="M285.92 280.24C286.045 280.741 286.108 281.368 286.108 282.12C286.108 282.841 286.045 283.467 285.92 284H282.16C282.035 283.467 281.972 282.841 281.972 282.12C281.972 281.368 282.035 280.741 282.16 280.24H280.75C280.625 279.707 280.562 279.081 280.562 278.36C280.562 277.608 280.625 276.981 280.75 276.48H279.34C279.215 275.947 279.152 275.321 279.152 274.6C279.152 273.848 279.215 273.221 279.34 272.72H274.64C274.765 273.221 274.828 273.848 274.828 274.6C274.828 275.321 274.765 275.947 274.64 276.48C274.765 276.981 274.828 277.608 274.828 278.36C274.828 279.081 274.765 279.707 274.64 280.24C274.765 280.741 274.828 281.368 274.828 282.12C274.828 282.841 274.765 283.467 274.64 284H270.88C270.755 283.467 270.692 282.841 270.692 282.12C270.692 281.368 270.755 280.741 270.88 280.24C270.755 279.707 270.692 279.081 270.692 278.36C270.692 277.608 270.755 276.981 270.88 276.48C270.755 275.947 270.692 275.321 270.692 274.6C270.692 273.848 270.755 273.221 270.88 272.72C270.755 272.187 270.692 271.561 270.692 270.84C270.692 270.088 270.755 269.461 270.88 268.96C270.755 268.427 270.692 267.801 270.692 267.08C270.692 266.328 270.755 265.701 270.88 265.2C270.755 264.667 270.692 264.041 270.692 263.32C270.692 262.568 270.755 261.941 270.88 261.44C270.755 260.907 270.692 260.281 270.692 259.56C270.692 258.808 270.755 258.181 270.88 257.68H284.04C284.165 258.181 284.228 258.808 284.228 259.56C284.228 260.281 284.165 260.907 284.04 261.44H285.92C286.045 261.941 286.108 262.568 286.108 263.32C286.108 264.041 286.045 264.667 285.92 265.2H284.98C285.105 265.701 285.168 266.328 285.168 267.08C285.168 267.801 285.105 268.427 284.98 268.96H282.16C282.285 269.461 282.348 270.088 282.348 270.84C282.348 271.561 282.285 272.187 282.16 272.72H283.1C283.225 273.221 283.288 273.848 283.288 274.6C283.288 275.321 283.225 275.947 283.1 276.48H284.51C284.635 276.981 284.698 277.608 284.698 278.36C284.698 279.081 284.635 279.707 284.51 280.24H285.92ZM281.22 268.96C281.095 268.427 281.032 267.801 281.032 267.08C281.032 266.328 281.095 265.701 281.22 265.2C281.095 264.667 281.032 264.041 281.032 263.32C281.032 262.568 281.095 261.941 281.22 261.44H274.64C274.765 261.941 274.828 262.568 274.828 263.32C274.828 264.041 274.765 264.667 274.64 265.2C274.765 265.701 274.828 266.328 274.828 267.08C274.828 267.801 274.765 268.427 274.64 268.96H281.22ZM303.328 280.24C303.454 280.741 303.516 281.368 303.516 282.12C303.516 282.841 303.454 283.467 303.328 284H293.928C293.803 283.467 293.74 282.841 293.74 282.12C293.74 281.368 293.803 280.741 293.928 280.24H296.748C296.623 279.707 296.56 279.081 296.56 278.36C296.56 277.608 296.623 276.981 296.748 276.48C296.623 275.947 296.56 275.321 296.56 274.6C296.56 273.848 296.623 273.221 296.748 272.72C296.623 272.187 296.56 271.561 296.56 270.84C296.56 270.088 296.623 269.461 296.748 268.96C296.623 268.427 296.56 267.801 296.56 267.08C296.56 266.328 296.623 265.701 296.748 265.2C296.623 264.667 296.56 264.041 296.56 263.32C296.56 262.568 296.623 261.941 296.748 261.44H293.928C293.803 260.907 293.74 260.281 293.74 259.56C293.74 258.808 293.803 258.181 293.928 257.68H303.328C303.454 258.181 303.516 258.808 303.516 259.56C303.516 260.281 303.454 260.907 303.328 261.44H300.508C300.634 261.941 300.696 262.568 300.696 263.32C300.696 264.041 300.634 264.667 300.508 265.2C300.634 265.701 300.696 266.328 300.696 267.08C300.696 267.801 300.634 268.427 300.508 268.96C300.634 269.461 300.696 270.088 300.696 270.84C300.696 271.561 300.634 272.187 300.508 272.72C300.634 273.221 300.696 273.848 300.696 274.6C300.696 275.321 300.634 275.947 300.508 276.48C300.634 276.981 300.696 277.608 300.696 278.36C300.696 279.081 300.634 279.707 300.508 280.24H303.328ZM326.377 268.96C326.502 269.461 326.565 270.088 326.565 270.84C326.565 271.561 326.502 272.187 326.377 272.72C326.502 273.221 326.565 273.848 326.565 274.6C326.565 275.321 326.502 275.947 326.377 276.48H324.967C325.092 276.981 325.155 277.608 325.155 278.36C325.155 279.081 325.092 279.707 324.967 280.24H322.617C322.742 280.741 322.805 281.368 322.805 282.12C322.805 282.841 322.742 283.467 322.617 284H315.097C314.971 283.467 314.909 282.841 314.909 282.12C314.909 281.368 314.971 280.741 315.097 280.24H312.747C312.621 279.707 312.559 279.081 312.559 278.36C312.559 277.608 312.621 276.981 312.747 276.48H311.337C311.211 275.947 311.149 275.321 311.149 274.6C311.149 273.848 311.211 273.221 311.337 272.72C311.211 272.187 311.149 271.561 311.149 270.84C311.149 270.088 311.211 269.461 311.337 268.96C311.211 268.427 311.149 267.801 311.149 267.08C311.149 266.328 311.211 265.701 311.337 265.2H312.747C312.621 264.667 312.559 264.041 312.559 263.32C312.559 262.568 312.621 261.941 312.747 261.44H315.097C314.971 260.907 314.909 260.281 314.909 259.56C314.909 258.808 314.971 258.181 315.097 257.68H322.617C322.742 258.181 322.805 258.808 322.805 259.56C322.805 260.281 322.742 260.907 322.617 261.44H324.967C325.092 261.941 325.155 262.568 325.155 263.32C325.155 264.041 325.092 264.667 324.967 265.2H326.377C326.502 265.701 326.565 266.328 326.565 267.08C326.565 267.801 326.502 268.427 326.377 268.96ZM322.617 276.48C322.491 275.947 322.429 275.321 322.429 274.6C322.429 273.848 322.491 273.221 322.617 272.72C322.491 272.187 322.429 271.561 322.429 270.84C322.429 270.088 322.491 269.461 322.617 268.96C322.491 268.427 322.429 267.801 322.429 267.08C322.429 266.328 322.491 265.701 322.617 265.2H321.207C321.081 264.667 321.019 264.041 321.019 263.32C321.019 262.568 321.081 261.941 321.207 261.44H316.507C316.632 261.941 316.695 262.568 316.695 263.32C316.695 264.041 316.632 264.667 316.507 265.2H315.097C315.222 265.701 315.285 266.328 315.285 267.08C315.285 267.801 315.222 268.427 315.097 268.96C315.222 269.461 315.285 270.088 315.285 270.84C315.285 271.561 315.222 272.187 315.097 272.72C315.222 273.221 315.285 273.848 315.285 274.6C315.285 275.321 315.222 275.947 315.097 276.48H316.507C316.632 276.981 316.695 277.608 316.695 278.36C316.695 279.081 316.632 279.707 316.507 280.24H321.207C321.081 279.707 321.019 279.081 321.019 278.36C321.019 277.608 321.081 276.981 321.207 276.48H322.617ZM346.793 259.56C346.793 260.281 346.73 260.907 346.605 261.44H340.965C341.09 261.941 341.153 262.568 341.153 263.32C341.153 264.041 341.09 264.667 340.965 265.2C341.09 265.701 341.153 266.328 341.153 267.08C341.153 267.801 341.09 268.427 340.965 268.96C341.09 269.461 341.153 270.088 341.153 270.84C341.153 271.561 341.09 272.187 340.965 272.72C341.09 273.221 341.153 273.848 341.153 274.6C341.153 275.321 341.09 275.947 340.965 276.48C341.09 276.981 341.153 277.608 341.153 278.36C341.153 279.081 341.09 279.707 340.965 280.24C341.09 280.741 341.153 281.368 341.153 282.12C341.153 282.841 341.09 283.467 340.965 284H337.205C337.08 283.467 337.017 282.841 337.017 282.12C337.017 281.368 337.08 280.741 337.205 280.24C337.08 279.707 337.017 279.081 337.017 278.36C337.017 277.608 337.08 276.981 337.205 276.48C337.08 275.947 337.017 275.321 337.017 274.6C337.017 273.848 337.08 273.221 337.205 272.72C337.08 272.187 337.017 271.561 337.017 270.84C337.017 270.088 337.08 269.461 337.205 268.96C337.08 268.427 337.017 267.801 337.017 267.08C337.017 266.328 337.08 265.701 337.205 265.2C337.08 264.667 337.017 264.041 337.017 263.32C337.017 262.568 337.08 261.941 337.205 261.44H331.565C331.44 260.907 331.377 260.281 331.377 259.56C331.377 258.808 331.44 258.181 331.565 257.68H346.605C346.73 258.181 346.793 258.808 346.793 259.56ZM285.92 327.24C286.045 327.741 286.108 328.368 286.108 329.12C286.108 329.841 286.045 330.467 285.92 331H282.16C282.035 330.467 281.972 329.841 281.972 329.12C281.972 328.368 282.035 327.741 282.16 327.24H280.75C280.625 326.707 280.562 326.081 280.562 325.36C280.562 324.608 280.625 323.981 280.75 323.48H279.34C279.215 322.947 279.152 322.321 279.152 321.6C279.152 320.848 279.215 320.221 279.34 319.72H274.64C274.765 320.221 274.828 320.848 274.828 321.6C274.828 322.321 274.765 322.947 274.64 323.48C274.765 323.981 274.828 324.608 274.828 325.36C274.828 326.081 274.765 326.707 274.64 327.24C274.765 327.741 274.828 328.368 274.828 329.12C274.828 329.841 274.765 330.467 274.64 331H270.88C270.755 330.467 270.692 329.841 270.692 329.12C270.692 328.368 270.755 327.741 270.88 327.24C270.755 326.707 270.692 326.081 270.692 325.36C270.692 324.608 270.755 323.981 270.88 323.48C270.755 322.947 270.692 322.321 270.692 321.6C270.692 320.848 270.755 320.221 270.88 319.72C270.755 319.187 270.692 318.561 270.692 317.84C270.692 317.088 270.755 316.461 270.88 315.96C270.755 315.427 270.692 314.801 270.692 314.08C270.692 313.328 270.755 312.701 270.88 312.2C270.755 311.667 270.692 311.041 270.692 310.32C270.692 309.568 270.755 308.941 270.88 308.44C270.755 307.907 270.692 307.281 270.692 306.56C270.692 305.808 270.755 305.181 270.88 304.68H284.04C284.165 305.181 284.228 305.808 284.228 306.56C284.228 307.281 284.165 307.907 284.04 308.44H285.92C286.045 308.941 286.108 309.568 286.108 310.32C286.108 311.041 286.045 311.667 285.92 312.2H284.98C285.105 312.701 285.168 313.328 285.168 314.08C285.168 314.801 285.105 315.427 284.98 315.96H282.16C282.285 316.461 282.348 317.088 282.348 317.84C282.348 318.561 282.285 319.187 282.16 319.72H283.1C283.225 320.221 283.288 320.848 283.288 321.6C283.288 322.321 283.225 322.947 283.1 323.48H284.51C284.635 323.981 284.698 324.608 284.698 325.36C284.698 326.081 284.635 326.707 284.51 327.24H285.92ZM281.22 315.96C281.095 315.427 281.032 314.801 281.032 314.08C281.032 313.328 281.095 312.701 281.22 312.2C281.095 311.667 281.032 311.041 281.032 310.32C281.032 309.568 281.095 308.941 281.22 308.44H274.64C274.765 308.941 274.828 309.568 274.828 310.32C274.828 311.041 274.765 311.667 274.64 312.2C274.765 312.701 274.828 313.328 274.828 314.08C274.828 314.801 274.765 315.427 274.64 315.96H281.22ZM303.328 327.24C303.454 327.741 303.516 328.368 303.516 329.12C303.516 329.841 303.454 330.467 303.328 331H293.928C293.803 330.467 293.74 329.841 293.74 329.12C293.74 328.368 293.803 327.741 293.928 327.24H296.748C296.623 326.707 296.56 326.081 296.56 325.36C296.56 324.608 296.623 323.981 296.748 323.48C296.623 322.947 296.56 322.321 296.56 321.6C296.56 320.848 296.623 320.221 296.748 319.72C296.623 319.187 296.56 318.561 296.56 317.84C296.56 317.088 296.623 316.461 296.748 315.96C296.623 315.427 296.56 314.801 296.56 314.08C296.56 313.328 296.623 312.701 296.748 312.2C296.623 311.667 296.56 311.041 296.56 310.32C296.56 309.568 296.623 308.941 296.748 308.44H293.928C293.803 307.907 293.74 307.281 293.74 306.56C293.74 305.808 293.803 305.181 293.928 304.68H303.328C303.454 305.181 303.516 305.808 303.516 306.56C303.516 307.281 303.454 307.907 303.328 308.44H300.508C300.634 308.941 300.696 309.568 300.696 310.32C300.696 311.041 300.634 311.667 300.508 312.2C300.634 312.701 300.696 313.328 300.696 314.08C300.696 314.801 300.634 315.427 300.508 315.96C300.634 316.461 300.696 317.088 300.696 317.84C300.696 318.561 300.634 319.187 300.508 319.72C300.634 320.221 300.696 320.848 300.696 321.6C300.696 322.321 300.634 322.947 300.508 323.48C300.634 323.981 300.696 324.608 300.696 325.36C300.696 326.081 300.634 326.707 300.508 327.24H303.328ZM326.377 315.96C326.502 316.461 326.565 317.088 326.565 317.84C326.565 318.561 326.502 319.187 326.377 319.72C326.502 320.221 326.565 320.848 326.565 321.6C326.565 322.321 326.502 322.947 326.377 323.48H324.967C325.092 323.981 325.155 324.608 325.155 325.36C325.155 326.081 325.092 326.707 324.967 327.24H322.617C322.742 327.741 322.805 328.368 322.805 329.12C322.805 329.841 322.742 330.467 322.617 331H315.097C314.971 330.467 314.909 329.841 314.909 329.12C314.909 328.368 314.971 327.741 315.097 327.24H312.747C312.621 326.707 312.559 326.081 312.559 325.36C312.559 324.608 312.621 323.981 312.747 323.48H311.337C311.211 322.947 311.149 322.321 311.149 321.6C311.149 320.848 311.211 320.221 311.337 319.72C311.211 319.187 311.149 318.561 311.149 317.84C311.149 317.088 311.211 316.461 311.337 315.96C311.211 315.427 311.149 314.801 311.149 314.08C311.149 313.328 311.211 312.701 311.337 312.2H312.747C312.621 311.667 312.559 311.041 312.559 310.32C312.559 309.568 312.621 308.941 312.747 308.44H315.097C314.971 307.907 314.909 307.281 314.909 306.56C314.909 305.808 314.971 305.181 315.097 304.68H322.617C322.742 305.181 322.805 305.808 322.805 306.56C322.805 307.281 322.742 307.907 322.617 308.44H324.967C325.092 308.941 325.155 309.568 325.155 310.32C325.155 311.041 325.092 311.667 324.967 312.2H326.377C326.502 312.701 326.565 313.328 326.565 314.08C326.565 314.801 326.502 315.427 326.377 315.96ZM322.617 323.48C322.491 322.947 322.429 322.321 322.429 321.6C322.429 320.848 322.491 320.221 322.617 319.72C322.491 319.187 322.429 318.561 322.429 317.84C322.429 317.088 322.491 316.461 322.617 315.96C322.491 315.427 322.429 314.801 322.429 314.08C322.429 313.328 322.491 312.701 322.617 312.2H321.207C321.081 311.667 321.019 311.041 321.019 310.32C321.019 309.568 321.081 308.941 321.207 308.44H316.507C316.632 308.941 316.695 309.568 316.695 310.32C316.695 311.041 316.632 311.667 316.507 312.2H315.097C315.222 312.701 315.285 313.328 315.285 314.08C315.285 314.801 315.222 315.427 315.097 315.96C315.222 316.461 315.285 317.088 315.285 317.84C315.285 318.561 315.222 319.187 315.097 319.72C315.222 320.221 315.285 320.848 315.285 321.6C315.285 322.321 315.222 322.947 315.097 323.48H316.507C316.632 323.981 316.695 324.608 316.695 325.36C316.695 326.081 316.632 326.707 316.507 327.24H321.207C321.081 326.707 321.019 326.081 321.019 325.36C321.019 324.608 321.081 323.981 321.207 323.48H322.617ZM346.793 306.56C346.793 307.281 346.73 307.907 346.605 308.44H340.965C341.09 308.941 341.153 309.568 341.153 310.32C341.153 311.041 341.09 311.667 340.965 312.2C341.09 312.701 341.153 313.328 341.153 314.08C341.153 314.801 341.09 315.427 340.965 315.96C341.09 316.461 341.153 317.088 341.153 317.84C341.153 318.561 341.09 319.187 340.965 319.72C341.09 320.221 341.153 320.848 341.153 321.6C341.153 322.321 341.09 322.947 340.965 323.48C341.09 323.981 341.153 324.608 341.153 325.36C341.153 326.081 341.09 326.707 340.965 327.24C341.09 327.741 341.153 328.368 341.153 329.12C341.153 329.841 341.09 330.467 340.965 331H337.205C337.08 330.467 337.017 329.841 337.017 329.12C337.017 328.368 337.08 327.741 337.205 327.24C337.08 326.707 337.017 326.081 337.017 325.36C337.017 324.608 337.08 323.981 337.205 323.48C337.08 322.947 337.017 322.321 337.017 321.6C337.017 320.848 337.08 320.221 337.205 319.72C337.08 319.187 337.017 318.561 337.017 317.84C337.017 317.088 337.08 316.461 337.205 315.96C337.08 315.427 337.017 314.801 337.017 314.08C337.017 313.328 337.08 312.701 337.205 312.2C337.08 311.667 337.017 311.041 337.017 310.32C337.017 309.568 337.08 308.941 337.205 308.44H331.565C331.44 307.907 331.377 307.281 331.377 306.56C331.377 305.808 331.44 305.181 331.565 304.68H346.605C346.73 305.181 346.793 305.808 346.793 306.56ZM285.92 374.24C286.045 374.741 286.108 375.368 286.108 376.12C286.108 376.841 286.045 377.467 285.92 378H282.16C282.035 377.467 281.972 376.841 281.972 376.12C281.972 375.368 282.035 374.741 282.16 374.24H280.75C280.625 373.707 280.562 373.081 280.562 372.36C280.562 371.608 280.625 370.981 280.75 370.48H279.34C279.215 369.947 279.152 369.321 279.152 368.6C279.152 367.848 279.215 367.221 279.34 366.72H274.64C274.765 367.221 274.828 367.848 274.828 368.6C274.828 369.321 274.765 369.947 274.64 370.48C274.765 370.981 274.828 371.608 274.828 372.36C274.828 373.081 274.765 373.707 274.64 374.24C274.765 374.741 274.828 375.368 274.828 376.12C274.828 376.841 274.765 377.467 274.64 378H270.88C270.755 377.467 270.692 376.841 270.692 376.12C270.692 375.368 270.755 374.741 270.88 374.24C270.755 373.707 270.692 373.081 270.692 372.36C270.692 371.608 270.755 370.981 270.88 370.48C270.755 369.947 270.692 369.321 270.692 368.6C270.692 367.848 270.755 367.221 270.88 366.72C270.755 366.187 270.692 365.561 270.692 364.84C270.692 364.088 270.755 363.461 270.88 362.96C270.755 362.427 270.692 361.801 270.692 361.08C270.692 360.328 270.755 359.701 270.88 359.2C270.755 358.667 270.692 358.041 270.692 357.32C270.692 356.568 270.755 355.941 270.88 355.44C270.755 354.907 270.692 354.281 270.692 353.56C270.692 352.808 270.755 352.181 270.88 351.68H284.04C284.165 352.181 284.228 352.808 284.228 353.56C284.228 354.281 284.165 354.907 284.04 355.44H285.92C286.045 355.941 286.108 356.568 286.108 357.32C286.108 358.041 286.045 358.667 285.92 359.2H284.98C285.105 359.701 285.168 360.328 285.168 361.08C285.168 361.801 285.105 362.427 284.98 362.96H282.16C282.285 363.461 282.348 364.088 282.348 364.84C282.348 365.561 282.285 366.187 282.16 366.72H283.1C283.225 367.221 283.288 367.848 283.288 368.6C283.288 369.321 283.225 369.947 283.1 370.48H284.51C284.635 370.981 284.698 371.608 284.698 372.36C284.698 373.081 284.635 373.707 284.51 374.24H285.92ZM281.22 362.96C281.095 362.427 281.032 361.801 281.032 361.08C281.032 360.328 281.095 359.701 281.22 359.2C281.095 358.667 281.032 358.041 281.032 357.32C281.032 356.568 281.095 355.941 281.22 355.44H274.64C274.765 355.941 274.828 356.568 274.828 357.32C274.828 358.041 274.765 358.667 274.64 359.2C274.765 359.701 274.828 360.328 274.828 361.08C274.828 361.801 274.765 362.427 274.64 362.96H281.22ZM303.328 374.24C303.454 374.741 303.516 375.368 303.516 376.12C303.516 376.841 303.454 377.467 303.328 378H293.928C293.803 377.467 293.74 376.841 293.74 376.12C293.74 375.368 293.803 374.741 293.928 374.24H296.748C296.623 373.707 296.56 373.081 296.56 372.36C296.56 371.608 296.623 370.981 296.748 370.48C296.623 369.947 296.56 369.321 296.56 368.6C296.56 367.848 296.623 367.221 296.748 366.72C296.623 366.187 296.56 365.561 296.56 364.84C296.56 364.088 296.623 363.461 296.748 362.96C296.623 362.427 296.56 361.801 296.56 361.08C296.56 360.328 296.623 359.701 296.748 359.2C296.623 358.667 296.56 358.041 296.56 357.32C296.56 356.568 296.623 355.941 296.748 355.44H293.928C293.803 354.907 293.74 354.281 293.74 353.56C293.74 352.808 293.803 352.181 293.928 351.68H303.328C303.454 352.181 303.516 352.808 303.516 353.56C303.516 354.281 303.454 354.907 303.328 355.44H300.508C300.634 355.941 300.696 356.568 300.696 357.32C300.696 358.041 300.634 358.667 300.508 359.2C300.634 359.701 300.696 360.328 300.696 361.08C300.696 361.801 300.634 362.427 300.508 362.96C300.634 363.461 300.696 364.088 300.696 364.84C300.696 365.561 300.634 366.187 300.508 366.72C300.634 367.221 300.696 367.848 300.696 368.6C300.696 369.321 300.634 369.947 300.508 370.48C300.634 370.981 300.696 371.608 300.696 372.36C300.696 373.081 300.634 373.707 300.508 374.24H303.328ZM326.377 362.96C326.502 363.461 326.565 364.088 326.565 364.84C326.565 365.561 326.502 366.187 326.377 366.72C326.502 367.221 326.565 367.848 326.565 368.6C326.565 369.321 326.502 369.947 326.377 370.48H324.967C325.092 370.981 325.155 371.608 325.155 372.36C325.155 373.081 325.092 373.707 324.967 374.24H322.617C322.742 374.741 322.805 375.368 322.805 376.12C322.805 376.841 322.742 377.467 322.617 378H315.097C314.971 377.467 314.909 376.841 314.909 376.12C314.909 375.368 314.971 374.741 315.097 374.24H312.747C312.621 373.707 312.559 373.081 312.559 372.36C312.559 371.608 312.621 370.981 312.747 370.48H311.337C311.211 369.947 311.149 369.321 311.149 368.6C311.149 367.848 311.211 367.221 311.337 366.72C311.211 366.187 311.149 365.561 311.149 364.84C311.149 364.088 311.211 363.461 311.337 362.96C311.211 362.427 311.149 361.801 311.149 361.08C311.149 360.328 311.211 359.701 311.337 359.2H312.747C312.621 358.667 312.559 358.041 312.559 357.32C312.559 356.568 312.621 355.941 312.747 355.44H315.097C314.971 354.907 314.909 354.281 314.909 353.56C314.909 352.808 314.971 352.181 315.097 351.68H322.617C322.742 352.181 322.805 352.808 322.805 353.56C322.805 354.281 322.742 354.907 322.617 355.44H324.967C325.092 355.941 325.155 356.568 325.155 357.32C325.155 358.041 325.092 358.667 324.967 359.2H326.377C326.502 359.701 326.565 360.328 326.565 361.08C326.565 361.801 326.502 362.427 326.377 362.96ZM322.617 370.48C322.491 369.947 322.429 369.321 322.429 368.6C322.429 367.848 322.491 367.221 322.617 366.72C322.491 366.187 322.429 365.561 322.429 364.84C322.429 364.088 322.491 363.461 322.617 362.96C322.491 362.427 322.429 361.801 322.429 361.08C322.429 360.328 322.491 359.701 322.617 359.2H321.207C321.081 358.667 321.019 358.041 321.019 357.32C321.019 356.568 321.081 355.941 321.207 355.44H316.507C316.632 355.941 316.695 356.568 316.695 357.32C316.695 358.041 316.632 358.667 316.507 359.2H315.097C315.222 359.701 315.285 360.328 315.285 361.08C315.285 361.801 315.222 362.427 315.097 362.96C315.222 363.461 315.285 364.088 315.285 364.84C315.285 365.561 315.222 366.187 315.097 366.72C315.222 367.221 315.285 367.848 315.285 368.6C315.285 369.321 315.222 369.947 315.097 370.48H316.507C316.632 370.981 316.695 371.608 316.695 372.36C316.695 373.081 316.632 373.707 316.507 374.24H321.207C321.081 373.707 321.019 373.081 321.019 372.36C321.019 371.608 321.081 370.981 321.207 370.48H322.617ZM346.793 353.56C346.793 354.281 346.73 354.907 346.605 355.44H340.965C341.09 355.941 341.153 356.568 341.153 357.32C341.153 358.041 341.09 358.667 340.965 359.2C341.09 359.701 341.153 360.328 341.153 361.08C341.153 361.801 341.09 362.427 340.965 362.96C341.09 363.461 341.153 364.088 341.153 364.84C341.153 365.561 341.09 366.187 340.965 366.72C341.09 367.221 341.153 367.848 341.153 368.6C341.153 369.321 341.09 369.947 340.965 370.48C341.09 370.981 341.153 371.608 341.153 372.36C341.153 373.081 341.09 373.707 340.965 374.24C341.09 374.741 341.153 375.368 341.153 376.12C341.153 376.841 341.09 377.467 340.965 378H337.205C337.08 377.467 337.017 376.841 337.017 376.12C337.017 375.368 337.08 374.741 337.205 374.24C337.08 373.707 337.017 373.081 337.017 372.36C337.017 371.608 337.08 370.981 337.205 370.48C337.08 369.947 337.017 369.321 337.017 368.6C337.017 367.848 337.08 367.221 337.205 366.72C337.08 366.187 337.017 365.561 337.017 364.84C337.017 364.088 337.08 363.461 337.205 362.96C337.08 362.427 337.017 361.801 337.017 361.08C337.017 360.328 337.08 359.701 337.205 359.2C337.08 358.667 337.017 358.041 337.017 357.32C337.017 356.568 337.08 355.941 337.205 355.44H331.565C331.44 354.907 331.377 354.281 331.377 353.56C331.377 352.808 331.44 352.181 331.565 351.68H346.605C346.73 352.181 346.793 352.808 346.793 353.56Z" fill="#ADFF00"/>
<path d="M516 443C546 443 531.241 464.253 546 469C557.525 472.707 568.432 460.447 577 469C588.625 480.604 558.095 489.611 557 506C556.045 520.296 568 541 568 541" stroke="#5B670F" stroke-width="4"/>
<path d="M518 580C512.294 556.711 549 527 549 527L570.5 525C570.5 525 582.024 529.94 588 534C595.5 539.095 603.47 564.673 593 585C582.363 605.65 571.383 617.21 549 611C532.234 606.348 522.141 596.899 518 580Z" fill="#AFB491"/>
<path d="M520.494 570.456C515.815 551.36 545.911 527 545.911 527C545.911 527 575 520.999 582.806 527C592.5 534.452 591.95 557.889 583.366 574.556C574.644 591.487 564.263 601.786 545.911 596.694C532.165 592.88 523.889 584.312 520.494 570.456Z" fill="#C6CAAC"/>
<path d="M184 515L176 531L447 538C447 538 449 527.5 447 522C445 516.5 184 515 184 515Z" fill="#AFB491"/>
<path d="M485 561L478 543L462 596L466 621L485 561Z" fill="#EFFE90"/>
<path d="M124.319 606C120.481 601.5 126.238 588 126.238 588L464 601V619C464 619 128.158 610.5 124.319 606Z" fill="#C6CAAC" stroke="#81950B" stroke-width="4"/>
<path d="M474.019 541.717C469.215 537.698 159.337 528.153 148.287 533.679C142.982 536.332 141.818 548.71 137.363 561.309C132.54 574.954 124.688 588.859 126.187 590.948C129.07 594.967 464.411 602 464.411 602C464.411 602 478.824 545.736 474.019 541.717Z" fill="#D2E176" stroke="#81950B" stroke-width="4"/>
<path d="M181 522C171.482 516.618 171.482 499.382 181 494C190.445 488.659 196.348 514.549 205 508C212.473 502.343 195.755 485.541 205 484C211.627 482.895 212.3 494.5 219 494C225.083 493.546 231 484 231 484" stroke="#5B670F" stroke-width="4"/>
<path d="M146.394 259.147L120.873 236.068L126.857 263.421L108.113 290.042L150.486 301.245L162.85 334.368L165.383 289.797L131.558 284.913L146.394 259.147Z" fill="#DBFF00"/>
<path d="M442 165.207L455.682 189V173.138L485 165.207L475.227 127.138L485 97L455.682 119.207L465.455 154.103L442 165.207Z" fill="#DBFF00"/>
<path d="M147 427L175 409L163 441L175 467L133 477L115 517V457H147V427Z" fill="#DBFF00"/>
<path d="M583.798 374.018L547.904 375.15L575.795 386.198L587.619 429.862L620.592 419.573L635.911 443.409L632.686 414.78L612.095 392.61L598.988 412.558L583.798 374.018Z" fill="#DBFF00"/>
<path d="M234.966 154.763L254.276 174V154.763H276L248.241 127.605L266.345 108.368L206 88L242.207 114.026L219.276 127.605L248.241 143.447L234.966 154.763Z" fill="#DBFF00"/>
<path d="M558 261.39L542 295L580.5 273.5L585.837 254.592L607.982 259.45L624 215L593.9 244.394L574.183 233.611L573.598 261.39L558 261.39Z" fill="#DBFF00"/>
<path d="M459.971 451.417L510.971 420.817C512.304 420.018 514 420.978 514 422.532V424.885C514 425.578 513.641 426.222 513.052 426.586L462.052 458.114C460.719 458.937 459 457.979 459 456.412V453.132C459 452.43 459.369 451.779 459.971 451.417Z" fill="#5B670F"/>
<path d="M459.971 465.417L510.971 434.817C512.304 434.018 514 434.978 514 436.532V438.885C514 439.578 513.641 440.222 513.052 440.586L462.052 472.114C460.719 472.937 459 471.979 459 470.412V467.132C459 466.43 459.369 465.779 459.971 465.417Z" fill="#5B670F"/>
<path d="M459.971 479.417L510.971 448.817C512.304 448.018 514 448.978 514 450.532V452.885C514 453.578 513.641 454.222 513.052 454.586L462.052 486.114C460.719 486.937 459 485.979 459 484.412V481.132C459 480.43 459.369 479.779 459.971 479.417Z" fill="#5B670F"/>
<path d="M153.747 576L374 582L373.085 599L148 591L153.747 576Z" fill="#EFFE90"/>
<path d="M162 534L158 546L168 547L163 562H174L168 575H153L148 592" stroke="#81950B" stroke-width="3"/>
<path d="M398.289 574L439 576.5L443 551L455 552L450 587L397 583.842L398.289 574Z" fill="#EFFE90"/>
<path d="M342 536.5L378.5 537.5L371.5 596H358.5L360 580.5L362 567L349 566L350 550H340.5L342 536.5Z" fill="#EFFE90"/>
<path d="M141.5 546L376.5 551" stroke="#81950B" stroke-width="3"/>
<path d="M136 561L375 568" stroke="#81950B" stroke-width="3"/>
<path d="M131 574L373 582" stroke="#81950B" stroke-width="3"/>
<path d="M379 537L372 600" stroke="#81950B" stroke-width="3"/>
<path d="M455 551L450 588L437.5 587" stroke="#81950B" stroke-width="3"/>
<path d="M442.5 551L437.5 587L425 586" stroke="#81950B" stroke-width="3"/>
<path d="M428 549L424 587" stroke="#81950B" stroke-width="3"/>
<path d="M414 550L411 575" stroke="#81950B" stroke-width="3"/>
<path d="M425 586L395 584L400 546" stroke="#81950B" stroke-width="3"/>
</svg>
